%TF.GenerationSoftware,KiCad,Pcbnew,(6.0.7)*%
%TF.CreationDate,2022-08-03T19:32:55+08:00*%
%TF.ProjectId,Egret,45677265-742e-46b6-9963-61645f706362,rev?*%
%TF.SameCoordinates,Original*%
%TF.FileFunction,Soldermask,Top*%
%TF.FilePolarity,Negative*%
%FSLAX46Y46*%
G04 Gerber Fmt 4.6, Leading zero omitted, Abs format (unit mm)*
G04 Created by KiCad (PCBNEW (6.0.7)) date 2022-08-03 19:32:55*
%MOMM*%
%LPD*%
G01*
G04 APERTURE LIST*
G04 Aperture macros list*
%AMRoundRect*
0 Rectangle with rounded corners*
0 $1 Rounding radius*
0 $2 $3 $4 $5 $6 $7 $8 $9 X,Y pos of 4 corners*
0 Add a 4 corners polygon primitive as box body*
4,1,4,$2,$3,$4,$5,$6,$7,$8,$9,$2,$3,0*
0 Add four circle primitives for the rounded corners*
1,1,$1+$1,$2,$3*
1,1,$1+$1,$4,$5*
1,1,$1+$1,$6,$7*
1,1,$1+$1,$8,$9*
0 Add four rect primitives between the rounded corners*
20,1,$1+$1,$2,$3,$4,$5,0*
20,1,$1+$1,$4,$5,$6,$7,0*
20,1,$1+$1,$6,$7,$8,$9,0*
20,1,$1+$1,$8,$9,$2,$3,0*%
%AMRotRect*
0 Rectangle, with rotation*
0 The origin of the aperture is its center*
0 $1 length*
0 $2 width*
0 $3 Rotation angle, in degrees counterclockwise*
0 Add horizontal line*
21,1,$1,$2,0,0,$3*%
G04 Aperture macros list end*
%ADD10RoundRect,0.200000X0.200000X0.275000X-0.200000X0.275000X-0.200000X-0.275000X0.200000X-0.275000X0*%
%ADD11R,2.300000X0.800000*%
%ADD12RoundRect,0.150000X-0.587500X-0.150000X0.587500X-0.150000X0.587500X0.150000X-0.587500X0.150000X0*%
%ADD13RoundRect,0.200000X-0.200000X-0.275000X0.200000X-0.275000X0.200000X0.275000X-0.200000X0.275000X0*%
%ADD14R,0.550000X0.250000*%
%ADD15RoundRect,0.218750X-0.256250X0.218750X-0.256250X-0.218750X0.256250X-0.218750X0.256250X0.218750X0*%
%ADD16RoundRect,0.200000X-0.275000X0.200000X-0.275000X-0.200000X0.275000X-0.200000X0.275000X0.200000X0*%
%ADD17RoundRect,0.200000X0.275000X-0.200000X0.275000X0.200000X-0.275000X0.200000X-0.275000X-0.200000X0*%
%ADD18RoundRect,0.225000X0.225000X0.250000X-0.225000X0.250000X-0.225000X-0.250000X0.225000X-0.250000X0*%
%ADD19R,1.070000X0.532000*%
%ADD20RoundRect,0.225000X-0.250000X0.225000X-0.250000X-0.225000X0.250000X-0.225000X0.250000X0.225000X0*%
%ADD21RotRect,0.905000X0.280000X315.000000*%
%ADD22RotRect,0.280000X0.905000X315.000000*%
%ADD23RotRect,3.350000X3.350000X315.000000*%
%ADD24R,1.500000X1.500000*%
%ADD25RoundRect,0.225000X-0.225000X-0.250000X0.225000X-0.250000X0.225000X0.250000X-0.225000X0.250000X0*%
%ADD26O,0.800000X0.280000*%
%ADD27O,0.280000X0.800000*%
%ADD28R,2.700000X2.700000*%
%ADD29RoundRect,0.218750X-0.218750X-0.256250X0.218750X-0.256250X0.218750X0.256250X-0.218750X0.256250X0*%
%ADD30RoundRect,0.225000X0.250000X-0.225000X0.250000X0.225000X-0.250000X0.225000X-0.250000X-0.225000X0*%
%ADD31R,1.500000X0.300000*%
%ADD32R,1.500000X2.000000*%
%ADD33C,0.650000*%
%ADD34O,2.100000X1.000000*%
%ADD35O,1.900000X1.000000*%
%ADD36R,1.150000X0.600000*%
%ADD37R,1.150000X0.300000*%
%ADD38R,1.500000X0.900000*%
%ADD39C,0.610000*%
%ADD40RotRect,0.280000X0.800000X135.000000*%
%ADD41RotRect,0.800000X0.280000X135.000000*%
%ADD42RotRect,5.400000X5.400000X135.000000*%
%ADD43C,1.000000*%
G04 APERTURE END LIST*
D10*
%TO.C,R14*%
X129245000Y-98440000D03*
X127595000Y-98440000D03*
%TD*%
D11*
%TO.C,U2*%
X179700000Y-89410000D03*
X179700000Y-84410000D03*
%TD*%
D12*
%TO.C,Q1*%
X145302500Y-88090000D03*
X145302500Y-89990000D03*
X147177500Y-89040000D03*
%TD*%
D13*
%TO.C,R15*%
X165970000Y-75286000D03*
X167620000Y-75286000D03*
%TD*%
D14*
%TO.C,U6*%
X168155000Y-77680000D03*
X168155000Y-77180000D03*
X168155000Y-76680000D03*
X165405000Y-76680000D03*
X165405000Y-77180000D03*
X165405000Y-77680000D03*
%TD*%
D15*
%TO.C,L1*%
X173430000Y-85752500D03*
X173430000Y-87327500D03*
%TD*%
D16*
%TO.C,R16*%
X142950000Y-88265000D03*
X142950000Y-89915000D03*
%TD*%
D13*
%TO.C,R12*%
X127595000Y-92120000D03*
X129245000Y-92120000D03*
%TD*%
D17*
%TO.C,R17*%
X142950000Y-93415000D03*
X142950000Y-91765000D03*
%TD*%
D18*
%TO.C,C6*%
X165815000Y-93940000D03*
X164265000Y-93940000D03*
%TD*%
D10*
%TO.C,R13*%
X129245000Y-96860000D03*
X127595000Y-96860000D03*
%TD*%
D19*
%TO.C,U5*%
X133815100Y-77381600D03*
X133815100Y-75481600D03*
X131545100Y-76431600D03*
%TD*%
D10*
%TO.C,R1*%
X165864800Y-95585800D03*
X164214800Y-95585800D03*
%TD*%
D16*
%TO.C,R2*%
X137050000Y-75685000D03*
X137050000Y-77335000D03*
%TD*%
D18*
%TO.C,C14*%
X167570000Y-79086000D03*
X166020000Y-79086000D03*
%TD*%
D20*
%TO.C,C15*%
X129750000Y-86210000D03*
X129750000Y-87760000D03*
%TD*%
D18*
%TO.C,C11*%
X153605000Y-77840000D03*
X152055000Y-77840000D03*
%TD*%
D10*
%TO.C,R10*%
X146105000Y-84010000D03*
X144455000Y-84010000D03*
%TD*%
%TO.C,R8*%
X146115000Y-82460000D03*
X144465000Y-82460000D03*
%TD*%
D21*
%TO.C,U7*%
X134199867Y-83818547D03*
X133846314Y-84172100D03*
X133492761Y-84525654D03*
X133139207Y-84879207D03*
X132785654Y-85232761D03*
X132432100Y-85586314D03*
X132078547Y-85939867D03*
D22*
X132078547Y-87180133D03*
X132432100Y-87533686D03*
X132785654Y-87887239D03*
X133139207Y-88240793D03*
X133492761Y-88594346D03*
X133846314Y-88947900D03*
X134199867Y-89301453D03*
D21*
X135440133Y-89301453D03*
X135793686Y-88947900D03*
X136147239Y-88594346D03*
X136500793Y-88240793D03*
X136854346Y-87887239D03*
X137207900Y-87533686D03*
X137561453Y-87180133D03*
D22*
X137561453Y-85939867D03*
X137207900Y-85586314D03*
X136854346Y-85232761D03*
X136500793Y-84879207D03*
X136147239Y-84525654D03*
X135793686Y-84172100D03*
X135440133Y-83818547D03*
D23*
X134820000Y-86560000D03*
%TD*%
D10*
%TO.C,R5*%
X129580100Y-78941600D03*
X127930100Y-78941600D03*
%TD*%
D24*
%TO.C,SW2*%
X138710000Y-97110000D03*
X146110000Y-97110000D03*
%TD*%
D25*
%TO.C,C2*%
X172905000Y-82490000D03*
X174455000Y-82490000D03*
%TD*%
%TO.C,C4*%
X167434800Y-93935800D03*
X168984800Y-93935800D03*
%TD*%
D18*
%TO.C,C3*%
X176535000Y-87310000D03*
X174985000Y-87310000D03*
%TD*%
D25*
%TO.C,C13*%
X131863100Y-79096600D03*
X133413100Y-79096600D03*
%TD*%
D18*
%TO.C,C9*%
X162705000Y-76310000D03*
X161155000Y-76310000D03*
%TD*%
D25*
%TO.C,C7*%
X152055000Y-76240000D03*
X153605000Y-76240000D03*
%TD*%
D26*
%TO.C,U4*%
X159390000Y-78330000D03*
X159390000Y-77830000D03*
X159390000Y-77330000D03*
X159390000Y-76830000D03*
X159390000Y-76330000D03*
X159390000Y-75830000D03*
D27*
X158640000Y-75080000D03*
X158140000Y-75080000D03*
X157640000Y-75080000D03*
X157140000Y-75080000D03*
X156640000Y-75080000D03*
X156140000Y-75080000D03*
D26*
X155390000Y-75830000D03*
X155390000Y-76330000D03*
X155390000Y-76830000D03*
X155390000Y-77330000D03*
X155390000Y-77830000D03*
X155390000Y-78322000D03*
D27*
X156140000Y-79080000D03*
X156640000Y-79080000D03*
X157140000Y-79080000D03*
X157640000Y-79080000D03*
X158140000Y-79080000D03*
X158640000Y-79080000D03*
D28*
X157390000Y-77068000D03*
%TD*%
D10*
%TO.C,R9*%
X146113000Y-80920000D03*
X144463000Y-80920000D03*
%TD*%
D29*
%TO.C,D1*%
X127965100Y-75666600D03*
X129540100Y-75666600D03*
%TD*%
D30*
%TO.C,C10*%
X147840000Y-97875000D03*
X147840000Y-96325000D03*
%TD*%
D25*
%TO.C,C12*%
X161152000Y-77842000D03*
X162702000Y-77842000D03*
%TD*%
D10*
%TO.C,R11*%
X146113000Y-85560000D03*
X144463000Y-85560000D03*
%TD*%
D18*
%TO.C,C8*%
X129530100Y-77331600D03*
X127980100Y-77331600D03*
%TD*%
D31*
%TO.C,U8*%
X158428500Y-85118000D03*
X158428500Y-85618000D03*
X158428500Y-86118000D03*
X158428500Y-86618000D03*
X158428500Y-87118000D03*
X158428500Y-87618000D03*
X158428500Y-88118000D03*
X158428500Y-88618000D03*
D32*
X155828500Y-90318000D03*
X155828500Y-83418000D03*
%TD*%
D12*
%TO.C,Q2*%
X145302500Y-91670000D03*
X145302500Y-93570000D03*
X147177500Y-92620000D03*
%TD*%
D10*
%TO.C,R3*%
X174505000Y-80970000D03*
X172855000Y-80970000D03*
%TD*%
D33*
%TO.C,USB1*%
X123139000Y-89758000D03*
X123139000Y-83978000D03*
D34*
X123639000Y-82543000D03*
X123639000Y-91193000D03*
D35*
X119439000Y-82543000D03*
X119439000Y-91193000D03*
D36*
X124401000Y-83668000D03*
X124401000Y-84468000D03*
D37*
X124401000Y-85618000D03*
X124401000Y-86618000D03*
X124401000Y-87118000D03*
X124401000Y-88118000D03*
D36*
X124401000Y-90068000D03*
X124401000Y-89268000D03*
D37*
X124401000Y-88618000D03*
X124401000Y-87618000D03*
X124401000Y-86118000D03*
X124401000Y-85118000D03*
%TD*%
D17*
%TO.C,R6*%
X136990000Y-97915000D03*
X136990000Y-96265000D03*
%TD*%
D38*
%TO.C,U1*%
X152800000Y-95380000D03*
X152800000Y-98680000D03*
X157700000Y-98680000D03*
X157700000Y-95380000D03*
%TD*%
D39*
%TO.C,U3*%
X166540000Y-86750000D03*
X167247107Y-86042893D03*
X167954214Y-86750000D03*
X166540000Y-88164214D03*
X165832893Y-87457107D03*
X167247107Y-87457107D03*
X166540000Y-85335786D03*
X165125786Y-86750000D03*
X165832893Y-86042893D03*
D40*
X170959417Y-86219670D03*
X170605864Y-85866117D03*
X170252311Y-85512563D03*
X169898757Y-85159010D03*
X169545204Y-84805456D03*
X169191650Y-84451903D03*
X168838097Y-84098350D03*
X168484544Y-83744796D03*
X168130990Y-83391243D03*
X167777437Y-83037689D03*
X167423883Y-82684136D03*
X167070330Y-82330583D03*
D41*
X166009670Y-82330583D03*
X165656117Y-82684136D03*
X165302563Y-83037689D03*
X164949010Y-83391243D03*
X164595456Y-83744796D03*
X164241903Y-84098350D03*
X163888350Y-84451903D03*
X163534796Y-84805456D03*
X163181243Y-85159010D03*
X162827689Y-85512563D03*
X162474136Y-85866117D03*
X162120583Y-86219670D03*
D40*
X162120583Y-87280330D03*
X162474136Y-87633883D03*
X162827689Y-87987437D03*
X163181243Y-88340990D03*
X163534796Y-88694544D03*
X163888350Y-89048097D03*
X164241903Y-89401650D03*
X164595456Y-89755204D03*
X164949010Y-90108757D03*
X165302563Y-90462311D03*
X165656117Y-90815864D03*
X166009670Y-91169417D03*
D41*
X167070330Y-91169417D03*
X167423883Y-90815864D03*
X167777437Y-90462311D03*
X168130990Y-90108757D03*
X168484544Y-89755204D03*
X168838097Y-89401650D03*
X169191650Y-89048097D03*
X169545204Y-88694544D03*
X169898757Y-88340990D03*
X170252311Y-87987437D03*
X170605864Y-87633883D03*
X170959417Y-87280330D03*
D42*
X166540000Y-86750000D03*
%TD*%
D13*
%TO.C,R7*%
X127605000Y-93690000D03*
X129255000Y-93690000D03*
%TD*%
D25*
%TO.C,C5*%
X174975000Y-85780000D03*
X176525000Y-85780000D03*
%TD*%
D10*
%TO.C,R4*%
X162725000Y-80820000D03*
X161075000Y-80820000D03*
%TD*%
D30*
%TO.C,C1*%
X147910000Y-77225000D03*
X147910000Y-75675000D03*
%TD*%
D24*
%TO.C,SW1*%
X138777700Y-76571600D03*
X146177700Y-76571600D03*
%TD*%
D43*
%TO.C,Card1*%
X139080000Y-91861000D03*
X139080000Y-83861000D03*
%TD*%
M02*
