%TF.GenerationSoftware,KiCad,Pcbnew,(6.0.7)*%
%TF.CreationDate,2022-08-03T19:32:55+08:00*%
%TF.ProjectId,Egret,45677265-742e-46b6-9963-61645f706362,rev?*%
%TF.SameCoordinates,Original*%
%TF.FileFunction,Legend,Bot*%
%TF.FilePolarity,Positive*%
%FSLAX46Y46*%
G04 Gerber Fmt 4.6, Leading zero omitted, Abs format (unit mm)*
G04 Created by KiCad (PCBNEW (6.0.7)) date 2022-08-03 19:32:55*
%MOMM*%
%LPD*%
G01*
G04 APERTURE LIST*
G04 Aperture macros list*
%AMRoundRect*
0 Rectangle with rounded corners*
0 $1 Rounding radius*
0 $2 $3 $4 $5 $6 $7 $8 $9 X,Y pos of 4 corners*
0 Add a 4 corners polygon primitive as box body*
4,1,4,$2,$3,$4,$5,$6,$7,$8,$9,$2,$3,0*
0 Add four circle primitives for the rounded corners*
1,1,$1+$1,$2,$3*
1,1,$1+$1,$4,$5*
1,1,$1+$1,$6,$7*
1,1,$1+$1,$8,$9*
0 Add four rect primitives between the rounded corners*
20,1,$1+$1,$2,$3,$4,$5,0*
20,1,$1+$1,$4,$5,$6,$7,0*
20,1,$1+$1,$6,$7,$8,$9,0*
20,1,$1+$1,$8,$9,$2,$3,0*%
G04 Aperture macros list end*
%ADD10C,0.100000*%
%ADD11C,0.200000*%
%ADD12C,0.300000*%
%ADD13C,0.150000*%
%ADD14C,0.120000*%
%ADD15C,0.152000*%
%ADD16C,0.254000*%
%ADD17C,0.102000*%
%ADD18C,0.650000*%
%ADD19O,2.100000X1.000000*%
%ADD20O,1.900000X1.000000*%
%ADD21C,0.610000*%
%ADD22RoundRect,0.200000X-0.200000X-0.275000X0.200000X-0.275000X0.200000X0.275000X-0.200000X0.275000X0*%
%ADD23R,0.532000X1.070000*%
%ADD24R,1.500000X0.300000*%
%ADD25R,1.500000X2.000000*%
%ADD26C,1.000000*%
%ADD27R,1.600000X0.700000*%
%ADD28R,1.500000X1.200000*%
%ADD29R,2.200000X1.200000*%
%ADD30R,1.500000X1.600000*%
%ADD31RoundRect,0.087500X-2.412500X-0.087500X2.412500X-0.087500X2.412500X0.087500X-2.412500X0.087500X0*%
%ADD32RoundRect,0.200000X0.200000X0.275000X-0.200000X0.275000X-0.200000X-0.275000X0.200000X-0.275000X0*%
G04 APERTURE END LIST*
D10*
X160924285Y-119219090D02*
X160971904Y-119195280D01*
X161043333Y-119195280D01*
X161114761Y-119219090D01*
X161162380Y-119266709D01*
X161186190Y-119314328D01*
X161209999Y-119409566D01*
X161209999Y-119480994D01*
X161186190Y-119576232D01*
X161162380Y-119623851D01*
X161114761Y-119671470D01*
X161043333Y-119695280D01*
X160995713Y-119695280D01*
X160924285Y-119671470D01*
X160900475Y-119647661D01*
X160900475Y-119480994D01*
X160995713Y-119480994D01*
X160686190Y-119695280D02*
X160686190Y-119195280D01*
X160400475Y-119695280D01*
X160400475Y-119195280D01*
X160162380Y-119695280D02*
X160162380Y-119195280D01*
X160043333Y-119195280D01*
X159971904Y-119219090D01*
X159924285Y-119266709D01*
X159900475Y-119314328D01*
X159876666Y-119409566D01*
X159876666Y-119480994D01*
X159900475Y-119576232D01*
X159924285Y-119623851D01*
X159971904Y-119671470D01*
X160043333Y-119695280D01*
X160162380Y-119695280D01*
D11*
X170950000Y-78644285D02*
X170888095Y-78520476D01*
X170888095Y-78334761D01*
X170950000Y-78149047D01*
X171073809Y-78025238D01*
X171197619Y-77963333D01*
X171445238Y-77901428D01*
X171630952Y-77901428D01*
X171878571Y-77963333D01*
X172002380Y-78025238D01*
X172126190Y-78149047D01*
X172188095Y-78334761D01*
X172188095Y-78458571D01*
X172126190Y-78644285D01*
X172064285Y-78706190D01*
X171630952Y-78706190D01*
X171630952Y-78458571D01*
X172188095Y-79263333D02*
X171321428Y-79263333D01*
X170888095Y-79263333D02*
X170950000Y-79201428D01*
X171011904Y-79263333D01*
X170950000Y-79325238D01*
X170888095Y-79263333D01*
X171011904Y-79263333D01*
X172126190Y-80377619D02*
X172188095Y-80253809D01*
X172188095Y-80006190D01*
X172126190Y-79882380D01*
X172002380Y-79820476D01*
X171507142Y-79820476D01*
X171383333Y-79882380D01*
X171321428Y-80006190D01*
X171321428Y-80253809D01*
X171383333Y-80377619D01*
X171507142Y-80439523D01*
X171630952Y-80439523D01*
X171754761Y-79820476D01*
X172126190Y-80934761D02*
X172188095Y-81058571D01*
X172188095Y-81306190D01*
X172126190Y-81430000D01*
X172002380Y-81491904D01*
X171940476Y-81491904D01*
X171816666Y-81430000D01*
X171754761Y-81306190D01*
X171754761Y-81120476D01*
X171692857Y-80996666D01*
X171569047Y-80934761D01*
X171507142Y-80934761D01*
X171383333Y-80996666D01*
X171321428Y-81120476D01*
X171321428Y-81306190D01*
X171383333Y-81430000D01*
X172126190Y-82544285D02*
X172188095Y-82420476D01*
X172188095Y-82172857D01*
X172126190Y-82049047D01*
X172002380Y-81987142D01*
X171507142Y-81987142D01*
X171383333Y-82049047D01*
X171321428Y-82172857D01*
X171321428Y-82420476D01*
X171383333Y-82544285D01*
X171507142Y-82606190D01*
X171630952Y-82606190D01*
X171754761Y-81987142D01*
X172126190Y-83720476D02*
X172188095Y-83596666D01*
X172188095Y-83349047D01*
X172126190Y-83225238D01*
X172064285Y-83163333D01*
X171940476Y-83101428D01*
X171569047Y-83101428D01*
X171445238Y-83163333D01*
X171383333Y-83225238D01*
X171321428Y-83349047D01*
X171321428Y-83596666D01*
X171383333Y-83720476D01*
X172188095Y-84277619D02*
X170888095Y-84277619D01*
X171692857Y-84401428D02*
X172188095Y-84772857D01*
X171321428Y-84772857D02*
X171816666Y-84277619D01*
X172126190Y-85825238D02*
X172188095Y-85701428D01*
X172188095Y-85453809D01*
X172126190Y-85330000D01*
X172002380Y-85268095D01*
X171507142Y-85268095D01*
X171383333Y-85330000D01*
X171321428Y-85453809D01*
X171321428Y-85701428D01*
X171383333Y-85825238D01*
X171507142Y-85887142D01*
X171630952Y-85887142D01*
X171754761Y-85268095D01*
X171692857Y-86444285D02*
X171692857Y-87434761D01*
X172188095Y-86939523D02*
X171197619Y-86939523D01*
X172188095Y-88053809D02*
X170888095Y-88053809D01*
X170888095Y-88363333D01*
X170950000Y-88549047D01*
X171073809Y-88672857D01*
X171197619Y-88734761D01*
X171445238Y-88796666D01*
X171630952Y-88796666D01*
X171878571Y-88734761D01*
X172002380Y-88672857D01*
X172126190Y-88549047D01*
X172188095Y-88363333D01*
X172188095Y-88053809D01*
X172126190Y-89849047D02*
X172188095Y-89725238D01*
X172188095Y-89477619D01*
X172126190Y-89353809D01*
X172002380Y-89291904D01*
X171507142Y-89291904D01*
X171383333Y-89353809D01*
X171321428Y-89477619D01*
X171321428Y-89725238D01*
X171383333Y-89849047D01*
X171507142Y-89910952D01*
X171630952Y-89910952D01*
X171754761Y-89291904D01*
X171321428Y-90344285D02*
X172188095Y-90653809D01*
X171321428Y-90963333D01*
X172188095Y-91458571D02*
X171321428Y-91458571D01*
X171569047Y-91458571D02*
X171445238Y-91520476D01*
X171383333Y-91582380D01*
X171321428Y-91706190D01*
X171321428Y-91830000D01*
X172188095Y-92263333D02*
X171321428Y-92263333D01*
X170888095Y-92263333D02*
X170950000Y-92201428D01*
X171011904Y-92263333D01*
X170950000Y-92325238D01*
X170888095Y-92263333D01*
X171011904Y-92263333D01*
X172126190Y-93377619D02*
X172188095Y-93253809D01*
X172188095Y-93006190D01*
X172126190Y-92882380D01*
X172002380Y-92820476D01*
X171507142Y-92820476D01*
X171383333Y-92882380D01*
X171321428Y-93006190D01*
X171321428Y-93253809D01*
X171383333Y-93377619D01*
X171507142Y-93439523D01*
X171630952Y-93439523D01*
X171754761Y-92820476D01*
X171321428Y-93996666D02*
X172188095Y-93996666D01*
X171445238Y-93996666D02*
X171383333Y-94058571D01*
X171321428Y-94182380D01*
X171321428Y-94368095D01*
X171383333Y-94491904D01*
X171507142Y-94553809D01*
X172188095Y-94553809D01*
X171321428Y-94987142D02*
X171321428Y-95482380D01*
X170888095Y-95172857D02*
X172002380Y-95172857D01*
X172126190Y-95234761D01*
X172188095Y-95358571D01*
X172188095Y-95482380D01*
D10*
X160805237Y-112704380D02*
X160971904Y-112466285D01*
X161090952Y-112704380D02*
X161090952Y-112204380D01*
X160900475Y-112204380D01*
X160852856Y-112228190D01*
X160829047Y-112251999D01*
X160805237Y-112299618D01*
X160805237Y-112371047D01*
X160829047Y-112418666D01*
X160852856Y-112442475D01*
X160900475Y-112466285D01*
X161090952Y-112466285D01*
X160590952Y-112442475D02*
X160424285Y-112442475D01*
X160352856Y-112704380D02*
X160590952Y-112704380D01*
X160590952Y-112204380D01*
X160352856Y-112204380D01*
X160162380Y-112680570D02*
X160090952Y-112704380D01*
X159971904Y-112704380D01*
X159924285Y-112680570D01*
X159900475Y-112656761D01*
X159876666Y-112609142D01*
X159876666Y-112561523D01*
X159900475Y-112513904D01*
X159924285Y-112490094D01*
X159971904Y-112466285D01*
X160067142Y-112442475D01*
X160114761Y-112418666D01*
X160138571Y-112394856D01*
X160162380Y-112347237D01*
X160162380Y-112299618D01*
X160138571Y-112251999D01*
X160114761Y-112228190D01*
X160067142Y-112204380D01*
X159948094Y-112204380D01*
X159876666Y-112228190D01*
X161281428Y-118996190D02*
X161519523Y-118996190D01*
X161519523Y-118496190D01*
X161114761Y-118734285D02*
X160948095Y-118734285D01*
X160876666Y-118996190D02*
X161114761Y-118996190D01*
X161114761Y-118496190D01*
X160876666Y-118496190D01*
X160662380Y-118996190D02*
X160662380Y-118496190D01*
X160543333Y-118496190D01*
X160471904Y-118520000D01*
X160424285Y-118567619D01*
X160400476Y-118615238D01*
X160376666Y-118710476D01*
X160376666Y-118781904D01*
X160400476Y-118877142D01*
X160424285Y-118924761D01*
X160471904Y-118972380D01*
X160543333Y-118996190D01*
X160662380Y-118996190D01*
X160162380Y-118996190D02*
X160162380Y-118496190D01*
X159876666Y-118996190D02*
X160090952Y-118710476D01*
X159876666Y-118496190D02*
X160162380Y-118781904D01*
X161090951Y-113379660D02*
X161019523Y-113403470D01*
X160900475Y-113403470D01*
X160852856Y-113379660D01*
X160829047Y-113355851D01*
X160805237Y-113308232D01*
X160805237Y-113260613D01*
X160829047Y-113212994D01*
X160852856Y-113189184D01*
X160900475Y-113165375D01*
X160995713Y-113141565D01*
X161043332Y-113117756D01*
X161067142Y-113093946D01*
X161090951Y-113046327D01*
X161090951Y-112998708D01*
X161067142Y-112951089D01*
X161043332Y-112927280D01*
X160995713Y-112903470D01*
X160876666Y-112903470D01*
X160805237Y-112927280D01*
X160590951Y-113403470D02*
X160590951Y-112903470D01*
X160471904Y-112903470D01*
X160400475Y-112927280D01*
X160352856Y-112974899D01*
X160329047Y-113022518D01*
X160305237Y-113117756D01*
X160305237Y-113189184D01*
X160329047Y-113284422D01*
X160352856Y-113332041D01*
X160400475Y-113379660D01*
X160471904Y-113403470D01*
X160590951Y-113403470D01*
X160114761Y-113260613D02*
X159876666Y-113260613D01*
X160162380Y-113403470D02*
X159995713Y-112903470D01*
X159829047Y-113403470D01*
X161067142Y-114078750D02*
X160995713Y-114102560D01*
X160876665Y-114102560D01*
X160829046Y-114078750D01*
X160805237Y-114054941D01*
X160781427Y-114007322D01*
X160781427Y-113959703D01*
X160805237Y-113912084D01*
X160829046Y-113888274D01*
X160876665Y-113864465D01*
X160971904Y-113840655D01*
X161019523Y-113816846D01*
X161043332Y-113793036D01*
X161067142Y-113745417D01*
X161067142Y-113697798D01*
X161043332Y-113650179D01*
X161019523Y-113626370D01*
X160971904Y-113602560D01*
X160852856Y-113602560D01*
X160781427Y-113626370D01*
X160281427Y-114054941D02*
X160305237Y-114078750D01*
X160376665Y-114102560D01*
X160424284Y-114102560D01*
X160495713Y-114078750D01*
X160543332Y-114031131D01*
X160567142Y-113983512D01*
X160590951Y-113888274D01*
X160590951Y-113816846D01*
X160567142Y-113721608D01*
X160543332Y-113673989D01*
X160495713Y-113626370D01*
X160424284Y-113602560D01*
X160376665Y-113602560D01*
X160305237Y-113626370D01*
X160281427Y-113650179D01*
X159829046Y-114102560D02*
X160067142Y-114102560D01*
X160067142Y-113602560D01*
X160924285Y-116422730D02*
X160971904Y-116398920D01*
X161043333Y-116398920D01*
X161114761Y-116422730D01*
X161162380Y-116470349D01*
X161186190Y-116517968D01*
X161209999Y-116613206D01*
X161209999Y-116684634D01*
X161186190Y-116779872D01*
X161162380Y-116827491D01*
X161114761Y-116875110D01*
X161043333Y-116898920D01*
X160995713Y-116898920D01*
X160924285Y-116875110D01*
X160900475Y-116851301D01*
X160900475Y-116684634D01*
X160995713Y-116684634D01*
X160686190Y-116898920D02*
X160686190Y-116398920D01*
X160400475Y-116898920D01*
X160400475Y-116398920D01*
X160162380Y-116898920D02*
X160162380Y-116398920D01*
X160043333Y-116398920D01*
X159971904Y-116422730D01*
X159924285Y-116470349D01*
X159900475Y-116517968D01*
X159876666Y-116613206D01*
X159876666Y-116684634D01*
X159900475Y-116779872D01*
X159924285Y-116827491D01*
X159971904Y-116875110D01*
X160043333Y-116898920D01*
X160162380Y-116898920D01*
X160352856Y-114754031D02*
X160376665Y-114777840D01*
X160448094Y-114801650D01*
X160495713Y-114801650D01*
X160567142Y-114777840D01*
X160614761Y-114730221D01*
X160638570Y-114682602D01*
X160662380Y-114587364D01*
X160662380Y-114515936D01*
X160638570Y-114420698D01*
X160614761Y-114373079D01*
X160567142Y-114325460D01*
X160495713Y-114301650D01*
X160448094Y-114301650D01*
X160376665Y-114325460D01*
X160352856Y-114349269D01*
X160162380Y-114777840D02*
X160090951Y-114801650D01*
X159971903Y-114801650D01*
X159924284Y-114777840D01*
X159900475Y-114754031D01*
X159876665Y-114706412D01*
X159876665Y-114658793D01*
X159900475Y-114611174D01*
X159924284Y-114587364D01*
X159971903Y-114563555D01*
X160067142Y-114539745D01*
X160114761Y-114515936D01*
X160138570Y-114492126D01*
X160162380Y-114444507D01*
X160162380Y-114396888D01*
X160138570Y-114349269D01*
X160114761Y-114325460D01*
X160067142Y-114301650D01*
X159948094Y-114301650D01*
X159876665Y-114325460D01*
X160924285Y-115723640D02*
X160971904Y-115699830D01*
X161043333Y-115699830D01*
X161114761Y-115723640D01*
X161162380Y-115771259D01*
X161186190Y-115818878D01*
X161209999Y-115914116D01*
X161209999Y-115985544D01*
X161186190Y-116080782D01*
X161162380Y-116128401D01*
X161114761Y-116176020D01*
X161043333Y-116199830D01*
X160995713Y-116199830D01*
X160924285Y-116176020D01*
X160900475Y-116152211D01*
X160900475Y-115985544D01*
X160995713Y-115985544D01*
X160686190Y-116199830D02*
X160686190Y-115699830D01*
X160400475Y-116199830D01*
X160400475Y-115699830D01*
X160162380Y-116199830D02*
X160162380Y-115699830D01*
X160043333Y-115699830D01*
X159971904Y-115723640D01*
X159924285Y-115771259D01*
X159900475Y-115818878D01*
X159876666Y-115914116D01*
X159876666Y-115985544D01*
X159900475Y-116080782D01*
X159924285Y-116128401D01*
X159971904Y-116176020D01*
X160043333Y-116199830D01*
X160162380Y-116199830D01*
X161162380Y-117098010D02*
X160995714Y-117598010D01*
X160829047Y-117098010D01*
X160662380Y-117598010D02*
X160662380Y-117098010D01*
X160543333Y-117098010D01*
X160471904Y-117121820D01*
X160424285Y-117169439D01*
X160400475Y-117217058D01*
X160376666Y-117312296D01*
X160376666Y-117383724D01*
X160400475Y-117478962D01*
X160424285Y-117526581D01*
X160471904Y-117574200D01*
X160543333Y-117598010D01*
X160662380Y-117598010D01*
X160162380Y-117598010D02*
X160162380Y-117098010D01*
X160043333Y-117098010D01*
X159971904Y-117121820D01*
X159924285Y-117169439D01*
X159900475Y-117217058D01*
X159876666Y-117312296D01*
X159876666Y-117383724D01*
X159900475Y-117478962D01*
X159924285Y-117526581D01*
X159971904Y-117574200D01*
X160043333Y-117598010D01*
X160162380Y-117598010D01*
D11*
X156605714Y-129710000D02*
X156729523Y-129648095D01*
X156915238Y-129648095D01*
X157100952Y-129710000D01*
X157224761Y-129833809D01*
X157286666Y-129957619D01*
X157348571Y-130205238D01*
X157348571Y-130390952D01*
X157286666Y-130638571D01*
X157224761Y-130762380D01*
X157100952Y-130886190D01*
X156915238Y-130948095D01*
X156791428Y-130948095D01*
X156605714Y-130886190D01*
X156543809Y-130824285D01*
X156543809Y-130390952D01*
X156791428Y-130390952D01*
X155986666Y-130948095D02*
X155986666Y-130081428D01*
X155986666Y-129648095D02*
X156048571Y-129710000D01*
X155986666Y-129771904D01*
X155924761Y-129710000D01*
X155986666Y-129648095D01*
X155986666Y-129771904D01*
X154872380Y-130886190D02*
X154996190Y-130948095D01*
X155243809Y-130948095D01*
X155367619Y-130886190D01*
X155429523Y-130762380D01*
X155429523Y-130267142D01*
X155367619Y-130143333D01*
X155243809Y-130081428D01*
X154996190Y-130081428D01*
X154872380Y-130143333D01*
X154810476Y-130267142D01*
X154810476Y-130390952D01*
X155429523Y-130514761D01*
X154315238Y-130886190D02*
X154191428Y-130948095D01*
X153943809Y-130948095D01*
X153820000Y-130886190D01*
X153758095Y-130762380D01*
X153758095Y-130700476D01*
X153820000Y-130576666D01*
X153943809Y-130514761D01*
X154129523Y-130514761D01*
X154253333Y-130452857D01*
X154315238Y-130329047D01*
X154315238Y-130267142D01*
X154253333Y-130143333D01*
X154129523Y-130081428D01*
X153943809Y-130081428D01*
X153820000Y-130143333D01*
X152705714Y-130886190D02*
X152829523Y-130948095D01*
X153077142Y-130948095D01*
X153200952Y-130886190D01*
X153262857Y-130762380D01*
X153262857Y-130267142D01*
X153200952Y-130143333D01*
X153077142Y-130081428D01*
X152829523Y-130081428D01*
X152705714Y-130143333D01*
X152643809Y-130267142D01*
X152643809Y-130390952D01*
X153262857Y-130514761D01*
X151529523Y-130886190D02*
X151653333Y-130948095D01*
X151900952Y-130948095D01*
X152024761Y-130886190D01*
X152086666Y-130824285D01*
X152148571Y-130700476D01*
X152148571Y-130329047D01*
X152086666Y-130205238D01*
X152024761Y-130143333D01*
X151900952Y-130081428D01*
X151653333Y-130081428D01*
X151529523Y-130143333D01*
X150972380Y-130948095D02*
X150972380Y-129648095D01*
X150848571Y-130452857D02*
X150477142Y-130948095D01*
X150477142Y-130081428D02*
X150972380Y-130576666D01*
X149424761Y-130886190D02*
X149548571Y-130948095D01*
X149796190Y-130948095D01*
X149920000Y-130886190D01*
X149981904Y-130762380D01*
X149981904Y-130267142D01*
X149920000Y-130143333D01*
X149796190Y-130081428D01*
X149548571Y-130081428D01*
X149424761Y-130143333D01*
X149362857Y-130267142D01*
X149362857Y-130390952D01*
X149981904Y-130514761D01*
X148805714Y-130452857D02*
X147815238Y-130452857D01*
X148310476Y-130948095D02*
X148310476Y-129957619D01*
X147196190Y-130948095D02*
X147196190Y-129648095D01*
X146886666Y-129648095D01*
X146700952Y-129710000D01*
X146577142Y-129833809D01*
X146515238Y-129957619D01*
X146453333Y-130205238D01*
X146453333Y-130390952D01*
X146515238Y-130638571D01*
X146577142Y-130762380D01*
X146700952Y-130886190D01*
X146886666Y-130948095D01*
X147196190Y-130948095D01*
X145400952Y-130886190D02*
X145524761Y-130948095D01*
X145772380Y-130948095D01*
X145896190Y-130886190D01*
X145958095Y-130762380D01*
X145958095Y-130267142D01*
X145896190Y-130143333D01*
X145772380Y-130081428D01*
X145524761Y-130081428D01*
X145400952Y-130143333D01*
X145339047Y-130267142D01*
X145339047Y-130390952D01*
X145958095Y-130514761D01*
X144905714Y-130081428D02*
X144596190Y-130948095D01*
X144286666Y-130081428D01*
X143791428Y-130948095D02*
X143791428Y-130081428D01*
X143791428Y-130329047D02*
X143729523Y-130205238D01*
X143667619Y-130143333D01*
X143543809Y-130081428D01*
X143420000Y-130081428D01*
X142986666Y-130948095D02*
X142986666Y-130081428D01*
X142986666Y-129648095D02*
X143048571Y-129710000D01*
X142986666Y-129771904D01*
X142924761Y-129710000D01*
X142986666Y-129648095D01*
X142986666Y-129771904D01*
X141872380Y-130886190D02*
X141996190Y-130948095D01*
X142243809Y-130948095D01*
X142367619Y-130886190D01*
X142429523Y-130762380D01*
X142429523Y-130267142D01*
X142367619Y-130143333D01*
X142243809Y-130081428D01*
X141996190Y-130081428D01*
X141872380Y-130143333D01*
X141810476Y-130267142D01*
X141810476Y-130390952D01*
X142429523Y-130514761D01*
X141253333Y-130081428D02*
X141253333Y-130948095D01*
X141253333Y-130205238D02*
X141191428Y-130143333D01*
X141067619Y-130081428D01*
X140881904Y-130081428D01*
X140758095Y-130143333D01*
X140696190Y-130267142D01*
X140696190Y-130948095D01*
X140262857Y-130081428D02*
X139767619Y-130081428D01*
X140077142Y-129648095D02*
X140077142Y-130762380D01*
X140015238Y-130886190D01*
X139891428Y-130948095D01*
X139767619Y-130948095D01*
D10*
X161209999Y-118297100D02*
X161448094Y-118297100D01*
X161448094Y-117797100D01*
X161043332Y-118035195D02*
X160876665Y-118035195D01*
X160805237Y-118297100D02*
X161043332Y-118297100D01*
X161043332Y-117797100D01*
X160805237Y-117797100D01*
X160590951Y-118297100D02*
X160590951Y-117797100D01*
X160471904Y-117797100D01*
X160400475Y-117820910D01*
X160352856Y-117868529D01*
X160329046Y-117916148D01*
X160305237Y-118011386D01*
X160305237Y-118082814D01*
X160329046Y-118178052D01*
X160352856Y-118225671D01*
X160400475Y-118273290D01*
X160471904Y-118297100D01*
X160590951Y-118297100D01*
X160114761Y-118154243D02*
X159876665Y-118154243D01*
X160162380Y-118297100D02*
X159995713Y-117797100D01*
X159829046Y-118297100D01*
X160924285Y-111529100D02*
X160971904Y-111505290D01*
X161043333Y-111505290D01*
X161114761Y-111529100D01*
X161162380Y-111576719D01*
X161186190Y-111624338D01*
X161209999Y-111719576D01*
X161209999Y-111791004D01*
X161186190Y-111886242D01*
X161162380Y-111933861D01*
X161114761Y-111981480D01*
X161043333Y-112005290D01*
X160995713Y-112005290D01*
X160924285Y-111981480D01*
X160900475Y-111957671D01*
X160900475Y-111791004D01*
X160995713Y-111791004D01*
X160686190Y-112005290D02*
X160686190Y-111505290D01*
X160400475Y-112005290D01*
X160400475Y-111505290D01*
X160162380Y-112005290D02*
X160162380Y-111505290D01*
X160043333Y-111505290D01*
X159971904Y-111529100D01*
X159924285Y-111576719D01*
X159900475Y-111624338D01*
X159876666Y-111719576D01*
X159876666Y-111791004D01*
X159900475Y-111886242D01*
X159924285Y-111933861D01*
X159971904Y-111981480D01*
X160043333Y-112005290D01*
X160162380Y-112005290D01*
X160662380Y-115500740D02*
X160662380Y-115000740D01*
X160543332Y-115000740D01*
X160471904Y-115024550D01*
X160424285Y-115072169D01*
X160400475Y-115119788D01*
X160376666Y-115215026D01*
X160376666Y-115286454D01*
X160400475Y-115381692D01*
X160424285Y-115429311D01*
X160471904Y-115476930D01*
X160543332Y-115500740D01*
X160662380Y-115500740D01*
X159876666Y-115453121D02*
X159900475Y-115476930D01*
X159971904Y-115500740D01*
X160019523Y-115500740D01*
X160090951Y-115476930D01*
X160138570Y-115429311D01*
X160162380Y-115381692D01*
X160186189Y-115286454D01*
X160186189Y-115215026D01*
X160162380Y-115119788D01*
X160138570Y-115072169D01*
X160090951Y-115024550D01*
X160019523Y-115000740D01*
X159971904Y-115000740D01*
X159900475Y-115024550D01*
X159876666Y-115048359D01*
D12*
%TO.C,*%
D13*
%TO.C,R20*%
X158102857Y-88952380D02*
X158436190Y-88476190D01*
X158674285Y-88952380D02*
X158674285Y-87952380D01*
X158293333Y-87952380D01*
X158198095Y-88000000D01*
X158150476Y-88047619D01*
X158102857Y-88142857D01*
X158102857Y-88285714D01*
X158150476Y-88380952D01*
X158198095Y-88428571D01*
X158293333Y-88476190D01*
X158674285Y-88476190D01*
X157721904Y-88047619D02*
X157674285Y-88000000D01*
X157579047Y-87952380D01*
X157340952Y-87952380D01*
X157245714Y-88000000D01*
X157198095Y-88047619D01*
X157150476Y-88142857D01*
X157150476Y-88238095D01*
X157198095Y-88380952D01*
X157769523Y-88952380D01*
X157150476Y-88952380D01*
X156531428Y-87952380D02*
X156436190Y-87952380D01*
X156340952Y-88000000D01*
X156293333Y-88047619D01*
X156245714Y-88142857D01*
X156198095Y-88333333D01*
X156198095Y-88571428D01*
X156245714Y-88761904D01*
X156293333Y-88857142D01*
X156340952Y-88904761D01*
X156436190Y-88952380D01*
X156531428Y-88952380D01*
X156626666Y-88904761D01*
X156674285Y-88857142D01*
X156721904Y-88761904D01*
X156769523Y-88571428D01*
X156769523Y-88333333D01*
X156721904Y-88142857D01*
X156674285Y-88047619D01*
X156626666Y-88000000D01*
X156531428Y-87952380D01*
%TO.C,Q3*%
X150422738Y-116727619D02*
X150517976Y-116680000D01*
X150613214Y-116584761D01*
X150756071Y-116441904D01*
X150851309Y-116394285D01*
X150946547Y-116394285D01*
X150898928Y-116632380D02*
X150994166Y-116584761D01*
X151089404Y-116489523D01*
X151137023Y-116299047D01*
X151137023Y-115965714D01*
X151089404Y-115775238D01*
X150994166Y-115680000D01*
X150898928Y-115632380D01*
X150708452Y-115632380D01*
X150613214Y-115680000D01*
X150517976Y-115775238D01*
X150470357Y-115965714D01*
X150470357Y-116299047D01*
X150517976Y-116489523D01*
X150613214Y-116584761D01*
X150708452Y-116632380D01*
X150898928Y-116632380D01*
X150137023Y-115632380D02*
X149517976Y-115632380D01*
X149851309Y-116013333D01*
X149708452Y-116013333D01*
X149613214Y-116060952D01*
X149565595Y-116108571D01*
X149517976Y-116203809D01*
X149517976Y-116441904D01*
X149565595Y-116537142D01*
X149613214Y-116584761D01*
X149708452Y-116632380D01*
X149994166Y-116632380D01*
X150089404Y-116584761D01*
X150137023Y-116537142D01*
D12*
%TO.C,*%
D13*
%TO.C,U9*%
X144409404Y-109712380D02*
X144409404Y-110521904D01*
X144361785Y-110617142D01*
X144314166Y-110664761D01*
X144218928Y-110712380D01*
X144028452Y-110712380D01*
X143933214Y-110664761D01*
X143885595Y-110617142D01*
X143837976Y-110521904D01*
X143837976Y-109712380D01*
X143314166Y-110712380D02*
X143123690Y-110712380D01*
X143028452Y-110664761D01*
X142980833Y-110617142D01*
X142885595Y-110474285D01*
X142837976Y-110283809D01*
X142837976Y-109902857D01*
X142885595Y-109807619D01*
X142933214Y-109760000D01*
X143028452Y-109712380D01*
X143218928Y-109712380D01*
X143314166Y-109760000D01*
X143361785Y-109807619D01*
X143409404Y-109902857D01*
X143409404Y-110140952D01*
X143361785Y-110236190D01*
X143314166Y-110283809D01*
X143218928Y-110331428D01*
X143028452Y-110331428D01*
X142933214Y-110283809D01*
X142885595Y-110236190D01*
X142837976Y-110140952D01*
%TO.C,Card1*%
X146512142Y-88136071D02*
X146559761Y-88088452D01*
X146607380Y-87945595D01*
X146607380Y-87850357D01*
X146559761Y-87707500D01*
X146464523Y-87612261D01*
X146369285Y-87564642D01*
X146178809Y-87517023D01*
X146035952Y-87517023D01*
X145845476Y-87564642D01*
X145750238Y-87612261D01*
X145655000Y-87707500D01*
X145607380Y-87850357D01*
X145607380Y-87945595D01*
X145655000Y-88088452D01*
X145702619Y-88136071D01*
X146607380Y-88993214D02*
X146083571Y-88993214D01*
X145988333Y-88945595D01*
X145940714Y-88850357D01*
X145940714Y-88659880D01*
X145988333Y-88564642D01*
X146559761Y-88993214D02*
X146607380Y-88897976D01*
X146607380Y-88659880D01*
X146559761Y-88564642D01*
X146464523Y-88517023D01*
X146369285Y-88517023D01*
X146274047Y-88564642D01*
X146226428Y-88659880D01*
X146226428Y-88897976D01*
X146178809Y-88993214D01*
X146607380Y-89469404D02*
X145940714Y-89469404D01*
X146131190Y-89469404D02*
X146035952Y-89517023D01*
X145988333Y-89564642D01*
X145940714Y-89659880D01*
X145940714Y-89755119D01*
X146607380Y-90517023D02*
X145607380Y-90517023D01*
X146559761Y-90517023D02*
X146607380Y-90421785D01*
X146607380Y-90231309D01*
X146559761Y-90136071D01*
X146512142Y-90088452D01*
X146416904Y-90040833D01*
X146131190Y-90040833D01*
X146035952Y-90088452D01*
X145988333Y-90136071D01*
X145940714Y-90231309D01*
X145940714Y-90421785D01*
X145988333Y-90517023D01*
X146607380Y-91517023D02*
X146607380Y-90945595D01*
X146607380Y-91231309D02*
X145607380Y-91231309D01*
X145750238Y-91136071D01*
X145845476Y-91040833D01*
X145893095Y-90945595D01*
%TO.C,U10*%
X156508095Y-109432380D02*
X156508095Y-110241904D01*
X156460476Y-110337142D01*
X156412857Y-110384761D01*
X156317619Y-110432380D01*
X156127142Y-110432380D01*
X156031904Y-110384761D01*
X155984285Y-110337142D01*
X155936666Y-110241904D01*
X155936666Y-109432380D01*
X154936666Y-110432380D02*
X155508095Y-110432380D01*
X155222380Y-110432380D02*
X155222380Y-109432380D01*
X155317619Y-109575238D01*
X155412857Y-109670476D01*
X155508095Y-109718095D01*
X154317619Y-109432380D02*
X154222380Y-109432380D01*
X154127142Y-109480000D01*
X154079523Y-109527619D01*
X154031904Y-109622857D01*
X153984285Y-109813333D01*
X153984285Y-110051428D01*
X154031904Y-110241904D01*
X154079523Y-110337142D01*
X154127142Y-110384761D01*
X154222380Y-110432380D01*
X154317619Y-110432380D01*
X154412857Y-110384761D01*
X154460476Y-110337142D01*
X154508095Y-110241904D01*
X154555714Y-110051428D01*
X154555714Y-109813333D01*
X154508095Y-109622857D01*
X154460476Y-109527619D01*
X154412857Y-109480000D01*
X154317619Y-109432380D01*
%TO.C,R21*%
X158092857Y-90884380D02*
X158426190Y-90408190D01*
X158664285Y-90884380D02*
X158664285Y-89884380D01*
X158283333Y-89884380D01*
X158188095Y-89932000D01*
X158140476Y-89979619D01*
X158092857Y-90074857D01*
X158092857Y-90217714D01*
X158140476Y-90312952D01*
X158188095Y-90360571D01*
X158283333Y-90408190D01*
X158664285Y-90408190D01*
X157711904Y-89979619D02*
X157664285Y-89932000D01*
X157569047Y-89884380D01*
X157330952Y-89884380D01*
X157235714Y-89932000D01*
X157188095Y-89979619D01*
X157140476Y-90074857D01*
X157140476Y-90170095D01*
X157188095Y-90312952D01*
X157759523Y-90884380D01*
X157140476Y-90884380D01*
X156188095Y-90884380D02*
X156759523Y-90884380D01*
X156473809Y-90884380D02*
X156473809Y-89884380D01*
X156569047Y-90027238D01*
X156664285Y-90122476D01*
X156759523Y-90170095D01*
%TO.C,R22*%
X158102857Y-87432380D02*
X158436190Y-86956190D01*
X158674285Y-87432380D02*
X158674285Y-86432380D01*
X158293333Y-86432380D01*
X158198095Y-86480000D01*
X158150476Y-86527619D01*
X158102857Y-86622857D01*
X158102857Y-86765714D01*
X158150476Y-86860952D01*
X158198095Y-86908571D01*
X158293333Y-86956190D01*
X158674285Y-86956190D01*
X157721904Y-86527619D02*
X157674285Y-86480000D01*
X157579047Y-86432380D01*
X157340952Y-86432380D01*
X157245714Y-86480000D01*
X157198095Y-86527619D01*
X157150476Y-86622857D01*
X157150476Y-86718095D01*
X157198095Y-86860952D01*
X157769523Y-87432380D01*
X157150476Y-87432380D01*
X156769523Y-86527619D02*
X156721904Y-86480000D01*
X156626666Y-86432380D01*
X156388571Y-86432380D01*
X156293333Y-86480000D01*
X156245714Y-86527619D01*
X156198095Y-86622857D01*
X156198095Y-86718095D01*
X156245714Y-86860952D01*
X156817142Y-87432380D01*
X156198095Y-87432380D01*
%TO.C,R18*%
X150986190Y-113861480D02*
X151319523Y-113385290D01*
X151557618Y-113861480D02*
X151557618Y-112861480D01*
X151176666Y-112861480D01*
X151081428Y-112909100D01*
X151033809Y-112956719D01*
X150986190Y-113051957D01*
X150986190Y-113194814D01*
X151033809Y-113290052D01*
X151081428Y-113337671D01*
X151176666Y-113385290D01*
X151557618Y-113385290D01*
X150033809Y-113861480D02*
X150605237Y-113861480D01*
X150319523Y-113861480D02*
X150319523Y-112861480D01*
X150414761Y-113004338D01*
X150509999Y-113099576D01*
X150605237Y-113147195D01*
X149462380Y-113290052D02*
X149557618Y-113242433D01*
X149605237Y-113194814D01*
X149652856Y-113099576D01*
X149652856Y-113051957D01*
X149605237Y-112956719D01*
X149557618Y-112909100D01*
X149462380Y-112861480D01*
X149271904Y-112861480D01*
X149176666Y-112909100D01*
X149129047Y-112956719D01*
X149081428Y-113051957D01*
X149081428Y-113099576D01*
X149129047Y-113194814D01*
X149176666Y-113242433D01*
X149271904Y-113290052D01*
X149462380Y-113290052D01*
X149557618Y-113337671D01*
X149605237Y-113385290D01*
X149652856Y-113480528D01*
X149652856Y-113671004D01*
X149605237Y-113766242D01*
X149557618Y-113813861D01*
X149462380Y-113861480D01*
X149271904Y-113861480D01*
X149176666Y-113813861D01*
X149129047Y-113766242D01*
X149081428Y-113671004D01*
X149081428Y-113480528D01*
X149129047Y-113385290D01*
X149176666Y-113337671D01*
X149271904Y-113290052D01*
%TO.C,R19*%
X158092857Y-92414380D02*
X158426190Y-91938190D01*
X158664285Y-92414380D02*
X158664285Y-91414380D01*
X158283333Y-91414380D01*
X158188095Y-91462000D01*
X158140476Y-91509619D01*
X158092857Y-91604857D01*
X158092857Y-91747714D01*
X158140476Y-91842952D01*
X158188095Y-91890571D01*
X158283333Y-91938190D01*
X158664285Y-91938190D01*
X157140476Y-92414380D02*
X157711904Y-92414380D01*
X157426190Y-92414380D02*
X157426190Y-91414380D01*
X157521428Y-91557238D01*
X157616666Y-91652476D01*
X157711904Y-91700095D01*
X156664285Y-92414380D02*
X156473809Y-92414380D01*
X156378571Y-92366761D01*
X156330952Y-92319142D01*
X156235714Y-92176285D01*
X156188095Y-91985809D01*
X156188095Y-91604857D01*
X156235714Y-91509619D01*
X156283333Y-91462000D01*
X156378571Y-91414380D01*
X156569047Y-91414380D01*
X156664285Y-91462000D01*
X156711904Y-91509619D01*
X156759523Y-91604857D01*
X156759523Y-91842952D01*
X156711904Y-91938190D01*
X156664285Y-91985809D01*
X156569047Y-92033428D01*
X156378571Y-92033428D01*
X156283333Y-91985809D01*
X156235714Y-91938190D01*
X156188095Y-91842952D01*
%TO.C,*%
G36*
X151106696Y-127178202D02*
G01*
X151871794Y-127099582D01*
X152438724Y-126939403D01*
X152863234Y-126680216D01*
X153201073Y-126304571D01*
X153461378Y-125735385D01*
X153536008Y-125062381D01*
X153427500Y-124390718D01*
X153150523Y-123808769D01*
X152719746Y-123404903D01*
X152705284Y-123397149D01*
X152373718Y-123293069D01*
X151855367Y-123200059D01*
X151255917Y-123137430D01*
X150128698Y-123061006D01*
X150128698Y-121858639D01*
X151164229Y-121813719D01*
X151434550Y-121804895D01*
X152003743Y-121826393D01*
X152474436Y-121934325D01*
X152990345Y-122155596D01*
X153100445Y-122211526D01*
X153910602Y-122791893D01*
X154475737Y-123541004D01*
X154785876Y-124440880D01*
X154831043Y-125473536D01*
X154753651Y-125945891D01*
X154401864Y-126800022D01*
X153821024Y-127522201D01*
X153054291Y-128065668D01*
X152144830Y-128383661D01*
X151818880Y-128425808D01*
X151192216Y-128467886D01*
X150375701Y-128498751D01*
X149430463Y-128518320D01*
X148417630Y-128526511D01*
X147398331Y-128523244D01*
X146433696Y-128508435D01*
X145584852Y-128482002D01*
X144912928Y-128443865D01*
X144479054Y-128393940D01*
X143561204Y-128104824D01*
X142759154Y-127571279D01*
X142147737Y-126805887D01*
X142001814Y-126533816D01*
X141695205Y-125595412D01*
X141686803Y-125034745D01*
X142990206Y-125034745D01*
X142990509Y-125076527D01*
X143123447Y-125879956D01*
X143491308Y-126507883D01*
X144084260Y-126943154D01*
X144204703Y-126994382D01*
X144651985Y-127110438D01*
X145273380Y-127174486D01*
X146130998Y-127194142D01*
X147648816Y-127194142D01*
X147648816Y-125853183D01*
X146333727Y-125809757D01*
X145018639Y-125766332D01*
X144972423Y-125127574D01*
X144926207Y-124488817D01*
X147648816Y-124488817D01*
X147648816Y-123136154D01*
X144156648Y-123136154D01*
X143573146Y-123719656D01*
X143402247Y-123895144D01*
X143134281Y-124235628D01*
X143016315Y-124571771D01*
X142990206Y-125034745D01*
X141686803Y-125034745D01*
X141681239Y-124663457D01*
X141956937Y-123768908D01*
X142519322Y-122942722D01*
X142740105Y-122707519D01*
X143128820Y-122362327D01*
X143543613Y-122114728D01*
X144039266Y-121949049D01*
X144670557Y-121849617D01*
X145492266Y-121800756D01*
X146559171Y-121786792D01*
X148851183Y-121783492D01*
X148851183Y-124488817D01*
X151556508Y-124488817D01*
X151556508Y-125841480D01*
X148851183Y-125841480D01*
X148851183Y-127194142D01*
X150358969Y-127194142D01*
X151106696Y-127178202D01*
G37*
D14*
%TO.C,R20*%
X154292742Y-87865500D02*
X154767258Y-87865500D01*
X154292742Y-88910500D02*
X154767258Y-88910500D01*
D15*
%TO.C,Q3*%
X148691333Y-117965100D02*
X148691333Y-119717100D01*
X148691333Y-119717100D02*
X149732333Y-119717100D01*
X151763333Y-117965100D02*
X151763333Y-119717100D01*
X150682333Y-117965100D02*
X149772333Y-117965100D01*
X151763333Y-119717100D02*
X150722333Y-119717100D01*
%TO.C,*%
G36*
X167155891Y-80496349D02*
G01*
X168010022Y-80848136D01*
X168732201Y-81428976D01*
X169275668Y-82195709D01*
X169593661Y-83105170D01*
X169635808Y-83431120D01*
X169677886Y-84057784D01*
X169708751Y-84874299D01*
X169728320Y-85819537D01*
X169736511Y-86832370D01*
X169733244Y-87851669D01*
X169718435Y-88816304D01*
X169692002Y-89665148D01*
X169653865Y-90337072D01*
X169603940Y-90770946D01*
X169314824Y-91688796D01*
X168781279Y-92490846D01*
X168015887Y-93102263D01*
X167743816Y-93248186D01*
X166805412Y-93554795D01*
X165873457Y-93568761D01*
X164978908Y-93293063D01*
X164152722Y-92730678D01*
X163917519Y-92509895D01*
X163572327Y-92121180D01*
X163324728Y-91706387D01*
X163159049Y-91210734D01*
X163140561Y-91093352D01*
X164346154Y-91093352D01*
X164929656Y-91676854D01*
X165105144Y-91847753D01*
X165445628Y-92115719D01*
X165781771Y-92233685D01*
X166244745Y-92259794D01*
X166286527Y-92259491D01*
X167089956Y-92126553D01*
X167717883Y-91758692D01*
X168153154Y-91165740D01*
X168204382Y-91045297D01*
X168320438Y-90598015D01*
X168384486Y-89976620D01*
X168404142Y-89119002D01*
X168404142Y-87601184D01*
X167063183Y-87601184D01*
X167019757Y-88916273D01*
X166976332Y-90231361D01*
X166337574Y-90277577D01*
X165698817Y-90323793D01*
X165698817Y-87601184D01*
X164346154Y-87601184D01*
X164346154Y-91093352D01*
X163140561Y-91093352D01*
X163059617Y-90579443D01*
X163010756Y-89757734D01*
X162996792Y-88690829D01*
X162993492Y-86398817D01*
X165698817Y-86398817D01*
X165698817Y-83693492D01*
X167051480Y-83693492D01*
X167051480Y-86398817D01*
X168404142Y-86398817D01*
X168404142Y-84891031D01*
X168388202Y-84143304D01*
X168309582Y-83378206D01*
X168149403Y-82811276D01*
X167890216Y-82386766D01*
X167514571Y-82048927D01*
X166945385Y-81788622D01*
X166272381Y-81713992D01*
X165600718Y-81822500D01*
X165018769Y-82099477D01*
X164614903Y-82530254D01*
X164607149Y-82544716D01*
X164503069Y-82876282D01*
X164410059Y-83394633D01*
X164347430Y-83994083D01*
X164271006Y-85121302D01*
X163068639Y-85121302D01*
X163023719Y-84085771D01*
X163014895Y-83815450D01*
X163036393Y-83246257D01*
X163144325Y-82775564D01*
X163365596Y-82259655D01*
X163421526Y-82149555D01*
X164001893Y-81339398D01*
X164751004Y-80774263D01*
X165650880Y-80464124D01*
X166683536Y-80418957D01*
X167155891Y-80496349D01*
G37*
D16*
%TO.C,U9*%
X141226333Y-111429100D02*
X141226333Y-119829100D01*
X146476333Y-113498100D02*
X146476333Y-111429100D01*
X146476333Y-119829100D02*
X146476333Y-117760100D01*
X141226333Y-119829100D02*
X143445333Y-119829100D01*
X143445333Y-111429100D02*
X141226333Y-111429100D01*
X146426333Y-111429100D02*
X145407333Y-111429100D01*
X145407333Y-119829100D02*
X146476333Y-119829100D01*
X147250333Y-118079100D02*
G75*
G03*
X147250333Y-118079100I-224000J0D01*
G01*
%TO.C,Card1*%
X138217000Y-94328000D02*
X135169000Y-94328000D01*
D17*
X149706000Y-84176000D02*
X149707000Y-81077000D01*
D16*
X135169000Y-94328000D02*
X135169000Y-79596000D01*
X135169000Y-79596000D02*
X138067000Y-79596000D01*
X148139000Y-94328000D02*
X140762000Y-94309000D01*
X140872000Y-79596000D02*
X148060000Y-79596000D01*
D14*
%TO.C,U10*%
X153388333Y-119954100D02*
X159148333Y-119954100D01*
X159148333Y-119954100D02*
X159148333Y-111244100D01*
X159148333Y-111244100D02*
X153388333Y-111244100D01*
X153388333Y-111244100D02*
X153388333Y-119954100D01*
%TO.C,R21*%
X154292742Y-90902500D02*
X154767258Y-90902500D01*
X154292742Y-89857500D02*
X154767258Y-89857500D01*
%TO.C,R22*%
X154292742Y-87390500D02*
X154767258Y-87390500D01*
X154292742Y-86345500D02*
X154767258Y-86345500D01*
%TO.C,R18*%
X150560591Y-112411600D02*
X150086075Y-112411600D01*
X150560591Y-111366600D02*
X150086075Y-111366600D01*
%TO.C,R19*%
X154292742Y-92432500D02*
X154767258Y-92432500D01*
X154292742Y-91387500D02*
X154767258Y-91387500D01*
%TD*%
%LPC*%
D18*
%TO.C,USB1*%
X123139000Y-89758000D03*
X123139000Y-83978000D03*
D19*
X123639000Y-82543000D03*
X123639000Y-91193000D03*
D20*
X119439000Y-82543000D03*
X119439000Y-91193000D03*
%TD*%
D21*
%TO.C,U3*%
X166540000Y-86750000D03*
X167247107Y-86042893D03*
X167954214Y-86750000D03*
X166540000Y-88164214D03*
X165832893Y-87457107D03*
X167247107Y-87457107D03*
X166540000Y-85335786D03*
X165125786Y-86750000D03*
X165832893Y-86042893D03*
%TD*%
D22*
%TO.C,R20*%
X153705000Y-88388000D03*
X155355000Y-88388000D03*
%TD*%
D23*
%TO.C,Q3*%
X149277333Y-117706100D03*
X151177333Y-117706100D03*
X150227333Y-119976100D03*
%TD*%
D24*
%TO.C,U9*%
X147026333Y-117379100D03*
X147026333Y-116879100D03*
X147026333Y-116379100D03*
X147026333Y-115879100D03*
X147026333Y-115379100D03*
X147026333Y-114879100D03*
X147026333Y-114379100D03*
X147026333Y-113879100D03*
D25*
X144426333Y-112179100D03*
X144426333Y-119079100D03*
%TD*%
D26*
%TO.C,Card1*%
X139080000Y-91861000D03*
X139080000Y-83861000D03*
D27*
X150080000Y-84670000D03*
X150080000Y-85770000D03*
X150080000Y-86869000D03*
X150080000Y-87970000D03*
X150080000Y-89069000D03*
X150080000Y-90170000D03*
X150080000Y-91269000D03*
X150080000Y-92369000D03*
X150080000Y-93469000D03*
D28*
X149080000Y-94669000D03*
D29*
X139480000Y-94661000D03*
X139480000Y-79161000D03*
D30*
X149080000Y-80061000D03*
%TD*%
D31*
%TO.C,U10*%
X156288333Y-119454100D03*
X156288333Y-118754100D03*
X156288333Y-118054100D03*
X156288333Y-117354100D03*
X156288333Y-116654100D03*
X156288333Y-115954100D03*
X156288333Y-115254100D03*
X156288333Y-114554100D03*
X156288333Y-113854100D03*
X156288333Y-113154100D03*
X156288333Y-112454100D03*
X156288333Y-111754100D03*
%TD*%
D22*
%TO.C,R21*%
X153705000Y-90380000D03*
X155355000Y-90380000D03*
%TD*%
%TO.C,R22*%
X153705000Y-86868000D03*
X155355000Y-86868000D03*
%TD*%
D32*
%TO.C,R18*%
X151148333Y-111889100D03*
X149498333Y-111889100D03*
%TD*%
D22*
%TO.C,R19*%
X153705000Y-91910000D03*
X155355000Y-91910000D03*
%TD*%
M02*
