M48
; DRILL file {KiCad (6.0.7)} date Wed Aug  3 19:33:35 2022
; FORMAT={-:-/ absolute / metric / decimal}
; #@! TF.CreationDate,2022-08-03T19:33:35+08:00
; #@! TF.GenerationSoftware,Kicad,Pcbnew,(6.0.7)
; #@! TF.FileFunction,MixedPlating,1,2
FMAT,2
METRIC
; #@! TA.AperFunction,Plated,PTH,ViaDrill
T1C0.300
; #@! TA.AperFunction,Plated,PTH,ComponentDrill
T2C0.304
; #@! TA.AperFunction,Plated,PTH,ViaDrill
T3C0.400
; #@! TA.AperFunction,Plated,PTH,ViaDrill
T4C0.500
; #@! TA.AperFunction,Plated,PTH,ViaDrill
T5C0.600
; #@! TA.AperFunction,Plated,PTH,ComponentDrill
T6C0.600
; #@! TA.AperFunction,Plated,PTH,ViaDrill
T7C3.000
; #@! TA.AperFunction,NonPlated,NPTH,ComponentDrill
T8C0.650
; #@! TA.AperFunction,NonPlated,NPTH,ComponentDrill
T9C1.000
%
G90
G05
T1
X123.425Y-86.141
X123.426Y-87.125
X129.25Y-88.86
X136.24Y-83.0
X137.11Y-78.76
X137.45Y-84.59
X140.98Y-89.94
X141.76Y-91.48
X143.99Y-91.1
X144.01Y-89.96
X144.05Y-88.27
X144.9Y-89.14
X147.36Y-85.56
X147.38Y-83.98
X147.55Y-91.54
X150.19Y-83.13
X150.864Y-83.13
X151.61Y-83.12
X151.91Y-90.32
X151.91Y-91.89
X152.573Y-87.257
X155.46Y-95.38
X157.12Y-74.349
X157.748Y-79.817
X157.78Y-93.34
X158.64Y-79.79
X159.59Y-85.62
X159.6Y-87.13
X160.13Y-86.74
X160.69Y-84.51
X161.13Y-75.17
X161.32Y-83.13
X161.45Y-84.87
X161.68Y-83.66
X161.702Y-89.488
X162.25Y-84.96
X162.41Y-88.77
X163.83Y-81.909
X164.42Y-82.21
X164.66Y-76.7
X164.74Y-91.71
X164.76Y-77.69
X164.767Y-80.663
X164.92Y-81.46
X169.09Y-90.99
X169.42Y-90.35
X170.39Y-92.27
X170.96Y-91.73
X175.99Y-88.35
X176.12Y-89.07
X176.57Y-89.64
X176.57Y-90.33
X176.62Y-83.26
X176.62Y-83.92
X176.63Y-84.58
T2
X165.126Y-86.75
X165.833Y-86.043
X165.833Y-87.457
X166.54Y-85.336
X166.54Y-86.75
X166.54Y-88.164
X167.247Y-86.043
X167.247Y-87.457
X167.954Y-86.75
T3
X125.82Y-78.93
X125.83Y-96.47
X125.84Y-75.56
X154.48Y-74.17
X154.48Y-77.03
X156.36Y-74.11
X156.71Y-85.26
X158.42Y-90.41
X161.11Y-98.84
X163.17Y-91.39
X163.19Y-92.95
X163.87Y-76.13
X166.52Y-80.72
X167.13Y-77.18
X167.43Y-95.49
X171.95Y-87.19
X171.97Y-83.78
X173.43Y-89.73
X175.6Y-80.99
T4
X121.49Y-87.09
X121.5Y-85.9
X131.0Y-81.47
X131.0Y-84.909
X133.47Y-86.52
X134.81Y-86.53
X134.82Y-85.12
X134.82Y-87.92
X136.17Y-86.55
X150.23Y-117.14
X152.293Y-111.789
T5
X127.44Y-82.99
X127.44Y-89.18
T7
X120.5Y-97.3
X120.56Y-76.29
X136.33Y-108.02
X136.33Y-129.04
X151.82Y-107.99
X160.33Y-129.04
X174.4Y-76.4
X174.4Y-97.3
T8
X123.139Y-83.978
X123.139Y-89.758
T9
X139.08Y-83.861
X139.08Y-91.861
T6
G00X119.889Y-82.543
M15
G01X118.989Y-82.543
M16
G05
G00X119.889Y-91.193
M15
G01X118.989Y-91.193
M16
G05
G00X124.239Y-82.543
M15
G01X123.039Y-82.543
M16
G05
G00X124.239Y-91.193
M15
G01X123.039Y-91.193
M16
G05
T0
M30
