%TF.GenerationSoftware,KiCad,Pcbnew,(6.0.7)*%
%TF.CreationDate,2022-08-03T19:32:55+08:00*%
%TF.ProjectId,Egret,45677265-742e-46b6-9963-61645f706362,rev?*%
%TF.SameCoordinates,Original*%
%TF.FileFunction,Profile,NP*%
%FSLAX46Y46*%
G04 Gerber Fmt 4.6, Leading zero omitted, Abs format (unit mm)*
G04 Created by KiCad (PCBNEW (6.0.7)) date 2022-08-03 19:32:55*
%MOMM*%
%LPD*%
G01*
G04 APERTURE LIST*
%TA.AperFunction,Profile*%
%ADD10C,0.100000*%
%TD*%
G04 APERTURE END LIST*
D10*
X181259997Y-75050000D02*
G75*
G03*
X178930000Y-72710000I-2240897J98700D01*
G01*
X119010000Y-101010000D02*
X132820000Y-101010000D01*
X163820000Y-101010000D02*
X178900000Y-101010000D01*
X155330000Y-101000000D02*
X162330000Y-101000000D01*
X162330000Y-101000000D02*
X162330000Y-103990000D01*
X162330000Y-103990000D02*
X155330000Y-103990000D01*
X155330000Y-103990000D02*
X155330000Y-101000000D01*
X178899998Y-101010042D02*
G75*
G03*
X181260000Y-98700000I115502J2242542D01*
G01*
X181260000Y-75050000D02*
X181260000Y-98700000D01*
X132820000Y-101010000D02*
X132830000Y-133040000D01*
X119030000Y-72709998D02*
G75*
G03*
X116700000Y-75050000I-42300J-2287902D01*
G01*
X119030000Y-72710000D02*
X178930000Y-72710000D01*
X132830000Y-133040000D02*
X163830000Y-133040000D01*
X163820000Y-101010000D02*
X163830000Y-133040000D01*
X142830000Y-101000000D02*
X153830000Y-101000000D01*
X153830000Y-101000000D02*
X153830000Y-103990000D01*
X153830000Y-103990000D02*
X142830000Y-103990000D01*
X142830000Y-103990000D02*
X142830000Y-101000000D01*
X134330000Y-101000000D02*
X141330000Y-101000000D01*
X141330000Y-101000000D02*
X141330000Y-103990000D01*
X141330000Y-103990000D02*
X134330000Y-103990000D01*
X134330000Y-103990000D02*
X134330000Y-101000000D01*
X116700000Y-75050000D02*
X116700000Y-98680000D01*
X116699966Y-98679999D02*
G75*
G03*
X119010000Y-101010000I2242334J-87001D01*
G01*
M02*
