%TF.GenerationSoftware,KiCad,Pcbnew,(6.0.7)*%
%TF.CreationDate,2022-08-03T19:32:55+08:00*%
%TF.ProjectId,Egret,45677265-742e-46b6-9963-61645f706362,rev?*%
%TF.SameCoordinates,Original*%
%TF.FileFunction,Copper,L2,Bot*%
%TF.FilePolarity,Positive*%
%FSLAX46Y46*%
G04 Gerber Fmt 4.6, Leading zero omitted, Abs format (unit mm)*
G04 Created by KiCad (PCBNEW (6.0.7)) date 2022-08-03 19:32:55*
%MOMM*%
%LPD*%
G01*
G04 APERTURE LIST*
G04 Aperture macros list*
%AMRoundRect*
0 Rectangle with rounded corners*
0 $1 Rounding radius*
0 $2 $3 $4 $5 $6 $7 $8 $9 X,Y pos of 4 corners*
0 Add a 4 corners polygon primitive as box body*
4,1,4,$2,$3,$4,$5,$6,$7,$8,$9,$2,$3,0*
0 Add four circle primitives for the rounded corners*
1,1,$1+$1,$2,$3*
1,1,$1+$1,$4,$5*
1,1,$1+$1,$6,$7*
1,1,$1+$1,$8,$9*
0 Add four rect primitives between the rounded corners*
20,1,$1+$1,$2,$3,$4,$5,0*
20,1,$1+$1,$4,$5,$6,$7,0*
20,1,$1+$1,$6,$7,$8,$9,0*
20,1,$1+$1,$8,$9,$2,$3,0*%
G04 Aperture macros list end*
%TA.AperFunction,ComponentPad*%
%ADD10O,2.100000X1.000000*%
%TD*%
%TA.AperFunction,ComponentPad*%
%ADD11O,1.900000X1.000000*%
%TD*%
%TA.AperFunction,ComponentPad*%
%ADD12C,0.610000*%
%TD*%
%TA.AperFunction,SMDPad,CuDef*%
%ADD13RoundRect,0.200000X-0.200000X-0.275000X0.200000X-0.275000X0.200000X0.275000X-0.200000X0.275000X0*%
%TD*%
%TA.AperFunction,SMDPad,CuDef*%
%ADD14R,0.532000X1.070000*%
%TD*%
%TA.AperFunction,SMDPad,CuDef*%
%ADD15R,1.500000X0.300000*%
%TD*%
%TA.AperFunction,SMDPad,CuDef*%
%ADD16R,1.500000X2.000000*%
%TD*%
%TA.AperFunction,SMDPad,CuDef*%
%ADD17R,1.600000X0.700000*%
%TD*%
%TA.AperFunction,SMDPad,CuDef*%
%ADD18R,1.500000X1.200000*%
%TD*%
%TA.AperFunction,SMDPad,CuDef*%
%ADD19R,2.200000X1.200000*%
%TD*%
%TA.AperFunction,SMDPad,CuDef*%
%ADD20R,1.500000X1.600000*%
%TD*%
%TA.AperFunction,SMDPad,CuDef*%
%ADD21RoundRect,0.087500X-2.412500X-0.087500X2.412500X-0.087500X2.412500X0.087500X-2.412500X0.087500X0*%
%TD*%
%TA.AperFunction,SMDPad,CuDef*%
%ADD22RoundRect,0.200000X0.200000X0.275000X-0.200000X0.275000X-0.200000X-0.275000X0.200000X-0.275000X0*%
%TD*%
%TA.AperFunction,ViaPad*%
%ADD23C,5.000000*%
%TD*%
%TA.AperFunction,ViaPad*%
%ADD24C,0.700000*%
%TD*%
%TA.AperFunction,ViaPad*%
%ADD25C,0.800000*%
%TD*%
%TA.AperFunction,ViaPad*%
%ADD26C,0.500000*%
%TD*%
%TA.AperFunction,ViaPad*%
%ADD27C,1.100000*%
%TD*%
%TA.AperFunction,ViaPad*%
%ADD28C,0.900000*%
%TD*%
%TA.AperFunction,Conductor*%
%ADD29C,0.400000*%
%TD*%
%TA.AperFunction,Conductor*%
%ADD30C,0.200000*%
%TD*%
%TA.AperFunction,Conductor*%
%ADD31C,0.300000*%
%TD*%
%TA.AperFunction,Conductor*%
%ADD32C,0.700000*%
%TD*%
%TA.AperFunction,Conductor*%
%ADD33C,0.500000*%
%TD*%
G04 APERTURE END LIST*
D10*
%TO.P,USB1,13,GND*%
%TO.N,GND*%
X123639000Y-82543000D03*
%TO.P,USB1,14,GND*%
X123639000Y-91193000D03*
D11*
%TO.P,USB1,15,GND*%
X119439000Y-82543000D03*
%TO.P,USB1,16,GND*%
X119439000Y-91193000D03*
%TD*%
D12*
%TO.P,U3,*%
%TO.N,GND*%
X166540000Y-86750000D03*
X167247107Y-86042893D03*
X167954214Y-86750000D03*
X166540000Y-88164214D03*
X165832893Y-87457107D03*
X167247107Y-87457107D03*
X166540000Y-85335786D03*
X165125786Y-86750000D03*
X165832893Y-86042893D03*
%TD*%
D13*
%TO.P,R20,1*%
%TO.N,/IO13*%
X153705000Y-88388000D03*
%TO.P,R20,2*%
%TO.N,/VDD33*%
X155355000Y-88388000D03*
%TD*%
D14*
%TO.P,Q3,1,G*%
%TO.N,Net-(Q3-Pad1)*%
X149277333Y-117706100D03*
%TO.P,Q3,2,S*%
%TO.N,/VDD33*%
X151177333Y-117706100D03*
%TO.P,Q3,3,D*%
%TO.N,Net-(Q3-Pad3)*%
X150227333Y-119976100D03*
%TD*%
D15*
%TO.P,U9,1,1*%
%TO.N,/VDD33*%
X147026333Y-117379100D03*
%TO.P,U9,2,2*%
X147026333Y-116879100D03*
%TO.P,U9,3,3*%
%TO.N,GND*%
X147026333Y-116379100D03*
%TO.P,U9,4,4*%
%TO.N,/IO2*%
X147026333Y-115879100D03*
%TO.P,U9,5,5*%
%TO.N,/IO18*%
X147026333Y-115379100D03*
%TO.P,U9,6,6*%
%TO.N,/IO23*%
X147026333Y-114879100D03*
%TO.P,U9,7,7*%
%TO.N,/IO4*%
X147026333Y-114379100D03*
%TO.P,U9,8,8*%
%TO.N,/IO5*%
X147026333Y-113879100D03*
D16*
%TO.P,U9,9,9*%
%TO.N,unconnected-(U9-Pad9)*%
X144426333Y-112179100D03*
%TO.P,U9,10,10*%
%TO.N,unconnected-(U9-Pad10)*%
X144426333Y-119079100D03*
%TD*%
D17*
%TO.P,Card1,1,DAT2*%
%TO.N,unconnected-(Card1-Pad1)*%
X150080000Y-84670000D03*
%TO.P,Card1,2,CD/DAT3*%
%TO.N,/IO15*%
X150080000Y-85770000D03*
%TO.P,Card1,3,CMD*%
%TO.N,/IO13*%
X150080000Y-86869000D03*
%TO.P,Card1,4,VDD*%
%TO.N,/VDD33*%
X150080000Y-87970000D03*
%TO.P,Card1,5,CLK*%
%TO.N,/IO14*%
X150080000Y-89069000D03*
%TO.P,Card1,6,VSS*%
%TO.N,GND*%
X150080000Y-90170000D03*
%TO.P,Card1,7,DAT0*%
%TO.N,/IO26*%
X150080000Y-91269000D03*
%TO.P,Card1,8,DAT1*%
%TO.N,unconnected-(Card1-Pad8)*%
X150080000Y-92369000D03*
%TO.P,Card1,9,CD*%
%TO.N,GND*%
X150080000Y-93469000D03*
D18*
%TO.P,Card1,10,GND*%
X149080000Y-94669000D03*
D19*
%TO.P,Card1,11,GND*%
X139480000Y-94661000D03*
%TO.P,Card1,12,GND*%
X139480000Y-79161000D03*
D20*
%TO.P,Card1,13,GND*%
X149080000Y-80061000D03*
%TD*%
D21*
%TO.P,U10,1,GND*%
%TO.N,GND*%
X156288333Y-119454100D03*
%TO.P,U10,2,LEDK*%
X156288333Y-118754100D03*
%TO.P,U10,3,LEDA*%
%TO.N,Net-(Q3-Pad3)*%
X156288333Y-118054100D03*
%TO.P,U10,4,VDD*%
%TO.N,/VDD33*%
X156288333Y-117354100D03*
%TO.P,U10,5,GND*%
%TO.N,GND*%
X156288333Y-116654100D03*
%TO.P,U10,6,GND*%
X156288333Y-115954100D03*
%TO.P,U10,7,DC*%
%TO.N,/IO2*%
X156288333Y-115254100D03*
%TO.P,U10,8,CS*%
%TO.N,GND*%
X156288333Y-114554100D03*
%TO.P,U10,9,SCL*%
%TO.N,/IO18*%
X156288333Y-113854100D03*
%TO.P,U10,10,SDA*%
%TO.N,/IO23*%
X156288333Y-113154100D03*
%TO.P,U10,11,RES*%
%TO.N,/IO4*%
X156288333Y-112454100D03*
%TO.P,U10,12,GND*%
%TO.N,GND*%
X156288333Y-111754100D03*
%TD*%
D13*
%TO.P,R21,1*%
%TO.N,/IO14*%
X153705000Y-90380000D03*
%TO.P,R21,2*%
%TO.N,/VDD33*%
X155355000Y-90380000D03*
%TD*%
%TO.P,R22,1*%
%TO.N,/IO15*%
X153705000Y-86868000D03*
%TO.P,R22,2*%
%TO.N,/VDD33*%
X155355000Y-86868000D03*
%TD*%
D22*
%TO.P,R18,1*%
%TO.N,Net-(Q3-Pad1)*%
X151148333Y-111889100D03*
%TO.P,R18,2*%
%TO.N,/IO5*%
X149498333Y-111889100D03*
%TD*%
D13*
%TO.P,R19,1*%
%TO.N,/IO26*%
X153705000Y-91910000D03*
%TO.P,R19,2*%
%TO.N,/VDD33*%
X155355000Y-91910000D03*
%TD*%
D23*
%TO.N,GND*%
X120560000Y-76290000D03*
D24*
X121490000Y-87090000D03*
D25*
X129250000Y-88860000D03*
D26*
X176630000Y-84580000D03*
D25*
X163870000Y-76130000D03*
X167130000Y-77180000D03*
D24*
X136170000Y-86550000D03*
X134820000Y-85120000D03*
D25*
X154480000Y-77030000D03*
X173430000Y-89730000D03*
D24*
X121500000Y-85900000D03*
D26*
X175990000Y-88350000D03*
D23*
X174400000Y-97300000D03*
D26*
X176620000Y-83260000D03*
D24*
X134810000Y-86530000D03*
D25*
X166520000Y-80720000D03*
X154480000Y-74170000D03*
D23*
X151820000Y-107990000D03*
D26*
X176120000Y-89070000D03*
D25*
X167430000Y-95490000D03*
X125830000Y-96470000D03*
D26*
X176620000Y-83920000D03*
D23*
X174400000Y-76400000D03*
D24*
X133470000Y-86520000D03*
D26*
X176570000Y-90330000D03*
D23*
X160330000Y-129040000D03*
D25*
X156360000Y-74110000D03*
D26*
X176570000Y-89640000D03*
D24*
X134820000Y-87920000D03*
D23*
X136330000Y-129040000D03*
X136330000Y-108020000D03*
X120500000Y-97300000D03*
D25*
X161110000Y-98840000D03*
%TO.N,/VDD33A*%
X175600000Y-80990000D03*
X171950000Y-87190000D03*
X163170000Y-91390000D03*
X171970000Y-83780000D03*
X163190000Y-92950000D03*
D27*
%TO.N,/EXT_5V*%
X127440000Y-82990000D03*
X127440000Y-89180000D03*
D28*
%TO.N,/VDD33*%
X131000000Y-84909163D03*
D25*
X158420000Y-90410000D03*
D28*
X131000000Y-81470000D03*
D25*
X156710000Y-85260000D03*
D26*
%TO.N,Net-(C9-Pad2)*%
X161130000Y-75170000D03*
X157120000Y-74349500D03*
D25*
%TO.N,Net-(D1-Pad2)*%
X125820000Y-78930000D03*
X125840000Y-75560000D03*
D26*
%TO.N,/IO18*%
X164740000Y-91710000D03*
X160130000Y-86740000D03*
%TO.N,/RXD0*%
X170390000Y-92270000D03*
X169090000Y-90990000D03*
%TO.N,/TXD0*%
X169420000Y-90350000D03*
X170960000Y-91730000D03*
%TO.N,/IO26*%
X164920000Y-81460000D03*
X151910000Y-91890000D03*
X150190000Y-83130000D03*
%TO.N,/IO32*%
X158640000Y-79790000D03*
X164660000Y-76700000D03*
%TO.N,/IO33*%
X157747888Y-79817463D03*
X164760000Y-77690000D03*
X164767029Y-80662972D03*
%TO.N,/IO27*%
X164420000Y-82210000D03*
X155460000Y-95380000D03*
%TO.N,/IO14*%
X150863874Y-83130000D03*
X163830000Y-81909500D03*
X151910000Y-90320000D03*
%TO.N,/IO13*%
X161320000Y-83130000D03*
X147380000Y-83980000D03*
X151610000Y-83120000D03*
X152573500Y-87256500D03*
%TO.N,/IO15*%
X161680000Y-83660000D03*
X147360000Y-85560000D03*
%TO.N,/IO2*%
X159600000Y-87130000D03*
X162250000Y-84960000D03*
%TO.N,/IO4*%
X160690000Y-84509500D03*
X159590000Y-85620000D03*
%TO.N,/IO0*%
X161702155Y-89487845D03*
X161450000Y-84870000D03*
X137110000Y-78760000D03*
X162410000Y-88770000D03*
X157780000Y-93340000D03*
X147550000Y-91540000D03*
%TO.N,/DTR*%
X143990000Y-91100000D03*
X144010000Y-89960000D03*
X140980000Y-89940000D03*
X136240000Y-83000000D03*
%TO.N,/RTS*%
X141760000Y-91480000D03*
X137450000Y-84590000D03*
%TO.N,/USB_DN*%
X123425000Y-86141500D03*
X123426500Y-87125000D03*
%TO.N,Net-(Q1-Pad2)*%
X144050000Y-88270000D03*
X144900000Y-89140000D03*
D28*
%TO.N,Net-(Q3-Pad1)*%
X150230000Y-117140000D03*
X152293333Y-111789100D03*
%TD*%
D29*
%TO.N,GND*%
X166520000Y-77743998D02*
X166520000Y-80720000D01*
X158845900Y-116654100D02*
X159088333Y-116411667D01*
X152314100Y-116654100D02*
X156288333Y-116654100D01*
X159088333Y-114918333D02*
X158724100Y-114554100D01*
X163870000Y-76130000D02*
X163877000Y-76123000D01*
X156288333Y-116654100D02*
X158845900Y-116654100D01*
X166540000Y-85335786D02*
X166540000Y-80740000D01*
X159088333Y-116411667D02*
X159088333Y-114918333D01*
X173425000Y-89725000D02*
X169515000Y-89725000D01*
X163877000Y-76123000D02*
X164899002Y-76123000D01*
X173430000Y-89730000D02*
X173425000Y-89725000D01*
D30*
X166540000Y-80740000D02*
X166520000Y-80720000D01*
D29*
X158724100Y-114554100D02*
X156288333Y-114554100D01*
D31*
X154480000Y-74170000D02*
X154480000Y-77030000D01*
D29*
X147026333Y-116379100D02*
X152039100Y-116379100D01*
X156288333Y-116654100D02*
X156288333Y-115954100D01*
D31*
X164080000Y-98840000D02*
X167430000Y-95490000D01*
D29*
X121490000Y-85920000D02*
X121490000Y-92130000D01*
X169515000Y-89725000D02*
X167247107Y-87457107D01*
X152039100Y-116379100D02*
X152314100Y-116654100D01*
X164899002Y-76123000D02*
X166520000Y-77743998D01*
D31*
X161110000Y-98840000D02*
X164080000Y-98840000D01*
D29*
X121490000Y-92130000D02*
X125830000Y-96470000D01*
%TO.N,/VDD33A*%
X171950000Y-83800000D02*
X171970000Y-83780000D01*
X171950000Y-87190000D02*
X171950000Y-83800000D01*
X175600000Y-81510000D02*
X173330000Y-83780000D01*
X173330000Y-83780000D02*
X171970000Y-83780000D01*
X175600000Y-80990000D02*
X175600000Y-81510000D01*
X163170000Y-91390000D02*
X163170000Y-92930000D01*
X163170000Y-92930000D02*
X163190000Y-92950000D01*
D32*
%TO.N,/EXT_5V*%
X127440000Y-82990000D02*
X127440000Y-89180000D01*
D29*
%TO.N,/VDD33*%
X155355000Y-89365000D02*
X155355000Y-91910000D01*
X147026333Y-117379100D02*
X147026333Y-116879100D01*
X155355000Y-86868000D02*
X155355000Y-86615000D01*
X151550000Y-87970000D02*
X152960000Y-89380000D01*
X150080000Y-87970000D02*
X151550000Y-87970000D01*
X148386333Y-118739100D02*
X147026333Y-117379100D01*
X156288333Y-117354100D02*
X151529333Y-117354100D01*
X158390000Y-90380000D02*
X158420000Y-90410000D01*
X131000000Y-84909163D02*
X131000000Y-81470000D01*
X151177333Y-117706100D02*
X150144333Y-118739100D01*
X155355000Y-86615000D02*
X156710000Y-85260000D01*
X151529333Y-117354100D02*
X151177333Y-117706100D01*
X155355000Y-90380000D02*
X158390000Y-90380000D01*
X152960000Y-89380000D02*
X155310000Y-89380000D01*
X150144333Y-118739100D02*
X148386333Y-118739100D01*
X155355000Y-86868000D02*
X155355000Y-89061000D01*
X155355000Y-89061000D02*
X155355000Y-89365000D01*
D30*
%TO.N,Net-(C9-Pad2)*%
X157140000Y-74320000D02*
X157150000Y-74330000D01*
X157150000Y-74330000D02*
X160290000Y-74330000D01*
X160290000Y-74330000D02*
X161130000Y-75170000D01*
D32*
%TO.N,Net-(D1-Pad2)*%
X125840000Y-78910000D02*
X125840000Y-75560000D01*
X125820000Y-78930000D02*
X125840000Y-78910000D01*
D30*
%TO.N,/IO23*%
X149520900Y-114879100D02*
X147026333Y-114879100D01*
X151245900Y-113154100D02*
X149520900Y-114879100D01*
X156288333Y-113154100D02*
X151245900Y-113154100D01*
%TO.N,/IO18*%
X160130000Y-86740000D02*
X160130000Y-87154681D01*
X156288333Y-113854100D02*
X151215900Y-113854100D01*
X162920000Y-89240000D02*
X164740000Y-91060000D01*
X164740000Y-91060000D02*
X164740000Y-91710000D01*
X151215900Y-113854100D02*
X149690900Y-115379100D01*
X149690900Y-115379100D02*
X147026333Y-115379100D01*
X160130000Y-87154681D02*
X162215319Y-89240000D01*
X162215319Y-89240000D02*
X162920000Y-89240000D01*
%TO.N,/IO5*%
X149073333Y-113879100D02*
X147026333Y-113879100D01*
X149498333Y-113454100D02*
X149073333Y-113879100D01*
X149498333Y-111889100D02*
X149498333Y-113454100D01*
%TO.N,/RXD0*%
X170370000Y-92270000D02*
X169090000Y-90990000D01*
X170390000Y-92270000D02*
X170370000Y-92270000D01*
%TO.N,/TXD0*%
X169580000Y-90350000D02*
X169420000Y-90350000D01*
X170960000Y-91730000D02*
X169580000Y-90350000D01*
D31*
%TO.N,/IO26*%
X151910000Y-91890000D02*
X151930000Y-91910000D01*
D30*
X151289000Y-91269000D02*
X150080000Y-91269000D01*
X151910000Y-91890000D02*
X151289000Y-91269000D01*
X151930000Y-91910000D02*
X153705000Y-91910000D01*
X164920000Y-81460000D02*
X151860000Y-81460000D01*
X151860000Y-81460000D02*
X150190000Y-83130000D01*
%TO.N,/IO32*%
X159450000Y-79790000D02*
X162217000Y-77023000D01*
X164337000Y-77023000D02*
X164660000Y-76700000D01*
X158640000Y-79790000D02*
X159450000Y-79790000D01*
X162217000Y-77023000D02*
X164337000Y-77023000D01*
%TO.N,/IO33*%
X164767029Y-80662972D02*
X164760000Y-80655943D01*
X162190000Y-80260000D02*
X164760000Y-77690000D01*
X164760000Y-80655943D02*
X164760000Y-77690000D01*
X158190425Y-80260000D02*
X162190000Y-80260000D01*
X157747888Y-79817463D02*
X158190425Y-80260000D01*
%TO.N,/IO27*%
X164300000Y-88050000D02*
X164300000Y-82330000D01*
X155460000Y-95380000D02*
X161799794Y-95380000D01*
X165217000Y-88967000D02*
X164300000Y-88050000D01*
X164300000Y-82330000D02*
X164420000Y-82210000D01*
X165217000Y-91962794D02*
X165217000Y-88967000D01*
X161799794Y-95380000D02*
X165217000Y-91962794D01*
%TO.N,/IO14*%
X152022448Y-81760000D02*
X150863874Y-82918574D01*
X163830000Y-81909500D02*
X163680500Y-81760000D01*
X150863874Y-82918574D02*
X150863874Y-83130000D01*
D31*
X151910000Y-90320000D02*
X151960000Y-90370000D01*
D30*
X163680500Y-81760000D02*
X152022448Y-81760000D01*
D31*
X153695000Y-90370000D02*
X153705000Y-90380000D01*
X151910000Y-90320000D02*
X151910000Y-90290000D01*
D30*
X151960000Y-90370000D02*
X153695000Y-90370000D01*
D31*
X150689000Y-89069000D02*
X150080000Y-89069000D01*
D30*
X151910000Y-90290000D02*
X150689000Y-89069000D01*
%TO.N,/IO13*%
X152573500Y-87256500D02*
X153705000Y-88388000D01*
X151610000Y-83120000D02*
X151610000Y-83740000D01*
X150080000Y-86869000D02*
X152186000Y-86869000D01*
X160410000Y-83130000D02*
X159780000Y-83760000D01*
X152186000Y-86869000D02*
X152573500Y-87256500D01*
X151610000Y-83740000D02*
X151590000Y-83760000D01*
X159780000Y-83760000D02*
X151590000Y-83760000D01*
X147380000Y-83980000D02*
X147600000Y-83760000D01*
X161320000Y-83130000D02*
X160410000Y-83130000D01*
X147600000Y-83760000D02*
X151590000Y-83760000D01*
%TO.N,/IO15*%
X160400000Y-83660000D02*
X159967000Y-84093000D01*
X153705000Y-86868000D02*
X153705000Y-85775000D01*
X150080000Y-85770000D02*
X152607000Y-85770000D01*
X159967000Y-84093000D02*
X155323000Y-84093000D01*
X148827000Y-84093000D02*
X153707000Y-84093000D01*
X155323000Y-84157000D02*
X155323000Y-84093000D01*
X152607000Y-85770000D02*
X153705000Y-86868000D01*
X147360000Y-85560000D02*
X148827000Y-84093000D01*
X153705000Y-85775000D02*
X155323000Y-84157000D01*
X161680000Y-83660000D02*
X160400000Y-83660000D01*
X155323000Y-84093000D02*
X154197000Y-84093000D01*
X153707000Y-84093000D02*
X154197000Y-84093000D01*
%TO.N,/IO2*%
X160470000Y-84060000D02*
X161350000Y-84060000D01*
X159113000Y-86643000D02*
X159113000Y-85417000D01*
X161350000Y-84060000D02*
X162250000Y-84960000D01*
X159600000Y-87130000D02*
X159113000Y-86643000D01*
X154043563Y-115254100D02*
X154034100Y-115254100D01*
X153080000Y-114300000D02*
X151440000Y-114300000D01*
X151440000Y-114300000D02*
X149860900Y-115879100D01*
X159113000Y-85417000D02*
X160470000Y-84060000D01*
X154034100Y-115254100D02*
X153080000Y-114300000D01*
X149860900Y-115879100D02*
X147026333Y-115879100D01*
%TO.N,/IO4*%
X160690000Y-84509500D02*
X159590000Y-85609500D01*
X149373333Y-114379100D02*
X147026333Y-114379100D01*
X151161333Y-112591100D02*
X149373333Y-114379100D01*
X156151333Y-112591100D02*
X151161333Y-112591100D01*
X159590000Y-85609500D02*
X159590000Y-85620000D01*
X156288333Y-112454100D02*
X156151333Y-112591100D01*
%TO.N,/IO0*%
X161450000Y-87810000D02*
X161450000Y-84870000D01*
D31*
X146371862Y-91540000D02*
X144751862Y-89920000D01*
X144734608Y-89920000D02*
X143974608Y-89160000D01*
X143974608Y-89160000D02*
X142755392Y-89160000D01*
X137960000Y-84364608D02*
X137960000Y-79610000D01*
D30*
X162410000Y-88770000D02*
X161450000Y-87810000D01*
X157780000Y-93340000D02*
X157850000Y-93340000D01*
D31*
X137960000Y-79610000D02*
X137110000Y-78760000D01*
X142755392Y-89160000D02*
X137960000Y-84364608D01*
D30*
X157850000Y-93340000D02*
X161702155Y-89487845D01*
D31*
X144751862Y-89920000D02*
X144734608Y-89920000D01*
X147550000Y-91540000D02*
X146371862Y-91540000D01*
D30*
%TO.N,/DTR*%
X140980000Y-89930000D02*
X135450000Y-84400000D01*
X144010000Y-91080000D02*
X144010000Y-89960000D01*
X143990000Y-91100000D02*
X144010000Y-91080000D01*
X135450000Y-84400000D02*
X135450000Y-83790000D01*
X140980000Y-89940000D02*
X140980000Y-89930000D01*
X135450000Y-83790000D02*
X136240000Y-83000000D01*
%TO.N,/RTS*%
X141750000Y-88890000D02*
X137450000Y-84590000D01*
X141760000Y-91480000D02*
X141750000Y-91470000D01*
X141750000Y-91470000D02*
X141750000Y-88890000D01*
%TO.N,/USB_DN*%
X123426500Y-87125000D02*
X123426500Y-86143000D01*
X123426500Y-86143000D02*
X123425000Y-86141500D01*
%TO.N,Net-(Q1-Pad2)*%
X144900000Y-89140000D02*
X144050000Y-88290000D01*
X144050000Y-88290000D02*
X144050000Y-88270000D01*
D33*
%TO.N,Net-(Q3-Pad1)*%
X150230000Y-117140000D02*
X149663900Y-117706100D01*
X149663900Y-117706100D02*
X149277333Y-117706100D01*
D29*
X152293333Y-111789100D02*
X151248333Y-111789100D01*
%TO.N,Net-(Q3-Pad3)*%
X150227333Y-119976100D02*
X152149333Y-118054100D01*
X152149333Y-118054100D02*
X156288333Y-118054100D01*
%TD*%
%TA.AperFunction,Conductor*%
%TO.N,GND*%
G36*
X176951378Y-73238502D02*
G01*
X176997871Y-73292158D01*
X177009257Y-73344633D01*
X176980755Y-100375132D01*
X176980754Y-100375633D01*
X176960680Y-100443732D01*
X176906975Y-100490169D01*
X176854754Y-100501500D01*
X163828855Y-100501500D01*
X163828125Y-100501498D01*
X163759099Y-100501098D01*
X163750120Y-100501046D01*
X163721784Y-100509154D01*
X163705004Y-100512740D01*
X163675813Y-100516920D01*
X163667637Y-100520637D01*
X163667635Y-100520638D01*
X163652343Y-100527591D01*
X163634860Y-100534027D01*
X163610083Y-100541117D01*
X163602493Y-100545909D01*
X163602491Y-100545910D01*
X163585167Y-100556848D01*
X163570051Y-100565007D01*
X163551392Y-100573491D01*
X163551390Y-100573492D01*
X163543218Y-100577208D01*
X163528280Y-100590080D01*
X163523693Y-100594032D01*
X163508713Y-100605120D01*
X163494510Y-100614087D01*
X163494506Y-100614091D01*
X163486920Y-100618880D01*
X163467415Y-100640979D01*
X163455202Y-100653047D01*
X163445857Y-100661099D01*
X163444479Y-100662287D01*
X163432873Y-100672287D01*
X163427994Y-100679815D01*
X163427991Y-100679818D01*
X163418852Y-100693918D01*
X163407587Y-100708763D01*
X163396475Y-100721353D01*
X163396472Y-100721357D01*
X163390534Y-100728085D01*
X163386723Y-100736209D01*
X163386721Y-100736212D01*
X163378018Y-100754763D01*
X163369680Y-100769780D01*
X163353648Y-100794515D01*
X163346263Y-100819210D01*
X163339620Y-100836617D01*
X163328672Y-100859953D01*
X163327294Y-100868823D01*
X163324147Y-100889073D01*
X163320358Y-100905828D01*
X163314904Y-100924066D01*
X163311914Y-100934066D01*
X163311859Y-100943039D01*
X163311703Y-100968533D01*
X163311668Y-100969387D01*
X163311488Y-100970545D01*
X163311489Y-100973686D01*
X163311498Y-101001709D01*
X163311496Y-101002479D01*
X163311024Y-101079721D01*
X163311427Y-101081129D01*
X163311523Y-101082540D01*
X163315775Y-114703063D01*
X163317728Y-120956329D01*
X163321302Y-132405461D01*
X163301321Y-132473588D01*
X163247680Y-132520097D01*
X163195302Y-132531500D01*
X133464302Y-132531500D01*
X133396181Y-132511498D01*
X133349688Y-132457842D01*
X133338302Y-132405539D01*
X133334469Y-120127234D01*
X143167833Y-120127234D01*
X143174588Y-120189416D01*
X143225718Y-120325805D01*
X143313072Y-120442361D01*
X143429628Y-120529715D01*
X143566017Y-120580845D01*
X143628199Y-120587600D01*
X145224467Y-120587600D01*
X145286649Y-120580845D01*
X145423038Y-120529715D01*
X145539594Y-120442361D01*
X145626948Y-120325805D01*
X145678078Y-120189416D01*
X145684833Y-120127234D01*
X145684833Y-118030966D01*
X145678188Y-117969798D01*
X145690716Y-117899917D01*
X145739036Y-117847901D01*
X145807808Y-117830266D01*
X145875196Y-117852612D01*
X145904275Y-117880623D01*
X145913072Y-117892361D01*
X146029628Y-117979715D01*
X146166017Y-118030845D01*
X146228199Y-118037600D01*
X146630673Y-118037600D01*
X146698794Y-118057602D01*
X146719768Y-118074505D01*
X147864890Y-119219628D01*
X147870744Y-119225893D01*
X147908772Y-119269485D01*
X147961062Y-119306236D01*
X147966304Y-119310128D01*
X148016615Y-119349576D01*
X148023534Y-119352700D01*
X148025826Y-119354088D01*
X148040498Y-119362457D01*
X148042858Y-119363722D01*
X148049072Y-119368090D01*
X148056151Y-119370850D01*
X148056153Y-119370851D01*
X148108608Y-119391302D01*
X148114677Y-119393853D01*
X148172906Y-119420145D01*
X148180379Y-119421530D01*
X148182945Y-119422334D01*
X148199168Y-119426955D01*
X148201760Y-119427620D01*
X148208842Y-119430382D01*
X148216377Y-119431374D01*
X148272194Y-119438722D01*
X148278710Y-119439754D01*
X148317103Y-119446870D01*
X148341519Y-119451395D01*
X148349099Y-119450958D01*
X148349100Y-119450958D01*
X148403713Y-119447809D01*
X148410966Y-119447600D01*
X149326833Y-119447600D01*
X149394954Y-119467602D01*
X149441447Y-119521258D01*
X149452833Y-119573600D01*
X149452833Y-120559234D01*
X149459588Y-120621416D01*
X149510718Y-120757805D01*
X149598072Y-120874361D01*
X149714628Y-120961715D01*
X149851017Y-121012845D01*
X149913199Y-121019600D01*
X150541467Y-121019600D01*
X150603649Y-121012845D01*
X150740038Y-120961715D01*
X150856594Y-120874361D01*
X150943948Y-120757805D01*
X150995078Y-120621416D01*
X151001833Y-120559234D01*
X151001833Y-120255760D01*
X151021835Y-120187639D01*
X151038738Y-120166665D01*
X151558720Y-119646683D01*
X153289029Y-119646683D01*
X153294582Y-119688870D01*
X153298820Y-119704685D01*
X153352504Y-119834290D01*
X153360693Y-119848473D01*
X153446088Y-119959763D01*
X153457668Y-119971343D01*
X153568963Y-120056742D01*
X153583144Y-120064929D01*
X153712747Y-120118613D01*
X153728564Y-120122851D01*
X153832711Y-120136562D01*
X153840920Y-120137100D01*
X156095218Y-120137100D01*
X156110457Y-120132625D01*
X156111662Y-120131235D01*
X156113333Y-120123552D01*
X156113333Y-120118984D01*
X156463333Y-120118984D01*
X156467808Y-120134223D01*
X156469198Y-120135428D01*
X156476881Y-120137099D01*
X158735744Y-120137099D01*
X158743957Y-120136561D01*
X158848103Y-120122851D01*
X158863918Y-120118613D01*
X158993523Y-120064929D01*
X159007706Y-120056740D01*
X159118996Y-119971345D01*
X159130576Y-119959765D01*
X159215975Y-119848470D01*
X159224162Y-119834289D01*
X159277845Y-119704688D01*
X159282084Y-119688868D01*
X159287588Y-119647060D01*
X159285377Y-119632878D01*
X159272220Y-119629100D01*
X156481448Y-119629100D01*
X156466209Y-119633575D01*
X156465004Y-119634965D01*
X156463333Y-119642648D01*
X156463333Y-120118984D01*
X156113333Y-120118984D01*
X156113333Y-119647215D01*
X156108858Y-119631976D01*
X156107468Y-119630771D01*
X156099785Y-119629100D01*
X153304829Y-119629100D01*
X153291058Y-119633144D01*
X153289029Y-119646683D01*
X151558720Y-119646683D01*
X152405899Y-118799505D01*
X152468211Y-118765479D01*
X152494994Y-118762600D01*
X153154856Y-118762600D01*
X153222977Y-118782602D01*
X153269470Y-118836258D01*
X153280586Y-118880355D01*
X153280873Y-118884725D01*
X153294582Y-118988870D01*
X153298820Y-119004685D01*
X153320026Y-119055882D01*
X153327615Y-119126472D01*
X153320026Y-119152318D01*
X153298821Y-119203512D01*
X153294582Y-119219332D01*
X153289078Y-119261140D01*
X153291289Y-119275322D01*
X153304446Y-119279100D01*
X156095218Y-119279100D01*
X156110457Y-119274625D01*
X156111662Y-119273235D01*
X156113333Y-119265552D01*
X156113333Y-118888600D01*
X156133335Y-118820479D01*
X156186991Y-118773986D01*
X156239333Y-118762600D01*
X156331336Y-118762600D01*
X156335101Y-118762144D01*
X156338754Y-118761924D01*
X156407955Y-118777788D01*
X156457594Y-118828547D01*
X156471911Y-118898085D01*
X156469461Y-118914478D01*
X156463333Y-118942648D01*
X156463333Y-119260985D01*
X156467808Y-119276224D01*
X156469198Y-119277429D01*
X156476881Y-119279100D01*
X159271837Y-119279100D01*
X159285608Y-119275056D01*
X159287637Y-119261517D01*
X159282084Y-119219330D01*
X159277846Y-119203515D01*
X159256640Y-119152318D01*
X159249051Y-119081728D01*
X159256640Y-119055882D01*
X159277845Y-119004688D01*
X159282084Y-118988868D01*
X159287588Y-118947060D01*
X159285377Y-118932878D01*
X159272220Y-118929100D01*
X158990509Y-118929100D01*
X158922388Y-118909098D01*
X158875895Y-118855442D01*
X158865791Y-118785168D01*
X158895285Y-118720588D01*
X158942291Y-118686691D01*
X158949795Y-118683583D01*
X159001405Y-118662205D01*
X159075775Y-118605138D01*
X159141996Y-118579537D01*
X159152480Y-118579100D01*
X159271837Y-118579100D01*
X159285608Y-118575056D01*
X159287637Y-118561517D01*
X159282084Y-118519330D01*
X159277846Y-118503515D01*
X159256910Y-118452970D01*
X159249321Y-118382380D01*
X159256911Y-118356533D01*
X159278332Y-118304820D01*
X159278333Y-118304815D01*
X159281493Y-118297187D01*
X159296833Y-118180666D01*
X159296833Y-117927534D01*
X159292203Y-117892361D01*
X159282571Y-117819201D01*
X159281493Y-117811013D01*
X159267792Y-117777934D01*
X159257181Y-117752318D01*
X159249592Y-117681728D01*
X159257181Y-117655882D01*
X159278333Y-117604817D01*
X159278334Y-117604814D01*
X159281493Y-117597187D01*
X159296833Y-117480666D01*
X159296833Y-117227534D01*
X159281493Y-117111013D01*
X159256910Y-117051664D01*
X159249321Y-116981076D01*
X159256910Y-116955228D01*
X159277846Y-116904685D01*
X159282084Y-116888868D01*
X159287588Y-116847060D01*
X159285377Y-116832878D01*
X159272220Y-116829100D01*
X159152481Y-116829100D01*
X159084360Y-116809098D01*
X159075777Y-116803063D01*
X159007955Y-116751022D01*
X159001404Y-116745995D01*
X158993773Y-116742834D01*
X158942291Y-116721509D01*
X158887010Y-116676960D01*
X158864589Y-116609597D01*
X158882147Y-116540806D01*
X158934110Y-116492427D01*
X158990509Y-116479100D01*
X159271837Y-116479100D01*
X159285608Y-116475056D01*
X159287637Y-116461517D01*
X159282084Y-116419330D01*
X159277846Y-116403515D01*
X159256640Y-116352318D01*
X159249051Y-116281728D01*
X159256640Y-116255882D01*
X159277845Y-116204688D01*
X159282084Y-116188868D01*
X159287588Y-116147060D01*
X159285377Y-116132878D01*
X159272220Y-116129100D01*
X158990509Y-116129100D01*
X158922388Y-116109098D01*
X158875895Y-116055442D01*
X158865791Y-115985168D01*
X158895285Y-115920588D01*
X158942291Y-115886691D01*
X158949795Y-115883583D01*
X159001405Y-115862205D01*
X159075775Y-115805138D01*
X159141996Y-115779537D01*
X159152480Y-115779100D01*
X159271837Y-115779100D01*
X159285608Y-115775056D01*
X159287637Y-115761517D01*
X159282084Y-115719330D01*
X159277846Y-115703515D01*
X159256910Y-115652970D01*
X159249321Y-115582380D01*
X159256911Y-115556533D01*
X159278332Y-115504820D01*
X159278334Y-115504813D01*
X159281493Y-115497187D01*
X159296833Y-115380666D01*
X159296833Y-115127534D01*
X159290659Y-115080633D01*
X159282571Y-115019201D01*
X159281493Y-115011013D01*
X159256910Y-114951664D01*
X159249321Y-114881076D01*
X159256910Y-114855228D01*
X159277846Y-114804685D01*
X159282084Y-114788868D01*
X159287588Y-114747060D01*
X159285377Y-114732878D01*
X159272220Y-114729100D01*
X159152481Y-114729100D01*
X159084360Y-114709098D01*
X159075778Y-114703063D01*
X159011919Y-114654063D01*
X158970051Y-114596725D01*
X158965829Y-114525854D01*
X159000592Y-114463951D01*
X159011918Y-114454138D01*
X159075776Y-114405138D01*
X159141996Y-114379537D01*
X159152480Y-114379100D01*
X159271837Y-114379100D01*
X159285608Y-114375056D01*
X159287637Y-114361517D01*
X159282084Y-114319330D01*
X159277846Y-114303515D01*
X159256910Y-114252970D01*
X159249321Y-114182380D01*
X159256911Y-114156533D01*
X159278332Y-114104820D01*
X159278333Y-114104815D01*
X159281493Y-114097187D01*
X159296833Y-113980666D01*
X159296833Y-113727534D01*
X159281493Y-113611013D01*
X159268431Y-113579477D01*
X159257181Y-113552318D01*
X159249592Y-113481728D01*
X159257181Y-113455882D01*
X159278333Y-113404817D01*
X159278334Y-113404814D01*
X159281493Y-113397187D01*
X159296833Y-113280666D01*
X159296833Y-113027534D01*
X159281493Y-112911013D01*
X159257181Y-112852318D01*
X159249592Y-112781728D01*
X159257181Y-112755882D01*
X159278333Y-112704817D01*
X159278334Y-112704814D01*
X159281493Y-112697187D01*
X159296833Y-112580666D01*
X159296833Y-112327534D01*
X159281493Y-112211013D01*
X159256910Y-112151664D01*
X159249321Y-112081076D01*
X159256910Y-112055228D01*
X159277846Y-112004685D01*
X159282084Y-111988868D01*
X159287588Y-111947060D01*
X159285377Y-111932878D01*
X159272220Y-111929100D01*
X159152481Y-111929100D01*
X159084360Y-111909098D01*
X159075777Y-111903063D01*
X159007955Y-111851022D01*
X159001404Y-111845995D01*
X158993773Y-111842834D01*
X158942291Y-111821509D01*
X158887010Y-111776960D01*
X158864589Y-111709597D01*
X158882147Y-111640806D01*
X158934110Y-111592427D01*
X158990509Y-111579100D01*
X159271837Y-111579100D01*
X159285608Y-111575056D01*
X159287637Y-111561517D01*
X159282084Y-111519330D01*
X159277846Y-111503515D01*
X159224162Y-111373910D01*
X159215973Y-111359727D01*
X159130578Y-111248437D01*
X159118998Y-111236857D01*
X159007703Y-111151458D01*
X158993522Y-111143271D01*
X158863919Y-111089587D01*
X158848102Y-111085349D01*
X158743955Y-111071638D01*
X158735746Y-111071100D01*
X156481448Y-111071100D01*
X156466209Y-111075575D01*
X156465004Y-111076965D01*
X156463333Y-111084648D01*
X156463333Y-111560986D01*
X156477461Y-111609103D01*
X156477461Y-111680099D01*
X156439077Y-111739825D01*
X156374496Y-111769318D01*
X156356565Y-111770600D01*
X156239333Y-111770600D01*
X156171212Y-111750598D01*
X156124719Y-111696942D01*
X156113333Y-111644600D01*
X156113333Y-111089216D01*
X156108858Y-111073977D01*
X156107468Y-111072772D01*
X156099785Y-111071101D01*
X153840922Y-111071101D01*
X153832709Y-111071639D01*
X153728563Y-111085349D01*
X153712748Y-111089587D01*
X153583143Y-111143271D01*
X153568960Y-111151460D01*
X153457670Y-111236855D01*
X153446086Y-111248439D01*
X153355869Y-111366012D01*
X153298531Y-111407879D01*
X153227660Y-111412101D01*
X153165758Y-111377337D01*
X153144656Y-111348461D01*
X153098449Y-111261559D01*
X153095551Y-111256108D01*
X152976748Y-111110440D01*
X152913162Y-111057837D01*
X152836662Y-110994550D01*
X152836657Y-110994547D01*
X152831913Y-110990622D01*
X152826494Y-110987692D01*
X152826491Y-110987690D01*
X152710933Y-110925209D01*
X152666564Y-110901219D01*
X152486999Y-110845634D01*
X152480874Y-110844990D01*
X152480873Y-110844990D01*
X152306185Y-110826629D01*
X152306184Y-110826629D01*
X152300057Y-110825985D01*
X152223006Y-110832997D01*
X152118998Y-110842463D01*
X152118995Y-110842464D01*
X152112859Y-110843022D01*
X152106953Y-110844760D01*
X152106949Y-110844761D01*
X151973611Y-110884005D01*
X151932535Y-110896094D01*
X151927078Y-110898947D01*
X151927075Y-110898948D01*
X151779689Y-110975999D01*
X151710053Y-110989833D01*
X151656045Y-110972114D01*
X151648532Y-110967564D01*
X151648529Y-110967563D01*
X151642032Y-110963628D01*
X151634785Y-110961357D01*
X151634783Y-110961356D01*
X151519437Y-110925209D01*
X151478395Y-110912347D01*
X151404968Y-110905600D01*
X151402070Y-110905600D01*
X151147668Y-110905601D01*
X150891699Y-110905601D01*
X150888841Y-110905864D01*
X150888832Y-110905864D01*
X150853329Y-110909126D01*
X150818271Y-110912347D01*
X150811893Y-110914346D01*
X150811892Y-110914346D01*
X150661883Y-110961356D01*
X150661881Y-110961357D01*
X150654634Y-110963628D01*
X150507952Y-111052461D01*
X150412428Y-111147985D01*
X150350116Y-111182011D01*
X150279301Y-111176946D01*
X150234238Y-111147985D01*
X150138714Y-111052461D01*
X149992032Y-110963628D01*
X149984785Y-110961357D01*
X149984783Y-110961356D01*
X149869437Y-110925209D01*
X149828395Y-110912347D01*
X149754968Y-110905600D01*
X149752070Y-110905600D01*
X149497668Y-110905601D01*
X149241699Y-110905601D01*
X149238841Y-110905864D01*
X149238832Y-110905864D01*
X149203329Y-110909126D01*
X149168271Y-110912347D01*
X149161893Y-110914346D01*
X149161892Y-110914346D01*
X149011883Y-110961356D01*
X149011881Y-110961357D01*
X149004634Y-110963628D01*
X148857952Y-111052461D01*
X148736694Y-111173719D01*
X148647861Y-111320401D01*
X148596580Y-111484038D01*
X148589833Y-111557465D01*
X148589834Y-112220734D01*
X148596580Y-112294162D01*
X148647861Y-112457799D01*
X148736694Y-112604481D01*
X148852928Y-112720715D01*
X148886954Y-112783027D01*
X148889833Y-112809810D01*
X148889833Y-113144600D01*
X148869831Y-113212721D01*
X148816175Y-113259214D01*
X148763833Y-113270600D01*
X148024846Y-113270600D01*
X147980617Y-113262582D01*
X147894044Y-113230127D01*
X147894042Y-113230127D01*
X147886649Y-113227355D01*
X147878801Y-113226502D01*
X147878799Y-113226502D01*
X147827864Y-113220969D01*
X147824467Y-113220600D01*
X146228199Y-113220600D01*
X146166017Y-113227355D01*
X146029628Y-113278485D01*
X145913072Y-113365839D01*
X145904276Y-113377576D01*
X145847417Y-113420089D01*
X145776599Y-113425114D01*
X145714306Y-113391054D01*
X145680315Y-113328723D01*
X145678188Y-113288401D01*
X145678585Y-113284753D01*
X145684833Y-113227234D01*
X145684833Y-111130966D01*
X145678078Y-111068784D01*
X145626948Y-110932395D01*
X145539594Y-110815839D01*
X145423038Y-110728485D01*
X145286649Y-110677355D01*
X145224467Y-110670600D01*
X143628199Y-110670600D01*
X143566017Y-110677355D01*
X143429628Y-110728485D01*
X143313072Y-110815839D01*
X143225718Y-110932395D01*
X143174588Y-111068784D01*
X143167833Y-111130966D01*
X143167833Y-113227234D01*
X143174588Y-113289416D01*
X143225718Y-113425805D01*
X143313072Y-113542361D01*
X143429628Y-113629715D01*
X143566017Y-113680845D01*
X143628199Y-113687600D01*
X145224467Y-113687600D01*
X145286649Y-113680845D01*
X145423038Y-113629715D01*
X145539594Y-113542361D01*
X145548390Y-113530624D01*
X145605249Y-113488111D01*
X145676067Y-113483086D01*
X145738360Y-113517146D01*
X145772351Y-113579477D01*
X145774478Y-113619797D01*
X145767833Y-113680966D01*
X145767833Y-114077234D01*
X145768202Y-114080629D01*
X145768202Y-114080633D01*
X145771989Y-114115493D01*
X145771989Y-114142706D01*
X145767833Y-114180966D01*
X145767833Y-114577234D01*
X145768202Y-114580629D01*
X145768202Y-114580633D01*
X145771989Y-114615493D01*
X145771989Y-114642706D01*
X145767833Y-114680966D01*
X145767833Y-115077234D01*
X145768202Y-115080629D01*
X145768202Y-115080633D01*
X145771989Y-115115493D01*
X145771989Y-115142706D01*
X145767833Y-115180966D01*
X145767833Y-115577234D01*
X145768202Y-115580629D01*
X145768202Y-115580633D01*
X145771989Y-115615493D01*
X145771989Y-115642706D01*
X145767833Y-115680966D01*
X145767833Y-116077234D01*
X145772242Y-116117820D01*
X145772242Y-116145033D01*
X145768702Y-116177617D01*
X145768333Y-116184428D01*
X145768333Y-116210985D01*
X145772808Y-116226224D01*
X145798503Y-116248489D01*
X145798045Y-116249018D01*
X145810433Y-116255782D01*
X145825541Y-116275940D01*
X145825719Y-116275806D01*
X145846501Y-116303536D01*
X145871348Y-116370043D01*
X145856294Y-116439425D01*
X145846501Y-116454664D01*
X145825719Y-116482394D01*
X145825430Y-116482178D01*
X145779268Y-116528239D01*
X145773915Y-116530453D01*
X145770005Y-116534965D01*
X145768334Y-116542648D01*
X145768334Y-116573770D01*
X145768703Y-116580588D01*
X145772242Y-116613167D01*
X145772242Y-116640380D01*
X145767833Y-116680966D01*
X145767833Y-117077234D01*
X145768202Y-117080629D01*
X145768202Y-117080633D01*
X145771989Y-117115493D01*
X145771989Y-117142706D01*
X145767833Y-117180966D01*
X145767833Y-117577234D01*
X145770830Y-117604817D01*
X145774478Y-117638401D01*
X145761950Y-117708283D01*
X145713630Y-117760299D01*
X145644858Y-117777934D01*
X145577470Y-117755588D01*
X145548391Y-117727577D01*
X145539594Y-117715839D01*
X145423038Y-117628485D01*
X145286649Y-117577355D01*
X145224467Y-117570600D01*
X143628199Y-117570600D01*
X143566017Y-117577355D01*
X143429628Y-117628485D01*
X143313072Y-117715839D01*
X143225718Y-117832395D01*
X143174588Y-117968784D01*
X143167833Y-118030966D01*
X143167833Y-120127234D01*
X133334469Y-120127234D01*
X133329590Y-104498500D01*
X133329453Y-104059721D01*
X133821024Y-104059721D01*
X133823491Y-104068352D01*
X133829150Y-104088153D01*
X133832728Y-104104915D01*
X133836920Y-104134187D01*
X133840634Y-104142355D01*
X133840634Y-104142356D01*
X133847548Y-104157562D01*
X133853996Y-104175086D01*
X133861051Y-104199771D01*
X133865843Y-104207365D01*
X133865844Y-104207368D01*
X133876830Y-104224780D01*
X133884969Y-104239863D01*
X133897208Y-104266782D01*
X133903069Y-104273584D01*
X133913970Y-104286235D01*
X133925073Y-104301239D01*
X133938776Y-104322958D01*
X133945501Y-104328897D01*
X133945504Y-104328901D01*
X133960938Y-104342532D01*
X133972982Y-104354724D01*
X133986427Y-104370327D01*
X133986430Y-104370329D01*
X133992287Y-104377127D01*
X133999816Y-104382007D01*
X133999817Y-104382008D01*
X134013835Y-104391094D01*
X134028709Y-104402385D01*
X134041217Y-104413431D01*
X134047951Y-104419378D01*
X134074711Y-104431942D01*
X134089691Y-104440263D01*
X134106983Y-104451471D01*
X134106988Y-104451473D01*
X134114515Y-104456352D01*
X134123108Y-104458922D01*
X134123113Y-104458924D01*
X134139120Y-104463711D01*
X134156564Y-104470372D01*
X134171676Y-104477467D01*
X134171678Y-104477468D01*
X134179800Y-104481281D01*
X134188667Y-104482662D01*
X134188668Y-104482662D01*
X134191353Y-104483080D01*
X134209017Y-104485830D01*
X134225732Y-104489613D01*
X134245466Y-104495515D01*
X134245472Y-104495516D01*
X134254066Y-104498086D01*
X134263037Y-104498141D01*
X134263038Y-104498141D01*
X134273097Y-104498202D01*
X134288506Y-104498296D01*
X134289289Y-104498329D01*
X134290386Y-104498500D01*
X134321377Y-104498500D01*
X134322147Y-104498502D01*
X134395785Y-104498952D01*
X134395786Y-104498952D01*
X134399721Y-104498976D01*
X134401065Y-104498592D01*
X134402410Y-104498500D01*
X141321377Y-104498500D01*
X141322148Y-104498502D01*
X141399721Y-104498976D01*
X141428152Y-104490850D01*
X141444915Y-104487272D01*
X141445753Y-104487152D01*
X141474187Y-104483080D01*
X141497564Y-104472451D01*
X141515087Y-104466004D01*
X141539771Y-104458949D01*
X141547365Y-104454157D01*
X141547368Y-104454156D01*
X141564780Y-104443170D01*
X141579865Y-104435030D01*
X141606782Y-104422792D01*
X141626235Y-104406030D01*
X141641239Y-104394927D01*
X141662958Y-104381224D01*
X141668897Y-104374499D01*
X141668901Y-104374496D01*
X141682532Y-104359062D01*
X141694724Y-104347018D01*
X141710327Y-104333573D01*
X141710329Y-104333570D01*
X141717127Y-104327713D01*
X141731094Y-104306165D01*
X141742385Y-104291291D01*
X141753431Y-104278783D01*
X141753432Y-104278782D01*
X141759378Y-104272049D01*
X141771943Y-104245287D01*
X141780263Y-104230309D01*
X141791471Y-104213017D01*
X141791473Y-104213012D01*
X141796352Y-104205485D01*
X141798922Y-104196892D01*
X141798924Y-104196887D01*
X141803711Y-104180880D01*
X141810372Y-104163436D01*
X141817467Y-104148324D01*
X141817468Y-104148322D01*
X141821281Y-104140200D01*
X141825830Y-104110983D01*
X141829613Y-104094268D01*
X141835515Y-104074534D01*
X141835516Y-104074528D01*
X141838086Y-104065934D01*
X141838124Y-104059721D01*
X142321024Y-104059721D01*
X142323491Y-104068352D01*
X142329150Y-104088153D01*
X142332728Y-104104915D01*
X142336920Y-104134187D01*
X142340634Y-104142355D01*
X142340634Y-104142356D01*
X142347548Y-104157562D01*
X142353996Y-104175086D01*
X142361051Y-104199771D01*
X142365843Y-104207365D01*
X142365844Y-104207368D01*
X142376830Y-104224780D01*
X142384969Y-104239863D01*
X142397208Y-104266782D01*
X142403069Y-104273584D01*
X142413970Y-104286235D01*
X142425073Y-104301239D01*
X142438776Y-104322958D01*
X142445501Y-104328897D01*
X142445504Y-104328901D01*
X142460938Y-104342532D01*
X142472982Y-104354724D01*
X142486427Y-104370327D01*
X142486430Y-104370329D01*
X142492287Y-104377127D01*
X142499816Y-104382007D01*
X142499817Y-104382008D01*
X142513835Y-104391094D01*
X142528709Y-104402385D01*
X142541217Y-104413431D01*
X142547951Y-104419378D01*
X142574711Y-104431942D01*
X142589691Y-104440263D01*
X142606983Y-104451471D01*
X142606988Y-104451473D01*
X142614515Y-104456352D01*
X142623108Y-104458922D01*
X142623113Y-104458924D01*
X142639120Y-104463711D01*
X142656564Y-104470372D01*
X142671676Y-104477467D01*
X142671678Y-104477468D01*
X142679800Y-104481281D01*
X142688667Y-104482662D01*
X142688668Y-104482662D01*
X142691353Y-104483080D01*
X142709017Y-104485830D01*
X142725732Y-104489613D01*
X142745466Y-104495515D01*
X142745472Y-104495516D01*
X142754066Y-104498086D01*
X142763037Y-104498141D01*
X142763038Y-104498141D01*
X142773097Y-104498202D01*
X142788506Y-104498296D01*
X142789289Y-104498329D01*
X142790386Y-104498500D01*
X142821377Y-104498500D01*
X142822147Y-104498502D01*
X142895785Y-104498952D01*
X142895786Y-104498952D01*
X142899721Y-104498976D01*
X142901065Y-104498592D01*
X142902410Y-104498500D01*
X153821377Y-104498500D01*
X153822148Y-104498502D01*
X153899721Y-104498976D01*
X153928152Y-104490850D01*
X153944915Y-104487272D01*
X153945753Y-104487152D01*
X153974187Y-104483080D01*
X153997564Y-104472451D01*
X154015087Y-104466004D01*
X154039771Y-104458949D01*
X154047365Y-104454157D01*
X154047368Y-104454156D01*
X154064780Y-104443170D01*
X154079865Y-104435030D01*
X154106782Y-104422792D01*
X154126235Y-104406030D01*
X154141239Y-104394927D01*
X154162958Y-104381224D01*
X154168897Y-104374499D01*
X154168901Y-104374496D01*
X154182532Y-104359062D01*
X154194724Y-104347018D01*
X154210327Y-104333573D01*
X154210329Y-104333570D01*
X154217127Y-104327713D01*
X154231094Y-104306165D01*
X154242385Y-104291291D01*
X154253431Y-104278783D01*
X154253432Y-104278782D01*
X154259378Y-104272049D01*
X154271943Y-104245287D01*
X154280263Y-104230309D01*
X154291471Y-104213017D01*
X154291473Y-104213012D01*
X154296352Y-104205485D01*
X154298922Y-104196892D01*
X154298924Y-104196887D01*
X154303711Y-104180880D01*
X154310372Y-104163436D01*
X154317467Y-104148324D01*
X154317468Y-104148322D01*
X154321281Y-104140200D01*
X154325830Y-104110983D01*
X154329613Y-104094268D01*
X154335515Y-104074534D01*
X154335516Y-104074528D01*
X154338086Y-104065934D01*
X154338124Y-104059721D01*
X154821024Y-104059721D01*
X154823491Y-104068352D01*
X154829150Y-104088153D01*
X154832728Y-104104915D01*
X154836920Y-104134187D01*
X154840634Y-104142355D01*
X154840634Y-104142356D01*
X154847548Y-104157562D01*
X154853996Y-104175086D01*
X154861051Y-104199771D01*
X154865843Y-104207365D01*
X154865844Y-104207368D01*
X154876830Y-104224780D01*
X154884969Y-104239863D01*
X154897208Y-104266782D01*
X154903069Y-104273584D01*
X154913970Y-104286235D01*
X154925073Y-104301239D01*
X154938776Y-104322958D01*
X154945501Y-104328897D01*
X154945504Y-104328901D01*
X154960938Y-104342532D01*
X154972982Y-104354724D01*
X154986427Y-104370327D01*
X154986430Y-104370329D01*
X154992287Y-104377127D01*
X154999816Y-104382007D01*
X154999817Y-104382008D01*
X155013835Y-104391094D01*
X155028709Y-104402385D01*
X155041217Y-104413431D01*
X155047951Y-104419378D01*
X155074711Y-104431942D01*
X155089691Y-104440263D01*
X155106983Y-104451471D01*
X155106988Y-104451473D01*
X155114515Y-104456352D01*
X155123108Y-104458922D01*
X155123113Y-104458924D01*
X155139120Y-104463711D01*
X155156564Y-104470372D01*
X155171676Y-104477467D01*
X155171678Y-104477468D01*
X155179800Y-104481281D01*
X155188667Y-104482662D01*
X155188668Y-104482662D01*
X155191353Y-104483080D01*
X155209017Y-104485830D01*
X155225732Y-104489613D01*
X155245466Y-104495515D01*
X155245472Y-104495516D01*
X155254066Y-104498086D01*
X155263037Y-104498141D01*
X155263038Y-104498141D01*
X155273097Y-104498202D01*
X155288506Y-104498296D01*
X155289289Y-104498329D01*
X155290386Y-104498500D01*
X155321377Y-104498500D01*
X155322147Y-104498502D01*
X155395785Y-104498952D01*
X155395786Y-104498952D01*
X155399721Y-104498976D01*
X155401065Y-104498592D01*
X155402410Y-104498500D01*
X162321377Y-104498500D01*
X162322148Y-104498502D01*
X162399721Y-104498976D01*
X162428152Y-104490850D01*
X162444915Y-104487272D01*
X162445753Y-104487152D01*
X162474187Y-104483080D01*
X162497564Y-104472451D01*
X162515087Y-104466004D01*
X162539771Y-104458949D01*
X162547365Y-104454157D01*
X162547368Y-104454156D01*
X162564780Y-104443170D01*
X162579865Y-104435030D01*
X162606782Y-104422792D01*
X162626235Y-104406030D01*
X162641239Y-104394927D01*
X162662958Y-104381224D01*
X162668897Y-104374499D01*
X162668901Y-104374496D01*
X162682532Y-104359062D01*
X162694724Y-104347018D01*
X162710327Y-104333573D01*
X162710329Y-104333570D01*
X162717127Y-104327713D01*
X162731094Y-104306165D01*
X162742385Y-104291291D01*
X162753431Y-104278783D01*
X162753432Y-104278782D01*
X162759378Y-104272049D01*
X162771943Y-104245287D01*
X162780263Y-104230309D01*
X162791471Y-104213017D01*
X162791473Y-104213012D01*
X162796352Y-104205485D01*
X162798922Y-104196892D01*
X162798924Y-104196887D01*
X162803711Y-104180880D01*
X162810372Y-104163436D01*
X162817467Y-104148324D01*
X162817468Y-104148322D01*
X162821281Y-104140200D01*
X162825830Y-104110983D01*
X162829613Y-104094268D01*
X162835515Y-104074534D01*
X162835516Y-104074528D01*
X162838086Y-104065934D01*
X162838296Y-104031494D01*
X162838329Y-104030711D01*
X162838500Y-104029614D01*
X162838500Y-103998623D01*
X162838502Y-103997853D01*
X162838952Y-103924215D01*
X162838952Y-103924214D01*
X162838976Y-103920279D01*
X162838592Y-103918935D01*
X162838500Y-103917590D01*
X162838500Y-101008623D01*
X162838502Y-101007853D01*
X162838800Y-100959102D01*
X162838976Y-100930279D01*
X162830850Y-100901847D01*
X162827272Y-100885085D01*
X162824352Y-100864698D01*
X162823080Y-100855813D01*
X162812451Y-100832436D01*
X162806004Y-100814913D01*
X162804348Y-100809120D01*
X162798949Y-100790229D01*
X162794156Y-100782632D01*
X162783170Y-100765220D01*
X162775030Y-100750135D01*
X162770993Y-100741256D01*
X162762792Y-100723218D01*
X162746030Y-100703765D01*
X162734927Y-100688761D01*
X162721224Y-100667042D01*
X162714499Y-100661103D01*
X162714496Y-100661099D01*
X162699062Y-100647468D01*
X162687018Y-100635276D01*
X162673573Y-100619673D01*
X162673570Y-100619671D01*
X162667713Y-100612873D01*
X162654009Y-100603990D01*
X162646165Y-100598906D01*
X162631291Y-100587615D01*
X162618783Y-100576569D01*
X162618782Y-100576568D01*
X162612049Y-100570622D01*
X162585287Y-100558057D01*
X162570309Y-100549737D01*
X162553017Y-100538529D01*
X162553012Y-100538527D01*
X162545485Y-100533648D01*
X162536892Y-100531078D01*
X162536887Y-100531076D01*
X162520880Y-100526289D01*
X162503436Y-100519628D01*
X162488324Y-100512533D01*
X162488322Y-100512532D01*
X162480200Y-100508719D01*
X162471333Y-100507338D01*
X162471332Y-100507338D01*
X162460478Y-100505648D01*
X162450983Y-100504170D01*
X162434268Y-100500387D01*
X162414534Y-100494485D01*
X162414528Y-100494484D01*
X162405934Y-100491914D01*
X162396963Y-100491859D01*
X162396962Y-100491859D01*
X162386903Y-100491798D01*
X162371494Y-100491704D01*
X162370711Y-100491671D01*
X162369614Y-100491500D01*
X162338623Y-100491500D01*
X162337853Y-100491498D01*
X162264215Y-100491048D01*
X162264214Y-100491048D01*
X162260279Y-100491024D01*
X162258935Y-100491408D01*
X162257590Y-100491500D01*
X155338623Y-100491500D01*
X155337853Y-100491498D01*
X155337037Y-100491493D01*
X155260279Y-100491024D01*
X155241634Y-100496353D01*
X155231847Y-100499150D01*
X155215085Y-100502728D01*
X155185813Y-100506920D01*
X155177645Y-100510634D01*
X155177644Y-100510634D01*
X155162438Y-100517548D01*
X155144914Y-100523996D01*
X155120229Y-100531051D01*
X155112635Y-100535843D01*
X155112632Y-100535844D01*
X155095220Y-100546830D01*
X155080137Y-100554969D01*
X155053218Y-100567208D01*
X155046416Y-100573069D01*
X155033765Y-100583970D01*
X155018761Y-100595073D01*
X154997042Y-100608776D01*
X154991103Y-100615501D01*
X154991099Y-100615504D01*
X154977468Y-100630938D01*
X154965276Y-100642982D01*
X154949673Y-100656427D01*
X154949671Y-100656430D01*
X154942873Y-100662287D01*
X154937993Y-100669816D01*
X154937992Y-100669817D01*
X154928906Y-100683835D01*
X154917615Y-100698709D01*
X154906569Y-100711217D01*
X154900622Y-100717951D01*
X154889680Y-100741256D01*
X154888058Y-100744711D01*
X154879737Y-100759691D01*
X154868529Y-100776983D01*
X154868527Y-100776988D01*
X154863648Y-100784515D01*
X154861078Y-100793108D01*
X154861076Y-100793113D01*
X154856289Y-100809120D01*
X154849628Y-100826564D01*
X154842533Y-100841676D01*
X154838719Y-100849800D01*
X154834866Y-100874548D01*
X154834170Y-100879015D01*
X154830387Y-100895732D01*
X154824485Y-100915466D01*
X154824484Y-100915472D01*
X154821914Y-100924066D01*
X154821859Y-100933037D01*
X154821859Y-100933038D01*
X154821704Y-100958497D01*
X154821671Y-100959289D01*
X154821500Y-100960386D01*
X154821500Y-100991377D01*
X154821498Y-100992147D01*
X154821024Y-101069721D01*
X154821408Y-101071065D01*
X154821500Y-101072410D01*
X154821500Y-103981377D01*
X154821498Y-103982147D01*
X154821024Y-104059721D01*
X154338124Y-104059721D01*
X154338296Y-104031494D01*
X154338329Y-104030711D01*
X154338500Y-104029614D01*
X154338500Y-103998623D01*
X154338502Y-103997853D01*
X154338952Y-103924215D01*
X154338952Y-103924214D01*
X154338976Y-103920279D01*
X154338592Y-103918935D01*
X154338500Y-103917590D01*
X154338500Y-101008623D01*
X154338502Y-101007853D01*
X154338800Y-100959102D01*
X154338976Y-100930279D01*
X154330850Y-100901847D01*
X154327272Y-100885085D01*
X154324352Y-100864698D01*
X154323080Y-100855813D01*
X154312451Y-100832436D01*
X154306004Y-100814913D01*
X154304348Y-100809120D01*
X154298949Y-100790229D01*
X154294156Y-100782632D01*
X154283170Y-100765220D01*
X154275030Y-100750135D01*
X154270993Y-100741256D01*
X154262792Y-100723218D01*
X154246030Y-100703765D01*
X154234927Y-100688761D01*
X154221224Y-100667042D01*
X154214499Y-100661103D01*
X154214496Y-100661099D01*
X154199062Y-100647468D01*
X154187018Y-100635276D01*
X154173573Y-100619673D01*
X154173570Y-100619671D01*
X154167713Y-100612873D01*
X154154009Y-100603990D01*
X154146165Y-100598906D01*
X154131291Y-100587615D01*
X154118783Y-100576569D01*
X154118782Y-100576568D01*
X154112049Y-100570622D01*
X154085287Y-100558057D01*
X154070309Y-100549737D01*
X154053017Y-100538529D01*
X154053012Y-100538527D01*
X154045485Y-100533648D01*
X154036892Y-100531078D01*
X154036887Y-100531076D01*
X154020880Y-100526289D01*
X154003436Y-100519628D01*
X153988324Y-100512533D01*
X153988322Y-100512532D01*
X153980200Y-100508719D01*
X153971333Y-100507338D01*
X153971332Y-100507338D01*
X153960478Y-100505648D01*
X153950983Y-100504170D01*
X153934268Y-100500387D01*
X153914534Y-100494485D01*
X153914528Y-100494484D01*
X153905934Y-100491914D01*
X153896963Y-100491859D01*
X153896962Y-100491859D01*
X153886903Y-100491798D01*
X153871494Y-100491704D01*
X153870711Y-100491671D01*
X153869614Y-100491500D01*
X153838623Y-100491500D01*
X153837853Y-100491498D01*
X153764215Y-100491048D01*
X153764214Y-100491048D01*
X153760279Y-100491024D01*
X153758935Y-100491408D01*
X153757590Y-100491500D01*
X142838623Y-100491500D01*
X142837853Y-100491498D01*
X142837037Y-100491493D01*
X142760279Y-100491024D01*
X142741634Y-100496353D01*
X142731847Y-100499150D01*
X142715085Y-100502728D01*
X142685813Y-100506920D01*
X142677645Y-100510634D01*
X142677644Y-100510634D01*
X142662438Y-100517548D01*
X142644914Y-100523996D01*
X142620229Y-100531051D01*
X142612635Y-100535843D01*
X142612632Y-100535844D01*
X142595220Y-100546830D01*
X142580137Y-100554969D01*
X142553218Y-100567208D01*
X142546416Y-100573069D01*
X142533765Y-100583970D01*
X142518761Y-100595073D01*
X142497042Y-100608776D01*
X142491103Y-100615501D01*
X142491099Y-100615504D01*
X142477468Y-100630938D01*
X142465276Y-100642982D01*
X142449673Y-100656427D01*
X142449671Y-100656430D01*
X142442873Y-100662287D01*
X142437993Y-100669816D01*
X142437992Y-100669817D01*
X142428906Y-100683835D01*
X142417615Y-100698709D01*
X142406569Y-100711217D01*
X142400622Y-100717951D01*
X142389680Y-100741256D01*
X142388058Y-100744711D01*
X142379737Y-100759691D01*
X142368529Y-100776983D01*
X142368527Y-100776988D01*
X142363648Y-100784515D01*
X142361078Y-100793108D01*
X142361076Y-100793113D01*
X142356289Y-100809120D01*
X142349628Y-100826564D01*
X142342533Y-100841676D01*
X142338719Y-100849800D01*
X142334866Y-100874548D01*
X142334170Y-100879015D01*
X142330387Y-100895732D01*
X142324485Y-100915466D01*
X142324484Y-100915472D01*
X142321914Y-100924066D01*
X142321859Y-100933037D01*
X142321859Y-100933038D01*
X142321704Y-100958497D01*
X142321671Y-100959289D01*
X142321500Y-100960386D01*
X142321500Y-100991377D01*
X142321498Y-100992147D01*
X142321024Y-101069721D01*
X142321408Y-101071065D01*
X142321500Y-101072410D01*
X142321500Y-103981377D01*
X142321498Y-103982147D01*
X142321024Y-104059721D01*
X141838124Y-104059721D01*
X141838296Y-104031494D01*
X141838329Y-104030711D01*
X141838500Y-104029614D01*
X141838500Y-103998623D01*
X141838502Y-103997853D01*
X141838952Y-103924215D01*
X141838952Y-103924214D01*
X141838976Y-103920279D01*
X141838592Y-103918935D01*
X141838500Y-103917590D01*
X141838500Y-101008623D01*
X141838502Y-101007853D01*
X141838800Y-100959102D01*
X141838976Y-100930279D01*
X141830850Y-100901847D01*
X141827272Y-100885085D01*
X141824352Y-100864698D01*
X141823080Y-100855813D01*
X141812451Y-100832436D01*
X141806004Y-100814913D01*
X141804348Y-100809120D01*
X141798949Y-100790229D01*
X141794156Y-100782632D01*
X141783170Y-100765220D01*
X141775030Y-100750135D01*
X141770993Y-100741256D01*
X141762792Y-100723218D01*
X141746030Y-100703765D01*
X141734927Y-100688761D01*
X141721224Y-100667042D01*
X141714499Y-100661103D01*
X141714496Y-100661099D01*
X141699062Y-100647468D01*
X141687018Y-100635276D01*
X141673573Y-100619673D01*
X141673570Y-100619671D01*
X141667713Y-100612873D01*
X141654009Y-100603990D01*
X141646165Y-100598906D01*
X141631291Y-100587615D01*
X141618783Y-100576569D01*
X141618782Y-100576568D01*
X141612049Y-100570622D01*
X141585287Y-100558057D01*
X141570309Y-100549737D01*
X141553017Y-100538529D01*
X141553012Y-100538527D01*
X141545485Y-100533648D01*
X141536892Y-100531078D01*
X141536887Y-100531076D01*
X141520880Y-100526289D01*
X141503436Y-100519628D01*
X141488324Y-100512533D01*
X141488322Y-100512532D01*
X141480200Y-100508719D01*
X141471333Y-100507338D01*
X141471332Y-100507338D01*
X141460478Y-100505648D01*
X141450983Y-100504170D01*
X141434268Y-100500387D01*
X141414534Y-100494485D01*
X141414528Y-100494484D01*
X141405934Y-100491914D01*
X141396963Y-100491859D01*
X141396962Y-100491859D01*
X141386903Y-100491798D01*
X141371494Y-100491704D01*
X141370711Y-100491671D01*
X141369614Y-100491500D01*
X141338623Y-100491500D01*
X141337853Y-100491498D01*
X141264215Y-100491048D01*
X141264214Y-100491048D01*
X141260279Y-100491024D01*
X141258935Y-100491408D01*
X141257590Y-100491500D01*
X134338623Y-100491500D01*
X134337853Y-100491498D01*
X134337037Y-100491493D01*
X134260279Y-100491024D01*
X134241634Y-100496353D01*
X134231847Y-100499150D01*
X134215085Y-100502728D01*
X134185813Y-100506920D01*
X134177645Y-100510634D01*
X134177644Y-100510634D01*
X134162438Y-100517548D01*
X134144914Y-100523996D01*
X134120229Y-100531051D01*
X134112635Y-100535843D01*
X134112632Y-100535844D01*
X134095220Y-100546830D01*
X134080137Y-100554969D01*
X134053218Y-100567208D01*
X134046416Y-100573069D01*
X134033765Y-100583970D01*
X134018761Y-100595073D01*
X133997042Y-100608776D01*
X133991103Y-100615501D01*
X133991099Y-100615504D01*
X133977468Y-100630938D01*
X133965276Y-100642982D01*
X133949673Y-100656427D01*
X133949671Y-100656430D01*
X133942873Y-100662287D01*
X133937993Y-100669816D01*
X133937992Y-100669817D01*
X133928906Y-100683835D01*
X133917615Y-100698709D01*
X133906569Y-100711217D01*
X133900622Y-100717951D01*
X133889680Y-100741256D01*
X133888058Y-100744711D01*
X133879737Y-100759691D01*
X133868529Y-100776983D01*
X133868527Y-100776988D01*
X133863648Y-100784515D01*
X133861078Y-100793108D01*
X133861076Y-100793113D01*
X133856289Y-100809120D01*
X133849628Y-100826564D01*
X133842533Y-100841676D01*
X133838719Y-100849800D01*
X133834866Y-100874548D01*
X133834170Y-100879015D01*
X133830387Y-100895732D01*
X133824485Y-100915466D01*
X133824484Y-100915472D01*
X133821914Y-100924066D01*
X133821859Y-100933037D01*
X133821859Y-100933038D01*
X133821704Y-100958497D01*
X133821671Y-100959289D01*
X133821500Y-100960386D01*
X133821500Y-100991377D01*
X133821498Y-100992147D01*
X133821024Y-101069721D01*
X133821408Y-101071065D01*
X133821500Y-101072410D01*
X133821500Y-103981377D01*
X133821498Y-103982147D01*
X133821024Y-104059721D01*
X133329453Y-104059721D01*
X133328503Y-101018119D01*
X133328505Y-101017361D01*
X133328976Y-100940279D01*
X133320822Y-100911749D01*
X133317250Y-100895028D01*
X133314311Y-100874548D01*
X133314311Y-100874546D01*
X133313035Y-100865659D01*
X133309316Y-100857487D01*
X133309315Y-100857483D01*
X133302440Y-100842375D01*
X133295975Y-100824813D01*
X133294053Y-100818088D01*
X133288949Y-100800229D01*
X133273118Y-100775138D01*
X133264998Y-100760093D01*
X133256426Y-100741256D01*
X133256423Y-100741251D01*
X133252706Y-100733083D01*
X133246847Y-100726288D01*
X133246844Y-100726283D01*
X133236004Y-100713711D01*
X133224868Y-100698667D01*
X133224806Y-100698569D01*
X133211224Y-100677042D01*
X133188982Y-100657398D01*
X133176968Y-100645240D01*
X133173986Y-100641782D01*
X133157592Y-100622768D01*
X133136125Y-100608863D01*
X133121224Y-100597556D01*
X133108775Y-100586562D01*
X133102049Y-100580622D01*
X133093931Y-100576810D01*
X133093927Y-100576808D01*
X133075193Y-100568013D01*
X133060243Y-100559712D01*
X133035339Y-100543581D01*
X133010824Y-100536257D01*
X132993352Y-100529588D01*
X132970200Y-100518719D01*
X132961337Y-100517339D01*
X132961334Y-100517338D01*
X132945586Y-100514886D01*
X132940886Y-100514155D01*
X132924206Y-100510383D01*
X132904376Y-100504459D01*
X132904374Y-100504459D01*
X132895775Y-100501890D01*
X132877517Y-100501784D01*
X132861372Y-100501690D01*
X132860643Y-100501660D01*
X132859614Y-100501500D01*
X132828855Y-100501500D01*
X132828125Y-100501498D01*
X132827777Y-100501496D01*
X132750120Y-100501046D01*
X132748839Y-100501413D01*
X132747558Y-100501500D01*
X119049813Y-100501500D01*
X119034192Y-100500528D01*
X119033064Y-100500387D01*
X119012238Y-100497785D01*
X119009685Y-100497466D01*
X119009684Y-100497466D01*
X119000776Y-100496353D01*
X118985055Y-100498893D01*
X118960156Y-100500414D01*
X118766479Y-100493022D01*
X118749377Y-100491194D01*
X118533002Y-100452983D01*
X118516304Y-100448842D01*
X118307144Y-100381510D01*
X118291170Y-100375134D01*
X118093137Y-100279940D01*
X118078177Y-100271445D01*
X117894962Y-100150165D01*
X117881298Y-100139712D01*
X117844643Y-100107473D01*
X117716305Y-99994599D01*
X117704193Y-99982382D01*
X117560510Y-99816152D01*
X117550174Y-99802398D01*
X117430475Y-99618146D01*
X117422109Y-99603113D01*
X117328621Y-99404263D01*
X117322382Y-99388231D01*
X117256856Y-99178511D01*
X117252858Y-99161778D01*
X117216510Y-98945081D01*
X117214829Y-98927959D01*
X117209319Y-98741521D01*
X117211074Y-98720132D01*
X117211336Y-98715001D01*
X117213061Y-98706187D01*
X117209024Y-98662066D01*
X117208500Y-98650585D01*
X117208500Y-95305669D01*
X137872001Y-95305669D01*
X137872371Y-95312490D01*
X137877895Y-95363352D01*
X137881521Y-95378604D01*
X137926676Y-95499054D01*
X137935214Y-95514649D01*
X138011715Y-95616724D01*
X138024276Y-95629285D01*
X138126351Y-95705786D01*
X138141946Y-95714324D01*
X138262394Y-95759478D01*
X138277649Y-95763105D01*
X138328514Y-95768631D01*
X138335328Y-95769000D01*
X139207885Y-95769000D01*
X139223124Y-95764525D01*
X139224329Y-95763135D01*
X139226000Y-95755452D01*
X139226000Y-95750884D01*
X139734000Y-95750884D01*
X139738475Y-95766123D01*
X139739865Y-95767328D01*
X139747548Y-95768999D01*
X140624669Y-95768999D01*
X140631490Y-95768629D01*
X140682352Y-95763105D01*
X140697604Y-95759479D01*
X140818054Y-95714324D01*
X140833649Y-95705786D01*
X140935724Y-95629285D01*
X140948285Y-95616724D01*
X141024786Y-95514649D01*
X141033324Y-95499054D01*
X141078478Y-95378606D01*
X141082105Y-95363351D01*
X141087502Y-95313669D01*
X147822001Y-95313669D01*
X147822371Y-95320490D01*
X147827895Y-95371352D01*
X147831521Y-95386604D01*
X147876676Y-95507054D01*
X147885214Y-95522649D01*
X147961715Y-95624724D01*
X147974276Y-95637285D01*
X148076351Y-95713786D01*
X148091946Y-95722324D01*
X148212394Y-95767478D01*
X148227649Y-95771105D01*
X148278514Y-95776631D01*
X148285328Y-95777000D01*
X148807885Y-95777000D01*
X148823124Y-95772525D01*
X148824329Y-95771135D01*
X148826000Y-95763452D01*
X148826000Y-95758884D01*
X149334000Y-95758884D01*
X149338475Y-95774123D01*
X149339865Y-95775328D01*
X149347548Y-95776999D01*
X149874669Y-95776999D01*
X149881490Y-95776629D01*
X149932352Y-95771105D01*
X149947604Y-95767479D01*
X150068054Y-95722324D01*
X150083649Y-95713786D01*
X150185724Y-95637285D01*
X150198285Y-95624724D01*
X150274786Y-95522649D01*
X150283324Y-95507054D01*
X150328478Y-95386606D01*
X150332105Y-95371351D01*
X150337631Y-95320486D01*
X150338000Y-95313672D01*
X150338000Y-94941115D01*
X150333525Y-94925876D01*
X150332135Y-94924671D01*
X150324452Y-94923000D01*
X149352115Y-94923000D01*
X149336876Y-94927475D01*
X149335671Y-94928865D01*
X149334000Y-94936548D01*
X149334000Y-95758884D01*
X148826000Y-95758884D01*
X148826000Y-94941115D01*
X148821525Y-94925876D01*
X148820135Y-94924671D01*
X148812452Y-94923000D01*
X147840116Y-94923000D01*
X147824877Y-94927475D01*
X147823672Y-94928865D01*
X147822001Y-94936548D01*
X147822001Y-95313669D01*
X141087502Y-95313669D01*
X141087631Y-95312486D01*
X141088000Y-95305672D01*
X141088000Y-94933115D01*
X141083525Y-94917876D01*
X141082135Y-94916671D01*
X141074452Y-94915000D01*
X139752115Y-94915000D01*
X139736876Y-94919475D01*
X139735671Y-94920865D01*
X139734000Y-94928548D01*
X139734000Y-95750884D01*
X139226000Y-95750884D01*
X139226000Y-94933115D01*
X139221525Y-94917876D01*
X139220135Y-94916671D01*
X139212452Y-94915000D01*
X137890116Y-94915000D01*
X137874877Y-94919475D01*
X137873672Y-94920865D01*
X137872001Y-94928548D01*
X137872001Y-95305669D01*
X117208500Y-95305669D01*
X117208500Y-94388885D01*
X137872000Y-94388885D01*
X137876475Y-94404124D01*
X137877865Y-94405329D01*
X137885548Y-94407000D01*
X139207885Y-94407000D01*
X139223124Y-94402525D01*
X139224329Y-94401135D01*
X139226000Y-94393452D01*
X139226000Y-94388885D01*
X139734000Y-94388885D01*
X139738475Y-94404124D01*
X139739865Y-94405329D01*
X139747548Y-94407000D01*
X141069884Y-94407000D01*
X141085123Y-94402525D01*
X141086328Y-94401135D01*
X141087252Y-94396885D01*
X147822000Y-94396885D01*
X147826475Y-94412124D01*
X147827865Y-94413329D01*
X147835548Y-94415000D01*
X148807885Y-94415000D01*
X148823124Y-94410525D01*
X148824329Y-94409135D01*
X148826000Y-94401452D01*
X148826000Y-94396885D01*
X149334000Y-94396885D01*
X149338475Y-94412124D01*
X149339865Y-94413329D01*
X149347548Y-94415000D01*
X150319884Y-94415000D01*
X150335123Y-94410525D01*
X150351501Y-94391624D01*
X150366637Y-94363904D01*
X150428949Y-94329879D01*
X150455733Y-94326999D01*
X150924669Y-94326999D01*
X150931490Y-94326629D01*
X150982352Y-94321105D01*
X150997604Y-94317479D01*
X151118054Y-94272324D01*
X151133649Y-94263786D01*
X151235724Y-94187285D01*
X151248285Y-94174724D01*
X151324786Y-94072649D01*
X151333324Y-94057054D01*
X151378478Y-93936606D01*
X151382105Y-93921351D01*
X151387631Y-93870486D01*
X151388000Y-93863672D01*
X151388000Y-93741115D01*
X151383525Y-93725876D01*
X151382135Y-93724671D01*
X151374452Y-93723000D01*
X149352115Y-93723000D01*
X149336876Y-93727475D01*
X149335671Y-93728865D01*
X149334000Y-93736548D01*
X149334000Y-94396885D01*
X148826000Y-94396885D01*
X148826000Y-93741115D01*
X148821525Y-93725876D01*
X148808773Y-93714827D01*
X148768905Y-93693057D01*
X148734880Y-93630745D01*
X148732000Y-93603961D01*
X148732000Y-93579116D01*
X148727525Y-93563877D01*
X148726135Y-93562672D01*
X148718452Y-93561001D01*
X148285331Y-93561001D01*
X148278510Y-93561371D01*
X148227648Y-93566895D01*
X148212396Y-93570521D01*
X148091946Y-93615676D01*
X148076351Y-93624214D01*
X147974276Y-93700715D01*
X147961715Y-93713276D01*
X147885214Y-93815351D01*
X147876676Y-93830946D01*
X147831522Y-93951394D01*
X147827895Y-93966649D01*
X147822369Y-94017514D01*
X147822000Y-94024328D01*
X147822000Y-94396885D01*
X141087252Y-94396885D01*
X141087999Y-94393452D01*
X141087999Y-94016331D01*
X141087629Y-94009510D01*
X141082105Y-93958648D01*
X141078479Y-93943396D01*
X141033324Y-93822946D01*
X141024786Y-93807351D01*
X140948285Y-93705276D01*
X140935724Y-93692715D01*
X140833649Y-93616214D01*
X140818054Y-93607676D01*
X140697606Y-93562522D01*
X140682351Y-93558895D01*
X140631486Y-93553369D01*
X140624672Y-93553000D01*
X139752115Y-93553000D01*
X139736876Y-93557475D01*
X139735671Y-93558865D01*
X139734000Y-93566548D01*
X139734000Y-94388885D01*
X139226000Y-94388885D01*
X139226000Y-93571116D01*
X139221525Y-93555877D01*
X139220135Y-93554672D01*
X139212452Y-93553001D01*
X138335331Y-93553001D01*
X138328510Y-93553371D01*
X138277648Y-93558895D01*
X138262396Y-93562521D01*
X138141946Y-93607676D01*
X138126351Y-93616214D01*
X138024276Y-93692715D01*
X138011715Y-93705276D01*
X137935214Y-93807351D01*
X137926676Y-93822946D01*
X137881522Y-93943394D01*
X137877895Y-93958649D01*
X137872369Y-94009514D01*
X137872000Y-94016328D01*
X137872000Y-94388885D01*
X117208500Y-94388885D01*
X117208500Y-91458768D01*
X118016425Y-91458768D01*
X118048138Y-91566521D01*
X118052731Y-91577889D01*
X118138607Y-91742154D01*
X118145321Y-91752415D01*
X118261468Y-91896873D01*
X118270046Y-91905632D01*
X118412039Y-92024778D01*
X118422159Y-92031708D01*
X118584585Y-92121002D01*
X118595858Y-92125834D01*
X118772538Y-92181880D01*
X118784532Y-92184430D01*
X118928761Y-92200607D01*
X118935785Y-92201000D01*
X119166885Y-92201000D01*
X119182124Y-92196525D01*
X119183329Y-92195135D01*
X119185000Y-92187452D01*
X119185000Y-92182885D01*
X119693000Y-92182885D01*
X119697475Y-92198124D01*
X119698865Y-92199329D01*
X119706548Y-92201000D01*
X119935657Y-92201000D01*
X119941805Y-92200699D01*
X120079603Y-92187188D01*
X120091638Y-92184805D01*
X120269076Y-92131233D01*
X120280416Y-92126559D01*
X120444077Y-92039540D01*
X120454294Y-92032751D01*
X120597933Y-91915603D01*
X120606637Y-91906959D01*
X120724784Y-91764144D01*
X120731644Y-91753973D01*
X120819804Y-91590924D01*
X120824556Y-91579619D01*
X120860250Y-91464308D01*
X120860331Y-91458768D01*
X122116425Y-91458768D01*
X122148138Y-91566521D01*
X122152731Y-91577889D01*
X122238607Y-91742154D01*
X122245321Y-91752415D01*
X122361468Y-91896873D01*
X122370046Y-91905632D01*
X122512039Y-92024778D01*
X122522159Y-92031708D01*
X122684585Y-92121002D01*
X122695858Y-92125834D01*
X122872538Y-92181880D01*
X122884532Y-92184430D01*
X123028761Y-92200607D01*
X123035785Y-92201000D01*
X123366885Y-92201000D01*
X123382124Y-92196525D01*
X123383329Y-92195135D01*
X123385000Y-92187452D01*
X123385000Y-92182885D01*
X123893000Y-92182885D01*
X123897475Y-92198124D01*
X123898865Y-92199329D01*
X123906548Y-92201000D01*
X124235657Y-92201000D01*
X124241805Y-92200699D01*
X124379603Y-92187188D01*
X124391638Y-92184805D01*
X124569076Y-92131233D01*
X124580416Y-92126559D01*
X124744077Y-92039540D01*
X124754294Y-92032751D01*
X124897933Y-91915603D01*
X124906637Y-91906959D01*
X124950511Y-91853925D01*
X138066645Y-91853925D01*
X138073242Y-91926414D01*
X138083365Y-92037644D01*
X138084570Y-92050888D01*
X138086308Y-92056794D01*
X138086309Y-92056798D01*
X138106627Y-92125834D01*
X138140410Y-92240619D01*
X138143263Y-92246077D01*
X138143265Y-92246081D01*
X138188777Y-92333136D01*
X138232040Y-92415890D01*
X138355968Y-92570025D01*
X138360692Y-92573989D01*
X138366001Y-92578444D01*
X138507474Y-92697154D01*
X138512872Y-92700121D01*
X138512877Y-92700125D01*
X138628552Y-92763717D01*
X138680787Y-92792433D01*
X138686654Y-92794294D01*
X138686656Y-92794295D01*
X138863436Y-92850373D01*
X138869306Y-92852235D01*
X139023227Y-92869500D01*
X139129769Y-92869500D01*
X139132825Y-92869200D01*
X139132832Y-92869200D01*
X139191340Y-92863463D01*
X139276833Y-92855080D01*
X139282734Y-92853298D01*
X139282736Y-92853298D01*
X139362167Y-92829316D01*
X139466169Y-92797916D01*
X139640796Y-92705066D01*
X139727062Y-92634709D01*
X139789287Y-92583960D01*
X139789290Y-92583957D01*
X139794062Y-92580065D01*
X139799089Y-92573989D01*
X139916201Y-92432425D01*
X139916203Y-92432421D01*
X139920130Y-92427675D01*
X140014198Y-92253701D01*
X140072682Y-92064768D01*
X140075563Y-92037356D01*
X140092711Y-91874204D01*
X140092711Y-91874202D01*
X140093355Y-91868075D01*
X140080727Y-91729316D01*
X140075989Y-91677251D01*
X140075988Y-91677248D01*
X140075430Y-91671112D01*
X140067859Y-91645385D01*
X140025456Y-91501313D01*
X140019590Y-91481381D01*
X140011087Y-91465115D01*
X139950147Y-91348550D01*
X139927960Y-91306110D01*
X139804032Y-91151975D01*
X139797727Y-91146684D01*
X139779460Y-91131357D01*
X139652526Y-91024846D01*
X139647128Y-91021879D01*
X139647123Y-91021875D01*
X139489145Y-90935027D01*
X139479213Y-90929567D01*
X139473346Y-90927706D01*
X139473344Y-90927705D01*
X139296564Y-90871627D01*
X139296563Y-90871627D01*
X139290694Y-90869765D01*
X139136773Y-90852500D01*
X139030231Y-90852500D01*
X139027175Y-90852800D01*
X139027168Y-90852800D01*
X138976892Y-90857730D01*
X138883167Y-90866920D01*
X138877266Y-90868702D01*
X138877264Y-90868702D01*
X138803947Y-90890838D01*
X138693831Y-90924084D01*
X138519204Y-91016934D01*
X138432950Y-91087281D01*
X138370713Y-91138040D01*
X138370710Y-91138043D01*
X138365938Y-91141935D01*
X138362011Y-91146682D01*
X138362009Y-91146684D01*
X138243799Y-91289575D01*
X138243797Y-91289579D01*
X138239870Y-91294325D01*
X138145802Y-91468299D01*
X138087318Y-91657232D01*
X138086674Y-91663357D01*
X138086674Y-91663358D01*
X138072998Y-91793484D01*
X138066645Y-91853925D01*
X124950511Y-91853925D01*
X125024784Y-91764144D01*
X125031644Y-91753973D01*
X125119804Y-91590924D01*
X125124556Y-91579619D01*
X125160250Y-91464308D01*
X125160456Y-91450205D01*
X125153701Y-91447000D01*
X123911115Y-91447000D01*
X123895876Y-91451475D01*
X123894671Y-91452865D01*
X123893000Y-91460548D01*
X123893000Y-92182885D01*
X123385000Y-92182885D01*
X123385000Y-91465115D01*
X123380525Y-91449876D01*
X123379135Y-91448671D01*
X123371452Y-91447000D01*
X122131076Y-91447000D01*
X122117545Y-91450973D01*
X122116425Y-91458768D01*
X120860331Y-91458768D01*
X120860456Y-91450205D01*
X120853701Y-91447000D01*
X119711115Y-91447000D01*
X119695876Y-91451475D01*
X119694671Y-91452865D01*
X119693000Y-91460548D01*
X119693000Y-92182885D01*
X119185000Y-92182885D01*
X119185000Y-91465115D01*
X119180525Y-91449876D01*
X119179135Y-91448671D01*
X119171452Y-91447000D01*
X118031076Y-91447000D01*
X118017545Y-91450973D01*
X118016425Y-91458768D01*
X117208500Y-91458768D01*
X117208500Y-90935795D01*
X118017544Y-90935795D01*
X118024299Y-90939000D01*
X119166885Y-90939000D01*
X119182124Y-90934525D01*
X119183329Y-90933135D01*
X119185000Y-90925452D01*
X119185000Y-90920885D01*
X119693000Y-90920885D01*
X119697475Y-90936124D01*
X119698865Y-90937329D01*
X119706548Y-90939000D01*
X120846924Y-90939000D01*
X120857839Y-90935795D01*
X122117544Y-90935795D01*
X122124299Y-90939000D01*
X125146924Y-90939000D01*
X125160455Y-90935027D01*
X125161575Y-90927232D01*
X125129862Y-90819479D01*
X125125269Y-90808111D01*
X125039393Y-90643846D01*
X125032679Y-90633585D01*
X124916532Y-90489127D01*
X124907954Y-90480368D01*
X124765961Y-90361222D01*
X124755841Y-90354292D01*
X124593415Y-90264998D01*
X124582142Y-90260166D01*
X124405462Y-90204120D01*
X124393468Y-90201570D01*
X124249239Y-90185393D01*
X124242215Y-90185000D01*
X124052023Y-90185000D01*
X123983902Y-90164998D01*
X123937409Y-90111342D01*
X123927305Y-90041068D01*
X123935034Y-90012208D01*
X123943996Y-89989803D01*
X123943997Y-89989798D01*
X123946530Y-89983466D01*
X123947644Y-89976738D01*
X123947645Y-89976734D01*
X123974993Y-89811539D01*
X123974993Y-89811536D01*
X123976108Y-89804802D01*
X123975740Y-89797768D01*
X123966987Y-89630766D01*
X123966630Y-89623953D01*
X123963195Y-89611480D01*
X123920352Y-89455941D01*
X123918539Y-89449359D01*
X123834078Y-89289164D01*
X123829673Y-89283951D01*
X123829670Y-89283947D01*
X123729278Y-89165150D01*
X126376482Y-89165150D01*
X126376998Y-89171294D01*
X126392739Y-89358745D01*
X126393852Y-89372004D01*
X126451069Y-89571545D01*
X126453887Y-89577027D01*
X126453888Y-89577031D01*
X126522841Y-89711198D01*
X126545955Y-89756173D01*
X126549786Y-89761007D01*
X126549787Y-89761008D01*
X126579597Y-89798619D01*
X126674894Y-89918854D01*
X126679581Y-89922843D01*
X126679584Y-89922846D01*
X126814862Y-90037976D01*
X126832976Y-90053392D01*
X127014180Y-90154664D01*
X127211603Y-90218810D01*
X127417725Y-90243389D01*
X127423860Y-90242917D01*
X127423862Y-90242917D01*
X127618555Y-90227936D01*
X127618560Y-90227935D01*
X127624696Y-90227463D01*
X127630626Y-90225807D01*
X127630628Y-90225807D01*
X127728258Y-90198548D01*
X127824632Y-90171640D01*
X127929438Y-90118699D01*
X128004416Y-90080825D01*
X128004418Y-90080824D01*
X128009917Y-90078046D01*
X128173495Y-89950245D01*
X128297129Y-89807013D01*
X128305109Y-89797768D01*
X128305109Y-89797767D01*
X128309133Y-89793106D01*
X128313296Y-89785779D01*
X128355663Y-89711198D01*
X128411667Y-89612614D01*
X128477190Y-89415644D01*
X128503207Y-89209698D01*
X128503622Y-89180000D01*
X128486504Y-89005418D01*
X128483966Y-88979534D01*
X128483965Y-88979531D01*
X128483365Y-88973408D01*
X128436898Y-88819498D01*
X128425152Y-88780593D01*
X128425151Y-88780590D01*
X128423368Y-88774685D01*
X128325913Y-88591401D01*
X128322015Y-88586622D01*
X128319553Y-88582916D01*
X128298500Y-88513187D01*
X128298500Y-84895715D01*
X130036956Y-84895715D01*
X130037472Y-84901859D01*
X130051060Y-85063671D01*
X130052685Y-85083028D01*
X130075187Y-85161501D01*
X130099613Y-85246684D01*
X130104497Y-85263718D01*
X130107312Y-85269195D01*
X130107313Y-85269198D01*
X130176137Y-85403115D01*
X130190418Y-85430903D01*
X130194241Y-85435727D01*
X130194244Y-85435731D01*
X130263206Y-85522738D01*
X130307177Y-85578215D01*
X130311871Y-85582210D01*
X130445621Y-85696040D01*
X130450324Y-85700043D01*
X130455702Y-85703049D01*
X130455704Y-85703050D01*
X130526909Y-85742845D01*
X130614409Y-85791747D01*
X130793180Y-85849833D01*
X130979830Y-85872090D01*
X130985965Y-85871618D01*
X130985967Y-85871618D01*
X131161105Y-85858142D01*
X131161109Y-85858141D01*
X131167247Y-85857669D01*
X131252378Y-85833900D01*
X131342350Y-85808779D01*
X131342353Y-85808778D01*
X131348294Y-85807119D01*
X131353798Y-85804339D01*
X131353800Y-85804338D01*
X131510574Y-85725146D01*
X131510576Y-85725145D01*
X131516075Y-85722367D01*
X131664199Y-85606640D01*
X131668225Y-85601976D01*
X131782994Y-85469015D01*
X131782995Y-85469013D01*
X131787023Y-85464347D01*
X131879870Y-85300907D01*
X131939203Y-85122545D01*
X131962762Y-84936055D01*
X131963138Y-84909163D01*
X131944795Y-84722089D01*
X131942181Y-84713429D01*
X131920353Y-84641133D01*
X131890465Y-84542140D01*
X131814888Y-84400000D01*
X134836250Y-84400000D01*
X134841500Y-84439880D01*
X134841500Y-84439885D01*
X134852957Y-84526908D01*
X134857162Y-84558851D01*
X134918476Y-84706876D01*
X134923503Y-84713427D01*
X134923504Y-84713429D01*
X134991520Y-84802069D01*
X134991526Y-84802075D01*
X135016013Y-84833987D01*
X135022568Y-84839017D01*
X135041379Y-84853452D01*
X135053770Y-84864319D01*
X140195525Y-90006074D01*
X140229551Y-90068386D01*
X140231828Y-90082872D01*
X140232692Y-90091681D01*
X140232694Y-90091689D01*
X140233381Y-90098699D01*
X140235605Y-90105384D01*
X140235605Y-90105385D01*
X140240034Y-90118699D01*
X140287094Y-90260167D01*
X140290741Y-90266189D01*
X140290742Y-90266191D01*
X140369238Y-90395802D01*
X140375246Y-90405723D01*
X140493455Y-90528132D01*
X140559713Y-90571490D01*
X140612765Y-90606206D01*
X140635846Y-90621310D01*
X140642450Y-90623766D01*
X140642452Y-90623767D01*
X140664663Y-90632027D01*
X140795341Y-90680626D01*
X140964015Y-90703132D01*
X140971027Y-90702494D01*
X140971032Y-90702494D01*
X141004081Y-90699486D01*
X141073734Y-90713232D01*
X141124898Y-90762453D01*
X141141500Y-90824967D01*
X141141500Y-91002363D01*
X141121411Y-91070618D01*
X141076304Y-91140610D01*
X141048556Y-91216846D01*
X141030560Y-91266292D01*
X141018103Y-91300516D01*
X140996775Y-91469343D01*
X141013381Y-91638699D01*
X141015605Y-91645384D01*
X141015605Y-91645385D01*
X141025927Y-91676414D01*
X141067094Y-91800167D01*
X141070741Y-91806189D01*
X141070742Y-91806191D01*
X141139562Y-91919825D01*
X141155246Y-91945723D01*
X141273455Y-92068132D01*
X141339429Y-92111304D01*
X141375451Y-92134876D01*
X141415846Y-92161310D01*
X141422450Y-92163766D01*
X141422452Y-92163767D01*
X141462391Y-92178620D01*
X141575341Y-92220626D01*
X141744015Y-92243132D01*
X141751026Y-92242494D01*
X141751030Y-92242494D01*
X141906462Y-92228348D01*
X141913483Y-92227709D01*
X141920185Y-92225531D01*
X141920187Y-92225531D01*
X142068623Y-92177301D01*
X142068626Y-92177300D01*
X142075322Y-92175124D01*
X142221490Y-92087990D01*
X142226584Y-92083139D01*
X142226588Y-92083136D01*
X142304707Y-92008744D01*
X142344721Y-91970639D01*
X142349934Y-91962794D01*
X142416084Y-91863229D01*
X142438891Y-91828902D01*
X142499319Y-91669825D01*
X142523001Y-91501313D01*
X142523299Y-91480000D01*
X142504331Y-91310892D01*
X142501061Y-91301500D01*
X142479183Y-91238678D01*
X142448368Y-91150189D01*
X142377645Y-91037010D01*
X142358500Y-90970242D01*
X142358500Y-89900393D01*
X142378502Y-89832272D01*
X142432158Y-89785779D01*
X142502432Y-89775675D01*
X142515833Y-89778351D01*
X142531826Y-89782457D01*
X142550528Y-89788859D01*
X142570215Y-89797379D01*
X142578044Y-89798619D01*
X142615840Y-89804605D01*
X142627466Y-89807013D01*
X142664527Y-89816529D01*
X142664528Y-89816529D01*
X142672204Y-89818500D01*
X142693650Y-89818500D01*
X142713360Y-89820051D01*
X142734543Y-89823406D01*
X142780527Y-89819059D01*
X142792386Y-89818500D01*
X143121616Y-89818500D01*
X143189737Y-89838502D01*
X143236230Y-89892158D01*
X143247329Y-89944956D01*
X143246775Y-89949343D01*
X143263381Y-90118699D01*
X143265605Y-90125384D01*
X143265605Y-90125385D01*
X143280068Y-90168862D01*
X143317094Y-90280167D01*
X143320741Y-90286189D01*
X143320742Y-90286191D01*
X143383276Y-90389447D01*
X143401500Y-90454718D01*
X143401500Y-90575812D01*
X143381411Y-90644068D01*
X143306304Y-90760610D01*
X143248103Y-90920516D01*
X143226775Y-91089343D01*
X143243381Y-91258699D01*
X143245605Y-91265384D01*
X143245605Y-91265385D01*
X143250066Y-91278794D01*
X143297094Y-91420167D01*
X143300741Y-91426189D01*
X143300742Y-91426191D01*
X143380185Y-91557366D01*
X143385246Y-91565723D01*
X143503455Y-91688132D01*
X143566391Y-91729316D01*
X143619614Y-91764144D01*
X143645846Y-91781310D01*
X143652450Y-91783766D01*
X143652452Y-91783767D01*
X143725594Y-91810968D01*
X143805341Y-91840626D01*
X143974015Y-91863132D01*
X143981026Y-91862494D01*
X143981030Y-91862494D01*
X144136462Y-91848348D01*
X144143483Y-91847709D01*
X144150185Y-91845531D01*
X144150187Y-91845531D01*
X144298623Y-91797301D01*
X144298626Y-91797300D01*
X144305322Y-91795124D01*
X144451490Y-91707990D01*
X144456584Y-91703139D01*
X144456588Y-91703136D01*
X144531613Y-91631690D01*
X144574721Y-91590639D01*
X144580468Y-91581990D01*
X144635899Y-91498559D01*
X144668891Y-91448902D01*
X144729319Y-91289825D01*
X144750966Y-91135793D01*
X144780254Y-91071119D01*
X144839858Y-91032545D01*
X144910854Y-91032320D01*
X144964835Y-91064233D01*
X145848207Y-91947605D01*
X145856197Y-91956385D01*
X145860446Y-91963080D01*
X145866224Y-91968506D01*
X145866225Y-91968507D01*
X145912119Y-92011604D01*
X145914961Y-92014359D01*
X145935529Y-92034927D01*
X145939032Y-92037644D01*
X145948057Y-92045352D01*
X145981729Y-92076972D01*
X145988680Y-92080793D01*
X145988681Y-92080794D01*
X146000520Y-92087303D01*
X146017044Y-92098157D01*
X146027133Y-92105982D01*
X146033994Y-92111304D01*
X146041266Y-92114451D01*
X146041268Y-92114452D01*
X146076397Y-92129654D01*
X146087057Y-92134876D01*
X146110911Y-92147990D01*
X146127525Y-92157124D01*
X146148303Y-92162459D01*
X146166993Y-92168858D01*
X146186686Y-92177380D01*
X146221444Y-92182885D01*
X146232310Y-92184606D01*
X146243933Y-92187013D01*
X146271934Y-92194202D01*
X146288674Y-92198500D01*
X146310121Y-92198500D01*
X146329831Y-92200051D01*
X146351014Y-92203406D01*
X146397003Y-92199059D01*
X146408858Y-92198500D01*
X147133427Y-92198500D01*
X147192705Y-92216172D01*
X147193663Y-92214276D01*
X147199950Y-92217452D01*
X147205846Y-92221310D01*
X147212450Y-92223766D01*
X147212452Y-92223767D01*
X147272453Y-92246081D01*
X147365341Y-92280626D01*
X147534015Y-92303132D01*
X147541026Y-92302494D01*
X147541030Y-92302494D01*
X147696462Y-92288348D01*
X147703483Y-92287709D01*
X147710185Y-92285531D01*
X147710187Y-92285531D01*
X147858623Y-92237301D01*
X147858626Y-92237300D01*
X147865322Y-92235124D01*
X148011490Y-92147990D01*
X148016584Y-92143139D01*
X148016588Y-92143136D01*
X148113457Y-92050888D01*
X148134721Y-92030639D01*
X148145538Y-92014359D01*
X148206293Y-91922914D01*
X148228891Y-91888902D01*
X148289319Y-91729825D01*
X148313001Y-91561313D01*
X148313299Y-91540000D01*
X148294331Y-91370892D01*
X148271120Y-91304238D01*
X148261324Y-91276109D01*
X148238368Y-91210189D01*
X148148192Y-91065879D01*
X148130170Y-91047730D01*
X148062084Y-90979167D01*
X148028286Y-90945132D01*
X148015991Y-90937329D01*
X147916162Y-90873976D01*
X147884608Y-90853951D01*
X147724300Y-90796868D01*
X147555329Y-90776720D01*
X147548326Y-90777456D01*
X147548325Y-90777456D01*
X147393101Y-90793770D01*
X147393097Y-90793771D01*
X147386093Y-90794507D01*
X147379422Y-90796778D01*
X147231673Y-90847075D01*
X147231670Y-90847076D01*
X147225003Y-90849346D01*
X147203105Y-90862818D01*
X147137083Y-90881500D01*
X146696812Y-90881500D01*
X146628691Y-90861498D01*
X146607717Y-90844595D01*
X145521335Y-89758213D01*
X145487309Y-89695901D01*
X145492374Y-89625086D01*
X145505479Y-89599395D01*
X145578891Y-89488902D01*
X145639319Y-89329825D01*
X145663001Y-89161313D01*
X145663181Y-89148455D01*
X145663244Y-89143961D01*
X145663244Y-89143955D01*
X145663299Y-89140000D01*
X145644331Y-88970892D01*
X145640142Y-88958861D01*
X145590686Y-88816846D01*
X145588368Y-88810189D01*
X145498192Y-88665879D01*
X145378286Y-88545132D01*
X145234608Y-88453951D01*
X145181803Y-88435148D01*
X145080935Y-88399230D01*
X145080930Y-88399229D01*
X145074300Y-88396868D01*
X145067312Y-88396035D01*
X145067309Y-88396034D01*
X145053040Y-88394333D01*
X144987767Y-88366406D01*
X144978863Y-88358314D01*
X144834742Y-88214193D01*
X144800716Y-88151881D01*
X144798622Y-88139145D01*
X144795116Y-88107890D01*
X144794331Y-88100892D01*
X144789748Y-88087730D01*
X144755127Y-87988314D01*
X144738368Y-87940189D01*
X144732383Y-87930610D01*
X144696818Y-87873696D01*
X144648192Y-87795879D01*
X144528286Y-87675132D01*
X144512039Y-87664821D01*
X144448725Y-87624641D01*
X144384608Y-87583951D01*
X144224300Y-87526868D01*
X144055329Y-87506720D01*
X144048326Y-87507456D01*
X144048325Y-87507456D01*
X143893101Y-87523770D01*
X143893097Y-87523771D01*
X143886093Y-87524507D01*
X143879422Y-87526778D01*
X143731673Y-87577075D01*
X143731670Y-87577076D01*
X143725003Y-87579346D01*
X143719005Y-87583036D01*
X143719003Y-87583037D01*
X143586065Y-87664821D01*
X143586063Y-87664823D01*
X143580066Y-87668512D01*
X143534502Y-87713132D01*
X143469037Y-87777241D01*
X143458486Y-87787573D01*
X143454675Y-87793487D01*
X143454673Y-87793489D01*
X143383228Y-87904349D01*
X143366304Y-87930610D01*
X143308103Y-88090516D01*
X143286775Y-88259343D01*
X143296959Y-88363204D01*
X143283700Y-88432952D01*
X143234837Y-88484459D01*
X143171560Y-88501500D01*
X143080341Y-88501500D01*
X143012220Y-88481498D01*
X142991246Y-88464595D01*
X140075994Y-85549343D01*
X146596775Y-85549343D01*
X146613381Y-85718699D01*
X146615605Y-85725384D01*
X146615605Y-85725385D01*
X146632283Y-85775521D01*
X146667094Y-85880167D01*
X146670741Y-85886189D01*
X146670742Y-85886191D01*
X146750833Y-86018436D01*
X146755246Y-86025723D01*
X146873455Y-86148132D01*
X147015846Y-86241310D01*
X147022450Y-86243766D01*
X147022452Y-86243767D01*
X147058683Y-86257241D01*
X147175341Y-86300626D01*
X147344015Y-86323132D01*
X147351026Y-86322494D01*
X147351030Y-86322494D01*
X147506462Y-86308348D01*
X147513483Y-86307709D01*
X147520185Y-86305531D01*
X147520187Y-86305531D01*
X147668623Y-86257301D01*
X147668626Y-86257300D01*
X147675322Y-86255124D01*
X147821490Y-86167990D01*
X147826584Y-86163139D01*
X147826588Y-86163136D01*
X147919894Y-86074281D01*
X147944721Y-86050639D01*
X147953958Y-86036737D01*
X148028747Y-85924170D01*
X148038891Y-85908902D01*
X148099319Y-85749825D01*
X148104668Y-85711762D01*
X148133955Y-85647088D01*
X148140347Y-85640202D01*
X148562718Y-85217831D01*
X148625030Y-85183805D01*
X148695845Y-85188870D01*
X148752681Y-85231417D01*
X148777492Y-85297937D01*
X148777076Y-85320533D01*
X148772992Y-85358129D01*
X148771500Y-85371866D01*
X148771500Y-86168134D01*
X148778255Y-86230316D01*
X148795108Y-86275271D01*
X148800291Y-86346076D01*
X148795110Y-86363723D01*
X148778255Y-86408684D01*
X148771500Y-86470866D01*
X148771500Y-87267134D01*
X148778255Y-87329316D01*
X148781029Y-87336717D01*
X148781030Y-87336719D01*
X148795482Y-87375269D01*
X148800666Y-87446076D01*
X148795482Y-87463731D01*
X148778255Y-87509684D01*
X148771500Y-87571866D01*
X148771500Y-88368134D01*
X148778255Y-88430316D01*
X148795108Y-88475271D01*
X148800291Y-88546076D01*
X148795110Y-88563723D01*
X148778255Y-88608684D01*
X148771500Y-88670866D01*
X148771500Y-89467134D01*
X148778255Y-89529316D01*
X148781030Y-89536717D01*
X148781030Y-89536719D01*
X148795749Y-89575981D01*
X148800933Y-89646788D01*
X148795749Y-89664443D01*
X148781523Y-89702390D01*
X148777895Y-89717649D01*
X148772369Y-89768514D01*
X148772000Y-89775328D01*
X148772000Y-89897885D01*
X148776475Y-89913124D01*
X148777865Y-89914329D01*
X148785548Y-89916000D01*
X149139219Y-89916000D01*
X149165130Y-89919038D01*
X149169684Y-89920745D01*
X149231866Y-89927500D01*
X150208000Y-89927500D01*
X150276121Y-89947502D01*
X150322614Y-90001158D01*
X150334000Y-90053500D01*
X150334000Y-90284500D01*
X150313998Y-90352621D01*
X150260342Y-90399114D01*
X150208000Y-90410500D01*
X149231866Y-90410500D01*
X149228469Y-90410869D01*
X149177542Y-90416401D01*
X149177539Y-90416402D01*
X149169684Y-90417255D01*
X149162284Y-90420029D01*
X149159955Y-90420583D01*
X149130808Y-90424000D01*
X148790116Y-90424000D01*
X148774877Y-90428475D01*
X148773672Y-90429865D01*
X148772001Y-90437548D01*
X148772001Y-90564669D01*
X148772371Y-90571490D01*
X148777895Y-90622352D01*
X148781520Y-90637600D01*
X148795375Y-90674557D01*
X148800558Y-90745364D01*
X148795378Y-90763007D01*
X148778255Y-90808684D01*
X148771500Y-90870866D01*
X148771500Y-91667134D01*
X148771869Y-91670531D01*
X148773231Y-91683064D01*
X148778255Y-91729316D01*
X148781027Y-91736709D01*
X148781027Y-91736711D01*
X148795295Y-91774771D01*
X148800478Y-91845578D01*
X148795295Y-91863229D01*
X148781027Y-91901289D01*
X148778255Y-91908684D01*
X148777402Y-91916532D01*
X148777402Y-91916534D01*
X148774886Y-91939700D01*
X148771500Y-91970866D01*
X148771500Y-92767134D01*
X148778255Y-92829316D01*
X148795562Y-92875482D01*
X148800745Y-92946289D01*
X148795562Y-92963942D01*
X148781522Y-93001394D01*
X148777895Y-93016649D01*
X148772369Y-93067514D01*
X148772000Y-93074328D01*
X148772000Y-93196885D01*
X148776475Y-93212124D01*
X148777865Y-93213329D01*
X148785548Y-93215000D01*
X149135014Y-93215000D01*
X149163165Y-93218301D01*
X149169684Y-93220745D01*
X149177532Y-93221598D01*
X149177534Y-93221598D01*
X149228469Y-93227131D01*
X149231866Y-93227500D01*
X150928134Y-93227500D01*
X150931531Y-93227131D01*
X150982466Y-93221598D01*
X150982468Y-93221598D01*
X150990316Y-93220745D01*
X150996835Y-93218301D01*
X151024986Y-93215000D01*
X151369884Y-93215000D01*
X151385123Y-93210525D01*
X151386328Y-93209135D01*
X151387999Y-93201452D01*
X151387999Y-93074331D01*
X151387629Y-93067510D01*
X151382105Y-93016648D01*
X151378479Y-93001396D01*
X151364438Y-92963942D01*
X151359255Y-92893135D01*
X151364438Y-92875482D01*
X151381745Y-92829316D01*
X151388500Y-92767134D01*
X151388500Y-92685656D01*
X151408502Y-92617535D01*
X151462158Y-92571042D01*
X151532432Y-92560938D01*
X151565794Y-92571451D01*
X151565846Y-92571310D01*
X151568620Y-92572342D01*
X151568626Y-92572344D01*
X151572454Y-92573768D01*
X151572455Y-92573768D01*
X151603227Y-92585212D01*
X151725341Y-92630626D01*
X151894015Y-92653132D01*
X151901026Y-92652494D01*
X151901030Y-92652494D01*
X152056462Y-92638348D01*
X152063483Y-92637709D01*
X152070185Y-92635531D01*
X152070187Y-92635531D01*
X152218623Y-92587301D01*
X152218626Y-92587300D01*
X152225322Y-92585124D01*
X152307273Y-92536271D01*
X152371791Y-92518500D01*
X152807635Y-92518500D01*
X152875756Y-92538502D01*
X152915410Y-92579228D01*
X152943361Y-92625381D01*
X153064619Y-92746639D01*
X153211301Y-92835472D01*
X153218548Y-92837743D01*
X153218550Y-92837744D01*
X153273870Y-92855080D01*
X153374938Y-92886753D01*
X153448365Y-92893500D01*
X153451263Y-92893500D01*
X153705665Y-92893499D01*
X153961634Y-92893499D01*
X153964492Y-92893236D01*
X153964501Y-92893236D01*
X154000004Y-92889974D01*
X154035062Y-92886753D01*
X154041447Y-92884752D01*
X154191450Y-92837744D01*
X154191452Y-92837743D01*
X154198699Y-92835472D01*
X154345381Y-92746639D01*
X154440905Y-92651115D01*
X154503217Y-92617089D01*
X154574032Y-92622154D01*
X154619095Y-92651115D01*
X154714619Y-92746639D01*
X154861301Y-92835472D01*
X154868548Y-92837743D01*
X154868550Y-92837744D01*
X154923870Y-92855080D01*
X155024938Y-92886753D01*
X155098365Y-92893500D01*
X155101263Y-92893500D01*
X155355665Y-92893499D01*
X155611634Y-92893499D01*
X155614492Y-92893236D01*
X155614501Y-92893236D01*
X155650004Y-92889974D01*
X155685062Y-92886753D01*
X155691447Y-92884752D01*
X155841450Y-92837744D01*
X155841452Y-92837743D01*
X155848699Y-92835472D01*
X155995381Y-92746639D01*
X156116639Y-92625381D01*
X156205472Y-92478699D01*
X156219974Y-92432425D01*
X156241146Y-92364863D01*
X156256753Y-92315062D01*
X156263500Y-92241635D01*
X156263499Y-91578366D01*
X156262338Y-91565723D01*
X156257364Y-91511592D01*
X156256753Y-91504938D01*
X156239498Y-91449876D01*
X156207744Y-91348550D01*
X156207743Y-91348548D01*
X156205472Y-91341301D01*
X156168207Y-91279769D01*
X156150029Y-91211142D01*
X156171839Y-91143578D01*
X156226715Y-91098532D01*
X156275984Y-91088500D01*
X157767303Y-91088500D01*
X157835424Y-91108502D01*
X157841364Y-91112564D01*
X157953167Y-91193794D01*
X157963248Y-91201118D01*
X157969276Y-91203802D01*
X157969278Y-91203803D01*
X158130659Y-91275654D01*
X158137712Y-91278794D01*
X158214576Y-91295132D01*
X158318056Y-91317128D01*
X158318061Y-91317128D01*
X158324513Y-91318500D01*
X158515487Y-91318500D01*
X158521939Y-91317128D01*
X158521944Y-91317128D01*
X158625424Y-91295132D01*
X158702288Y-91278794D01*
X158708315Y-91276111D01*
X158708323Y-91276108D01*
X158709180Y-91275726D01*
X158709720Y-91275654D01*
X158714600Y-91274068D01*
X158714890Y-91274960D01*
X158779547Y-91266292D01*
X158843844Y-91296399D01*
X158881657Y-91356488D01*
X158880980Y-91427482D01*
X158849523Y-91479928D01*
X157780454Y-92548997D01*
X157718142Y-92583023D01*
X157704530Y-92585212D01*
X157684653Y-92587301D01*
X157623094Y-92593771D01*
X157623093Y-92593771D01*
X157616093Y-92594507D01*
X157534880Y-92622154D01*
X157461673Y-92647075D01*
X157461670Y-92647076D01*
X157455003Y-92649346D01*
X157449005Y-92653036D01*
X157449003Y-92653037D01*
X157316065Y-92734821D01*
X157316063Y-92734823D01*
X157310066Y-92738512D01*
X157239510Y-92807607D01*
X157208735Y-92837744D01*
X157188486Y-92857573D01*
X157184675Y-92863487D01*
X157184673Y-92863489D01*
X157124689Y-92956565D01*
X157096304Y-93000610D01*
X157038103Y-93160516D01*
X157016775Y-93329343D01*
X157033381Y-93498699D01*
X157087094Y-93660167D01*
X157090741Y-93666189D01*
X157090742Y-93666191D01*
X157111651Y-93700715D01*
X157175246Y-93805723D01*
X157293455Y-93928132D01*
X157299351Y-93931990D01*
X157428233Y-94016328D01*
X157435846Y-94021310D01*
X157442450Y-94023766D01*
X157442452Y-94023767D01*
X157478844Y-94037301D01*
X157595341Y-94080626D01*
X157764015Y-94103132D01*
X157771026Y-94102494D01*
X157771030Y-94102494D01*
X157926462Y-94088348D01*
X157933483Y-94087709D01*
X157940185Y-94085531D01*
X157940187Y-94085531D01*
X158088623Y-94037301D01*
X158088626Y-94037300D01*
X158095322Y-94035124D01*
X158241490Y-93947990D01*
X158246584Y-93943139D01*
X158246588Y-93943136D01*
X158330033Y-93863672D01*
X158364721Y-93830639D01*
X158369833Y-93822946D01*
X158429453Y-93733210D01*
X158458891Y-93688902D01*
X158506384Y-93563877D01*
X158508867Y-93557340D01*
X158537560Y-93512989D01*
X161778776Y-90271773D01*
X161842537Y-90237441D01*
X161848618Y-90236193D01*
X161855638Y-90235554D01*
X161901061Y-90220795D01*
X162010778Y-90185146D01*
X162010781Y-90185145D01*
X162017477Y-90182969D01*
X162163645Y-90095835D01*
X162168739Y-90090984D01*
X162168743Y-90090981D01*
X162253140Y-90010610D01*
X162286876Y-89978484D01*
X162335850Y-89904772D01*
X162390206Y-89859103D01*
X162440797Y-89848500D01*
X162615761Y-89848500D01*
X162683882Y-89868502D01*
X162704856Y-89885405D01*
X163097164Y-90277713D01*
X163131190Y-90340025D01*
X163126125Y-90410840D01*
X163083578Y-90467676D01*
X163034267Y-90490055D01*
X162887712Y-90521206D01*
X162881682Y-90523891D01*
X162881681Y-90523891D01*
X162719278Y-90596197D01*
X162719276Y-90596198D01*
X162713248Y-90598882D01*
X162707907Y-90602762D01*
X162707906Y-90602763D01*
X162681627Y-90621856D01*
X162558747Y-90711134D01*
X162554326Y-90716044D01*
X162554325Y-90716045D01*
X162471429Y-90808111D01*
X162430960Y-90853056D01*
X162420238Y-90871627D01*
X162346987Y-90998502D01*
X162335473Y-91018444D01*
X162276458Y-91200072D01*
X162275768Y-91206633D01*
X162275768Y-91206635D01*
X162260018Y-91356488D01*
X162256496Y-91390000D01*
X162257186Y-91396565D01*
X162275737Y-91573064D01*
X162276458Y-91579928D01*
X162335473Y-91761556D01*
X162338776Y-91767278D01*
X162338777Y-91767279D01*
X162422820Y-91912845D01*
X162430960Y-91926944D01*
X162435379Y-91931852D01*
X162437436Y-91934683D01*
X162461295Y-92001551D01*
X162461500Y-92008744D01*
X162461500Y-92361039D01*
X162444619Y-92424039D01*
X162441733Y-92429038D01*
X162359747Y-92571042D01*
X162355473Y-92578444D01*
X162296458Y-92760072D01*
X162295768Y-92766633D01*
X162295768Y-92766635D01*
X162283143Y-92886753D01*
X162276496Y-92950000D01*
X162277186Y-92956565D01*
X162289564Y-93074331D01*
X162296458Y-93139928D01*
X162355473Y-93321556D01*
X162450960Y-93486944D01*
X162551633Y-93598752D01*
X162582348Y-93662757D01*
X162573584Y-93733210D01*
X162547090Y-93772155D01*
X161584650Y-94734595D01*
X161522338Y-94768621D01*
X161495555Y-94771500D01*
X155953411Y-94771500D01*
X155885897Y-94751885D01*
X155800562Y-94697729D01*
X155800558Y-94697727D01*
X155794608Y-94693951D01*
X155634300Y-94636868D01*
X155465329Y-94616720D01*
X155458326Y-94617456D01*
X155458325Y-94617456D01*
X155303101Y-94633770D01*
X155303097Y-94633771D01*
X155296093Y-94634507D01*
X155289422Y-94636778D01*
X155141673Y-94687075D01*
X155141670Y-94687076D01*
X155135003Y-94689346D01*
X155129005Y-94693036D01*
X155129003Y-94693037D01*
X154996065Y-94774821D01*
X154996063Y-94774823D01*
X154990066Y-94778512D01*
X154868486Y-94897573D01*
X154864675Y-94903487D01*
X154864673Y-94903489D01*
X154843368Y-94936548D01*
X154776304Y-95040610D01*
X154718103Y-95200516D01*
X154696775Y-95369343D01*
X154713381Y-95538699D01*
X154767094Y-95700167D01*
X154770741Y-95706189D01*
X154770742Y-95706191D01*
X154850858Y-95838477D01*
X154855246Y-95845723D01*
X154973455Y-95968132D01*
X155115846Y-96061310D01*
X155122450Y-96063766D01*
X155122452Y-96063767D01*
X155158844Y-96077301D01*
X155275341Y-96120626D01*
X155444015Y-96143132D01*
X155451026Y-96142494D01*
X155451030Y-96142494D01*
X155606462Y-96128348D01*
X155613483Y-96127709D01*
X155620185Y-96125531D01*
X155620187Y-96125531D01*
X155768623Y-96077301D01*
X155768626Y-96077300D01*
X155775322Y-96075124D01*
X155890823Y-96006271D01*
X155955341Y-95988500D01*
X161751658Y-95988500D01*
X161768101Y-95989578D01*
X161799794Y-95993750D01*
X161807983Y-95992672D01*
X161839668Y-95988501D01*
X161839678Y-95988500D01*
X161839679Y-95988500D01*
X161939251Y-95975391D01*
X161950458Y-95973916D01*
X161950460Y-95973915D01*
X161958645Y-95972838D01*
X162106670Y-95911524D01*
X162201866Y-95838477D01*
X162201869Y-95838474D01*
X162233781Y-95813987D01*
X162238811Y-95807432D01*
X162253246Y-95788621D01*
X162264113Y-95776230D01*
X165613234Y-92427109D01*
X165625625Y-92416242D01*
X165644437Y-92401807D01*
X165650987Y-92396781D01*
X165675474Y-92364869D01*
X165675480Y-92364863D01*
X165743496Y-92276223D01*
X165743497Y-92276221D01*
X165748524Y-92269670D01*
X165809838Y-92121645D01*
X165815289Y-92080242D01*
X165825500Y-92002679D01*
X165825500Y-92002674D01*
X165830750Y-91962794D01*
X165826578Y-91931101D01*
X165825500Y-91914658D01*
X165825500Y-90979343D01*
X168326775Y-90979343D01*
X168343381Y-91148699D01*
X168345605Y-91155384D01*
X168345605Y-91155385D01*
X168346091Y-91156846D01*
X168397094Y-91310167D01*
X168400741Y-91316189D01*
X168400742Y-91316191D01*
X168468143Y-91427482D01*
X168485246Y-91455723D01*
X168603455Y-91578132D01*
X168629993Y-91595498D01*
X168734243Y-91663717D01*
X168745846Y-91671310D01*
X168752450Y-91673766D01*
X168752452Y-91673767D01*
X168898731Y-91728168D01*
X168898733Y-91728169D01*
X168905341Y-91730626D01*
X168912326Y-91731558D01*
X168912330Y-91731559D01*
X168932710Y-91734278D01*
X168937770Y-91734953D01*
X169002648Y-91763788D01*
X169010202Y-91770751D01*
X169611323Y-92371872D01*
X169642362Y-92429038D01*
X169643381Y-92428699D01*
X169697094Y-92590167D01*
X169700741Y-92596189D01*
X169700742Y-92596191D01*
X169761888Y-92697154D01*
X169785246Y-92735723D01*
X169903455Y-92858132D01*
X169957503Y-92893500D01*
X170033812Y-92943435D01*
X170045846Y-92951310D01*
X170052450Y-92953766D01*
X170052452Y-92953767D01*
X170088844Y-92967301D01*
X170205341Y-93010626D01*
X170374015Y-93033132D01*
X170381026Y-93032494D01*
X170381030Y-93032494D01*
X170536462Y-93018348D01*
X170543483Y-93017709D01*
X170550185Y-93015531D01*
X170550187Y-93015531D01*
X170698623Y-92967301D01*
X170698626Y-92967300D01*
X170705322Y-92965124D01*
X170851490Y-92877990D01*
X170856584Y-92873139D01*
X170856588Y-92873136D01*
X170938613Y-92795024D01*
X170974721Y-92760639D01*
X170986148Y-92743441D01*
X171024540Y-92685656D01*
X171068891Y-92618902D01*
X171077296Y-92596776D01*
X171102362Y-92530791D01*
X171145251Y-92474213D01*
X171181213Y-92455702D01*
X171268625Y-92427300D01*
X171275322Y-92425124D01*
X171421490Y-92337990D01*
X171426584Y-92333139D01*
X171426588Y-92333136D01*
X171493833Y-92269099D01*
X171544721Y-92220639D01*
X171556995Y-92202166D01*
X171605171Y-92129654D01*
X171638891Y-92078902D01*
X171699319Y-91919825D01*
X171723001Y-91751313D01*
X171723205Y-91736711D01*
X171723244Y-91733961D01*
X171723244Y-91733955D01*
X171723299Y-91730000D01*
X171704331Y-91560892D01*
X171648368Y-91400189D01*
X171634435Y-91377891D01*
X171596465Y-91317128D01*
X171558192Y-91255879D01*
X171438286Y-91135132D01*
X171294608Y-91043951D01*
X171261944Y-91032320D01*
X171140935Y-90989230D01*
X171140930Y-90989229D01*
X171134300Y-90986868D01*
X171127312Y-90986035D01*
X171127309Y-90986034D01*
X171113040Y-90984333D01*
X171047767Y-90956406D01*
X171038863Y-90948314D01*
X170114573Y-90024024D01*
X170096814Y-90001699D01*
X170067035Y-89954043D01*
X170018192Y-89875879D01*
X170010867Y-89868502D01*
X169941470Y-89798619D01*
X169898286Y-89755132D01*
X169891281Y-89750686D01*
X169815178Y-89702390D01*
X169754608Y-89663951D01*
X169594300Y-89606868D01*
X169425329Y-89586720D01*
X169418326Y-89587456D01*
X169418325Y-89587456D01*
X169263101Y-89603770D01*
X169263097Y-89603771D01*
X169256093Y-89604507D01*
X169249422Y-89606778D01*
X169101673Y-89657075D01*
X169101670Y-89657076D01*
X169095003Y-89659346D01*
X169089005Y-89663036D01*
X169089003Y-89663037D01*
X168956065Y-89744821D01*
X168956063Y-89744823D01*
X168950066Y-89748512D01*
X168929641Y-89768514D01*
X168847963Y-89848500D01*
X168828486Y-89867573D01*
X168824675Y-89873487D01*
X168824673Y-89873489D01*
X168753797Y-89983466D01*
X168736304Y-90010610D01*
X168678103Y-90170516D01*
X168661570Y-90301393D01*
X168660273Y-90311657D01*
X168631891Y-90376733D01*
X168619892Y-90388335D01*
X168620066Y-90388512D01*
X168516375Y-90490055D01*
X168498486Y-90507573D01*
X168494675Y-90513487D01*
X168494673Y-90513489D01*
X168427673Y-90617452D01*
X168406304Y-90650610D01*
X168348103Y-90810516D01*
X168326775Y-90979343D01*
X165825500Y-90979343D01*
X165825500Y-89015136D01*
X165826578Y-88998690D01*
X165829672Y-88975188D01*
X165830750Y-88967000D01*
X165825500Y-88927120D01*
X165825500Y-88927115D01*
X165824041Y-88916034D01*
X165824557Y-88912729D01*
X165824422Y-88910675D01*
X165824422Y-88910669D01*
X165824878Y-88910669D01*
X165834983Y-88845886D01*
X165882112Y-88792789D01*
X165950467Y-88773601D01*
X166018344Y-88794414D01*
X166019420Y-88795211D01*
X166165221Y-88890620D01*
X166177723Y-88896935D01*
X166269020Y-88930888D01*
X166283087Y-88931881D01*
X166286000Y-88926535D01*
X166286000Y-88918456D01*
X166794000Y-88918456D01*
X166797973Y-88931987D01*
X166804999Y-88932997D01*
X166871283Y-88911460D01*
X166884028Y-88905678D01*
X167028597Y-88819498D01*
X167039750Y-88811032D01*
X167161632Y-88694966D01*
X167170636Y-88684236D01*
X167263770Y-88544058D01*
X167270174Y-88531596D01*
X167306811Y-88435148D01*
X167307902Y-88421090D01*
X167302710Y-88418214D01*
X166812115Y-88418214D01*
X166796876Y-88422689D01*
X166795671Y-88424079D01*
X166794000Y-88431762D01*
X166794000Y-88918456D01*
X166286000Y-88918456D01*
X166286000Y-88436329D01*
X166281525Y-88421090D01*
X166280135Y-88419885D01*
X166272452Y-88418214D01*
X165785758Y-88418214D01*
X165770518Y-88422689D01*
X165748987Y-88447537D01*
X165689261Y-88485920D01*
X165618264Y-88485920D01*
X165564668Y-88454119D01*
X165540053Y-88429504D01*
X165506027Y-88367192D01*
X165511092Y-88296377D01*
X165553639Y-88239541D01*
X165568659Y-88229878D01*
X165575129Y-88226338D01*
X165578893Y-88219428D01*
X165578893Y-88211349D01*
X167501107Y-88211349D01*
X167505080Y-88224880D01*
X167512106Y-88225890D01*
X167578390Y-88204353D01*
X167591135Y-88198571D01*
X167735704Y-88112391D01*
X167746857Y-88103925D01*
X167868739Y-87987859D01*
X167877743Y-87977129D01*
X167970877Y-87836951D01*
X167977281Y-87824489D01*
X168013918Y-87728041D01*
X168015009Y-87713983D01*
X168009817Y-87711107D01*
X167519222Y-87711107D01*
X167503983Y-87715582D01*
X167502778Y-87716972D01*
X167501107Y-87724655D01*
X167501107Y-88211349D01*
X165578893Y-88211349D01*
X165578893Y-87892099D01*
X166086893Y-87892099D01*
X166091368Y-87907338D01*
X166092758Y-87908543D01*
X166100441Y-87910214D01*
X166267885Y-87910214D01*
X166283124Y-87905739D01*
X166284329Y-87904349D01*
X166286000Y-87896666D01*
X166286000Y-87892099D01*
X166794000Y-87892099D01*
X166798475Y-87907338D01*
X166799865Y-87908543D01*
X166807548Y-87910214D01*
X166974992Y-87910214D01*
X166990231Y-87905739D01*
X166991436Y-87904349D01*
X166993107Y-87896666D01*
X166993107Y-87729222D01*
X166988632Y-87713983D01*
X166987242Y-87712778D01*
X166979559Y-87711107D01*
X166812115Y-87711107D01*
X166796876Y-87715582D01*
X166795671Y-87716972D01*
X166794000Y-87724655D01*
X166794000Y-87892099D01*
X166286000Y-87892099D01*
X166286000Y-87729222D01*
X166281525Y-87713983D01*
X166280135Y-87712778D01*
X166272452Y-87711107D01*
X166105008Y-87711107D01*
X166089769Y-87715582D01*
X166088564Y-87716972D01*
X166086893Y-87724655D01*
X166086893Y-87892099D01*
X165578893Y-87892099D01*
X165578893Y-87729222D01*
X165574418Y-87713983D01*
X165573028Y-87712778D01*
X165565345Y-87711107D01*
X165078653Y-87711107D01*
X165069999Y-87713648D01*
X164999002Y-87713648D01*
X164939276Y-87675265D01*
X164909783Y-87610684D01*
X164908500Y-87592752D01*
X164908500Y-87504242D01*
X168208214Y-87504242D01*
X168212187Y-87517773D01*
X168219213Y-87518783D01*
X168285497Y-87497246D01*
X168298242Y-87491464D01*
X168442811Y-87405284D01*
X168453964Y-87396818D01*
X168575846Y-87280752D01*
X168584850Y-87270022D01*
X168638016Y-87190000D01*
X171036496Y-87190000D01*
X171037186Y-87196565D01*
X171051917Y-87336719D01*
X171056458Y-87379928D01*
X171115473Y-87561556D01*
X171118776Y-87567278D01*
X171118777Y-87567279D01*
X171133484Y-87592752D01*
X171210960Y-87726944D01*
X171215378Y-87731851D01*
X171215379Y-87731852D01*
X171310011Y-87836951D01*
X171338747Y-87868866D01*
X171415578Y-87924687D01*
X171487758Y-87977129D01*
X171493248Y-87981118D01*
X171499276Y-87983802D01*
X171499278Y-87983803D01*
X171647960Y-88050000D01*
X171667712Y-88058794D01*
X171761112Y-88078647D01*
X171848056Y-88097128D01*
X171848061Y-88097128D01*
X171854513Y-88098500D01*
X172045487Y-88098500D01*
X172051939Y-88097128D01*
X172051944Y-88097128D01*
X172138888Y-88078647D01*
X172232288Y-88058794D01*
X172252040Y-88050000D01*
X172400722Y-87983803D01*
X172400724Y-87983802D01*
X172406752Y-87981118D01*
X172412243Y-87977129D01*
X172484422Y-87924687D01*
X172561253Y-87868866D01*
X172589989Y-87836951D01*
X172684621Y-87731852D01*
X172684622Y-87731851D01*
X172689040Y-87726944D01*
X172766516Y-87592752D01*
X172781223Y-87567279D01*
X172781224Y-87567278D01*
X172784527Y-87561556D01*
X172843542Y-87379928D01*
X172848084Y-87336719D01*
X172862814Y-87196565D01*
X172863504Y-87190000D01*
X172843542Y-87000072D01*
X172784527Y-86818444D01*
X172769394Y-86792232D01*
X172692342Y-86658775D01*
X172692341Y-86658774D01*
X172689040Y-86653056D01*
X172684621Y-86648148D01*
X172682564Y-86645317D01*
X172658705Y-86578449D01*
X172658500Y-86571256D01*
X172658500Y-84614500D01*
X172678502Y-84546379D01*
X172732158Y-84499886D01*
X172784500Y-84488500D01*
X173301088Y-84488500D01*
X173309658Y-84488792D01*
X173359776Y-84492209D01*
X173359780Y-84492209D01*
X173367352Y-84492725D01*
X173374829Y-84491420D01*
X173374830Y-84491420D01*
X173406578Y-84485879D01*
X173430303Y-84481738D01*
X173436821Y-84480777D01*
X173500242Y-84473102D01*
X173507343Y-84470419D01*
X173509952Y-84469778D01*
X173526262Y-84465315D01*
X173528798Y-84464550D01*
X173536284Y-84463243D01*
X173594800Y-84437556D01*
X173600904Y-84435065D01*
X173653548Y-84415173D01*
X173653549Y-84415172D01*
X173660656Y-84412487D01*
X173666919Y-84408183D01*
X173669285Y-84406946D01*
X173684097Y-84398701D01*
X173686351Y-84397368D01*
X173693305Y-84394315D01*
X173744002Y-84355413D01*
X173749332Y-84351541D01*
X173795720Y-84319661D01*
X173795725Y-84319656D01*
X173801981Y-84315357D01*
X173822186Y-84292680D01*
X173843435Y-84268830D01*
X173848416Y-84263554D01*
X176080520Y-82031450D01*
X176086785Y-82025596D01*
X176087651Y-82024840D01*
X176130385Y-81987561D01*
X176167114Y-81935300D01*
X176171046Y-81930005D01*
X176205791Y-81885694D01*
X176210477Y-81879718D01*
X176213602Y-81872796D01*
X176214964Y-81870548D01*
X176223368Y-81855815D01*
X176224622Y-81853476D01*
X176228990Y-81847261D01*
X176231749Y-81840185D01*
X176231751Y-81840181D01*
X176252200Y-81787731D01*
X176254749Y-81781666D01*
X176281045Y-81723427D01*
X176282429Y-81715962D01*
X176283226Y-81713418D01*
X176287859Y-81697152D01*
X176288521Y-81694572D01*
X176291282Y-81687491D01*
X176292629Y-81677263D01*
X176299621Y-81624147D01*
X176300653Y-81617630D01*
X176302037Y-81610166D01*
X176305392Y-81592060D01*
X176332000Y-81538108D01*
X176330740Y-81537192D01*
X176334617Y-81531856D01*
X176339040Y-81526944D01*
X176354378Y-81500379D01*
X176431223Y-81367279D01*
X176431224Y-81367278D01*
X176434527Y-81361556D01*
X176493542Y-81179928D01*
X176510248Y-81020984D01*
X176512814Y-80996565D01*
X176513504Y-80990000D01*
X176506706Y-80925316D01*
X176494232Y-80806635D01*
X176494232Y-80806633D01*
X176493542Y-80800072D01*
X176434527Y-80618444D01*
X176339040Y-80453056D01*
X176211253Y-80311134D01*
X176056752Y-80198882D01*
X176050724Y-80196198D01*
X176050722Y-80196197D01*
X175888319Y-80123891D01*
X175888318Y-80123891D01*
X175882288Y-80121206D01*
X175788888Y-80101353D01*
X175701944Y-80082872D01*
X175701939Y-80082872D01*
X175695487Y-80081500D01*
X175504513Y-80081500D01*
X175498061Y-80082872D01*
X175498056Y-80082872D01*
X175411113Y-80101353D01*
X175317712Y-80121206D01*
X175311682Y-80123891D01*
X175311681Y-80123891D01*
X175149278Y-80196197D01*
X175149276Y-80196198D01*
X175143248Y-80198882D01*
X174988747Y-80311134D01*
X174860960Y-80453056D01*
X174765473Y-80618444D01*
X174706458Y-80800072D01*
X174705768Y-80806633D01*
X174705768Y-80806635D01*
X174693294Y-80925316D01*
X174686496Y-80990000D01*
X174687186Y-80996565D01*
X174689753Y-81020984D01*
X174706458Y-81179928D01*
X174708498Y-81186206D01*
X174708499Y-81186211D01*
X174718414Y-81216724D01*
X174736954Y-81273784D01*
X174738982Y-81344749D01*
X174706216Y-81401814D01*
X173073435Y-83034595D01*
X173011123Y-83068621D01*
X172984340Y-83071500D01*
X172581405Y-83071500D01*
X172513284Y-83051498D01*
X172507344Y-83047436D01*
X172432094Y-82992763D01*
X172432093Y-82992762D01*
X172426752Y-82988882D01*
X172420724Y-82986198D01*
X172420722Y-82986197D01*
X172258319Y-82913891D01*
X172258318Y-82913891D01*
X172252288Y-82911206D01*
X172153200Y-82890144D01*
X172071944Y-82872872D01*
X172071939Y-82872872D01*
X172065487Y-82871500D01*
X171874513Y-82871500D01*
X171868061Y-82872872D01*
X171868056Y-82872872D01*
X171786800Y-82890144D01*
X171687712Y-82911206D01*
X171681682Y-82913891D01*
X171681681Y-82913891D01*
X171519278Y-82986197D01*
X171519276Y-82986198D01*
X171513248Y-82988882D01*
X171507907Y-82992762D01*
X171507906Y-82992763D01*
X171485661Y-83008925D01*
X171358747Y-83101134D01*
X171354326Y-83106044D01*
X171354325Y-83106045D01*
X171238658Y-83234507D01*
X171230960Y-83243056D01*
X171184104Y-83324213D01*
X171149909Y-83383441D01*
X171135473Y-83408444D01*
X171076458Y-83590072D01*
X171075768Y-83596633D01*
X171075768Y-83596635D01*
X171068125Y-83669359D01*
X171056496Y-83780000D01*
X171057186Y-83786565D01*
X171069428Y-83903037D01*
X171076458Y-83969928D01*
X171135473Y-84151556D01*
X171138776Y-84157278D01*
X171138777Y-84157279D01*
X171224619Y-84305961D01*
X171241500Y-84368961D01*
X171241500Y-86571256D01*
X171221498Y-86639377D01*
X171217436Y-86645317D01*
X171215379Y-86648148D01*
X171210960Y-86653056D01*
X171207659Y-86658774D01*
X171207658Y-86658775D01*
X171130607Y-86792232D01*
X171115473Y-86818444D01*
X171056458Y-87000072D01*
X171036496Y-87190000D01*
X168638016Y-87190000D01*
X168677984Y-87129844D01*
X168684388Y-87117382D01*
X168721025Y-87020934D01*
X168722116Y-87006876D01*
X168716924Y-87004000D01*
X168226329Y-87004000D01*
X168211090Y-87008475D01*
X168209885Y-87009865D01*
X168208214Y-87017548D01*
X168208214Y-87504242D01*
X164908500Y-87504242D01*
X164908500Y-87184992D01*
X165379786Y-87184992D01*
X165384261Y-87200231D01*
X165385651Y-87201436D01*
X165393334Y-87203107D01*
X165560778Y-87203107D01*
X165576017Y-87198632D01*
X165577222Y-87197242D01*
X165578893Y-87189559D01*
X165578893Y-87184992D01*
X166086893Y-87184992D01*
X166091368Y-87200231D01*
X166092758Y-87201436D01*
X166100441Y-87203107D01*
X166267885Y-87203107D01*
X166283124Y-87198632D01*
X166284329Y-87197242D01*
X166286000Y-87189559D01*
X166286000Y-87184992D01*
X166794000Y-87184992D01*
X166798475Y-87200231D01*
X166799865Y-87201436D01*
X166807548Y-87203107D01*
X166974992Y-87203107D01*
X166990231Y-87198632D01*
X166991436Y-87197242D01*
X166993107Y-87189559D01*
X166993107Y-87184992D01*
X167501107Y-87184992D01*
X167505582Y-87200231D01*
X167506972Y-87201436D01*
X167514655Y-87203107D01*
X167682099Y-87203107D01*
X167697338Y-87198632D01*
X167698543Y-87197242D01*
X167700214Y-87189559D01*
X167700214Y-87022115D01*
X167695739Y-87006876D01*
X167694349Y-87005671D01*
X167686666Y-87004000D01*
X167519222Y-87004000D01*
X167503983Y-87008475D01*
X167502778Y-87009865D01*
X167501107Y-87017548D01*
X167501107Y-87184992D01*
X166993107Y-87184992D01*
X166993107Y-87022115D01*
X166988632Y-87006876D01*
X166987242Y-87005671D01*
X166979559Y-87004000D01*
X166812115Y-87004000D01*
X166796876Y-87008475D01*
X166795671Y-87009865D01*
X166794000Y-87017548D01*
X166794000Y-87184992D01*
X166286000Y-87184992D01*
X166286000Y-87022115D01*
X166281525Y-87006876D01*
X166280135Y-87005671D01*
X166272452Y-87004000D01*
X166105008Y-87004000D01*
X166089769Y-87008475D01*
X166088564Y-87009865D01*
X166086893Y-87017548D01*
X166086893Y-87184992D01*
X165578893Y-87184992D01*
X165578893Y-87022115D01*
X165574418Y-87006876D01*
X165573028Y-87005671D01*
X165565345Y-87004000D01*
X165397901Y-87004000D01*
X165382662Y-87008475D01*
X165381457Y-87009865D01*
X165379786Y-87017548D01*
X165379786Y-87184992D01*
X164908500Y-87184992D01*
X164908500Y-86477885D01*
X165379786Y-86477885D01*
X165384261Y-86493124D01*
X165385651Y-86494329D01*
X165393334Y-86496000D01*
X165560778Y-86496000D01*
X165576017Y-86491525D01*
X165577222Y-86490135D01*
X165578893Y-86482452D01*
X165578893Y-86477885D01*
X166086893Y-86477885D01*
X166091368Y-86493124D01*
X166092758Y-86494329D01*
X166100441Y-86496000D01*
X166267885Y-86496000D01*
X166283124Y-86491525D01*
X166284329Y-86490135D01*
X166286000Y-86482452D01*
X166286000Y-86477885D01*
X166794000Y-86477885D01*
X166798475Y-86493124D01*
X166799865Y-86494329D01*
X166807548Y-86496000D01*
X166974992Y-86496000D01*
X166990231Y-86491525D01*
X166991436Y-86490135D01*
X166993107Y-86482452D01*
X166993107Y-86477885D01*
X167501107Y-86477885D01*
X167505582Y-86493124D01*
X167506972Y-86494329D01*
X167514655Y-86496000D01*
X167682099Y-86496000D01*
X167697338Y-86491525D01*
X167698543Y-86490135D01*
X167700214Y-86482452D01*
X167700214Y-86477885D01*
X168208214Y-86477885D01*
X168212689Y-86493124D01*
X168214079Y-86494329D01*
X168221762Y-86496000D01*
X168708581Y-86496000D01*
X168722112Y-86492027D01*
X168723047Y-86485522D01*
X168694360Y-86403147D01*
X168688309Y-86390517D01*
X168599121Y-86247786D01*
X168590424Y-86236813D01*
X168471828Y-86117386D01*
X168460918Y-86108614D01*
X168318819Y-86018436D01*
X168306222Y-86012292D01*
X168225281Y-85983469D01*
X168211201Y-85982673D01*
X168208214Y-85988342D01*
X168208214Y-86477885D01*
X167700214Y-86477885D01*
X167700214Y-86315008D01*
X167695739Y-86299769D01*
X167694349Y-86298564D01*
X167686666Y-86296893D01*
X167519222Y-86296893D01*
X167503983Y-86301368D01*
X167502778Y-86302758D01*
X167501107Y-86310441D01*
X167501107Y-86477885D01*
X166993107Y-86477885D01*
X166993107Y-86315008D01*
X166988632Y-86299769D01*
X166987242Y-86298564D01*
X166979559Y-86296893D01*
X166812115Y-86296893D01*
X166796876Y-86301368D01*
X166795671Y-86302758D01*
X166794000Y-86310441D01*
X166794000Y-86477885D01*
X166286000Y-86477885D01*
X166286000Y-86315008D01*
X166281525Y-86299769D01*
X166280135Y-86298564D01*
X166272452Y-86296893D01*
X166105008Y-86296893D01*
X166089769Y-86301368D01*
X166088564Y-86302758D01*
X166086893Y-86310441D01*
X166086893Y-86477885D01*
X165578893Y-86477885D01*
X165578893Y-86315008D01*
X165574418Y-86299769D01*
X165573028Y-86298564D01*
X165565345Y-86296893D01*
X165397901Y-86296893D01*
X165382662Y-86301368D01*
X165381457Y-86302758D01*
X165379786Y-86310441D01*
X165379786Y-86477885D01*
X164908500Y-86477885D01*
X164908500Y-85912241D01*
X164928502Y-85844120D01*
X164982158Y-85797627D01*
X165047475Y-85786911D01*
X165066620Y-85788893D01*
X165560778Y-85788893D01*
X165576017Y-85784418D01*
X165577222Y-85783028D01*
X165578893Y-85775345D01*
X165578893Y-85770778D01*
X166086893Y-85770778D01*
X166091368Y-85786017D01*
X166092758Y-85787222D01*
X166100441Y-85788893D01*
X166267885Y-85788893D01*
X166283124Y-85784418D01*
X166284329Y-85783028D01*
X166286000Y-85775345D01*
X166286000Y-85770778D01*
X166794000Y-85770778D01*
X166798475Y-85786017D01*
X166799865Y-85787222D01*
X166807548Y-85788893D01*
X166974992Y-85788893D01*
X166990231Y-85784418D01*
X166991436Y-85783028D01*
X166993107Y-85775345D01*
X166993107Y-85770778D01*
X167501107Y-85770778D01*
X167505582Y-85786017D01*
X167506972Y-85787222D01*
X167514655Y-85788893D01*
X168001474Y-85788893D01*
X168015005Y-85784920D01*
X168015940Y-85778415D01*
X167987253Y-85696040D01*
X167981202Y-85683410D01*
X167892014Y-85540679D01*
X167883317Y-85529706D01*
X167764721Y-85410279D01*
X167753811Y-85401507D01*
X167611712Y-85311329D01*
X167599115Y-85305185D01*
X167518174Y-85276362D01*
X167504094Y-85275566D01*
X167501107Y-85281235D01*
X167501107Y-85770778D01*
X166993107Y-85770778D01*
X166993107Y-85607901D01*
X166988632Y-85592662D01*
X166987242Y-85591457D01*
X166979559Y-85589786D01*
X166812115Y-85589786D01*
X166796876Y-85594261D01*
X166795671Y-85595651D01*
X166794000Y-85603334D01*
X166794000Y-85770778D01*
X166286000Y-85770778D01*
X166286000Y-85607901D01*
X166281525Y-85592662D01*
X166280135Y-85591457D01*
X166272452Y-85589786D01*
X166105008Y-85589786D01*
X166089769Y-85594261D01*
X166088564Y-85595651D01*
X166086893Y-85603334D01*
X166086893Y-85770778D01*
X165578893Y-85770778D01*
X165578893Y-85288610D01*
X165574920Y-85275079D01*
X165568246Y-85274120D01*
X165491215Y-85300343D01*
X165478540Y-85306308D01*
X165335197Y-85394493D01*
X165324161Y-85403115D01*
X165203908Y-85520875D01*
X165195060Y-85531725D01*
X165140411Y-85616523D01*
X165086696Y-85662948D01*
X165016410Y-85672963D01*
X164951867Y-85643387D01*
X164913559Y-85583613D01*
X164908500Y-85548268D01*
X164908500Y-85078836D01*
X165772526Y-85078836D01*
X165778032Y-85081786D01*
X166267885Y-85081786D01*
X166283124Y-85077311D01*
X166284329Y-85075921D01*
X166286000Y-85068238D01*
X166286000Y-85063671D01*
X166794000Y-85063671D01*
X166798475Y-85078910D01*
X166799865Y-85080115D01*
X166807548Y-85081786D01*
X167294367Y-85081786D01*
X167307898Y-85077813D01*
X167308833Y-85071308D01*
X167280146Y-84988933D01*
X167274095Y-84976303D01*
X167184907Y-84833572D01*
X167176210Y-84822599D01*
X167057614Y-84703172D01*
X167046704Y-84694400D01*
X166904605Y-84604222D01*
X166892008Y-84598078D01*
X166811067Y-84569255D01*
X166796987Y-84568459D01*
X166794000Y-84574128D01*
X166794000Y-85063671D01*
X166286000Y-85063671D01*
X166286000Y-84581503D01*
X166282027Y-84567972D01*
X166275353Y-84567013D01*
X166198322Y-84593236D01*
X166185647Y-84599201D01*
X166042304Y-84687386D01*
X166031268Y-84696008D01*
X165911015Y-84813768D01*
X165902167Y-84824618D01*
X165810999Y-84966083D01*
X165804767Y-84978636D01*
X165773420Y-85064762D01*
X165772526Y-85078836D01*
X164908500Y-85078836D01*
X164908500Y-82846273D01*
X164928502Y-82778152D01*
X164947608Y-82755027D01*
X164976067Y-82727926D01*
X165004721Y-82700639D01*
X165024067Y-82671522D01*
X165077691Y-82590810D01*
X165098891Y-82558902D01*
X165159319Y-82399825D01*
X165161491Y-82384371D01*
X165181502Y-82241981D01*
X165210790Y-82177307D01*
X165241758Y-82151288D01*
X165375444Y-82071594D01*
X165381490Y-82067990D01*
X165386584Y-82063139D01*
X165386588Y-82063136D01*
X165460705Y-81992555D01*
X165504721Y-81950639D01*
X165520452Y-81926963D01*
X165563783Y-81861744D01*
X165598891Y-81808902D01*
X165659319Y-81649825D01*
X165683001Y-81481313D01*
X165683299Y-81460000D01*
X165664331Y-81290892D01*
X165654926Y-81263883D01*
X165625689Y-81179928D01*
X165608368Y-81130189D01*
X165598658Y-81114649D01*
X165521924Y-80991851D01*
X165521923Y-80991850D01*
X165518192Y-80985879D01*
X165518548Y-80985657D01*
X165493509Y-80923803D01*
X165501105Y-80866599D01*
X165503845Y-80859387D01*
X165503846Y-80859384D01*
X165506348Y-80852797D01*
X165530030Y-80684285D01*
X165530154Y-80675450D01*
X165530273Y-80666933D01*
X165530273Y-80666927D01*
X165530328Y-80662972D01*
X165511360Y-80493864D01*
X165455397Y-80333161D01*
X165449412Y-80323582D01*
X165387646Y-80224738D01*
X165368500Y-80157968D01*
X165368500Y-78182890D01*
X165389552Y-78113163D01*
X165413094Y-78077730D01*
X165438891Y-78038902D01*
X165499319Y-77879825D01*
X165523001Y-77711313D01*
X165523299Y-77690000D01*
X165504331Y-77520892D01*
X165448368Y-77360189D01*
X165358192Y-77215879D01*
X165352565Y-77210212D01*
X165352277Y-77209680D01*
X165348853Y-77205360D01*
X165349612Y-77204758D01*
X165318761Y-77147780D01*
X165324077Y-77076982D01*
X165332150Y-77061227D01*
X165331773Y-77061033D01*
X165334989Y-77054774D01*
X165338891Y-77048902D01*
X165399319Y-76889825D01*
X165423001Y-76721313D01*
X165423299Y-76700000D01*
X165404331Y-76530892D01*
X165348368Y-76370189D01*
X165342383Y-76360610D01*
X165320420Y-76325464D01*
X165258192Y-76225879D01*
X165138286Y-76105132D01*
X165122039Y-76094821D01*
X165083406Y-76070304D01*
X164994608Y-76013951D01*
X164834300Y-75956868D01*
X164665329Y-75936720D01*
X164658326Y-75937456D01*
X164658325Y-75937456D01*
X164503101Y-75953770D01*
X164503097Y-75953771D01*
X164496093Y-75954507D01*
X164489422Y-75956778D01*
X164341673Y-76007075D01*
X164341670Y-76007076D01*
X164335003Y-76009346D01*
X164329005Y-76013036D01*
X164329003Y-76013037D01*
X164196065Y-76094821D01*
X164196063Y-76094823D01*
X164190066Y-76098512D01*
X164068486Y-76217573D01*
X164064675Y-76223487D01*
X164064673Y-76223489D01*
X163978788Y-76356756D01*
X163925073Y-76403180D01*
X163872877Y-76414500D01*
X162265136Y-76414500D01*
X162248693Y-76413422D01*
X162217000Y-76409250D01*
X162208811Y-76410328D01*
X162177126Y-76414499D01*
X162177117Y-76414500D01*
X162177115Y-76414500D01*
X162177109Y-76414501D01*
X162177107Y-76414501D01*
X162077543Y-76427609D01*
X162066336Y-76429084D01*
X162066334Y-76429085D01*
X162058149Y-76430162D01*
X161984136Y-76460819D01*
X161917752Y-76488316D01*
X161917750Y-76488317D01*
X161910124Y-76491476D01*
X161845389Y-76541150D01*
X161783013Y-76589013D01*
X161777987Y-76595563D01*
X161763548Y-76614380D01*
X161752681Y-76626771D01*
X159234856Y-79144595D01*
X159172544Y-79178621D01*
X159145761Y-79181500D01*
X159133411Y-79181500D01*
X159065897Y-79161885D01*
X158980562Y-79107729D01*
X158980558Y-79107727D01*
X158974608Y-79103951D01*
X158814300Y-79046868D01*
X158645329Y-79026720D01*
X158638326Y-79027456D01*
X158638325Y-79027456D01*
X158483101Y-79043770D01*
X158483097Y-79043771D01*
X158476093Y-79044507D01*
X158469422Y-79046778D01*
X158321673Y-79097075D01*
X158321670Y-79097076D01*
X158315003Y-79099346D01*
X158262878Y-79131414D01*
X158238346Y-79146506D01*
X158169845Y-79165165D01*
X158104810Y-79145575D01*
X158103266Y-79144595D01*
X158082496Y-79131414D01*
X157922188Y-79074331D01*
X157753217Y-79054183D01*
X157746214Y-79054919D01*
X157746213Y-79054919D01*
X157590989Y-79071233D01*
X157590985Y-79071234D01*
X157583981Y-79071970D01*
X157577310Y-79074241D01*
X157429561Y-79124538D01*
X157429558Y-79124539D01*
X157422891Y-79126809D01*
X157416893Y-79130499D01*
X157416891Y-79130500D01*
X157283953Y-79212284D01*
X157283951Y-79212286D01*
X157277954Y-79215975D01*
X157156374Y-79335036D01*
X157152563Y-79340950D01*
X157152561Y-79340952D01*
X157079545Y-79454250D01*
X157064192Y-79478073D01*
X157005991Y-79637979D01*
X156984663Y-79806806D01*
X157001269Y-79976162D01*
X157054982Y-80137630D01*
X157058629Y-80143652D01*
X157058630Y-80143654D01*
X157134543Y-80269000D01*
X157143134Y-80283186D01*
X157261343Y-80405595D01*
X157403734Y-80498773D01*
X157410338Y-80501229D01*
X157410340Y-80501230D01*
X157556619Y-80555631D01*
X157556621Y-80555632D01*
X157563229Y-80558089D01*
X157570214Y-80559021D01*
X157570218Y-80559022D01*
X157590598Y-80561741D01*
X157595658Y-80562416D01*
X157660536Y-80591251D01*
X157668090Y-80598214D01*
X157706281Y-80636405D01*
X157740307Y-80698717D01*
X157735242Y-80769532D01*
X157692695Y-80826368D01*
X157626175Y-80851179D01*
X157617186Y-80851500D01*
X151908144Y-80851500D01*
X151891698Y-80850422D01*
X151868188Y-80847327D01*
X151860000Y-80846249D01*
X151701149Y-80867162D01*
X151553124Y-80928476D01*
X151507674Y-80963351D01*
X151457937Y-81001515D01*
X151457921Y-81001529D01*
X151432566Y-81020984D01*
X151432563Y-81020987D01*
X151426013Y-81026013D01*
X151420983Y-81032568D01*
X151406548Y-81051379D01*
X151395681Y-81063770D01*
X150112233Y-82347218D01*
X150049921Y-82381244D01*
X150036313Y-82383432D01*
X150033107Y-82383769D01*
X150033100Y-82383771D01*
X150026093Y-82384507D01*
X150019422Y-82386778D01*
X149871673Y-82437075D01*
X149871670Y-82437076D01*
X149865003Y-82439346D01*
X149859005Y-82443036D01*
X149859003Y-82443037D01*
X149726065Y-82524821D01*
X149726063Y-82524823D01*
X149720066Y-82528512D01*
X149676684Y-82570995D01*
X149605320Y-82640881D01*
X149598486Y-82647573D01*
X149594675Y-82653487D01*
X149594673Y-82653489D01*
X149510121Y-82784687D01*
X149506304Y-82790610D01*
X149476816Y-82871627D01*
X149456339Y-82927889D01*
X149448103Y-82950516D01*
X149447220Y-82957506D01*
X149436635Y-83041292D01*
X149408253Y-83106369D01*
X149349193Y-83145770D01*
X149311629Y-83151500D01*
X147648136Y-83151500D01*
X147631693Y-83150422D01*
X147600000Y-83146250D01*
X147591811Y-83147328D01*
X147560126Y-83151499D01*
X147560117Y-83151500D01*
X147560115Y-83151500D01*
X147560109Y-83151501D01*
X147560107Y-83151501D01*
X147460543Y-83164609D01*
X147449336Y-83166084D01*
X147449334Y-83166085D01*
X147441149Y-83167162D01*
X147316679Y-83218720D01*
X147281637Y-83227618D01*
X147256193Y-83230293D01*
X147223101Y-83233770D01*
X147223097Y-83233771D01*
X147216093Y-83234507D01*
X147209422Y-83236778D01*
X147061673Y-83287075D01*
X147061670Y-83287076D01*
X147055003Y-83289346D01*
X147049005Y-83293036D01*
X147049003Y-83293037D01*
X146916065Y-83374821D01*
X146916063Y-83374823D01*
X146910066Y-83378512D01*
X146852784Y-83434607D01*
X146805021Y-83481381D01*
X146788486Y-83497573D01*
X146784675Y-83503487D01*
X146784673Y-83503489D01*
X146700121Y-83634687D01*
X146696304Y-83640610D01*
X146693894Y-83647232D01*
X146641931Y-83790000D01*
X146638103Y-83800516D01*
X146616775Y-83969343D01*
X146633381Y-84138699D01*
X146635605Y-84145384D01*
X146635605Y-84145385D01*
X146648735Y-84184856D01*
X146687094Y-84300167D01*
X146690741Y-84306189D01*
X146690742Y-84306191D01*
X146764316Y-84427675D01*
X146775246Y-84445723D01*
X146893455Y-84568132D01*
X146949291Y-84604670D01*
X147033164Y-84659555D01*
X147079213Y-84713592D01*
X147088736Y-84783947D01*
X147058711Y-84848282D01*
X147030193Y-84872304D01*
X146896071Y-84954817D01*
X146896067Y-84954820D01*
X146890066Y-84958512D01*
X146832456Y-85014928D01*
X146774884Y-85071308D01*
X146768486Y-85077573D01*
X146764675Y-85083487D01*
X146764673Y-85083489D01*
X146700023Y-85183805D01*
X146676304Y-85220610D01*
X146618103Y-85380516D01*
X146596775Y-85549343D01*
X140075994Y-85549343D01*
X139494128Y-84967477D01*
X139460102Y-84905165D01*
X139465167Y-84834350D01*
X139507714Y-84777514D01*
X139524070Y-84767130D01*
X139579764Y-84737517D01*
X139640796Y-84705066D01*
X139751841Y-84614500D01*
X139789287Y-84583960D01*
X139789290Y-84583957D01*
X139794062Y-84580065D01*
X139800504Y-84572278D01*
X139916201Y-84432425D01*
X139916203Y-84432421D01*
X139920130Y-84427675D01*
X140014198Y-84253701D01*
X140072682Y-84064768D01*
X140075070Y-84042049D01*
X140092711Y-83874204D01*
X140092711Y-83874202D01*
X140093355Y-83868075D01*
X140079011Y-83710460D01*
X140075989Y-83677251D01*
X140075988Y-83677248D01*
X140075430Y-83671112D01*
X140073326Y-83663961D01*
X140038763Y-83546525D01*
X140019590Y-83481381D01*
X140016691Y-83475834D01*
X139954049Y-83356013D01*
X139927960Y-83306110D01*
X139804032Y-83151975D01*
X139652526Y-83024846D01*
X139647128Y-83021879D01*
X139647123Y-83021875D01*
X139484608Y-82932533D01*
X139484609Y-82932533D01*
X139479213Y-82929567D01*
X139473346Y-82927706D01*
X139473344Y-82927705D01*
X139296564Y-82871627D01*
X139296563Y-82871627D01*
X139290694Y-82869765D01*
X139136773Y-82852500D01*
X139030231Y-82852500D01*
X139027175Y-82852800D01*
X139027168Y-82852800D01*
X138968660Y-82858537D01*
X138883167Y-82866920D01*
X138877266Y-82868702D01*
X138877264Y-82868702D01*
X138820733Y-82885770D01*
X138780917Y-82897791D01*
X138709924Y-82898332D01*
X138649907Y-82860404D01*
X138619923Y-82796050D01*
X138618500Y-82777169D01*
X138618500Y-80905669D01*
X147822001Y-80905669D01*
X147822371Y-80912490D01*
X147827895Y-80963352D01*
X147831521Y-80978604D01*
X147876676Y-81099054D01*
X147885214Y-81114649D01*
X147961715Y-81216724D01*
X147974276Y-81229285D01*
X148076351Y-81305786D01*
X148091946Y-81314324D01*
X148212394Y-81359478D01*
X148227649Y-81363105D01*
X148278514Y-81368631D01*
X148285328Y-81369000D01*
X148807885Y-81369000D01*
X148823124Y-81364525D01*
X148824329Y-81363135D01*
X148826000Y-81355452D01*
X148826000Y-81350884D01*
X149334000Y-81350884D01*
X149338475Y-81366123D01*
X149339865Y-81367328D01*
X149347548Y-81368999D01*
X149874669Y-81368999D01*
X149881490Y-81368629D01*
X149932352Y-81363105D01*
X149947604Y-81359479D01*
X150068054Y-81314324D01*
X150083649Y-81305786D01*
X150185724Y-81229285D01*
X150198285Y-81216724D01*
X150274786Y-81114649D01*
X150283324Y-81099054D01*
X150328478Y-80978606D01*
X150332105Y-80963351D01*
X150337631Y-80912486D01*
X150338000Y-80905672D01*
X150338000Y-80333115D01*
X150333525Y-80317876D01*
X150332135Y-80316671D01*
X150324452Y-80315000D01*
X149352115Y-80315000D01*
X149336876Y-80319475D01*
X149335671Y-80320865D01*
X149334000Y-80328548D01*
X149334000Y-81350884D01*
X148826000Y-81350884D01*
X148826000Y-80333115D01*
X148821525Y-80317876D01*
X148820135Y-80316671D01*
X148812452Y-80315000D01*
X147840116Y-80315000D01*
X147824877Y-80319475D01*
X147823672Y-80320865D01*
X147822001Y-80328548D01*
X147822001Y-80905669D01*
X138618500Y-80905669D01*
X138618500Y-80395000D01*
X138638502Y-80326879D01*
X138692158Y-80280386D01*
X138744500Y-80269000D01*
X139207885Y-80269000D01*
X139223124Y-80264525D01*
X139224329Y-80263135D01*
X139226000Y-80255452D01*
X139226000Y-80250884D01*
X139734000Y-80250884D01*
X139738475Y-80266123D01*
X139739865Y-80267328D01*
X139747548Y-80268999D01*
X140624669Y-80268999D01*
X140631490Y-80268629D01*
X140682352Y-80263105D01*
X140697604Y-80259479D01*
X140818054Y-80214324D01*
X140833649Y-80205786D01*
X140935724Y-80129285D01*
X140948285Y-80116724D01*
X141024786Y-80014649D01*
X141033324Y-79999054D01*
X141078478Y-79878606D01*
X141082105Y-79863351D01*
X141087631Y-79812486D01*
X141088000Y-79805672D01*
X141088000Y-79788885D01*
X147822000Y-79788885D01*
X147826475Y-79804124D01*
X147827865Y-79805329D01*
X147835548Y-79807000D01*
X148807885Y-79807000D01*
X148823124Y-79802525D01*
X148824329Y-79801135D01*
X148826000Y-79793452D01*
X148826000Y-79788885D01*
X149334000Y-79788885D01*
X149338475Y-79804124D01*
X149339865Y-79805329D01*
X149347548Y-79807000D01*
X150319884Y-79807000D01*
X150335123Y-79802525D01*
X150336328Y-79801135D01*
X150337999Y-79793452D01*
X150337999Y-79216331D01*
X150337629Y-79209510D01*
X150332105Y-79158648D01*
X150328479Y-79143396D01*
X150283324Y-79022946D01*
X150274786Y-79007351D01*
X150198285Y-78905276D01*
X150185724Y-78892715D01*
X150083649Y-78816214D01*
X150068054Y-78807676D01*
X149947606Y-78762522D01*
X149932351Y-78758895D01*
X149881486Y-78753369D01*
X149874672Y-78753000D01*
X149352115Y-78753000D01*
X149336876Y-78757475D01*
X149335671Y-78758865D01*
X149334000Y-78766548D01*
X149334000Y-79788885D01*
X148826000Y-79788885D01*
X148826000Y-78771116D01*
X148821525Y-78755877D01*
X148820135Y-78754672D01*
X148812452Y-78753001D01*
X148285331Y-78753001D01*
X148278510Y-78753371D01*
X148227648Y-78758895D01*
X148212396Y-78762521D01*
X148091946Y-78807676D01*
X148076351Y-78816214D01*
X147974276Y-78892715D01*
X147961715Y-78905276D01*
X147885214Y-79007351D01*
X147876676Y-79022946D01*
X147831522Y-79143394D01*
X147827895Y-79158649D01*
X147822369Y-79209514D01*
X147822000Y-79216328D01*
X147822000Y-79788885D01*
X141088000Y-79788885D01*
X141088000Y-79433115D01*
X141083525Y-79417876D01*
X141082135Y-79416671D01*
X141074452Y-79415000D01*
X139752115Y-79415000D01*
X139736876Y-79419475D01*
X139735671Y-79420865D01*
X139734000Y-79428548D01*
X139734000Y-80250884D01*
X139226000Y-80250884D01*
X139226000Y-78888885D01*
X139734000Y-78888885D01*
X139738475Y-78904124D01*
X139739865Y-78905329D01*
X139747548Y-78907000D01*
X141069884Y-78907000D01*
X141085123Y-78902525D01*
X141086328Y-78901135D01*
X141087999Y-78893452D01*
X141087999Y-78516331D01*
X141087629Y-78509510D01*
X141082105Y-78458648D01*
X141078479Y-78443396D01*
X141033324Y-78322946D01*
X141024786Y-78307351D01*
X140948285Y-78205276D01*
X140935724Y-78192715D01*
X140833649Y-78116214D01*
X140818054Y-78107676D01*
X140697606Y-78062522D01*
X140682351Y-78058895D01*
X140631486Y-78053369D01*
X140624672Y-78053000D01*
X139752115Y-78053000D01*
X139736876Y-78057475D01*
X139735671Y-78058865D01*
X139734000Y-78066548D01*
X139734000Y-78888885D01*
X139226000Y-78888885D01*
X139226000Y-78071116D01*
X139221525Y-78055877D01*
X139220135Y-78054672D01*
X139212452Y-78053001D01*
X138335331Y-78053001D01*
X138328510Y-78053371D01*
X138277648Y-78058895D01*
X138262396Y-78062521D01*
X138141946Y-78107676D01*
X138126351Y-78116214D01*
X138024276Y-78192715D01*
X138011715Y-78205276D01*
X137929828Y-78314538D01*
X137927089Y-78312485D01*
X137888546Y-78350943D01*
X137819155Y-78365959D01*
X137752662Y-78341076D01*
X137721429Y-78307062D01*
X137708192Y-78285879D01*
X137588286Y-78165132D01*
X137572039Y-78154821D01*
X137497750Y-78107676D01*
X137444608Y-78073951D01*
X137284300Y-78016868D01*
X137115329Y-77996720D01*
X137108326Y-77997456D01*
X137108325Y-77997456D01*
X136953101Y-78013770D01*
X136953097Y-78013771D01*
X136946093Y-78014507D01*
X136939422Y-78016778D01*
X136791673Y-78067075D01*
X136791670Y-78067076D01*
X136785003Y-78069346D01*
X136779005Y-78073036D01*
X136779003Y-78073037D01*
X136646065Y-78154821D01*
X136646063Y-78154823D01*
X136640066Y-78158512D01*
X136518486Y-78277573D01*
X136514675Y-78283487D01*
X136514673Y-78283489D01*
X136430121Y-78414687D01*
X136426304Y-78420610D01*
X136368103Y-78580516D01*
X136346775Y-78749343D01*
X136363381Y-78918699D01*
X136417094Y-79080167D01*
X136420741Y-79086189D01*
X136420742Y-79086191D01*
X136478464Y-79181500D01*
X136505246Y-79225723D01*
X136623455Y-79348132D01*
X136629351Y-79351990D01*
X136753323Y-79433115D01*
X136765846Y-79441310D01*
X136772450Y-79443766D01*
X136772452Y-79443767D01*
X136890079Y-79487512D01*
X136935254Y-79516514D01*
X137264595Y-79845855D01*
X137298621Y-79908167D01*
X137301500Y-79934950D01*
X137301500Y-83749055D01*
X137281498Y-83817176D01*
X137227842Y-83863669D01*
X137216111Y-83868330D01*
X137125003Y-83899346D01*
X137119005Y-83903036D01*
X137119003Y-83903037D01*
X136986065Y-83984821D01*
X136986063Y-83984823D01*
X136980066Y-83988512D01*
X136858486Y-84107573D01*
X136854675Y-84113487D01*
X136854673Y-84113489D01*
X136788049Y-84216868D01*
X136766304Y-84250610D01*
X136749264Y-84297426D01*
X136711931Y-84400000D01*
X136708103Y-84410516D01*
X136697718Y-84492725D01*
X136696928Y-84498975D01*
X136668546Y-84564052D01*
X136609487Y-84603453D01*
X136538500Y-84604670D01*
X136482827Y-84572278D01*
X136095405Y-84184856D01*
X136061379Y-84122544D01*
X136058500Y-84095761D01*
X136058500Y-84094239D01*
X136078502Y-84026118D01*
X136095405Y-84005144D01*
X136316621Y-83783928D01*
X136380382Y-83749596D01*
X136386463Y-83748348D01*
X136393483Y-83747709D01*
X136418747Y-83739500D01*
X136548623Y-83697301D01*
X136548626Y-83697300D01*
X136555322Y-83695124D01*
X136701490Y-83607990D01*
X136706584Y-83603139D01*
X136706588Y-83603136D01*
X136780358Y-83532885D01*
X136824721Y-83490639D01*
X136828793Y-83484511D01*
X136871806Y-83419770D01*
X136918891Y-83348902D01*
X136979319Y-83189825D01*
X137003001Y-83021313D01*
X137003299Y-83000000D01*
X136984331Y-82830892D01*
X136977247Y-82810548D01*
X136940664Y-82705498D01*
X136928368Y-82670189D01*
X136922383Y-82660610D01*
X136876355Y-82586952D01*
X136838192Y-82525879D01*
X136718286Y-82405132D01*
X136704877Y-82396622D01*
X136627028Y-82347218D01*
X136574608Y-82313951D01*
X136414300Y-82256868D01*
X136245329Y-82236720D01*
X136238326Y-82237456D01*
X136238325Y-82237456D01*
X136083101Y-82253770D01*
X136083097Y-82253771D01*
X136076093Y-82254507D01*
X136069422Y-82256778D01*
X135921673Y-82307075D01*
X135921670Y-82307076D01*
X135915003Y-82309346D01*
X135909005Y-82313036D01*
X135909003Y-82313037D01*
X135776065Y-82394821D01*
X135776063Y-82394823D01*
X135770066Y-82398512D01*
X135648486Y-82517573D01*
X135644675Y-82523487D01*
X135644673Y-82523489D01*
X135562578Y-82650875D01*
X135556304Y-82660610D01*
X135541735Y-82700639D01*
X135507677Y-82794213D01*
X135498103Y-82820516D01*
X135494713Y-82847348D01*
X135466333Y-82912421D01*
X135458803Y-82920648D01*
X135053766Y-83325685D01*
X135041375Y-83336552D01*
X135016013Y-83356013D01*
X134991526Y-83387925D01*
X134991523Y-83387928D01*
X134991517Y-83387936D01*
X134923514Y-83476559D01*
X134918476Y-83483124D01*
X134857162Y-83631149D01*
X134857162Y-83631150D01*
X134855414Y-83644426D01*
X134850558Y-83681313D01*
X134841500Y-83750115D01*
X134841500Y-83750120D01*
X134836250Y-83790000D01*
X134837328Y-83798188D01*
X134840422Y-83821690D01*
X134841500Y-83838136D01*
X134841500Y-84351864D01*
X134840422Y-84368307D01*
X134836250Y-84400000D01*
X131814888Y-84400000D01*
X131802218Y-84376171D01*
X131736857Y-84296029D01*
X131709303Y-84230599D01*
X131708500Y-84216395D01*
X131708500Y-82163012D01*
X131728502Y-82094891D01*
X131739119Y-82080681D01*
X131782994Y-82029852D01*
X131782995Y-82029850D01*
X131787023Y-82025184D01*
X131799156Y-82003827D01*
X131826610Y-81955498D01*
X131879870Y-81861744D01*
X131939203Y-81683382D01*
X131962762Y-81496892D01*
X131963138Y-81470000D01*
X131944795Y-81282926D01*
X131890465Y-81102977D01*
X131802218Y-80937008D01*
X131683415Y-80791340D01*
X131595339Y-80718477D01*
X131543329Y-80675450D01*
X131543324Y-80675447D01*
X131538580Y-80671522D01*
X131533161Y-80668592D01*
X131533158Y-80668590D01*
X131440413Y-80618444D01*
X131373231Y-80582119D01*
X131193666Y-80526534D01*
X131187541Y-80525890D01*
X131187540Y-80525890D01*
X131012852Y-80507529D01*
X131012851Y-80507529D01*
X131006724Y-80506885D01*
X130929673Y-80513897D01*
X130825665Y-80523363D01*
X130825662Y-80523364D01*
X130819526Y-80523922D01*
X130813620Y-80525660D01*
X130813616Y-80525661D01*
X130703436Y-80558089D01*
X130639202Y-80576994D01*
X130472621Y-80664080D01*
X130326128Y-80781864D01*
X130322170Y-80786582D01*
X130322167Y-80786584D01*
X130251903Y-80870322D01*
X130205302Y-80925859D01*
X130202338Y-80931251D01*
X130202335Y-80931255D01*
X130150242Y-81026013D01*
X130114746Y-81090580D01*
X130057909Y-81269752D01*
X130036956Y-81456552D01*
X130037472Y-81462696D01*
X130045065Y-81553115D01*
X130052685Y-81643865D01*
X130067965Y-81697152D01*
X130100009Y-81808902D01*
X130104497Y-81824555D01*
X130107312Y-81830032D01*
X130107313Y-81830035D01*
X130185426Y-81982027D01*
X130190418Y-81991740D01*
X130194241Y-81996564D01*
X130194244Y-81996568D01*
X130264245Y-82084886D01*
X130290883Y-82150696D01*
X130291500Y-82163151D01*
X130291500Y-84216435D01*
X130271498Y-84284556D01*
X130262021Y-84297426D01*
X130209265Y-84360298D01*
X130209261Y-84360304D01*
X130205302Y-84365022D01*
X130202338Y-84370414D01*
X130202335Y-84370418D01*
X130145383Y-84474014D01*
X130114746Y-84529743D01*
X130112885Y-84535610D01*
X130112884Y-84535612D01*
X130091364Y-84603453D01*
X130057909Y-84708915D01*
X130036956Y-84895715D01*
X128298500Y-84895715D01*
X128298500Y-83655114D01*
X128314944Y-83592877D01*
X128347933Y-83534805D01*
X128411667Y-83422614D01*
X128477190Y-83225644D01*
X128503207Y-83019698D01*
X128503622Y-82990000D01*
X128485137Y-82801475D01*
X128483966Y-82789534D01*
X128483965Y-82789531D01*
X128483365Y-82783408D01*
X128425959Y-82593267D01*
X128425152Y-82590593D01*
X128425151Y-82590590D01*
X128423368Y-82584685D01*
X128413219Y-82565598D01*
X128328809Y-82406847D01*
X128328808Y-82406845D01*
X128325913Y-82401401D01*
X128248983Y-82307075D01*
X128198610Y-82245311D01*
X128198607Y-82245308D01*
X128194715Y-82240536D01*
X128187770Y-82234790D01*
X128039518Y-82112145D01*
X128039519Y-82112145D01*
X128034770Y-82108217D01*
X128029353Y-82105288D01*
X128029350Y-82105286D01*
X127857590Y-82012416D01*
X127857585Y-82012414D01*
X127852170Y-82009486D01*
X127653871Y-81948102D01*
X127647746Y-81947458D01*
X127647745Y-81947458D01*
X127453554Y-81927048D01*
X127453552Y-81927048D01*
X127447425Y-81926404D01*
X127361515Y-81934223D01*
X127246836Y-81944659D01*
X127246833Y-81944660D01*
X127240697Y-81945218D01*
X127234791Y-81946956D01*
X127234787Y-81946957D01*
X127096827Y-81987561D01*
X127041560Y-82003827D01*
X126857600Y-82099999D01*
X126695823Y-82230071D01*
X126691865Y-82234788D01*
X126691863Y-82234790D01*
X126671353Y-82259233D01*
X126562391Y-82389089D01*
X126559427Y-82394481D01*
X126559424Y-82394485D01*
X126472657Y-82552314D01*
X126462387Y-82570995D01*
X126399621Y-82768861D01*
X126398935Y-82774978D01*
X126398934Y-82774982D01*
X126383808Y-82909834D01*
X126376482Y-82975150D01*
X126377635Y-82988882D01*
X126392606Y-83167162D01*
X126393852Y-83182004D01*
X126451069Y-83381545D01*
X126453887Y-83387027D01*
X126453888Y-83387031D01*
X126543134Y-83560685D01*
X126543137Y-83560689D01*
X126545955Y-83566173D01*
X126549785Y-83571005D01*
X126554247Y-83576635D01*
X126580883Y-83642446D01*
X126581500Y-83654898D01*
X126581500Y-88513241D01*
X126561303Y-88578491D01*
X126562391Y-88579089D01*
X126462387Y-88760995D01*
X126399621Y-88958861D01*
X126398935Y-88964978D01*
X126398934Y-88964982D01*
X126379745Y-89136062D01*
X126376482Y-89165150D01*
X123729278Y-89165150D01*
X123721594Y-89156057D01*
X123721590Y-89156053D01*
X123717187Y-89150843D01*
X123705685Y-89142049D01*
X123578743Y-89044994D01*
X123578739Y-89044991D01*
X123573322Y-89040850D01*
X123468186Y-88991825D01*
X123415369Y-88967195D01*
X123415366Y-88967194D01*
X123409192Y-88964315D01*
X123402544Y-88962829D01*
X123402541Y-88962828D01*
X123242769Y-88927115D01*
X123232457Y-88924810D01*
X123226912Y-88924500D01*
X123093756Y-88924500D01*
X122958963Y-88939143D01*
X122851858Y-88975188D01*
X122793796Y-88994728D01*
X122793794Y-88994729D01*
X122787325Y-88996906D01*
X122632095Y-89090177D01*
X122627138Y-89094865D01*
X122627135Y-89094867D01*
X122505706Y-89209698D01*
X122500515Y-89214607D01*
X122496683Y-89220245D01*
X122496680Y-89220249D01*
X122436799Y-89308361D01*
X122398723Y-89364388D01*
X122331470Y-89532534D01*
X122330356Y-89539262D01*
X122330355Y-89539266D01*
X122309632Y-89664443D01*
X122301892Y-89711198D01*
X122302249Y-89718015D01*
X122302249Y-89718019D01*
X122308217Y-89831882D01*
X122311370Y-89892047D01*
X122313181Y-89898620D01*
X122313181Y-89898623D01*
X122347722Y-90024024D01*
X122359461Y-90066641D01*
X122443922Y-90226836D01*
X122452884Y-90237441D01*
X122456954Y-90242257D01*
X122485647Y-90307197D01*
X122474675Y-90377341D01*
X122440353Y-90421229D01*
X122380068Y-90470397D01*
X122371363Y-90479041D01*
X122253216Y-90621856D01*
X122246356Y-90632027D01*
X122158196Y-90795076D01*
X122153444Y-90806381D01*
X122117750Y-90921692D01*
X122117544Y-90935795D01*
X120857839Y-90935795D01*
X120860455Y-90935027D01*
X120861575Y-90927232D01*
X120829862Y-90819479D01*
X120825269Y-90808111D01*
X120739393Y-90643846D01*
X120732679Y-90633585D01*
X120616532Y-90489127D01*
X120607954Y-90480368D01*
X120465961Y-90361222D01*
X120455841Y-90354292D01*
X120293415Y-90264998D01*
X120282142Y-90260166D01*
X120105462Y-90204120D01*
X120093468Y-90201570D01*
X119949239Y-90185393D01*
X119942215Y-90185000D01*
X119711115Y-90185000D01*
X119695876Y-90189475D01*
X119694671Y-90190865D01*
X119693000Y-90198548D01*
X119693000Y-90920885D01*
X119185000Y-90920885D01*
X119185000Y-90203115D01*
X119180525Y-90187876D01*
X119179135Y-90186671D01*
X119171452Y-90185000D01*
X118942343Y-90185000D01*
X118936195Y-90185301D01*
X118798397Y-90198812D01*
X118786362Y-90201195D01*
X118608924Y-90254767D01*
X118597584Y-90259441D01*
X118433923Y-90346460D01*
X118423706Y-90353249D01*
X118280067Y-90470397D01*
X118271363Y-90479041D01*
X118153216Y-90621856D01*
X118146356Y-90632027D01*
X118058196Y-90795076D01*
X118053444Y-90806381D01*
X118017750Y-90921692D01*
X118017544Y-90935795D01*
X117208500Y-90935795D01*
X117208500Y-86130843D01*
X122661775Y-86130843D01*
X122678381Y-86300199D01*
X122680605Y-86306884D01*
X122680605Y-86306885D01*
X122686010Y-86323132D01*
X122732094Y-86461667D01*
X122735743Y-86467692D01*
X122797638Y-86569892D01*
X122815817Y-86638522D01*
X122795774Y-86703418D01*
X122742804Y-86785610D01*
X122684603Y-86945516D01*
X122663275Y-87114343D01*
X122679881Y-87283699D01*
X122733594Y-87445167D01*
X122737241Y-87451189D01*
X122737242Y-87451191D01*
X122817645Y-87583951D01*
X122821746Y-87590723D01*
X122939955Y-87713132D01*
X122962884Y-87728136D01*
X123075537Y-87801854D01*
X123082346Y-87806310D01*
X123088950Y-87808766D01*
X123088952Y-87808767D01*
X123132935Y-87825124D01*
X123241841Y-87865626D01*
X123410515Y-87888132D01*
X123417526Y-87887494D01*
X123417530Y-87887494D01*
X123572962Y-87873348D01*
X123579983Y-87872709D01*
X123586685Y-87870531D01*
X123586687Y-87870531D01*
X123735123Y-87822301D01*
X123735126Y-87822300D01*
X123741822Y-87820124D01*
X123887990Y-87732990D01*
X123893084Y-87728139D01*
X123893088Y-87728136D01*
X123960333Y-87664099D01*
X124011221Y-87615639D01*
X124032275Y-87583951D01*
X124070260Y-87526778D01*
X124105391Y-87473902D01*
X124165819Y-87314825D01*
X124189501Y-87146313D01*
X124189618Y-87137964D01*
X124189744Y-87128961D01*
X124189744Y-87128955D01*
X124189799Y-87125000D01*
X124170831Y-86955892D01*
X124114868Y-86795189D01*
X124108883Y-86785610D01*
X124054432Y-86698472D01*
X124035296Y-86630103D01*
X124056338Y-86561975D01*
X124099990Y-86496273D01*
X124103891Y-86490402D01*
X124164319Y-86331325D01*
X124188001Y-86162813D01*
X124188152Y-86151990D01*
X124188244Y-86145461D01*
X124188244Y-86145455D01*
X124188299Y-86141500D01*
X124169331Y-85972392D01*
X124113368Y-85811689D01*
X124107383Y-85802110D01*
X124078828Y-85756414D01*
X124023192Y-85667379D01*
X124011023Y-85655124D01*
X123908248Y-85551629D01*
X123903286Y-85546632D01*
X123896538Y-85542349D01*
X123779577Y-85468124D01*
X123759608Y-85455451D01*
X123599300Y-85398368D01*
X123430329Y-85378220D01*
X123423326Y-85378956D01*
X123423325Y-85378956D01*
X123268101Y-85395270D01*
X123268097Y-85395271D01*
X123261093Y-85396007D01*
X123254422Y-85398278D01*
X123106673Y-85448575D01*
X123106670Y-85448576D01*
X123100003Y-85450846D01*
X123094005Y-85454536D01*
X123094003Y-85454537D01*
X122961065Y-85536321D01*
X122961063Y-85536323D01*
X122955066Y-85540012D01*
X122945538Y-85549343D01*
X122845725Y-85647088D01*
X122833486Y-85659073D01*
X122829675Y-85664987D01*
X122829673Y-85664989D01*
X122745121Y-85796187D01*
X122741304Y-85802110D01*
X122683103Y-85962016D01*
X122661775Y-86130843D01*
X117208500Y-86130843D01*
X117208500Y-82808768D01*
X118016425Y-82808768D01*
X118048138Y-82916521D01*
X118052731Y-82927889D01*
X118138607Y-83092154D01*
X118145321Y-83102415D01*
X118261468Y-83246873D01*
X118270046Y-83255632D01*
X118412039Y-83374778D01*
X118422159Y-83381708D01*
X118584585Y-83471002D01*
X118595858Y-83475834D01*
X118772538Y-83531880D01*
X118784532Y-83534430D01*
X118928761Y-83550607D01*
X118935785Y-83551000D01*
X119166885Y-83551000D01*
X119182124Y-83546525D01*
X119183329Y-83545135D01*
X119185000Y-83537452D01*
X119185000Y-83532885D01*
X119693000Y-83532885D01*
X119697475Y-83548124D01*
X119698865Y-83549329D01*
X119706548Y-83551000D01*
X119935657Y-83551000D01*
X119941805Y-83550699D01*
X120079603Y-83537188D01*
X120091638Y-83534805D01*
X120269076Y-83481233D01*
X120280416Y-83476559D01*
X120444077Y-83389540D01*
X120454294Y-83382751D01*
X120597933Y-83265603D01*
X120606637Y-83256959D01*
X120724784Y-83114144D01*
X120731644Y-83103973D01*
X120819804Y-82940924D01*
X120824556Y-82929619D01*
X120860250Y-82814308D01*
X120860331Y-82808768D01*
X122116425Y-82808768D01*
X122148138Y-82916521D01*
X122152731Y-82927889D01*
X122238607Y-83092154D01*
X122245321Y-83102415D01*
X122361468Y-83246873D01*
X122370046Y-83255632D01*
X122443379Y-83317166D01*
X122482706Y-83376276D01*
X122483832Y-83447263D01*
X122466600Y-83484511D01*
X122398723Y-83584388D01*
X122331470Y-83752534D01*
X122330356Y-83759262D01*
X122330355Y-83759266D01*
X122313071Y-83863669D01*
X122301892Y-83931198D01*
X122302249Y-83938015D01*
X122302249Y-83938019D01*
X122308068Y-84049044D01*
X122311370Y-84112047D01*
X122313181Y-84118620D01*
X122313181Y-84118623D01*
X122357648Y-84280059D01*
X122359461Y-84286641D01*
X122443922Y-84446836D01*
X122448327Y-84452049D01*
X122448330Y-84452053D01*
X122556406Y-84579943D01*
X122556410Y-84579947D01*
X122560813Y-84585157D01*
X122566237Y-84589304D01*
X122566238Y-84589305D01*
X122699257Y-84691006D01*
X122699261Y-84691009D01*
X122704678Y-84695150D01*
X122797439Y-84738405D01*
X122862631Y-84768805D01*
X122862634Y-84768806D01*
X122868808Y-84771685D01*
X122875456Y-84773171D01*
X122875459Y-84773172D01*
X123002816Y-84801639D01*
X123045543Y-84811190D01*
X123051088Y-84811500D01*
X123184244Y-84811500D01*
X123209375Y-84808770D01*
X123220239Y-84807590D01*
X123319037Y-84796857D01*
X123475842Y-84744086D01*
X123484204Y-84741272D01*
X123484206Y-84741271D01*
X123490675Y-84739094D01*
X123645905Y-84645823D01*
X123650862Y-84641135D01*
X123650865Y-84641133D01*
X123772527Y-84526082D01*
X123772529Y-84526080D01*
X123777485Y-84521393D01*
X123781317Y-84515755D01*
X123781320Y-84515751D01*
X123875442Y-84377255D01*
X123879277Y-84371612D01*
X123946530Y-84203466D01*
X123947644Y-84196738D01*
X123947645Y-84196734D01*
X123974993Y-84031539D01*
X123974993Y-84031536D01*
X123976108Y-84024802D01*
X123975583Y-84014771D01*
X123966987Y-83850766D01*
X123966630Y-83843953D01*
X123959255Y-83817176D01*
X123929860Y-83710460D01*
X123931054Y-83639473D01*
X123970437Y-83580401D01*
X124035504Y-83551999D01*
X124051336Y-83551000D01*
X124235657Y-83551000D01*
X124241805Y-83550699D01*
X124379603Y-83537188D01*
X124391638Y-83534805D01*
X124569076Y-83481233D01*
X124580416Y-83476559D01*
X124744077Y-83389540D01*
X124754294Y-83382751D01*
X124897933Y-83265603D01*
X124906637Y-83256959D01*
X125024784Y-83114144D01*
X125031644Y-83103973D01*
X125119804Y-82940924D01*
X125124556Y-82929619D01*
X125160250Y-82814308D01*
X125160456Y-82800205D01*
X125153701Y-82797000D01*
X122131076Y-82797000D01*
X122117545Y-82800973D01*
X122116425Y-82808768D01*
X120860331Y-82808768D01*
X120860456Y-82800205D01*
X120853701Y-82797000D01*
X119711115Y-82797000D01*
X119695876Y-82801475D01*
X119694671Y-82802865D01*
X119693000Y-82810548D01*
X119693000Y-83532885D01*
X119185000Y-83532885D01*
X119185000Y-82815115D01*
X119180525Y-82799876D01*
X119179135Y-82798671D01*
X119171452Y-82797000D01*
X118031076Y-82797000D01*
X118017545Y-82800973D01*
X118016425Y-82808768D01*
X117208500Y-82808768D01*
X117208500Y-82285795D01*
X118017544Y-82285795D01*
X118024299Y-82289000D01*
X119166885Y-82289000D01*
X119182124Y-82284525D01*
X119183329Y-82283135D01*
X119185000Y-82275452D01*
X119185000Y-82270885D01*
X119693000Y-82270885D01*
X119697475Y-82286124D01*
X119698865Y-82287329D01*
X119706548Y-82289000D01*
X120846924Y-82289000D01*
X120857839Y-82285795D01*
X122117544Y-82285795D01*
X122124299Y-82289000D01*
X123366885Y-82289000D01*
X123382124Y-82284525D01*
X123383329Y-82283135D01*
X123385000Y-82275452D01*
X123385000Y-82270885D01*
X123893000Y-82270885D01*
X123897475Y-82286124D01*
X123898865Y-82287329D01*
X123906548Y-82289000D01*
X125146924Y-82289000D01*
X125160455Y-82285027D01*
X125161575Y-82277232D01*
X125129862Y-82169479D01*
X125125269Y-82158111D01*
X125039393Y-81993846D01*
X125032679Y-81983585D01*
X124916532Y-81839127D01*
X124907954Y-81830368D01*
X124765961Y-81711222D01*
X124755841Y-81704292D01*
X124593415Y-81614998D01*
X124582142Y-81610166D01*
X124405462Y-81554120D01*
X124393468Y-81551570D01*
X124249239Y-81535393D01*
X124242215Y-81535000D01*
X123911115Y-81535000D01*
X123895876Y-81539475D01*
X123894671Y-81540865D01*
X123893000Y-81548548D01*
X123893000Y-82270885D01*
X123385000Y-82270885D01*
X123385000Y-81553115D01*
X123380525Y-81537876D01*
X123379135Y-81536671D01*
X123371452Y-81535000D01*
X123042343Y-81535000D01*
X123036195Y-81535301D01*
X122898397Y-81548812D01*
X122886362Y-81551195D01*
X122708924Y-81604767D01*
X122697584Y-81609441D01*
X122533923Y-81696460D01*
X122523706Y-81703249D01*
X122380067Y-81820397D01*
X122371363Y-81829041D01*
X122253216Y-81971856D01*
X122246356Y-81982027D01*
X122158196Y-82145076D01*
X122153444Y-82156381D01*
X122117750Y-82271692D01*
X122117544Y-82285795D01*
X120857839Y-82285795D01*
X120860455Y-82285027D01*
X120861575Y-82277232D01*
X120829862Y-82169479D01*
X120825269Y-82158111D01*
X120739393Y-81993846D01*
X120732679Y-81983585D01*
X120616532Y-81839127D01*
X120607954Y-81830368D01*
X120465961Y-81711222D01*
X120455841Y-81704292D01*
X120293415Y-81614998D01*
X120282142Y-81610166D01*
X120105462Y-81554120D01*
X120093468Y-81551570D01*
X119949239Y-81535393D01*
X119942215Y-81535000D01*
X119711115Y-81535000D01*
X119695876Y-81539475D01*
X119694671Y-81540865D01*
X119693000Y-81548548D01*
X119693000Y-82270885D01*
X119185000Y-82270885D01*
X119185000Y-81553115D01*
X119180525Y-81537876D01*
X119179135Y-81536671D01*
X119171452Y-81535000D01*
X118942343Y-81535000D01*
X118936195Y-81535301D01*
X118798397Y-81548812D01*
X118786362Y-81551195D01*
X118608924Y-81604767D01*
X118597584Y-81609441D01*
X118433923Y-81696460D01*
X118423706Y-81703249D01*
X118280067Y-81820397D01*
X118271363Y-81829041D01*
X118153216Y-81971856D01*
X118146356Y-81982027D01*
X118058196Y-82145076D01*
X118053444Y-82156381D01*
X118017750Y-82271692D01*
X118017544Y-82285795D01*
X117208500Y-82285795D01*
X117208500Y-78930000D01*
X124906496Y-78930000D01*
X124907186Y-78936565D01*
X124921666Y-79074331D01*
X124926458Y-79119928D01*
X124985473Y-79301556D01*
X125080960Y-79466944D01*
X125085378Y-79471851D01*
X125085379Y-79471852D01*
X125180813Y-79577842D01*
X125208747Y-79608866D01*
X125296280Y-79672463D01*
X125310375Y-79682703D01*
X125363248Y-79721118D01*
X125369276Y-79723802D01*
X125369278Y-79723803D01*
X125531681Y-79796109D01*
X125537712Y-79798794D01*
X125631112Y-79818647D01*
X125718056Y-79837128D01*
X125718061Y-79837128D01*
X125724513Y-79838500D01*
X125915487Y-79838500D01*
X125921939Y-79837128D01*
X125921944Y-79837128D01*
X126008888Y-79818647D01*
X126102288Y-79798794D01*
X126108319Y-79796109D01*
X126270722Y-79723803D01*
X126270724Y-79723802D01*
X126276752Y-79721118D01*
X126329626Y-79682703D01*
X126343720Y-79672463D01*
X126431253Y-79608866D01*
X126459187Y-79577842D01*
X126554621Y-79471852D01*
X126554622Y-79471851D01*
X126559040Y-79466944D01*
X126654527Y-79301556D01*
X126713542Y-79119928D01*
X126718335Y-79074331D01*
X126732814Y-78936565D01*
X126733504Y-78930000D01*
X126721545Y-78816214D01*
X126714233Y-78746642D01*
X126714232Y-78746638D01*
X126713542Y-78740072D01*
X126704667Y-78712758D01*
X126698500Y-78673821D01*
X126698500Y-75877732D01*
X126704667Y-75838795D01*
X126726001Y-75773136D01*
X126733542Y-75749928D01*
X126753504Y-75560000D01*
X126749802Y-75524773D01*
X126734232Y-75376635D01*
X126734232Y-75376633D01*
X126733542Y-75370072D01*
X126674527Y-75188444D01*
X126579040Y-75023056D01*
X126572979Y-75016324D01*
X126455675Y-74886045D01*
X126455674Y-74886044D01*
X126451253Y-74881134D01*
X126296752Y-74768882D01*
X126290724Y-74766198D01*
X126290722Y-74766197D01*
X126128319Y-74693891D01*
X126128318Y-74693891D01*
X126122288Y-74691206D01*
X126020956Y-74669667D01*
X125941944Y-74652872D01*
X125941939Y-74652872D01*
X125935487Y-74651500D01*
X125744513Y-74651500D01*
X125738061Y-74652872D01*
X125738056Y-74652872D01*
X125659044Y-74669667D01*
X125557712Y-74691206D01*
X125551682Y-74693891D01*
X125551681Y-74693891D01*
X125389278Y-74766197D01*
X125389276Y-74766198D01*
X125383248Y-74768882D01*
X125228747Y-74881134D01*
X125224326Y-74886044D01*
X125224325Y-74886045D01*
X125107022Y-75016324D01*
X125100960Y-75023056D01*
X125005473Y-75188444D01*
X124946458Y-75370072D01*
X124945768Y-75376633D01*
X124945768Y-75376635D01*
X124930198Y-75524773D01*
X124926496Y-75560000D01*
X124946458Y-75749928D01*
X124953999Y-75773136D01*
X124975333Y-75838795D01*
X124981500Y-75877732D01*
X124981500Y-78550715D01*
X124975333Y-78589652D01*
X124926458Y-78740072D01*
X124925768Y-78746638D01*
X124925767Y-78746642D01*
X124918455Y-78816214D01*
X124906496Y-78930000D01*
X117208500Y-78930000D01*
X117208500Y-75092152D01*
X117209591Y-75075605D01*
X117212522Y-75053477D01*
X117213701Y-75044579D01*
X117211247Y-75028642D01*
X117209903Y-75003875D01*
X117218596Y-74808213D01*
X117220479Y-74791404D01*
X117259942Y-74572974D01*
X117264060Y-74556569D01*
X117332418Y-74345404D01*
X117335040Y-74338843D01*
X156356775Y-74338843D01*
X156373381Y-74508199D01*
X156427094Y-74669667D01*
X156430741Y-74675689D01*
X156430742Y-74675691D01*
X156511001Y-74808213D01*
X156515246Y-74815223D01*
X156633455Y-74937632D01*
X156691178Y-74975405D01*
X156763997Y-75023056D01*
X156775846Y-75030810D01*
X156782450Y-75033266D01*
X156782452Y-75033267D01*
X156818844Y-75046801D01*
X156935341Y-75090126D01*
X157104015Y-75112632D01*
X157111026Y-75111994D01*
X157111030Y-75111994D01*
X157266462Y-75097848D01*
X157273483Y-75097209D01*
X157280185Y-75095031D01*
X157280187Y-75095031D01*
X157428623Y-75046801D01*
X157428626Y-75046800D01*
X157435322Y-75044624D01*
X157581490Y-74957490D01*
X157582860Y-74959789D01*
X157637789Y-74938884D01*
X157647614Y-74938500D01*
X159985761Y-74938500D01*
X160053882Y-74958502D01*
X160074856Y-74975405D01*
X160346612Y-75247161D01*
X160380638Y-75309473D01*
X160382177Y-75319259D01*
X160382694Y-75321690D01*
X160383381Y-75328699D01*
X160437094Y-75490167D01*
X160440741Y-75496189D01*
X160440742Y-75496191D01*
X160475411Y-75553435D01*
X160525246Y-75635723D01*
X160643455Y-75758132D01*
X160785846Y-75851310D01*
X160792450Y-75853766D01*
X160792452Y-75853767D01*
X160828844Y-75867301D01*
X160945341Y-75910626D01*
X161114015Y-75933132D01*
X161121026Y-75932494D01*
X161121030Y-75932494D01*
X161276462Y-75918348D01*
X161283483Y-75917709D01*
X161290185Y-75915531D01*
X161290187Y-75915531D01*
X161438623Y-75867301D01*
X161438626Y-75867300D01*
X161445322Y-75865124D01*
X161591490Y-75777990D01*
X161596584Y-75773139D01*
X161596588Y-75773136D01*
X161663833Y-75709099D01*
X161714721Y-75660639D01*
X161808891Y-75518902D01*
X161869319Y-75359825D01*
X161893001Y-75191313D01*
X161893299Y-75170000D01*
X161874331Y-75000892D01*
X161865456Y-74975405D01*
X161820686Y-74846846D01*
X161818368Y-74840189D01*
X161728192Y-74695879D01*
X161608286Y-74575132D01*
X161579036Y-74556569D01*
X161513352Y-74514885D01*
X161464608Y-74483951D01*
X161436416Y-74473912D01*
X161310935Y-74429230D01*
X161310930Y-74429229D01*
X161304300Y-74426868D01*
X161297312Y-74426035D01*
X161297309Y-74426034D01*
X161283040Y-74424333D01*
X161217767Y-74396406D01*
X161208863Y-74388314D01*
X160754315Y-73933766D01*
X160743448Y-73921375D01*
X160729013Y-73902563D01*
X160723987Y-73896013D01*
X160692075Y-73871526D01*
X160692072Y-73871523D01*
X160596876Y-73798476D01*
X160448851Y-73737162D01*
X160440664Y-73736084D01*
X160440663Y-73736084D01*
X160429458Y-73734609D01*
X160398262Y-73730502D01*
X160329885Y-73721500D01*
X160329882Y-73721500D01*
X160329874Y-73721499D01*
X160298189Y-73717328D01*
X160290000Y-73716250D01*
X160258307Y-73720422D01*
X160241864Y-73721500D01*
X157582684Y-73721500D01*
X157515170Y-73701885D01*
X157460562Y-73667229D01*
X157460558Y-73667227D01*
X157454608Y-73663451D01*
X157294300Y-73606368D01*
X157125329Y-73586220D01*
X157118326Y-73586956D01*
X157118325Y-73586956D01*
X156963101Y-73603270D01*
X156963097Y-73603271D01*
X156956093Y-73604007D01*
X156949422Y-73606278D01*
X156801673Y-73656575D01*
X156801670Y-73656576D01*
X156795003Y-73658846D01*
X156789005Y-73662536D01*
X156789003Y-73662537D01*
X156656065Y-73744321D01*
X156656063Y-73744323D01*
X156650066Y-73748012D01*
X156528486Y-73867073D01*
X156524675Y-73872987D01*
X156524673Y-73872989D01*
X156489269Y-73927925D01*
X156436304Y-74010110D01*
X156378103Y-74170016D01*
X156356775Y-74338843D01*
X117335040Y-74338843D01*
X117338695Y-74329698D01*
X117415321Y-74170016D01*
X117434729Y-74129573D01*
X117443052Y-74114853D01*
X117565013Y-73929410D01*
X117575234Y-73915934D01*
X117596942Y-73890987D01*
X117720941Y-73748488D01*
X117732867Y-73736510D01*
X117899693Y-73590082D01*
X117913124Y-73579804D01*
X118098056Y-73457041D01*
X118112737Y-73448658D01*
X118312439Y-73351773D01*
X118328111Y-73345430D01*
X118538991Y-73276166D01*
X118555374Y-73271979D01*
X118773644Y-73231578D01*
X118790431Y-73229625D01*
X118978897Y-73220443D01*
X119000652Y-73221797D01*
X119005386Y-73221942D01*
X119014229Y-73223487D01*
X119023149Y-73222488D01*
X119023151Y-73222488D01*
X119051763Y-73219283D01*
X119065788Y-73218500D01*
X176883257Y-73218500D01*
X176951378Y-73238502D01*
G37*
%TD.AperFunction*%
%TA.AperFunction,Conductor*%
G36*
X152843882Y-114928502D02*
G01*
X152864856Y-114945405D01*
X153246513Y-115327062D01*
X153280539Y-115389374D01*
X153282340Y-115399711D01*
X153295173Y-115497187D01*
X153319756Y-115556536D01*
X153327345Y-115627124D01*
X153319756Y-115652972D01*
X153298820Y-115703515D01*
X153294582Y-115719332D01*
X153289078Y-115761140D01*
X153291289Y-115775322D01*
X153304446Y-115779100D01*
X153424185Y-115779100D01*
X153492306Y-115799102D01*
X153500889Y-115805137D01*
X153544202Y-115838372D01*
X153575262Y-115862205D01*
X153582891Y-115865365D01*
X153582893Y-115865366D01*
X153634375Y-115886691D01*
X153689656Y-115931240D01*
X153712077Y-115998603D01*
X153694519Y-116067394D01*
X153642556Y-116115773D01*
X153586157Y-116129100D01*
X153304829Y-116129100D01*
X153291058Y-116133144D01*
X153289029Y-116146683D01*
X153294582Y-116188870D01*
X153298820Y-116204685D01*
X153320026Y-116255882D01*
X153327615Y-116326472D01*
X153320026Y-116352318D01*
X153298820Y-116403513D01*
X153294582Y-116419331D01*
X153280871Y-116523476D01*
X153280585Y-116527843D01*
X153256170Y-116594509D01*
X153199587Y-116637392D01*
X153154855Y-116645600D01*
X151558245Y-116645600D01*
X151549675Y-116645308D01*
X151499557Y-116641891D01*
X151499553Y-116641891D01*
X151491981Y-116641375D01*
X151484504Y-116642680D01*
X151484503Y-116642680D01*
X151463888Y-116646278D01*
X151429030Y-116652362D01*
X151422512Y-116653323D01*
X151359091Y-116660998D01*
X151359023Y-116660437D01*
X151341149Y-116662600D01*
X151135992Y-116662600D01*
X151067871Y-116642598D01*
X151032751Y-116608010D01*
X151032218Y-116607008D01*
X150913415Y-116461340D01*
X150814004Y-116379100D01*
X150773329Y-116345450D01*
X150773324Y-116345447D01*
X150768580Y-116341522D01*
X150763161Y-116338592D01*
X150763158Y-116338590D01*
X150608649Y-116255048D01*
X150608645Y-116255046D01*
X150603231Y-116252119D01*
X150597349Y-116250298D01*
X150596235Y-116249830D01*
X150541189Y-116204993D01*
X150519121Y-116137513D01*
X150537040Y-116068815D01*
X150555968Y-116044581D01*
X151655144Y-114945405D01*
X151717456Y-114911379D01*
X151744239Y-114908500D01*
X152775761Y-114908500D01*
X152843882Y-114928502D01*
G37*
%TD.AperFunction*%
%TA.AperFunction,Conductor*%
G36*
X156428241Y-115957602D02*
G01*
X156474734Y-116011258D01*
X156484838Y-116081532D01*
X156469159Y-116115863D01*
X156463333Y-116142648D01*
X156463333Y-116460985D01*
X156470399Y-116485050D01*
X156470399Y-116556047D01*
X156432015Y-116615773D01*
X156367434Y-116645266D01*
X156341262Y-116646278D01*
X156339125Y-116646138D01*
X156335039Y-116645600D01*
X156239333Y-116645600D01*
X156171212Y-116625598D01*
X156124719Y-116571942D01*
X156113333Y-116519600D01*
X156113333Y-116147214D01*
X156099205Y-116099097D01*
X156099205Y-116028101D01*
X156137589Y-115968375D01*
X156202170Y-115938882D01*
X156220101Y-115937600D01*
X156360120Y-115937600D01*
X156428241Y-115957602D01*
G37*
%TD.AperFunction*%
%TD*%
M02*
