M48
; DRILL file {KiCad (6.0.6)} date Tue Jul 19 19:24:00 2022
; FORMAT={-:-/ absolute / metric / decimal}
; #@! TF.CreationDate,2022-07-19T19:24:00+08:00
; #@! TF.GenerationSoftware,Kicad,Pcbnew,(6.0.6)
; #@! TF.FileFunction,MixedPlating,1,2
FMAT,2
METRIC
; #@! TA.AperFunction,Plated,PTH,ViaDrill
T1C0.200
; #@! TA.AperFunction,Plated,PTH,ViaDrill
T2C0.300
; #@! TA.AperFunction,Plated,PTH,ViaDrill
T3C0.400
; #@! TA.AperFunction,Plated,PTH,ViaDrill
T4C0.500
; #@! TA.AperFunction,Plated,PTH,ComponentDrill
T5C0.600
; #@! TA.AperFunction,Plated,PTH,ViaDrill
T6C0.700
; #@! TA.AperFunction,Plated,PTH,ViaDrill
T7C0.900
; #@! TA.AperFunction,Plated,PTH,ViaDrill
T8C3.000
; #@! TA.AperFunction,NonPlated,NPTH,ComponentDrill
T9C0.650
; #@! TA.AperFunction,NonPlated,NPTH,ComponentDrill
T10C1.000
%
G90
G05
T1
X110.35Y-86.98
X110.84Y-117.94
X111.634Y-88.674
X112.58Y-119.86
X113.1Y-121.56
X113.24Y-98.55
X113.632Y-108.518
X113.7Y-123.08
X113.91Y-98.05
X114.079Y-106.919
X114.131Y-109.214
X114.483Y-106.475
X115.1Y-110.28
X115.47Y-104.4
X115.572Y-98.038
X116.169Y-98.55
X116.22Y-109.91
X116.51Y-101.34
X116.586Y-108.204
X116.76Y-100.09
X118.55Y-100.11
X119.425Y-100.344
X119.94Y-99.92
X120.98Y-100.08
X121.175Y-94.475
X121.46Y-99.36
X122.647Y-94.533
X122.81Y-100.557
X123.823Y-94.533
X123.93Y-108.22
X124.223Y-99.069
X124.63Y-105.81
X124.65Y-107.74
X124.82Y-96.79
X125.11Y-106.26
X125.18Y-102.45
X125.32Y-107.57
X125.77Y-106.4
X125.95Y-107.9
X126.35Y-84.56
X126.43Y-106.65
X126.57Y-108.28
X126.9Y-96.79
X127.02Y-106.97
X127.11Y-108.69
X127.53Y-107.37
X127.584Y-109.129
X127.99Y-107.82
X128.04Y-109.584
X128.433Y-108.28
X128.495Y-110.04
X128.888Y-108.736
X128.951Y-110.495
X129.344Y-109.191
X129.406Y-110.951
X129.799Y-109.647
X129.862Y-111.406
X130.0Y-91.97
X130.255Y-110.102
X130.317Y-111.862
X130.71Y-110.558
X130.772Y-112.317
X131.166Y-111.013
X131.228Y-112.772
X131.57Y-98.3
X131.572Y-99.458
X131.621Y-111.468
X131.683Y-113.228
X132.076Y-111.924
X132.139Y-113.683
X132.532Y-112.379
X132.61Y-114.18
X132.987Y-112.835
X133.15Y-114.7
X133.53Y-113.32
X134.1Y-113.8
X134.874Y-97.282
X134.874Y-98.298
X135.636Y-97.798
T2
X116.74Y-107.388
X117.28Y-86.0
X117.29Y-85.14
X117.3Y-86.92
X118.69Y-108.7
X119.54Y-108.79
X121.12Y-109.41
X121.649Y-84.23
X124.15Y-83.325
X124.25Y-98.48
X124.37Y-95.545
X124.499Y-103.318
X124.85Y-96.15
X124.85Y-98.9
X125.33Y-88.59
X125.375Y-97.66
X125.524Y-87.86
X126.524Y-97.66
X126.524Y-96.15
X126.875Y-88.175
X129.05Y-84.55
X132.06Y-91.05
X133.75Y-84.55
X134.874Y-99.314
X137.45Y-99.54
T3
X106.68Y-110.744
X107.696Y-113.538
X109.61Y-97.92
X113.73Y-96.01
X115.9Y-95.72
X116.64Y-83.39
X119.13Y-96.4
T4
X120.7Y-108.78
T6
X105.6Y-91.22
X109.31Y-84.75
X120.7Y-104.64
X123.952Y-92.964
X127.31Y-103.383
X127.33Y-91.29
X127.74Y-101.114
X133.162Y-96.012
X137.414Y-96.05
T7
X108.34Y-99.73
X113.37Y-94.57
T8
X144.81Y-83.74
X144.84Y-106.56
X144.87Y-128.1
T9
X110.759Y-94.56
X110.759Y-100.34
T10
X111.7Y-116.814
X111.7Y-124.814
T5
G00X107.509Y-93.125
M15
G01X106.609Y-93.125
M16
G05
G00X107.509Y-101.775
M15
G01X106.609Y-101.775
M16
G05
G00X111.859Y-93.125
M15
G01X110.659Y-93.125
M16
G05
G00X111.859Y-101.775
M15
G01X110.659Y-101.775
M16
G05
T0
M30
