%TF.GenerationSoftware,KiCad,Pcbnew,(6.0.6)*%
%TF.CreationDate,2022-07-19T19:23:43+08:00*%
%TF.ProjectId,Egret,45677265-742e-46b6-9963-61645f706362,rev?*%
%TF.SameCoordinates,Original*%
%TF.FileFunction,Legend,Top*%
%TF.FilePolarity,Positive*%
%FSLAX46Y46*%
G04 Gerber Fmt 4.6, Leading zero omitted, Abs format (unit mm)*
G04 Created by KiCad (PCBNEW (6.0.6)) date 2022-07-19 19:23:43*
%MOMM*%
%LPD*%
G01*
G04 APERTURE LIST*
G04 Aperture macros list*
%AMRoundRect*
0 Rectangle with rounded corners*
0 $1 Rounding radius*
0 $2 $3 $4 $5 $6 $7 $8 $9 X,Y pos of 4 corners*
0 Add a 4 corners polygon primitive as box body*
4,1,4,$2,$3,$4,$5,$6,$7,$8,$9,$2,$3,0*
0 Add four circle primitives for the rounded corners*
1,1,$1+$1,$2,$3*
1,1,$1+$1,$4,$5*
1,1,$1+$1,$6,$7*
1,1,$1+$1,$8,$9*
0 Add four rect primitives between the rounded corners*
20,1,$1+$1,$2,$3,$4,$5,0*
20,1,$1+$1,$4,$5,$6,$7,0*
20,1,$1+$1,$6,$7,$8,$9,0*
20,1,$1+$1,$8,$9,$2,$3,0*%
G04 Aperture macros list end*
%ADD10C,0.100000*%
%ADD11C,0.150000*%
%ADD12C,0.300000*%
%ADD13C,0.120000*%
%ADD14C,0.200000*%
%ADD15C,0.127000*%
%ADD16C,0.254000*%
%ADD17C,0.102000*%
%ADD18C,0.152000*%
%ADD19C,0.600000*%
%ADD20RoundRect,0.200000X-0.200000X-0.275000X0.200000X-0.275000X0.200000X0.275000X-0.200000X0.275000X0*%
%ADD21R,0.550000X0.250000*%
%ADD22RoundRect,0.225000X-0.250000X0.225000X-0.250000X-0.225000X0.250000X-0.225000X0.250000X0.225000X0*%
%ADD23RoundRect,0.200000X0.200000X0.275000X-0.200000X0.275000X-0.200000X-0.275000X0.200000X-0.275000X0*%
%ADD24R,0.800000X2.300000*%
%ADD25R,1.500000X1.600000*%
%ADD26R,2.200000X1.200000*%
%ADD27R,1.500000X1.200000*%
%ADD28R,1.600000X0.700000*%
%ADD29C,1.000000*%
%ADD30RoundRect,0.150000X-0.150000X0.587500X-0.150000X-0.587500X0.150000X-0.587500X0.150000X0.587500X0*%
%ADD31R,0.532000X1.070000*%
%ADD32RoundRect,0.225000X0.225000X0.250000X-0.225000X0.250000X-0.225000X-0.250000X0.225000X-0.250000X0*%
%ADD33R,5.400000X5.400000*%
%ADD34RoundRect,0.014000X-0.161000X0.211000X-0.161000X-0.211000X0.161000X-0.211000X0.161000X0.211000X0*%
%ADD35RoundRect,0.014000X0.211000X0.161000X-0.211000X0.161000X-0.211000X-0.161000X0.211000X-0.161000X0*%
%ADD36RoundRect,0.014000X0.161000X-0.211000X0.161000X0.211000X-0.161000X0.211000X-0.161000X-0.211000X0*%
%ADD37RoundRect,0.014000X-0.211000X-0.161000X0.211000X-0.161000X0.211000X0.161000X-0.211000X0.161000X0*%
%ADD38RoundRect,0.225000X-0.225000X-0.250000X0.225000X-0.250000X0.225000X0.250000X-0.225000X0.250000X0*%
%ADD39RoundRect,0.225000X0.250000X-0.225000X0.250000X0.225000X-0.250000X0.225000X-0.250000X-0.225000X0*%
%ADD40RoundRect,0.200000X0.275000X-0.200000X0.275000X0.200000X-0.275000X0.200000X-0.275000X-0.200000X0*%
%ADD41R,0.900000X1.500000*%
%ADD42RoundRect,0.088500X-0.206500X0.516500X-0.206500X-0.516500X0.206500X-0.516500X0.206500X0.516500X0*%
%ADD43R,2.500000X2.000000*%
%ADD44R,1.250000X0.300000*%
%ADD45R,2.600000X2.700000*%
%ADD46RoundRect,0.014000X0.411000X0.161000X-0.411000X0.161000X-0.411000X-0.161000X0.411000X-0.161000X0*%
%ADD47RoundRect,0.014000X0.161000X-0.386000X0.161000X0.386000X-0.161000X0.386000X-0.161000X-0.386000X0*%
%ADD48RoundRect,0.014000X-0.411000X-0.161000X0.411000X-0.161000X0.411000X0.161000X-0.411000X0.161000X0*%
%ADD49RoundRect,0.014000X-0.161000X0.386000X-0.161000X-0.386000X0.161000X-0.386000X0.161000X0.386000X0*%
%ADD50R,3.250000X3.250000*%
%ADD51RoundRect,0.018900X-0.116100X0.486100X-0.116100X-0.486100X0.116100X-0.486100X0.116100X0.486100X0*%
%ADD52RoundRect,0.018900X0.486100X0.116100X-0.486100X0.116100X-0.486100X-0.116100X0.486100X-0.116100X0*%
%ADD53RoundRect,0.018900X0.116100X-0.486100X0.116100X0.486100X-0.116100X0.486100X-0.116100X-0.486100X0*%
%ADD54RoundRect,0.018900X-0.486100X-0.116100X0.486100X-0.116100X0.486100X0.116100X-0.486100X0.116100X0*%
%ADD55R,1.150000X0.300000*%
%ADD56R,1.150000X0.600000*%
%ADD57O,1.900000X1.000000*%
%ADD58O,2.100000X1.000000*%
%ADD59C,0.650000*%
G04 APERTURE END LIST*
D10*
X131213625Y-127889610D02*
X131594578Y-127889610D01*
X130999340Y-127961039D02*
X131189816Y-127961039D01*
X131213625Y-128056277D02*
X131618387Y-128056277D01*
X131261244Y-128151515D02*
X131570768Y-128151515D01*
X131404102Y-128246753D02*
X131570768Y-128246753D01*
X131380292Y-128389610D02*
X131618387Y-128389610D01*
X131023149Y-128389610D02*
X131094578Y-128389610D01*
X131118387Y-127818181D02*
X131118387Y-128389610D01*
X131427911Y-127818181D02*
X131427911Y-128389610D01*
X131261244Y-127961039D02*
X131570768Y-127961039D01*
X131570768Y-128151515D01*
X131261244Y-128222943D02*
X131189816Y-128389610D01*
X131189816Y-128127705D02*
X130999340Y-128151515D01*
X131261244Y-128270562D02*
X131356482Y-128365800D01*
X131523149Y-128389610D01*
X131927911Y-127889610D02*
X132356482Y-127889610D01*
X131975530Y-128103896D02*
X132332673Y-128103896D01*
X131927911Y-128175324D02*
X132356482Y-128175324D01*
X132046959Y-128389610D02*
X132237435Y-128389610D01*
X131856482Y-128032467D02*
X131856482Y-128389610D01*
X131975530Y-127961039D02*
X131975530Y-128103896D01*
X132070768Y-128270562D02*
X132070768Y-128389610D01*
X132094578Y-127961039D02*
X132094578Y-128103896D01*
X132142197Y-127818181D02*
X132118387Y-127961039D01*
X132213625Y-127961039D02*
X132213625Y-128103896D01*
X132237435Y-128318181D02*
X132237435Y-128389610D01*
X131975530Y-127961039D02*
X132332673Y-127961039D01*
X132332673Y-128103896D01*
X132261244Y-128270562D02*
X132356482Y-128365800D01*
X131880292Y-127818181D02*
X131761244Y-127961039D01*
X131880292Y-128008658D02*
X131737435Y-128151515D01*
X132094578Y-128222943D02*
X132189816Y-128246753D01*
X131975530Y-128270562D02*
X131927911Y-128389610D01*
X132808863Y-127818181D02*
X132785054Y-127889610D01*
X132761244Y-127984848D01*
X132761244Y-128222943D01*
X132785054Y-128318181D01*
X132808863Y-128365800D01*
X132999340Y-128175324D02*
X133618387Y-128175324D01*
X132999340Y-127937229D02*
X132999340Y-128222943D01*
X133308863Y-127818181D02*
X133308863Y-128389610D01*
X132999340Y-127937229D02*
X133618387Y-127937229D01*
X133618387Y-128199134D01*
X133856482Y-127961039D02*
X134261244Y-127961039D01*
X133880292Y-128103896D02*
X134237435Y-128103896D01*
X133832673Y-128246753D02*
X134261244Y-128246753D01*
X133737435Y-128365800D02*
X134356482Y-128365800D01*
X133737435Y-127865800D02*
X133737435Y-128389610D01*
X134046959Y-127961039D02*
X134046959Y-128246753D01*
X133737435Y-127865800D02*
X134356482Y-127865800D01*
X134356482Y-128389610D01*
X134142197Y-128151515D02*
X134213625Y-128199134D01*
X134546959Y-127818181D02*
X134594578Y-127889610D01*
X134618387Y-127984848D01*
X134618387Y-128222943D01*
X134594578Y-128318181D01*
X134546959Y-128365800D01*
X135237435Y-127865800D02*
X135546959Y-127865800D01*
X135189816Y-127937229D02*
X135618387Y-127937229D01*
X135237435Y-128032467D02*
X135570768Y-128032467D01*
X135237435Y-128127705D02*
X135570768Y-128127705D01*
X135237435Y-128365800D02*
X135570768Y-128365800D01*
X135118387Y-127937229D02*
X135118387Y-128389610D01*
X135237435Y-128222943D02*
X135237435Y-128389610D01*
X135237435Y-128222943D02*
X135570768Y-128222943D01*
X135570768Y-128389610D01*
X135166006Y-127841991D02*
X135118387Y-127961039D01*
X134999340Y-128080086D01*
X135856482Y-127984848D02*
X136237435Y-127984848D01*
X135856482Y-128080086D02*
X136237435Y-128080086D01*
X135856482Y-128175324D02*
X136237435Y-128175324D01*
X135927911Y-128389610D02*
X136189816Y-128389610D01*
X135856482Y-127889610D02*
X135856482Y-128175324D01*
X135927911Y-128246753D02*
X135927911Y-128389610D01*
X136189816Y-128341991D02*
X136166006Y-128389610D01*
X135856482Y-127889610D02*
X136237435Y-127889610D01*
X136237435Y-128175324D01*
X136023149Y-128222943D02*
X136094578Y-128294372D01*
X136237435Y-128246753D02*
X136356482Y-128365800D01*
X136023149Y-127818181D02*
X135999340Y-127889610D01*
X135808863Y-128246753D02*
X135785054Y-128341991D01*
X136475530Y-128008658D02*
X136737435Y-128008658D01*
X136618387Y-127865800D02*
X136618387Y-128389610D01*
X136999340Y-127818181D02*
X136999340Y-128389610D01*
X136618387Y-128032467D02*
X136666006Y-128103896D01*
X136713625Y-128151515D01*
X136808863Y-127889610D02*
X136904102Y-127913420D01*
X136785054Y-128056277D02*
X136880292Y-128103896D01*
X136618387Y-128008658D02*
X136499340Y-128222943D01*
X136689816Y-127841991D02*
X136475530Y-127865800D01*
X137070768Y-128199134D02*
X136761244Y-128246753D01*
X137451721Y-127937229D02*
X137808863Y-127937229D01*
X137213625Y-127961039D02*
X137404102Y-127961039D01*
X137237435Y-128389610D02*
X137308863Y-128389610D01*
X137332673Y-127818181D02*
X137332673Y-128389610D01*
X137618387Y-127818181D02*
X137618387Y-128080086D01*
X137499340Y-128080086D02*
X137546959Y-128199134D01*
X137666006Y-128318181D01*
X137832673Y-128389610D01*
X137451721Y-128080086D02*
X137785054Y-128080086D01*
X137737435Y-128175324D01*
X137618387Y-128294372D01*
X137404102Y-128389610D01*
X137427911Y-128127705D02*
X137213625Y-128175324D01*
X137951721Y-127913420D02*
X138570768Y-127913420D01*
X138118387Y-128151515D02*
X138475530Y-128151515D01*
X138118387Y-128270562D02*
X138475530Y-128270562D01*
X138118387Y-128032467D02*
X138118387Y-128389610D01*
X138213625Y-127818181D02*
X138118387Y-128032467D01*
X137975530Y-128175324D01*
X138118387Y-128032467D02*
X138475530Y-128032467D01*
X138475530Y-128389610D01*
X138356482Y-128389610D01*
X138951721Y-127984848D02*
X139261244Y-127984848D01*
X138951721Y-128103896D02*
X139261244Y-128103896D01*
X138689816Y-127841991D02*
X138689816Y-128389610D01*
X138951721Y-127841991D02*
X138951721Y-128365800D01*
X138951721Y-127841991D02*
X139261244Y-127841991D01*
X139261244Y-128103896D01*
X138689816Y-127865800D02*
X138880292Y-127865800D01*
X138785054Y-128008658D01*
X139261244Y-128175324D02*
X139142197Y-128222943D01*
X138785054Y-128032467D02*
X138856482Y-128151515D01*
X138856482Y-128222943D01*
X138761244Y-128222943D01*
X139142197Y-128341991D02*
X138856482Y-128365800D01*
X139094578Y-128127705D02*
X139142197Y-128246753D01*
X139285054Y-128389610D01*
X139832673Y-128199134D02*
X139999340Y-128365800D01*
X139689816Y-128056277D02*
X139546959Y-128365800D01*
X139618387Y-127841991D02*
X139570768Y-127984848D01*
X139427911Y-128080086D01*
X139856482Y-127841991D02*
X139880292Y-127937229D01*
X140046959Y-128103896D01*
X139499340Y-128365800D02*
X139951721Y-128318181D01*
X140166006Y-127984848D02*
X140666006Y-127984848D01*
X140237435Y-128270562D02*
X140594578Y-128270562D01*
X140618387Y-128389610D02*
X140785054Y-128389610D01*
X140237435Y-128103896D02*
X140237435Y-128318181D01*
X140237435Y-128103896D02*
X140594578Y-128103896D01*
X140594578Y-128270562D01*
X140166006Y-127865800D02*
X140785054Y-127865800D01*
X140785054Y-128389610D01*
X131604102Y-126289420D02*
X131537435Y-126256086D01*
X131437435Y-126256086D01*
X131337435Y-126289420D01*
X131270768Y-126356086D01*
X131237435Y-126422753D01*
X131204102Y-126556086D01*
X131204102Y-126656086D01*
X131237435Y-126789420D01*
X131270768Y-126856086D01*
X131337435Y-126922753D01*
X131437435Y-126956086D01*
X131504102Y-126956086D01*
X131604102Y-126922753D01*
X131637435Y-126889420D01*
X131637435Y-126656086D01*
X131504102Y-126656086D01*
X131937435Y-126956086D02*
X131937435Y-126489420D01*
X131937435Y-126256086D02*
X131904102Y-126289420D01*
X131937435Y-126322753D01*
X131970768Y-126289420D01*
X131937435Y-126256086D01*
X131937435Y-126322753D01*
X132537435Y-126922753D02*
X132470768Y-126956086D01*
X132337435Y-126956086D01*
X132270768Y-126922753D01*
X132237435Y-126856086D01*
X132237435Y-126589420D01*
X132270768Y-126522753D01*
X132337435Y-126489420D01*
X132470768Y-126489420D01*
X132537435Y-126522753D01*
X132570768Y-126589420D01*
X132570768Y-126656086D01*
X132237435Y-126722753D01*
X132837435Y-126922753D02*
X132904102Y-126956086D01*
X133037435Y-126956086D01*
X133104102Y-126922753D01*
X133137435Y-126856086D01*
X133137435Y-126822753D01*
X133104102Y-126756086D01*
X133037435Y-126722753D01*
X132937435Y-126722753D01*
X132870768Y-126689420D01*
X132837435Y-126622753D01*
X132837435Y-126589420D01*
X132870768Y-126522753D01*
X132937435Y-126489420D01*
X133037435Y-126489420D01*
X133104102Y-126522753D01*
X133704102Y-126922753D02*
X133637435Y-126956086D01*
X133504102Y-126956086D01*
X133437435Y-126922753D01*
X133404102Y-126856086D01*
X133404102Y-126589420D01*
X133437435Y-126522753D01*
X133504102Y-126489420D01*
X133637435Y-126489420D01*
X133704102Y-126522753D01*
X133737435Y-126589420D01*
X133737435Y-126656086D01*
X133404102Y-126722753D01*
X134337435Y-126922753D02*
X134270768Y-126956086D01*
X134137435Y-126956086D01*
X134070768Y-126922753D01*
X134037435Y-126889420D01*
X134004102Y-126822753D01*
X134004102Y-126622753D01*
X134037435Y-126556086D01*
X134070768Y-126522753D01*
X134137435Y-126489420D01*
X134270768Y-126489420D01*
X134337435Y-126522753D01*
X134637435Y-126956086D02*
X134637435Y-126256086D01*
X134704102Y-126689420D02*
X134904102Y-126956086D01*
X134904102Y-126489420D02*
X134637435Y-126756086D01*
X135470768Y-126922753D02*
X135404102Y-126956086D01*
X135270768Y-126956086D01*
X135204102Y-126922753D01*
X135170768Y-126856086D01*
X135170768Y-126589420D01*
X135204102Y-126522753D01*
X135270768Y-126489420D01*
X135404102Y-126489420D01*
X135470768Y-126522753D01*
X135504102Y-126589420D01*
X135504102Y-126656086D01*
X135170768Y-126722753D01*
X135804102Y-126689420D02*
X136337435Y-126689420D01*
X136070768Y-126956086D02*
X136070768Y-126422753D01*
X136670768Y-126956086D02*
X136670768Y-126256086D01*
X136837435Y-126256086D01*
X136937435Y-126289420D01*
X137004102Y-126356086D01*
X137037435Y-126422753D01*
X137070768Y-126556086D01*
X137070768Y-126656086D01*
X137037435Y-126789420D01*
X137004102Y-126856086D01*
X136937435Y-126922753D01*
X136837435Y-126956086D01*
X136670768Y-126956086D01*
X137637435Y-126922753D02*
X137570768Y-126956086D01*
X137437435Y-126956086D01*
X137370768Y-126922753D01*
X137337435Y-126856086D01*
X137337435Y-126589420D01*
X137370768Y-126522753D01*
X137437435Y-126489420D01*
X137570768Y-126489420D01*
X137637435Y-126522753D01*
X137670768Y-126589420D01*
X137670768Y-126656086D01*
X137337435Y-126722753D01*
X137904102Y-126489420D02*
X138070768Y-126956086D01*
X138237435Y-126489420D01*
X138504102Y-126956086D02*
X138504102Y-126489420D01*
X138504102Y-126622753D02*
X138537435Y-126556086D01*
X138570768Y-126522753D01*
X138637435Y-126489420D01*
X138704102Y-126489420D01*
X138937435Y-126956086D02*
X138937435Y-126489420D01*
X138937435Y-126256086D02*
X138904102Y-126289420D01*
X138937435Y-126322753D01*
X138970768Y-126289420D01*
X138937435Y-126256086D01*
X138937435Y-126322753D01*
X139537435Y-126922753D02*
X139470768Y-126956086D01*
X139337435Y-126956086D01*
X139270768Y-126922753D01*
X139237435Y-126856086D01*
X139237435Y-126589420D01*
X139270768Y-126522753D01*
X139337435Y-126489420D01*
X139470768Y-126489420D01*
X139537435Y-126522753D01*
X139570768Y-126589420D01*
X139570768Y-126656086D01*
X139237435Y-126722753D01*
X139870768Y-126489420D02*
X139870768Y-126956086D01*
X139870768Y-126556086D02*
X139904102Y-126522753D01*
X139970768Y-126489420D01*
X140070768Y-126489420D01*
X140137435Y-126522753D01*
X140170768Y-126589420D01*
X140170768Y-126956086D01*
X140404102Y-126489420D02*
X140670768Y-126489420D01*
X140504102Y-126256086D02*
X140504102Y-126856086D01*
X140537435Y-126922753D01*
X140604102Y-126956086D01*
X140670768Y-126956086D01*
X133278387Y-129294848D02*
X133421244Y-129694848D01*
X133564102Y-129294848D01*
X134021244Y-129666277D02*
X133964102Y-129694848D01*
X133849816Y-129694848D01*
X133792673Y-129666277D01*
X133764102Y-129609134D01*
X133764102Y-129380562D01*
X133792673Y-129323420D01*
X133849816Y-129294848D01*
X133964102Y-129294848D01*
X134021244Y-129323420D01*
X134049816Y-129380562D01*
X134049816Y-129437705D01*
X133764102Y-129494848D01*
X134306959Y-129694848D02*
X134306959Y-129294848D01*
X134306959Y-129409134D02*
X134335530Y-129351991D01*
X134364102Y-129323420D01*
X134421244Y-129294848D01*
X134478387Y-129294848D01*
X134649816Y-129666277D02*
X134706959Y-129694848D01*
X134821244Y-129694848D01*
X134878387Y-129666277D01*
X134906959Y-129609134D01*
X134906959Y-129580562D01*
X134878387Y-129523420D01*
X134821244Y-129494848D01*
X134735530Y-129494848D01*
X134678387Y-129466277D01*
X134649816Y-129409134D01*
X134649816Y-129380562D01*
X134678387Y-129323420D01*
X134735530Y-129294848D01*
X134821244Y-129294848D01*
X134878387Y-129323420D01*
X135164102Y-129694848D02*
X135164102Y-129294848D01*
X135164102Y-129094848D02*
X135135530Y-129123420D01*
X135164102Y-129151991D01*
X135192673Y-129123420D01*
X135164102Y-129094848D01*
X135164102Y-129151991D01*
X135535530Y-129694848D02*
X135478387Y-129666277D01*
X135449816Y-129637705D01*
X135421244Y-129580562D01*
X135421244Y-129409134D01*
X135449816Y-129351991D01*
X135478387Y-129323420D01*
X135535530Y-129294848D01*
X135621244Y-129294848D01*
X135678387Y-129323420D01*
X135706959Y-129351991D01*
X135735530Y-129409134D01*
X135735530Y-129580562D01*
X135706959Y-129637705D01*
X135678387Y-129666277D01*
X135621244Y-129694848D01*
X135535530Y-129694848D01*
X135992673Y-129294848D02*
X135992673Y-129694848D01*
X135992673Y-129351991D02*
X136021244Y-129323420D01*
X136078387Y-129294848D01*
X136164102Y-129294848D01*
X136221244Y-129323420D01*
X136249816Y-129380562D01*
X136249816Y-129694848D01*
X137106959Y-129094848D02*
X137164102Y-129094848D01*
X137221244Y-129123420D01*
X137249816Y-129151991D01*
X137278387Y-129209134D01*
X137306959Y-129323420D01*
X137306959Y-129466277D01*
X137278387Y-129580562D01*
X137249816Y-129637705D01*
X137221244Y-129666277D01*
X137164102Y-129694848D01*
X137106959Y-129694848D01*
X137049816Y-129666277D01*
X137021244Y-129637705D01*
X136992673Y-129580562D01*
X136964102Y-129466277D01*
X136964102Y-129323420D01*
X136992673Y-129209134D01*
X137021244Y-129151991D01*
X137049816Y-129123420D01*
X137106959Y-129094848D01*
X137564102Y-129637705D02*
X137592673Y-129666277D01*
X137564102Y-129694848D01*
X137535530Y-129666277D01*
X137564102Y-129637705D01*
X137564102Y-129694848D01*
X137964102Y-129094848D02*
X138021244Y-129094848D01*
X138078387Y-129123420D01*
X138106959Y-129151991D01*
X138135530Y-129209134D01*
X138164102Y-129323420D01*
X138164102Y-129466277D01*
X138135530Y-129580562D01*
X138106959Y-129637705D01*
X138078387Y-129666277D01*
X138021244Y-129694848D01*
X137964102Y-129694848D01*
X137906959Y-129666277D01*
X137878387Y-129637705D01*
X137849816Y-129580562D01*
X137821244Y-129466277D01*
X137821244Y-129323420D01*
X137849816Y-129209134D01*
X137878387Y-129151991D01*
X137906959Y-129123420D01*
X137964102Y-129094848D01*
X138421244Y-129637705D02*
X138449816Y-129666277D01*
X138421244Y-129694848D01*
X138392673Y-129666277D01*
X138421244Y-129637705D01*
X138421244Y-129694848D01*
X139021244Y-129694848D02*
X138678387Y-129694848D01*
X138849816Y-129694848D02*
X138849816Y-129094848D01*
X138792673Y-129180562D01*
X138735530Y-129237705D01*
X138678387Y-129266277D01*
D11*
%TO.C,R3*%
X130133333Y-83902380D02*
X129800000Y-83426190D01*
X129561904Y-83902380D02*
X129561904Y-82902380D01*
X129942857Y-82902380D01*
X130038095Y-82950000D01*
X130085714Y-82997619D01*
X130133333Y-83092857D01*
X130133333Y-83235714D01*
X130085714Y-83330952D01*
X130038095Y-83378571D01*
X129942857Y-83426190D01*
X129561904Y-83426190D01*
X130466666Y-82902380D02*
X131085714Y-82902380D01*
X130752380Y-83283333D01*
X130895238Y-83283333D01*
X130990476Y-83330952D01*
X131038095Y-83378571D01*
X131085714Y-83473809D01*
X131085714Y-83711904D01*
X131038095Y-83807142D01*
X130990476Y-83854761D01*
X130895238Y-83902380D01*
X130609523Y-83902380D01*
X130514285Y-83854761D01*
X130466666Y-83807142D01*
%TO.C,U4*%
X131697117Y-104171678D02*
X131697117Y-104982240D01*
X131744797Y-105077601D01*
X131792478Y-105125281D01*
X131887838Y-105172961D01*
X132078558Y-105172961D01*
X132173919Y-105125281D01*
X132221599Y-105077601D01*
X132269279Y-104982240D01*
X132269279Y-104171678D01*
X133175202Y-104505439D02*
X133175202Y-105172961D01*
X132936801Y-104123998D02*
X132698400Y-104839200D01*
X133318242Y-104839200D01*
%TO.C,R11*%
X125497142Y-120352380D02*
X125163809Y-119876190D01*
X124925714Y-120352380D02*
X124925714Y-119352380D01*
X125306666Y-119352380D01*
X125401904Y-119400000D01*
X125449523Y-119447619D01*
X125497142Y-119542857D01*
X125497142Y-119685714D01*
X125449523Y-119780952D01*
X125401904Y-119828571D01*
X125306666Y-119876190D01*
X124925714Y-119876190D01*
X126449523Y-120352380D02*
X125878095Y-120352380D01*
X126163809Y-120352380D02*
X126163809Y-119352380D01*
X126068571Y-119495238D01*
X125973333Y-119590476D01*
X125878095Y-119638095D01*
X127401904Y-120352380D02*
X126830476Y-120352380D01*
X127116190Y-120352380D02*
X127116190Y-119352380D01*
X127020952Y-119495238D01*
X126925714Y-119590476D01*
X126830476Y-119638095D01*
%TO.C,C8*%
X123203333Y-111627142D02*
X123155714Y-111674761D01*
X123012857Y-111722380D01*
X122917619Y-111722380D01*
X122774761Y-111674761D01*
X122679523Y-111579523D01*
X122631904Y-111484285D01*
X122584285Y-111293809D01*
X122584285Y-111150952D01*
X122631904Y-110960476D01*
X122679523Y-110865238D01*
X122774761Y-110770000D01*
X122917619Y-110722380D01*
X123012857Y-110722380D01*
X123155714Y-110770000D01*
X123203333Y-110817619D01*
X123774761Y-111150952D02*
X123679523Y-111103333D01*
X123631904Y-111055714D01*
X123584285Y-110960476D01*
X123584285Y-110912857D01*
X123631904Y-110817619D01*
X123679523Y-110770000D01*
X123774761Y-110722380D01*
X123965238Y-110722380D01*
X124060476Y-110770000D01*
X124108095Y-110817619D01*
X124155714Y-110912857D01*
X124155714Y-110960476D01*
X124108095Y-111055714D01*
X124060476Y-111103333D01*
X123965238Y-111150952D01*
X123774761Y-111150952D01*
X123679523Y-111198571D01*
X123631904Y-111246190D01*
X123584285Y-111341428D01*
X123584285Y-111531904D01*
X123631904Y-111627142D01*
X123679523Y-111674761D01*
X123774761Y-111722380D01*
X123965238Y-111722380D01*
X124060476Y-111674761D01*
X124108095Y-111627142D01*
X124155714Y-111531904D01*
X124155714Y-111341428D01*
X124108095Y-111246190D01*
X124060476Y-111198571D01*
X123965238Y-111150952D01*
%TO.C,C1*%
X108662142Y-108674166D02*
X108709761Y-108721785D01*
X108757380Y-108864642D01*
X108757380Y-108959880D01*
X108709761Y-109102738D01*
X108614523Y-109197976D01*
X108519285Y-109245595D01*
X108328809Y-109293214D01*
X108185952Y-109293214D01*
X107995476Y-109245595D01*
X107900238Y-109197976D01*
X107805000Y-109102738D01*
X107757380Y-108959880D01*
X107757380Y-108864642D01*
X107805000Y-108721785D01*
X107852619Y-108674166D01*
X108757380Y-107721785D02*
X108757380Y-108293214D01*
X108757380Y-108007500D02*
X107757380Y-108007500D01*
X107900238Y-108102738D01*
X107995476Y-108197976D01*
X108043095Y-108293214D01*
%TO.C,R6*%
X119183333Y-83952380D02*
X118850000Y-83476190D01*
X118611904Y-83952380D02*
X118611904Y-82952380D01*
X118992857Y-82952380D01*
X119088095Y-83000000D01*
X119135714Y-83047619D01*
X119183333Y-83142857D01*
X119183333Y-83285714D01*
X119135714Y-83380952D01*
X119088095Y-83428571D01*
X118992857Y-83476190D01*
X118611904Y-83476190D01*
X120040476Y-82952380D02*
X119850000Y-82952380D01*
X119754761Y-83000000D01*
X119707142Y-83047619D01*
X119611904Y-83190476D01*
X119564285Y-83380952D01*
X119564285Y-83761904D01*
X119611904Y-83857142D01*
X119659523Y-83904761D01*
X119754761Y-83952380D01*
X119945238Y-83952380D01*
X120040476Y-83904761D01*
X120088095Y-83857142D01*
X120135714Y-83761904D01*
X120135714Y-83523809D01*
X120088095Y-83428571D01*
X120040476Y-83380952D01*
X119945238Y-83333333D01*
X119754761Y-83333333D01*
X119659523Y-83380952D01*
X119611904Y-83428571D01*
X119564285Y-83523809D01*
%TO.C,R9*%
X125943333Y-117492380D02*
X125610000Y-117016190D01*
X125371904Y-117492380D02*
X125371904Y-116492380D01*
X125752857Y-116492380D01*
X125848095Y-116540000D01*
X125895714Y-116587619D01*
X125943333Y-116682857D01*
X125943333Y-116825714D01*
X125895714Y-116920952D01*
X125848095Y-116968571D01*
X125752857Y-117016190D01*
X125371904Y-117016190D01*
X126419523Y-117492380D02*
X126610000Y-117492380D01*
X126705238Y-117444761D01*
X126752857Y-117397142D01*
X126848095Y-117254285D01*
X126895714Y-117063809D01*
X126895714Y-116682857D01*
X126848095Y-116587619D01*
X126800476Y-116540000D01*
X126705238Y-116492380D01*
X126514761Y-116492380D01*
X126419523Y-116540000D01*
X126371904Y-116587619D01*
X126324285Y-116682857D01*
X126324285Y-116920952D01*
X126371904Y-117016190D01*
X126419523Y-117063809D01*
X126514761Y-117111428D01*
X126705238Y-117111428D01*
X126800476Y-117063809D01*
X126848095Y-117016190D01*
X126895714Y-116920952D01*
%TO.C,U6*%
X137850595Y-116862380D02*
X137850595Y-117671904D01*
X137898214Y-117767142D01*
X137945833Y-117814761D01*
X138041071Y-117862380D01*
X138231547Y-117862380D01*
X138326785Y-117814761D01*
X138374404Y-117767142D01*
X138422023Y-117671904D01*
X138422023Y-116862380D01*
X139326785Y-116862380D02*
X139136309Y-116862380D01*
X139041071Y-116910000D01*
X138993452Y-116957619D01*
X138898214Y-117100476D01*
X138850595Y-117290952D01*
X138850595Y-117671904D01*
X138898214Y-117767142D01*
X138945833Y-117814761D01*
X139041071Y-117862380D01*
X139231547Y-117862380D01*
X139326785Y-117814761D01*
X139374404Y-117767142D01*
X139422023Y-117671904D01*
X139422023Y-117433809D01*
X139374404Y-117338571D01*
X139326785Y-117290952D01*
X139231547Y-117243333D01*
X139041071Y-117243333D01*
X138945833Y-117290952D01*
X138898214Y-117338571D01*
X138850595Y-117433809D01*
%TO.C,Card1*%
X116401071Y-127287142D02*
X116353452Y-127334761D01*
X116210595Y-127382380D01*
X116115357Y-127382380D01*
X115972500Y-127334761D01*
X115877261Y-127239523D01*
X115829642Y-127144285D01*
X115782023Y-126953809D01*
X115782023Y-126810952D01*
X115829642Y-126620476D01*
X115877261Y-126525238D01*
X115972500Y-126430000D01*
X116115357Y-126382380D01*
X116210595Y-126382380D01*
X116353452Y-126430000D01*
X116401071Y-126477619D01*
X117258214Y-127382380D02*
X117258214Y-126858571D01*
X117210595Y-126763333D01*
X117115357Y-126715714D01*
X116924880Y-126715714D01*
X116829642Y-126763333D01*
X117258214Y-127334761D02*
X117162976Y-127382380D01*
X116924880Y-127382380D01*
X116829642Y-127334761D01*
X116782023Y-127239523D01*
X116782023Y-127144285D01*
X116829642Y-127049047D01*
X116924880Y-127001428D01*
X117162976Y-127001428D01*
X117258214Y-126953809D01*
X117734404Y-127382380D02*
X117734404Y-126715714D01*
X117734404Y-126906190D02*
X117782023Y-126810952D01*
X117829642Y-126763333D01*
X117924880Y-126715714D01*
X118020119Y-126715714D01*
X118782023Y-127382380D02*
X118782023Y-126382380D01*
X118782023Y-127334761D02*
X118686785Y-127382380D01*
X118496309Y-127382380D01*
X118401071Y-127334761D01*
X118353452Y-127287142D01*
X118305833Y-127191904D01*
X118305833Y-126906190D01*
X118353452Y-126810952D01*
X118401071Y-126763333D01*
X118496309Y-126715714D01*
X118686785Y-126715714D01*
X118782023Y-126763333D01*
X119782023Y-127382380D02*
X119210595Y-127382380D01*
X119496309Y-127382380D02*
X119496309Y-126382380D01*
X119401071Y-126525238D01*
X119305833Y-126620476D01*
X119210595Y-126668095D01*
%TO.C,R1*%
X132003333Y-102572380D02*
X131670000Y-102096190D01*
X131431904Y-102572380D02*
X131431904Y-101572380D01*
X131812857Y-101572380D01*
X131908095Y-101620000D01*
X131955714Y-101667619D01*
X132003333Y-101762857D01*
X132003333Y-101905714D01*
X131955714Y-102000952D01*
X131908095Y-102048571D01*
X131812857Y-102096190D01*
X131431904Y-102096190D01*
X132955714Y-102572380D02*
X132384285Y-102572380D01*
X132670000Y-102572380D02*
X132670000Y-101572380D01*
X132574761Y-101715238D01*
X132479523Y-101810476D01*
X132384285Y-101858095D01*
%TO.C,Q2*%
X133674761Y-90087619D02*
X133579523Y-90040000D01*
X133484285Y-89944761D01*
X133341428Y-89801904D01*
X133246190Y-89754285D01*
X133150952Y-89754285D01*
X133198571Y-89992380D02*
X133103333Y-89944761D01*
X133008095Y-89849523D01*
X132960476Y-89659047D01*
X132960476Y-89325714D01*
X133008095Y-89135238D01*
X133103333Y-89040000D01*
X133198571Y-88992380D01*
X133389047Y-88992380D01*
X133484285Y-89040000D01*
X133579523Y-89135238D01*
X133627142Y-89325714D01*
X133627142Y-89659047D01*
X133579523Y-89849523D01*
X133484285Y-89944761D01*
X133389047Y-89992380D01*
X133198571Y-89992380D01*
X134008095Y-89087619D02*
X134055714Y-89040000D01*
X134150952Y-88992380D01*
X134389047Y-88992380D01*
X134484285Y-89040000D01*
X134531904Y-89087619D01*
X134579523Y-89182857D01*
X134579523Y-89278095D01*
X134531904Y-89420952D01*
X133960476Y-89992380D01*
X134579523Y-89992380D01*
%TO.C,R4*%
X135183333Y-84002380D02*
X134850000Y-83526190D01*
X134611904Y-84002380D02*
X134611904Y-83002380D01*
X134992857Y-83002380D01*
X135088095Y-83050000D01*
X135135714Y-83097619D01*
X135183333Y-83192857D01*
X135183333Y-83335714D01*
X135135714Y-83430952D01*
X135088095Y-83478571D01*
X134992857Y-83526190D01*
X134611904Y-83526190D01*
X136040476Y-83335714D02*
X136040476Y-84002380D01*
X135802380Y-82954761D02*
X135564285Y-83669047D01*
X136183333Y-83669047D01*
D12*
%TO.C,*%
D11*
%TO.C,R12*%
X125437142Y-126272380D02*
X125103809Y-125796190D01*
X124865714Y-126272380D02*
X124865714Y-125272380D01*
X125246666Y-125272380D01*
X125341904Y-125320000D01*
X125389523Y-125367619D01*
X125437142Y-125462857D01*
X125437142Y-125605714D01*
X125389523Y-125700952D01*
X125341904Y-125748571D01*
X125246666Y-125796190D01*
X124865714Y-125796190D01*
X126389523Y-126272380D02*
X125818095Y-126272380D01*
X126103809Y-126272380D02*
X126103809Y-125272380D01*
X126008571Y-125415238D01*
X125913333Y-125510476D01*
X125818095Y-125558095D01*
X126770476Y-125367619D02*
X126818095Y-125320000D01*
X126913333Y-125272380D01*
X127151428Y-125272380D01*
X127246666Y-125320000D01*
X127294285Y-125367619D01*
X127341904Y-125462857D01*
X127341904Y-125558095D01*
X127294285Y-125700952D01*
X126722857Y-126272380D01*
X127341904Y-126272380D01*
%TO.C,Q3*%
X131482261Y-94987619D02*
X131387023Y-94940000D01*
X131291785Y-94844761D01*
X131148928Y-94701904D01*
X131053690Y-94654285D01*
X130958452Y-94654285D01*
X131006071Y-94892380D02*
X130910833Y-94844761D01*
X130815595Y-94749523D01*
X130767976Y-94559047D01*
X130767976Y-94225714D01*
X130815595Y-94035238D01*
X130910833Y-93940000D01*
X131006071Y-93892380D01*
X131196547Y-93892380D01*
X131291785Y-93940000D01*
X131387023Y-94035238D01*
X131434642Y-94225714D01*
X131434642Y-94559047D01*
X131387023Y-94749523D01*
X131291785Y-94844761D01*
X131196547Y-94892380D01*
X131006071Y-94892380D01*
X131767976Y-93892380D02*
X132387023Y-93892380D01*
X132053690Y-94273333D01*
X132196547Y-94273333D01*
X132291785Y-94320952D01*
X132339404Y-94368571D01*
X132387023Y-94463809D01*
X132387023Y-94701904D01*
X132339404Y-94797142D01*
X132291785Y-94844761D01*
X132196547Y-94892380D01*
X131910833Y-94892380D01*
X131815595Y-94844761D01*
X131767976Y-94797142D01*
%TO.C,C5*%
X111638333Y-83827142D02*
X111590714Y-83874761D01*
X111447857Y-83922380D01*
X111352619Y-83922380D01*
X111209761Y-83874761D01*
X111114523Y-83779523D01*
X111066904Y-83684285D01*
X111019285Y-83493809D01*
X111019285Y-83350952D01*
X111066904Y-83160476D01*
X111114523Y-83065238D01*
X111209761Y-82970000D01*
X111352619Y-82922380D01*
X111447857Y-82922380D01*
X111590714Y-82970000D01*
X111638333Y-83017619D01*
X112543095Y-82922380D02*
X112066904Y-82922380D01*
X112019285Y-83398571D01*
X112066904Y-83350952D01*
X112162142Y-83303333D01*
X112400238Y-83303333D01*
X112495476Y-83350952D01*
X112543095Y-83398571D01*
X112590714Y-83493809D01*
X112590714Y-83731904D01*
X112543095Y-83827142D01*
X112495476Y-83874761D01*
X112400238Y-83922380D01*
X112162142Y-83922380D01*
X112066904Y-83874761D01*
X112019285Y-83827142D01*
%TO.C,U5*%
X114938095Y-104402380D02*
X114938095Y-105211904D01*
X114985714Y-105307142D01*
X115033333Y-105354761D01*
X115128571Y-105402380D01*
X115319047Y-105402380D01*
X115414285Y-105354761D01*
X115461904Y-105307142D01*
X115509523Y-105211904D01*
X115509523Y-104402380D01*
X116461904Y-104402380D02*
X115985714Y-104402380D01*
X115938095Y-104878571D01*
X115985714Y-104830952D01*
X116080952Y-104783333D01*
X116319047Y-104783333D01*
X116414285Y-104830952D01*
X116461904Y-104878571D01*
X116509523Y-104973809D01*
X116509523Y-105211904D01*
X116461904Y-105307142D01*
X116414285Y-105354761D01*
X116319047Y-105402380D01*
X116080952Y-105402380D01*
X115985714Y-105354761D01*
X115938095Y-105307142D01*
%TO.C,C9*%
X132263333Y-107547142D02*
X132215714Y-107594761D01*
X132072857Y-107642380D01*
X131977619Y-107642380D01*
X131834761Y-107594761D01*
X131739523Y-107499523D01*
X131691904Y-107404285D01*
X131644285Y-107213809D01*
X131644285Y-107070952D01*
X131691904Y-106880476D01*
X131739523Y-106785238D01*
X131834761Y-106690000D01*
X131977619Y-106642380D01*
X132072857Y-106642380D01*
X132215714Y-106690000D01*
X132263333Y-106737619D01*
X132739523Y-107642380D02*
X132930000Y-107642380D01*
X133025238Y-107594761D01*
X133072857Y-107547142D01*
X133168095Y-107404285D01*
X133215714Y-107213809D01*
X133215714Y-106832857D01*
X133168095Y-106737619D01*
X133120476Y-106690000D01*
X133025238Y-106642380D01*
X132834761Y-106642380D01*
X132739523Y-106690000D01*
X132691904Y-106737619D01*
X132644285Y-106832857D01*
X132644285Y-107070952D01*
X132691904Y-107166190D01*
X132739523Y-107213809D01*
X132834761Y-107261428D01*
X133025238Y-107261428D01*
X133120476Y-107213809D01*
X133168095Y-107166190D01*
X133215714Y-107070952D01*
%TO.C,C2*%
X110662142Y-108696666D02*
X110709761Y-108744285D01*
X110757380Y-108887142D01*
X110757380Y-108982380D01*
X110709761Y-109125238D01*
X110614523Y-109220476D01*
X110519285Y-109268095D01*
X110328809Y-109315714D01*
X110185952Y-109315714D01*
X109995476Y-109268095D01*
X109900238Y-109220476D01*
X109805000Y-109125238D01*
X109757380Y-108982380D01*
X109757380Y-108887142D01*
X109805000Y-108744285D01*
X109852619Y-108696666D01*
X109852619Y-108315714D02*
X109805000Y-108268095D01*
X109757380Y-108172857D01*
X109757380Y-107934761D01*
X109805000Y-107839523D01*
X109852619Y-107791904D01*
X109947857Y-107744285D01*
X110043095Y-107744285D01*
X110185952Y-107791904D01*
X110757380Y-108363333D01*
X110757380Y-107744285D01*
%TO.C,R5*%
X131413333Y-98462380D02*
X131080000Y-97986190D01*
X130841904Y-98462380D02*
X130841904Y-97462380D01*
X131222857Y-97462380D01*
X131318095Y-97510000D01*
X131365714Y-97557619D01*
X131413333Y-97652857D01*
X131413333Y-97795714D01*
X131365714Y-97890952D01*
X131318095Y-97938571D01*
X131222857Y-97986190D01*
X130841904Y-97986190D01*
X132318095Y-97462380D02*
X131841904Y-97462380D01*
X131794285Y-97938571D01*
X131841904Y-97890952D01*
X131937142Y-97843333D01*
X132175238Y-97843333D01*
X132270476Y-97890952D01*
X132318095Y-97938571D01*
X132365714Y-98033809D01*
X132365714Y-98271904D01*
X132318095Y-98367142D01*
X132270476Y-98414761D01*
X132175238Y-98462380D01*
X131937142Y-98462380D01*
X131841904Y-98414761D01*
X131794285Y-98367142D01*
%TO.C,C3*%
X106144166Y-86537808D02*
X106096547Y-86585427D01*
X105953690Y-86633046D01*
X105858452Y-86633046D01*
X105715594Y-86585427D01*
X105620356Y-86490189D01*
X105572737Y-86394951D01*
X105525118Y-86204475D01*
X105525118Y-86061618D01*
X105572737Y-85871142D01*
X105620356Y-85775904D01*
X105715594Y-85680666D01*
X105858452Y-85633046D01*
X105953690Y-85633046D01*
X106096547Y-85680666D01*
X106144166Y-85728285D01*
X106477499Y-85633046D02*
X107096547Y-85633046D01*
X106763213Y-86013999D01*
X106906071Y-86013999D01*
X107001309Y-86061618D01*
X107048928Y-86109237D01*
X107096547Y-86204475D01*
X107096547Y-86442570D01*
X107048928Y-86537808D01*
X107001309Y-86585427D01*
X106906071Y-86633046D01*
X106620356Y-86633046D01*
X106525118Y-86585427D01*
X106477499Y-86537808D01*
%TO.C,C7*%
X106213333Y-83837142D02*
X106165714Y-83884761D01*
X106022857Y-83932380D01*
X105927619Y-83932380D01*
X105784761Y-83884761D01*
X105689523Y-83789523D01*
X105641904Y-83694285D01*
X105594285Y-83503809D01*
X105594285Y-83360952D01*
X105641904Y-83170476D01*
X105689523Y-83075238D01*
X105784761Y-82980000D01*
X105927619Y-82932380D01*
X106022857Y-82932380D01*
X106165714Y-82980000D01*
X106213333Y-83027619D01*
X106546666Y-82932380D02*
X107213333Y-82932380D01*
X106784761Y-83932380D01*
%TO.C,C6*%
X112562142Y-108696666D02*
X112609761Y-108744285D01*
X112657380Y-108887142D01*
X112657380Y-108982380D01*
X112609761Y-109125238D01*
X112514523Y-109220476D01*
X112419285Y-109268095D01*
X112228809Y-109315714D01*
X112085952Y-109315714D01*
X111895476Y-109268095D01*
X111800238Y-109220476D01*
X111705000Y-109125238D01*
X111657380Y-108982380D01*
X111657380Y-108887142D01*
X111705000Y-108744285D01*
X111752619Y-108696666D01*
X111657380Y-107839523D02*
X111657380Y-108030000D01*
X111705000Y-108125238D01*
X111752619Y-108172857D01*
X111895476Y-108268095D01*
X112085952Y-108315714D01*
X112466904Y-108315714D01*
X112562142Y-108268095D01*
X112609761Y-108220476D01*
X112657380Y-108125238D01*
X112657380Y-107934761D01*
X112609761Y-107839523D01*
X112562142Y-107791904D01*
X112466904Y-107744285D01*
X112228809Y-107744285D01*
X112133571Y-107791904D01*
X112085952Y-107839523D01*
X112038333Y-107934761D01*
X112038333Y-108125238D01*
X112085952Y-108220476D01*
X112133571Y-108268095D01*
X112228809Y-108315714D01*
%TO.C,R8*%
X117621380Y-95581666D02*
X117145190Y-95915000D01*
X117621380Y-96153095D02*
X116621380Y-96153095D01*
X116621380Y-95772142D01*
X116669000Y-95676904D01*
X116716619Y-95629285D01*
X116811857Y-95581666D01*
X116954714Y-95581666D01*
X117049952Y-95629285D01*
X117097571Y-95676904D01*
X117145190Y-95772142D01*
X117145190Y-96153095D01*
X117049952Y-95010238D02*
X117002333Y-95105476D01*
X116954714Y-95153095D01*
X116859476Y-95200714D01*
X116811857Y-95200714D01*
X116716619Y-95153095D01*
X116669000Y-95105476D01*
X116621380Y-95010238D01*
X116621380Y-94819761D01*
X116669000Y-94724523D01*
X116716619Y-94676904D01*
X116811857Y-94629285D01*
X116859476Y-94629285D01*
X116954714Y-94676904D01*
X117002333Y-94724523D01*
X117049952Y-94819761D01*
X117049952Y-95010238D01*
X117097571Y-95105476D01*
X117145190Y-95153095D01*
X117240428Y-95200714D01*
X117430904Y-95200714D01*
X117526142Y-95153095D01*
X117573761Y-95105476D01*
X117621380Y-95010238D01*
X117621380Y-94819761D01*
X117573761Y-94724523D01*
X117526142Y-94676904D01*
X117430904Y-94629285D01*
X117240428Y-94629285D01*
X117145190Y-94676904D01*
X117097571Y-94724523D01*
X117049952Y-94819761D01*
%TO.C,U1*%
X144038095Y-92252380D02*
X144038095Y-93061904D01*
X144085714Y-93157142D01*
X144133333Y-93204761D01*
X144228571Y-93252380D01*
X144419047Y-93252380D01*
X144514285Y-93204761D01*
X144561904Y-93157142D01*
X144609523Y-93061904D01*
X144609523Y-92252380D01*
X145609523Y-93252380D02*
X145038095Y-93252380D01*
X145323809Y-93252380D02*
X145323809Y-92252380D01*
X145228571Y-92395238D01*
X145133333Y-92490476D01*
X145038095Y-92538095D01*
%TO.C,Q1*%
X128954761Y-90087619D02*
X128859523Y-90040000D01*
X128764285Y-89944761D01*
X128621428Y-89801904D01*
X128526190Y-89754285D01*
X128430952Y-89754285D01*
X128478571Y-89992380D02*
X128383333Y-89944761D01*
X128288095Y-89849523D01*
X128240476Y-89659047D01*
X128240476Y-89325714D01*
X128288095Y-89135238D01*
X128383333Y-89040000D01*
X128478571Y-88992380D01*
X128669047Y-88992380D01*
X128764285Y-89040000D01*
X128859523Y-89135238D01*
X128907142Y-89325714D01*
X128907142Y-89659047D01*
X128859523Y-89849523D01*
X128764285Y-89944761D01*
X128669047Y-89992380D01*
X128478571Y-89992380D01*
X129859523Y-89992380D02*
X129288095Y-89992380D01*
X129573809Y-89992380D02*
X129573809Y-88992380D01*
X129478571Y-89135238D01*
X129383333Y-89230476D01*
X129288095Y-89278095D01*
%TO.C,C10*%
X123064142Y-95532857D02*
X123111761Y-95580476D01*
X123159380Y-95723333D01*
X123159380Y-95818571D01*
X123111761Y-95961428D01*
X123016523Y-96056666D01*
X122921285Y-96104285D01*
X122730809Y-96151904D01*
X122587952Y-96151904D01*
X122397476Y-96104285D01*
X122302238Y-96056666D01*
X122207000Y-95961428D01*
X122159380Y-95818571D01*
X122159380Y-95723333D01*
X122207000Y-95580476D01*
X122254619Y-95532857D01*
X123159380Y-94580476D02*
X123159380Y-95151904D01*
X123159380Y-94866190D02*
X122159380Y-94866190D01*
X122302238Y-94961428D01*
X122397476Y-95056666D01*
X122445095Y-95151904D01*
X122159380Y-93961428D02*
X122159380Y-93866190D01*
X122207000Y-93770952D01*
X122254619Y-93723333D01*
X122349857Y-93675714D01*
X122540333Y-93628095D01*
X122778428Y-93628095D01*
X122968904Y-93675714D01*
X123064142Y-93723333D01*
X123111761Y-93770952D01*
X123159380Y-93866190D01*
X123159380Y-93961428D01*
X123111761Y-94056666D01*
X123064142Y-94104285D01*
X122968904Y-94151904D01*
X122778428Y-94199523D01*
X122540333Y-94199523D01*
X122349857Y-94151904D01*
X122254619Y-94104285D01*
X122207000Y-94056666D01*
X122159380Y-93961428D01*
%TO.C,C4*%
X106133333Y-89057142D02*
X106085714Y-89104761D01*
X105942857Y-89152380D01*
X105847619Y-89152380D01*
X105704761Y-89104761D01*
X105609523Y-89009523D01*
X105561904Y-88914285D01*
X105514285Y-88723809D01*
X105514285Y-88580952D01*
X105561904Y-88390476D01*
X105609523Y-88295238D01*
X105704761Y-88200000D01*
X105847619Y-88152380D01*
X105942857Y-88152380D01*
X106085714Y-88200000D01*
X106133333Y-88247619D01*
X106990476Y-88485714D02*
X106990476Y-89152380D01*
X106752380Y-88104761D02*
X106514285Y-88819047D01*
X107133333Y-88819047D01*
%TO.C,R10*%
X125447142Y-123342380D02*
X125113809Y-122866190D01*
X124875714Y-123342380D02*
X124875714Y-122342380D01*
X125256666Y-122342380D01*
X125351904Y-122390000D01*
X125399523Y-122437619D01*
X125447142Y-122532857D01*
X125447142Y-122675714D01*
X125399523Y-122770952D01*
X125351904Y-122818571D01*
X125256666Y-122866190D01*
X124875714Y-122866190D01*
X126399523Y-123342380D02*
X125828095Y-123342380D01*
X126113809Y-123342380D02*
X126113809Y-122342380D01*
X126018571Y-122485238D01*
X125923333Y-122580476D01*
X125828095Y-122628095D01*
X127018571Y-122342380D02*
X127113809Y-122342380D01*
X127209047Y-122390000D01*
X127256666Y-122437619D01*
X127304285Y-122532857D01*
X127351904Y-122723333D01*
X127351904Y-122961428D01*
X127304285Y-123151904D01*
X127256666Y-123247142D01*
X127209047Y-123294761D01*
X127113809Y-123342380D01*
X127018571Y-123342380D01*
X126923333Y-123294761D01*
X126875714Y-123247142D01*
X126828095Y-123151904D01*
X126780476Y-122961428D01*
X126780476Y-122723333D01*
X126828095Y-122532857D01*
X126875714Y-122437619D01*
X126923333Y-122390000D01*
X127018571Y-122342380D01*
%TO.C,R2*%
X119223333Y-111722380D02*
X118890000Y-111246190D01*
X118651904Y-111722380D02*
X118651904Y-110722380D01*
X119032857Y-110722380D01*
X119128095Y-110770000D01*
X119175714Y-110817619D01*
X119223333Y-110912857D01*
X119223333Y-111055714D01*
X119175714Y-111150952D01*
X119128095Y-111198571D01*
X119032857Y-111246190D01*
X118651904Y-111246190D01*
X119604285Y-110817619D02*
X119651904Y-110770000D01*
X119747142Y-110722380D01*
X119985238Y-110722380D01*
X120080476Y-110770000D01*
X120128095Y-110817619D01*
X120175714Y-110912857D01*
X120175714Y-111008095D01*
X120128095Y-111150952D01*
X119556666Y-111722380D01*
X120175714Y-111722380D01*
%TO.C,R7*%
X118653333Y-92322380D02*
X118320000Y-91846190D01*
X118081904Y-92322380D02*
X118081904Y-91322380D01*
X118462857Y-91322380D01*
X118558095Y-91370000D01*
X118605714Y-91417619D01*
X118653333Y-91512857D01*
X118653333Y-91655714D01*
X118605714Y-91750952D01*
X118558095Y-91798571D01*
X118462857Y-91846190D01*
X118081904Y-91846190D01*
X118986666Y-91322380D02*
X119653333Y-91322380D01*
X119224761Y-92322380D01*
%TO.C,U3*%
X112440476Y-104711904D02*
X112440476Y-105359523D01*
X112478571Y-105435714D01*
X112516666Y-105473809D01*
X112592857Y-105511904D01*
X112745238Y-105511904D01*
X112821428Y-105473809D01*
X112859523Y-105435714D01*
X112897619Y-105359523D01*
X112897619Y-104711904D01*
X113202380Y-104711904D02*
X113697619Y-104711904D01*
X113430952Y-105016666D01*
X113545238Y-105016666D01*
X113621428Y-105054761D01*
X113659523Y-105092857D01*
X113697619Y-105169047D01*
X113697619Y-105359523D01*
X113659523Y-105435714D01*
X113621428Y-105473809D01*
X113545238Y-105511904D01*
X113316666Y-105511904D01*
X113240476Y-105473809D01*
X113202380Y-105435714D01*
%TO.C,C11*%
X120847142Y-95507857D02*
X120894761Y-95555476D01*
X120942380Y-95698333D01*
X120942380Y-95793571D01*
X120894761Y-95936428D01*
X120799523Y-96031666D01*
X120704285Y-96079285D01*
X120513809Y-96126904D01*
X120370952Y-96126904D01*
X120180476Y-96079285D01*
X120085238Y-96031666D01*
X119990000Y-95936428D01*
X119942380Y-95793571D01*
X119942380Y-95698333D01*
X119990000Y-95555476D01*
X120037619Y-95507857D01*
X120942380Y-94555476D02*
X120942380Y-95126904D01*
X120942380Y-94841190D02*
X119942380Y-94841190D01*
X120085238Y-94936428D01*
X120180476Y-95031666D01*
X120228095Y-95126904D01*
X120942380Y-93603095D02*
X120942380Y-94174523D01*
X120942380Y-93888809D02*
X119942380Y-93888809D01*
X120085238Y-93984047D01*
X120180476Y-94079285D01*
X120228095Y-94174523D01*
%TO.C,FPC1*%
X136834404Y-90538571D02*
X136501071Y-90538571D01*
X136501071Y-91062380D02*
X136501071Y-90062380D01*
X136977261Y-90062380D01*
X137358214Y-91062380D02*
X137358214Y-90062380D01*
X137739166Y-90062380D01*
X137834404Y-90110000D01*
X137882023Y-90157619D01*
X137929642Y-90252857D01*
X137929642Y-90395714D01*
X137882023Y-90490952D01*
X137834404Y-90538571D01*
X137739166Y-90586190D01*
X137358214Y-90586190D01*
X138929642Y-90967142D02*
X138882023Y-91014761D01*
X138739166Y-91062380D01*
X138643928Y-91062380D01*
X138501071Y-91014761D01*
X138405833Y-90919523D01*
X138358214Y-90824285D01*
X138310595Y-90633809D01*
X138310595Y-90490952D01*
X138358214Y-90300476D01*
X138405833Y-90205238D01*
X138501071Y-90110000D01*
X138643928Y-90062380D01*
X138739166Y-90062380D01*
X138882023Y-90110000D01*
X138929642Y-90157619D01*
X139882023Y-91062380D02*
X139310595Y-91062380D01*
X139596309Y-91062380D02*
X139596309Y-90062380D01*
X139501071Y-90205238D01*
X139405833Y-90300476D01*
X139310595Y-90348095D01*
%TO.C,U2*%
X113518095Y-89592380D02*
X113518095Y-90401904D01*
X113565714Y-90497142D01*
X113613333Y-90544761D01*
X113708571Y-90592380D01*
X113899047Y-90592380D01*
X113994285Y-90544761D01*
X114041904Y-90497142D01*
X114089523Y-90401904D01*
X114089523Y-89592380D01*
X114518095Y-89687619D02*
X114565714Y-89640000D01*
X114660952Y-89592380D01*
X114899047Y-89592380D01*
X114994285Y-89640000D01*
X115041904Y-89687619D01*
X115089523Y-89782857D01*
X115089523Y-89878095D01*
X115041904Y-90020952D01*
X114470476Y-90592380D01*
X115089523Y-90592380D01*
%TO.C,U7*%
X124938095Y-89302380D02*
X124938095Y-90111904D01*
X124985714Y-90207142D01*
X125033333Y-90254761D01*
X125128571Y-90302380D01*
X125319047Y-90302380D01*
X125414285Y-90254761D01*
X125461904Y-90207142D01*
X125509523Y-90111904D01*
X125509523Y-89302380D01*
X125890476Y-89302380D02*
X126557142Y-89302380D01*
X126128571Y-90302380D01*
%TO.C,USB1*%
X106892380Y-99341785D02*
X107701904Y-99341785D01*
X107797142Y-99294166D01*
X107844761Y-99246547D01*
X107892380Y-99151309D01*
X107892380Y-98960833D01*
X107844761Y-98865595D01*
X107797142Y-98817976D01*
X107701904Y-98770357D01*
X106892380Y-98770357D01*
X107844761Y-98341785D02*
X107892380Y-98198928D01*
X107892380Y-97960833D01*
X107844761Y-97865595D01*
X107797142Y-97817976D01*
X107701904Y-97770357D01*
X107606666Y-97770357D01*
X107511428Y-97817976D01*
X107463809Y-97865595D01*
X107416190Y-97960833D01*
X107368571Y-98151309D01*
X107320952Y-98246547D01*
X107273333Y-98294166D01*
X107178095Y-98341785D01*
X107082857Y-98341785D01*
X106987619Y-98294166D01*
X106940000Y-98246547D01*
X106892380Y-98151309D01*
X106892380Y-97913214D01*
X106940000Y-97770357D01*
X107368571Y-97008452D02*
X107416190Y-96865595D01*
X107463809Y-96817976D01*
X107559047Y-96770357D01*
X107701904Y-96770357D01*
X107797142Y-96817976D01*
X107844761Y-96865595D01*
X107892380Y-96960833D01*
X107892380Y-97341785D01*
X106892380Y-97341785D01*
X106892380Y-97008452D01*
X106940000Y-96913214D01*
X106987619Y-96865595D01*
X107082857Y-96817976D01*
X107178095Y-96817976D01*
X107273333Y-96865595D01*
X107320952Y-96913214D01*
X107368571Y-97008452D01*
X107368571Y-97341785D01*
X107892380Y-95817976D02*
X107892380Y-96389404D01*
X107892380Y-96103690D02*
X106892380Y-96103690D01*
X107035238Y-96198928D01*
X107130476Y-96294166D01*
X107178095Y-96389404D01*
D13*
%TO.C,R3*%
X127662742Y-82877500D02*
X128137258Y-82877500D01*
X127662742Y-83922500D02*
X128137258Y-83922500D01*
D14*
%TO.C,U4*%
X127628750Y-104089000D02*
G75*
G03*
X127628750Y-104089000I-100000J0D01*
G01*
D15*
X130408750Y-103789000D02*
X128848750Y-103789000D01*
X128848750Y-105389000D02*
X130408750Y-105389000D01*
D13*
%TO.C,R11*%
X125872742Y-118912500D02*
X126347258Y-118912500D01*
X125872742Y-117867500D02*
X126347258Y-117867500D01*
%TO.C,C8*%
X121090000Y-110859420D02*
X121090000Y-111140580D01*
X122110000Y-110859420D02*
X122110000Y-111140580D01*
%TO.C,C1*%
X108815000Y-110866920D02*
X108815000Y-111148080D01*
X107795000Y-110866920D02*
X107795000Y-111148080D01*
%TO.C,R6*%
X122137258Y-83872500D02*
X121662742Y-83872500D01*
X122137258Y-82827500D02*
X121662742Y-82827500D01*
%TO.C,R9*%
X125852742Y-116132500D02*
X126327258Y-116132500D01*
X125852742Y-115087500D02*
X126327258Y-115087500D01*
D16*
%TO.C,U6*%
X143222000Y-116742000D02*
X143222000Y-117758000D01*
X143984000Y-116742000D02*
X143222000Y-116742000D01*
X143984000Y-116930000D02*
X143984000Y-116742000D01*
X143222000Y-117758000D02*
X143984000Y-117758000D01*
X142300000Y-118630000D02*
X147700000Y-118630000D01*
X142300000Y-115870000D02*
X147700000Y-115870000D01*
X143984000Y-117758000D02*
X143984000Y-116930000D01*
%TO.C,Card1*%
X107789000Y-114347000D02*
X107789000Y-129079000D01*
X110837000Y-114347000D02*
X107789000Y-114347000D01*
D17*
X122326000Y-124499000D02*
X122327000Y-127598000D01*
D16*
X113492000Y-129079000D02*
X120680000Y-129079000D01*
X120759000Y-114347000D02*
X113382000Y-114366000D01*
X107789000Y-129079000D02*
X110687000Y-129079000D01*
D13*
%TO.C,R1*%
X129847258Y-101527500D02*
X129372742Y-101527500D01*
X129847258Y-102572500D02*
X129372742Y-102572500D01*
%TO.C,Q2*%
X131340000Y-86800000D02*
X131340000Y-86150000D01*
X131340000Y-86800000D02*
X131340000Y-87450000D01*
X134460000Y-86800000D02*
X134460000Y-87450000D01*
X134460000Y-86800000D02*
X134460000Y-85125000D01*
%TO.C,R4*%
X132662742Y-82877500D02*
X133137258Y-82877500D01*
X132662742Y-83922500D02*
X133137258Y-83922500D01*
%TO.C,*%
G36*
X137217651Y-120853510D02*
G01*
X137930327Y-120862837D01*
X138479215Y-120895475D01*
X138900908Y-120961895D01*
X139231996Y-121072565D01*
X139509072Y-121237957D01*
X139768727Y-121468541D01*
X139916206Y-121625652D01*
X140291871Y-122177532D01*
X140476033Y-122775076D01*
X140466704Y-123397607D01*
X140261894Y-124024446D01*
X140164419Y-124206186D01*
X139756002Y-124717455D01*
X139220246Y-125073855D01*
X138607136Y-125266980D01*
X138317315Y-125300329D01*
X137868481Y-125325804D01*
X137301467Y-125343460D01*
X136657105Y-125353352D01*
X135976230Y-125355535D01*
X135299674Y-125350063D01*
X134668269Y-125336992D01*
X134122850Y-125316375D01*
X133704249Y-125288267D01*
X133486519Y-125260113D01*
X132879013Y-125047699D01*
X132366848Y-124684672D01*
X131978856Y-124202268D01*
X131743868Y-123631722D01*
X131692172Y-123316196D01*
X131722342Y-122626398D01*
X131929510Y-122025296D01*
X132307012Y-121524901D01*
X132848183Y-121137225D01*
X132921728Y-121099865D01*
X133266348Y-120952059D01*
X133580763Y-120879962D01*
X133960975Y-120865602D01*
X134141545Y-120871496D01*
X134833264Y-120901502D01*
X134833264Y-121704664D01*
X134080299Y-121755714D01*
X133679876Y-121797549D01*
X133333626Y-121859679D01*
X133112145Y-121929202D01*
X133102485Y-121934382D01*
X132814732Y-122204158D01*
X132629716Y-122592891D01*
X132557234Y-123041551D01*
X132607086Y-123491107D01*
X132780966Y-123871314D01*
X133006637Y-124122239D01*
X133290203Y-124295372D01*
X133668903Y-124402369D01*
X134179977Y-124454886D01*
X134679446Y-124465534D01*
X135686623Y-124465534D01*
X136489785Y-124465534D01*
X137503664Y-124465534D01*
X138076539Y-124452404D01*
X138491621Y-124409621D01*
X138790399Y-124332097D01*
X138870853Y-124297877D01*
X139266935Y-124007124D01*
X139512661Y-123587678D01*
X139601461Y-123051001D01*
X139601663Y-123023090D01*
X139584223Y-122713832D01*
X139505424Y-122489293D01*
X139326426Y-122261855D01*
X139212269Y-122144632D01*
X138822499Y-121754862D01*
X136489785Y-121754862D01*
X136489785Y-122658419D01*
X138308445Y-122658419D01*
X138277574Y-123085099D01*
X138246702Y-123511779D01*
X137368244Y-123540786D01*
X136489785Y-123569794D01*
X136489785Y-124465534D01*
X135686623Y-124465534D01*
X135686623Y-123561977D01*
X133879509Y-123561977D01*
X133879509Y-122658419D01*
X135686623Y-122658419D01*
X135686623Y-120851305D01*
X137217651Y-120853510D01*
G37*
%TO.C,R12*%
X125872742Y-123777500D02*
X126347258Y-123777500D01*
X125872742Y-124822500D02*
X126347258Y-124822500D01*
D18*
%TO.C,Q3*%
X127314000Y-94976000D02*
X127314000Y-93224000D01*
X127314000Y-93224000D02*
X128355000Y-93224000D01*
X129305000Y-94976000D02*
X128395000Y-94976000D01*
X130386000Y-94976000D02*
X130386000Y-93224000D01*
X130386000Y-93224000D02*
X129345000Y-93224000D01*
D13*
%TO.C,C5*%
X114435580Y-82860000D02*
X114154420Y-82860000D01*
X114435580Y-83880000D02*
X114154420Y-83880000D01*
D14*
%TO.C,U5*%
X124990000Y-107385000D02*
G75*
G03*
X124990000Y-107385000I-100000J0D01*
G01*
D15*
X117190000Y-101340000D02*
X117190000Y-101085000D01*
X117190000Y-107830000D02*
X117190000Y-108085000D01*
X124190000Y-101340000D02*
X124190000Y-101085000D01*
X124190000Y-107830000D02*
X124190000Y-108085000D01*
X117190000Y-108085000D02*
X117445000Y-108085000D01*
X124190000Y-101085000D02*
X123935000Y-101085000D01*
X124190000Y-108085000D02*
X123935000Y-108085000D01*
X117190000Y-101085000D02*
X117445000Y-101085000D01*
D13*
%TO.C,C9*%
X129444420Y-106540000D02*
X129725580Y-106540000D01*
X129444420Y-107560000D02*
X129725580Y-107560000D01*
%TO.C,C2*%
X109795000Y-111170580D02*
X109795000Y-110889420D01*
X110815000Y-111170580D02*
X110815000Y-110889420D01*
%TO.C,R5*%
X129118508Y-97414500D02*
X128643992Y-97414500D01*
X129118508Y-98459500D02*
X128643992Y-98459500D01*
%TO.C,C3*%
X108940580Y-85610000D02*
X108659420Y-85610000D01*
X108940580Y-86630000D02*
X108659420Y-86630000D01*
%TO.C,C7*%
X109000580Y-83880000D02*
X108719420Y-83880000D01*
X109000580Y-82860000D02*
X108719420Y-82860000D01*
%TO.C,C6*%
X112705000Y-111170580D02*
X112705000Y-110889420D01*
X111685000Y-111170580D02*
X111685000Y-110889420D01*
%TO.C,R8*%
X116571500Y-98027258D02*
X116571500Y-97552742D01*
X117616500Y-98027258D02*
X117616500Y-97552742D01*
D14*
%TO.C,U1*%
X142950000Y-101170000D02*
G75*
G03*
X142950000Y-101170000I-100000J0D01*
G01*
D15*
X147300000Y-94700000D02*
X147300000Y-99700000D01*
X142300000Y-94700000D02*
X142300000Y-99700000D01*
D13*
%TO.C,Q1*%
X126440000Y-86800000D02*
X126440000Y-87450000D01*
X129560000Y-86800000D02*
X129560000Y-87450000D01*
X126440000Y-86800000D02*
X126440000Y-86150000D01*
X129560000Y-86800000D02*
X129560000Y-85125000D01*
%TO.C,C10*%
X122172000Y-97930580D02*
X122172000Y-97649420D01*
X123192000Y-97930580D02*
X123192000Y-97649420D01*
%TO.C,C4*%
X108940580Y-88170000D02*
X108659420Y-88170000D01*
X108940580Y-89190000D02*
X108659420Y-89190000D01*
%TO.C,R10*%
X125872742Y-120857500D02*
X126347258Y-120857500D01*
X125872742Y-121902500D02*
X126347258Y-121902500D01*
%TO.C,R2*%
X118244500Y-111237258D02*
X118244500Y-110762742D01*
X117199500Y-111237258D02*
X117199500Y-110762742D01*
%TO.C,R7*%
X121350242Y-91277500D02*
X121824758Y-91277500D01*
X121350242Y-92322500D02*
X121824758Y-92322500D01*
D14*
%TO.C,U3*%
X111470000Y-102890000D02*
G75*
G03*
X111470000Y-102890000I-100000J0D01*
G01*
D15*
X108870000Y-105630000D02*
X108870000Y-104970000D01*
X110655000Y-106100000D02*
X109985000Y-106100000D01*
X111770000Y-104970000D02*
X111770000Y-105630000D01*
D13*
%TO.C,C11*%
X119940000Y-97900580D02*
X119940000Y-97619420D01*
X120960000Y-97900580D02*
X120960000Y-97619420D01*
D16*
%TO.C,FPC1*%
X139853500Y-93973000D02*
G75*
G03*
X139853500Y-93973000I-127000J0D01*
G01*
X133938500Y-92100000D02*
X133938500Y-102500000D01*
X138269500Y-92100000D02*
X139075500Y-92100000D01*
X138269500Y-102500000D02*
X139091500Y-102500000D01*
X133938500Y-92100000D02*
X135082500Y-92100000D01*
X139075500Y-92100000D02*
X139075500Y-94169000D01*
X139091500Y-102500000D02*
X139091500Y-100431000D01*
X133938500Y-102500000D02*
X135082500Y-102500000D01*
D14*
%TO.C,U2*%
X116150000Y-83750000D02*
G75*
G03*
X116150000Y-83750000I-100000J0D01*
G01*
D15*
X116300000Y-88488500D02*
X116300000Y-88750000D01*
X112300000Y-84750000D02*
X112561500Y-84750000D01*
X116038500Y-84750000D02*
X116300000Y-84750000D01*
X112561500Y-88750000D02*
X112300000Y-88750000D01*
X116300000Y-84750000D02*
X116300000Y-85011500D01*
X112300000Y-85011500D02*
X112300000Y-84750000D01*
X112300000Y-88750000D02*
X112300000Y-88488500D01*
X116300000Y-88750000D02*
X116038500Y-88750000D01*
D14*
%TO.C,U7*%
X118237500Y-85950000D02*
G75*
G03*
X118237500Y-85950000I-100000J0D01*
G01*
D15*
X124087500Y-85000000D02*
X124087500Y-85550000D01*
X119087500Y-85000000D02*
X119087500Y-85550000D01*
X124087500Y-89600000D02*
X124087500Y-90000000D01*
X119087500Y-89500000D02*
X119087500Y-90000000D01*
X119087500Y-90000000D02*
X119637500Y-90000000D01*
X124087500Y-90000000D02*
X123587500Y-90000000D01*
X123587500Y-85000000D02*
X124087500Y-85000000D01*
X119587500Y-85000000D02*
X119087500Y-85000000D01*
D16*
%TO.C,USB1*%
X108236000Y-101850000D02*
X109981000Y-101850000D01*
X108236000Y-93050000D02*
X109981000Y-93050000D01*
X104459000Y-93050000D02*
X105881000Y-93050000D01*
X104459000Y-101850000D02*
X105881000Y-101850000D01*
X104459000Y-93050000D02*
X104459000Y-101850000D01*
%TD*%
%LPC*%
D19*
X133018460Y-113714472D02*
G75*
G03*
X141554000Y-117249999I8535540J8535572D01*
G01*
X127553208Y-108249218D02*
G75*
G03*
X124139000Y-106834999I-3414208J-3414182D01*
G01*
X141554000Y-117249999D02*
X142500000Y-117250000D01*
X133018466Y-113714466D02*
X127553213Y-108249213D01*
D20*
%TO.C,R3*%
X128725000Y-83400000D03*
X127075000Y-83400000D03*
%TD*%
D21*
%TO.C,U4*%
X131003750Y-104089000D03*
X131003750Y-104589000D03*
X131003750Y-105089000D03*
X128253750Y-105089000D03*
X128253750Y-104589000D03*
X128253750Y-104089000D03*
%TD*%
D20*
%TO.C,R11*%
X126935000Y-118390000D03*
X125285000Y-118390000D03*
%TD*%
D22*
%TO.C,C8*%
X121600000Y-111775000D03*
X121600000Y-110225000D03*
%TD*%
%TO.C,C1*%
X108305000Y-111782500D03*
X108305000Y-110232500D03*
%TD*%
D23*
%TO.C,R6*%
X121075000Y-83350000D03*
X122725000Y-83350000D03*
%TD*%
D20*
%TO.C,R9*%
X126915000Y-115610000D03*
X125265000Y-115610000D03*
%TD*%
D24*
%TO.C,U6*%
X147500000Y-117250000D03*
X142500000Y-117250000D03*
%TD*%
D25*
%TO.C,Card1*%
X121700000Y-128614000D03*
D26*
X112100000Y-129514000D03*
X112100000Y-114014000D03*
D27*
X121700000Y-114006000D03*
D28*
X122700000Y-115206000D03*
X122700000Y-116306000D03*
X122700000Y-117406000D03*
X122700000Y-118505000D03*
X122700000Y-119606000D03*
X122700000Y-120705000D03*
X122700000Y-121806000D03*
X122700000Y-122905000D03*
X122700000Y-124005000D03*
D29*
X111700000Y-124814000D03*
X111700000Y-116814000D03*
%TD*%
D23*
%TO.C,R1*%
X128785000Y-102050000D03*
X130435000Y-102050000D03*
%TD*%
D30*
%TO.C,Q2*%
X132900000Y-87737500D03*
X131950000Y-85862500D03*
X133850000Y-85862500D03*
%TD*%
D20*
%TO.C,R4*%
X133725000Y-83400000D03*
X132075000Y-83400000D03*
%TD*%
%TO.C,R12*%
X126935000Y-124300000D03*
X125285000Y-124300000D03*
%TD*%
D31*
%TO.C,Q3*%
X128850000Y-92965000D03*
X129800000Y-95235000D03*
X127900000Y-95235000D03*
%TD*%
D32*
%TO.C,C5*%
X113520000Y-83370000D03*
X115070000Y-83370000D03*
%TD*%
D33*
%TO.C,U5*%
X120690000Y-104585000D03*
D34*
X123440000Y-107850000D03*
X122940000Y-107850000D03*
X122440000Y-107850000D03*
X121940000Y-107850000D03*
X121440000Y-107850000D03*
X120940000Y-107850000D03*
X120440000Y-107850000D03*
X119940000Y-107850000D03*
X119440000Y-107850000D03*
X118940000Y-107850000D03*
X118440000Y-107850000D03*
X117940000Y-107850000D03*
D35*
X117425000Y-107335000D03*
X117425000Y-106835000D03*
X117425000Y-106335000D03*
X117425000Y-105835000D03*
X117425000Y-105335000D03*
X117425000Y-104835000D03*
X117425000Y-104335000D03*
X117425000Y-103835000D03*
X117425000Y-103335000D03*
X117425000Y-102835000D03*
X117425000Y-102335000D03*
X117425000Y-101835000D03*
D36*
X117940000Y-101320000D03*
X118440000Y-101320000D03*
X118940000Y-101320000D03*
X119440000Y-101320000D03*
X119940000Y-101320000D03*
X120440000Y-101320000D03*
X120940000Y-101320000D03*
X121440000Y-101320000D03*
X121940000Y-101320000D03*
X122440000Y-101320000D03*
X122940000Y-101320000D03*
X123440000Y-101320000D03*
D37*
X123955000Y-101835000D03*
X123955000Y-102335000D03*
X123955000Y-102835000D03*
X123955000Y-103335000D03*
X123955000Y-103835000D03*
X123955000Y-104335000D03*
X123955000Y-104835000D03*
X123955000Y-105335000D03*
X123955000Y-105835000D03*
X123955000Y-106335000D03*
X123955000Y-106835000D03*
X123955000Y-107335000D03*
%TD*%
D38*
%TO.C,C9*%
X130360000Y-107050000D03*
X128810000Y-107050000D03*
%TD*%
D39*
%TO.C,C2*%
X110305000Y-110255000D03*
X110305000Y-111805000D03*
%TD*%
D23*
%TO.C,R5*%
X128056250Y-97937000D03*
X129706250Y-97937000D03*
%TD*%
D32*
%TO.C,C3*%
X108025000Y-86120000D03*
X109575000Y-86120000D03*
%TD*%
%TO.C,C7*%
X108085000Y-83370000D03*
X109635000Y-83370000D03*
%TD*%
D39*
%TO.C,C6*%
X112195000Y-110255000D03*
X112195000Y-111805000D03*
%TD*%
D40*
%TO.C,R8*%
X117094000Y-96965000D03*
X117094000Y-98615000D03*
%TD*%
D41*
%TO.C,U1*%
X143150000Y-94750000D03*
X146450000Y-94750000D03*
X146450000Y-99650000D03*
X143150000Y-99650000D03*
%TD*%
D30*
%TO.C,Q1*%
X128000000Y-87737500D03*
X127050000Y-85862500D03*
X128950000Y-85862500D03*
%TD*%
D39*
%TO.C,C10*%
X122682000Y-97015000D03*
X122682000Y-98565000D03*
%TD*%
D32*
%TO.C,C4*%
X108025000Y-88680000D03*
X109575000Y-88680000D03*
%TD*%
D20*
%TO.C,R10*%
X126935000Y-121380000D03*
X125285000Y-121380000D03*
%TD*%
D40*
%TO.C,R2*%
X117722000Y-110175000D03*
X117722000Y-111825000D03*
%TD*%
D20*
%TO.C,R7*%
X122412500Y-91800000D03*
X120762500Y-91800000D03*
%TD*%
D42*
%TO.C,U3*%
X111270000Y-106555000D03*
X109370000Y-106555000D03*
X109370000Y-104045000D03*
X110320000Y-104045000D03*
X111270000Y-104045000D03*
%TD*%
D39*
%TO.C,C11*%
X120450000Y-96985000D03*
X120450000Y-98535000D03*
%TD*%
D43*
%TO.C,FPC1*%
X136787500Y-92860000D03*
X136787500Y-101740000D03*
D44*
X139363500Y-100050000D03*
X139363500Y-99550000D03*
X139363500Y-99050000D03*
X139363500Y-98550000D03*
X139363500Y-98050000D03*
X139363500Y-97550000D03*
X139363500Y-97050000D03*
X139363500Y-96550000D03*
X139363500Y-96050000D03*
X139363500Y-95550000D03*
X139363500Y-95050000D03*
X139363500Y-94550000D03*
%TD*%
D45*
%TO.C,U2*%
X114300000Y-86750000D03*
D46*
X116275000Y-85500000D03*
X116275000Y-86000000D03*
X116275000Y-86500000D03*
X116275000Y-87000000D03*
X116275000Y-87500000D03*
X116275000Y-88000000D03*
D47*
X115550000Y-88750000D03*
X115050000Y-88750000D03*
X114550000Y-88750000D03*
X114050000Y-88750000D03*
X113550000Y-88750000D03*
X113050000Y-88750000D03*
D48*
X112325000Y-88000000D03*
X112325000Y-87500000D03*
X112325000Y-87000000D03*
X112325000Y-86500000D03*
X112325000Y-86000000D03*
X112325000Y-85500000D03*
D49*
X113050000Y-84750000D03*
X113550000Y-84750000D03*
X114050000Y-84750000D03*
X114550000Y-84750000D03*
X115050000Y-84750000D03*
X115550000Y-84750000D03*
%TD*%
D50*
%TO.C,U7*%
X121587500Y-87500000D03*
D51*
X120087500Y-85140000D03*
X120587500Y-85140000D03*
X121087500Y-85140000D03*
X121587500Y-85140000D03*
X122087500Y-85140000D03*
X122587500Y-85140000D03*
X123087500Y-85140000D03*
D52*
X123947500Y-86000000D03*
X123947500Y-86500000D03*
X123947500Y-87000000D03*
X123947500Y-87500000D03*
X123947500Y-88000000D03*
X123947500Y-88500000D03*
X123947500Y-89000000D03*
D53*
X123087500Y-89860000D03*
X122587500Y-89860000D03*
X122087500Y-89860000D03*
X121587500Y-89860000D03*
X121087500Y-89860000D03*
X120587500Y-89860000D03*
X120087500Y-89860000D03*
D54*
X119227500Y-89000000D03*
X119227500Y-88500000D03*
X119227500Y-88000000D03*
X119227500Y-87500000D03*
X119227500Y-87000000D03*
X119227500Y-86500000D03*
X119227500Y-86000000D03*
%TD*%
D55*
%TO.C,USB1*%
X112021000Y-95700000D03*
X112021000Y-96700000D03*
X112021000Y-98200000D03*
X112021000Y-99200000D03*
D56*
X112021000Y-99850000D03*
X112021000Y-100650000D03*
D55*
X112021000Y-98700000D03*
X112021000Y-97700000D03*
X112021000Y-97200000D03*
X112021000Y-96200000D03*
D56*
X112021000Y-95050000D03*
X112021000Y-94250000D03*
D57*
X107059000Y-101775000D03*
X107059000Y-93125000D03*
D58*
X111259000Y-101775000D03*
X111259000Y-93125000D03*
D59*
X110759000Y-94560000D03*
X110759000Y-100340000D03*
%TD*%
M02*
