%TF.GenerationSoftware,KiCad,Pcbnew,(6.0.6)*%
%TF.CreationDate,2022-07-19T19:23:43+08:00*%
%TF.ProjectId,Egret,45677265-742e-46b6-9963-61645f706362,rev?*%
%TF.SameCoordinates,Original*%
%TF.FileFunction,Legend,Bot*%
%TF.FilePolarity,Positive*%
%FSLAX46Y46*%
G04 Gerber Fmt 4.6, Leading zero omitted, Abs format (unit mm)*
G04 Created by KiCad (PCBNEW (6.0.6)) date 2022-07-19 19:23:43*
%MOMM*%
%LPD*%
G01*
G04 APERTURE LIST*
%ADD10C,0.100000*%
%ADD11C,0.300000*%
%ADD12C,1.000000*%
%ADD13O,1.900000X1.000000*%
%ADD14O,2.100000X1.000000*%
%ADD15C,0.650000*%
G04 APERTURE END LIST*
D10*
X140914578Y-127899610D02*
X140533625Y-127899610D01*
X141128863Y-127971039D02*
X140938387Y-127971039D01*
X140914578Y-128066277D02*
X140509816Y-128066277D01*
X140866959Y-128161515D02*
X140557435Y-128161515D01*
X140724102Y-128256753D02*
X140557435Y-128256753D01*
X140747911Y-128399610D02*
X140509816Y-128399610D01*
X141105054Y-128399610D02*
X141033625Y-128399610D01*
X141009816Y-127828181D02*
X141009816Y-128399610D01*
X140700292Y-127828181D02*
X140700292Y-128399610D01*
X140866959Y-127971039D02*
X140557435Y-127971039D01*
X140557435Y-128161515D01*
X140866959Y-128232943D02*
X140938387Y-128399610D01*
X140938387Y-128137705D02*
X141128863Y-128161515D01*
X140866959Y-128280562D02*
X140771721Y-128375800D01*
X140605054Y-128399610D01*
X140200292Y-127899610D02*
X139771721Y-127899610D01*
X140152673Y-128113896D02*
X139795530Y-128113896D01*
X140200292Y-128185324D02*
X139771721Y-128185324D01*
X140081244Y-128399610D02*
X139890768Y-128399610D01*
X140271721Y-128042467D02*
X140271721Y-128399610D01*
X140152673Y-127971039D02*
X140152673Y-128113896D01*
X140057435Y-128280562D02*
X140057435Y-128399610D01*
X140033625Y-127971039D02*
X140033625Y-128113896D01*
X139986006Y-127828181D02*
X140009816Y-127971039D01*
X139914578Y-127971039D02*
X139914578Y-128113896D01*
X139890768Y-128328181D02*
X139890768Y-128399610D01*
X140152673Y-127971039D02*
X139795530Y-127971039D01*
X139795530Y-128113896D01*
X139866959Y-128280562D02*
X139771721Y-128375800D01*
X140247911Y-127828181D02*
X140366959Y-127971039D01*
X140247911Y-128018658D02*
X140390768Y-128161515D01*
X140033625Y-128232943D02*
X139938387Y-128256753D01*
X140152673Y-128280562D02*
X140200292Y-128399610D01*
X139319340Y-127828181D02*
X139343149Y-127899610D01*
X139366959Y-127994848D01*
X139366959Y-128232943D01*
X139343149Y-128328181D01*
X139319340Y-128375800D01*
X139128863Y-128185324D02*
X138509816Y-128185324D01*
X139128863Y-127947229D02*
X139128863Y-128232943D01*
X138819340Y-127828181D02*
X138819340Y-128399610D01*
X139128863Y-127947229D02*
X138509816Y-127947229D01*
X138509816Y-128209134D01*
X138271721Y-127971039D02*
X137866959Y-127971039D01*
X138247911Y-128113896D02*
X137890768Y-128113896D01*
X138295530Y-128256753D02*
X137866959Y-128256753D01*
X138390768Y-128375800D02*
X137771721Y-128375800D01*
X138390768Y-127875800D02*
X138390768Y-128399610D01*
X138081244Y-127971039D02*
X138081244Y-128256753D01*
X138390768Y-127875800D02*
X137771721Y-127875800D01*
X137771721Y-128399610D01*
X137986006Y-128161515D02*
X137914578Y-128209134D01*
X137581244Y-127828181D02*
X137533625Y-127899610D01*
X137509816Y-127994848D01*
X137509816Y-128232943D01*
X137533625Y-128328181D01*
X137581244Y-128375800D01*
X136890768Y-127875800D02*
X136581244Y-127875800D01*
X136938387Y-127947229D02*
X136509816Y-127947229D01*
X136890768Y-128042467D02*
X136557435Y-128042467D01*
X136890768Y-128137705D02*
X136557435Y-128137705D01*
X136890768Y-128375800D02*
X136557435Y-128375800D01*
X137009816Y-127947229D02*
X137009816Y-128399610D01*
X136890768Y-128232943D02*
X136890768Y-128399610D01*
X136890768Y-128232943D02*
X136557435Y-128232943D01*
X136557435Y-128399610D01*
X136962197Y-127851991D02*
X137009816Y-127971039D01*
X137128863Y-128090086D01*
X136271721Y-127994848D02*
X135890768Y-127994848D01*
X136271721Y-128090086D02*
X135890768Y-128090086D01*
X136271721Y-128185324D02*
X135890768Y-128185324D01*
X136200292Y-128399610D02*
X135938387Y-128399610D01*
X136271721Y-127899610D02*
X136271721Y-128185324D01*
X136200292Y-128256753D02*
X136200292Y-128399610D01*
X135938387Y-128351991D02*
X135962197Y-128399610D01*
X136271721Y-127899610D02*
X135890768Y-127899610D01*
X135890768Y-128185324D01*
X136105054Y-128232943D02*
X136033625Y-128304372D01*
X135890768Y-128256753D02*
X135771721Y-128375800D01*
X136105054Y-127828181D02*
X136128863Y-127899610D01*
X136319340Y-128256753D02*
X136343149Y-128351991D01*
X135652673Y-128018658D02*
X135390768Y-128018658D01*
X135509816Y-127875800D02*
X135509816Y-128399610D01*
X135128863Y-127828181D02*
X135128863Y-128399610D01*
X135509816Y-128042467D02*
X135462197Y-128113896D01*
X135414578Y-128161515D01*
X135319340Y-127899610D02*
X135224102Y-127923420D01*
X135343149Y-128066277D02*
X135247911Y-128113896D01*
X135509816Y-128018658D02*
X135628863Y-128232943D01*
X135438387Y-127851991D02*
X135652673Y-127875800D01*
X135057435Y-128209134D02*
X135366959Y-128256753D01*
X134676482Y-127947229D02*
X134319340Y-127947229D01*
X134914578Y-127971039D02*
X134724102Y-127971039D01*
X134890768Y-128399610D02*
X134819340Y-128399610D01*
X134795530Y-127828181D02*
X134795530Y-128399610D01*
X134509816Y-127828181D02*
X134509816Y-128090086D01*
X134628863Y-128090086D02*
X134581244Y-128209134D01*
X134462197Y-128328181D01*
X134295530Y-128399610D01*
X134676482Y-128090086D02*
X134343149Y-128090086D01*
X134390768Y-128185324D01*
X134509816Y-128304372D01*
X134724102Y-128399610D01*
X134700292Y-128137705D02*
X134914578Y-128185324D01*
X134176482Y-127923420D02*
X133557435Y-127923420D01*
X134009816Y-128161515D02*
X133652673Y-128161515D01*
X134009816Y-128280562D02*
X133652673Y-128280562D01*
X134009816Y-128042467D02*
X134009816Y-128399610D01*
X133914578Y-127828181D02*
X134009816Y-128042467D01*
X134152673Y-128185324D01*
X134009816Y-128042467D02*
X133652673Y-128042467D01*
X133652673Y-128399610D01*
X133771721Y-128399610D01*
X133176482Y-127994848D02*
X132866959Y-127994848D01*
X133176482Y-128113896D02*
X132866959Y-128113896D01*
X133438387Y-127851991D02*
X133438387Y-128399610D01*
X133176482Y-127851991D02*
X133176482Y-128375800D01*
X133176482Y-127851991D02*
X132866959Y-127851991D01*
X132866959Y-128113896D01*
X133438387Y-127875800D02*
X133247911Y-127875800D01*
X133343149Y-128018658D01*
X132866959Y-128185324D02*
X132986006Y-128232943D01*
X133343149Y-128042467D02*
X133271721Y-128161515D01*
X133271721Y-128232943D01*
X133366959Y-128232943D01*
X132986006Y-128351991D02*
X133271721Y-128375800D01*
X133033625Y-128137705D02*
X132986006Y-128256753D01*
X132843149Y-128399610D01*
X132295530Y-128209134D02*
X132128863Y-128375800D01*
X132438387Y-128066277D02*
X132581244Y-128375800D01*
X132509816Y-127851991D02*
X132557435Y-127994848D01*
X132700292Y-128090086D01*
X132271721Y-127851991D02*
X132247911Y-127947229D01*
X132081244Y-128113896D01*
X132628863Y-128375800D02*
X132176482Y-128328181D01*
X131962197Y-127994848D02*
X131462197Y-127994848D01*
X131890768Y-128280562D02*
X131533625Y-128280562D01*
X131509816Y-128399610D02*
X131343149Y-128399610D01*
X131890768Y-128113896D02*
X131890768Y-128328181D01*
X131890768Y-128113896D02*
X131533625Y-128113896D01*
X131533625Y-128280562D01*
X131962197Y-127875800D02*
X131343149Y-127875800D01*
X131343149Y-128399610D01*
X139109816Y-129314848D02*
X138966959Y-129714848D01*
X138824102Y-129314848D01*
X138366959Y-129686277D02*
X138424102Y-129714848D01*
X138538387Y-129714848D01*
X138595530Y-129686277D01*
X138624102Y-129629134D01*
X138624102Y-129400562D01*
X138595530Y-129343420D01*
X138538387Y-129314848D01*
X138424102Y-129314848D01*
X138366959Y-129343420D01*
X138338387Y-129400562D01*
X138338387Y-129457705D01*
X138624102Y-129514848D01*
X138081244Y-129714848D02*
X138081244Y-129314848D01*
X138081244Y-129429134D02*
X138052673Y-129371991D01*
X138024102Y-129343420D01*
X137966959Y-129314848D01*
X137909816Y-129314848D01*
X137738387Y-129686277D02*
X137681244Y-129714848D01*
X137566959Y-129714848D01*
X137509816Y-129686277D01*
X137481244Y-129629134D01*
X137481244Y-129600562D01*
X137509816Y-129543420D01*
X137566959Y-129514848D01*
X137652673Y-129514848D01*
X137709816Y-129486277D01*
X137738387Y-129429134D01*
X137738387Y-129400562D01*
X137709816Y-129343420D01*
X137652673Y-129314848D01*
X137566959Y-129314848D01*
X137509816Y-129343420D01*
X137224102Y-129714848D02*
X137224102Y-129314848D01*
X137224102Y-129114848D02*
X137252673Y-129143420D01*
X137224102Y-129171991D01*
X137195530Y-129143420D01*
X137224102Y-129114848D01*
X137224102Y-129171991D01*
X136852673Y-129714848D02*
X136909816Y-129686277D01*
X136938387Y-129657705D01*
X136966959Y-129600562D01*
X136966959Y-129429134D01*
X136938387Y-129371991D01*
X136909816Y-129343420D01*
X136852673Y-129314848D01*
X136766959Y-129314848D01*
X136709816Y-129343420D01*
X136681244Y-129371991D01*
X136652673Y-129429134D01*
X136652673Y-129600562D01*
X136681244Y-129657705D01*
X136709816Y-129686277D01*
X136766959Y-129714848D01*
X136852673Y-129714848D01*
X136395530Y-129314848D02*
X136395530Y-129714848D01*
X136395530Y-129371991D02*
X136366959Y-129343420D01*
X136309816Y-129314848D01*
X136224102Y-129314848D01*
X136166959Y-129343420D01*
X136138387Y-129400562D01*
X136138387Y-129714848D01*
X135281244Y-129114848D02*
X135224102Y-129114848D01*
X135166959Y-129143420D01*
X135138387Y-129171991D01*
X135109816Y-129229134D01*
X135081244Y-129343420D01*
X135081244Y-129486277D01*
X135109816Y-129600562D01*
X135138387Y-129657705D01*
X135166959Y-129686277D01*
X135224102Y-129714848D01*
X135281244Y-129714848D01*
X135338387Y-129686277D01*
X135366959Y-129657705D01*
X135395530Y-129600562D01*
X135424102Y-129486277D01*
X135424102Y-129343420D01*
X135395530Y-129229134D01*
X135366959Y-129171991D01*
X135338387Y-129143420D01*
X135281244Y-129114848D01*
X134824102Y-129657705D02*
X134795530Y-129686277D01*
X134824102Y-129714848D01*
X134852673Y-129686277D01*
X134824102Y-129657705D01*
X134824102Y-129714848D01*
X134424102Y-129114848D02*
X134366959Y-129114848D01*
X134309816Y-129143420D01*
X134281244Y-129171991D01*
X134252673Y-129229134D01*
X134224102Y-129343420D01*
X134224102Y-129486277D01*
X134252673Y-129600562D01*
X134281244Y-129657705D01*
X134309816Y-129686277D01*
X134366959Y-129714848D01*
X134424102Y-129714848D01*
X134481244Y-129686277D01*
X134509816Y-129657705D01*
X134538387Y-129600562D01*
X134566959Y-129486277D01*
X134566959Y-129343420D01*
X134538387Y-129229134D01*
X134509816Y-129171991D01*
X134481244Y-129143420D01*
X134424102Y-129114848D01*
X133966959Y-129657705D02*
X133938387Y-129686277D01*
X133966959Y-129714848D01*
X133995530Y-129686277D01*
X133966959Y-129657705D01*
X133966959Y-129714848D01*
X133366959Y-129714848D02*
X133709816Y-129714848D01*
X133538387Y-129714848D02*
X133538387Y-129114848D01*
X133595530Y-129200562D01*
X133652673Y-129257705D01*
X133709816Y-129286277D01*
X140524102Y-126299420D02*
X140590768Y-126266086D01*
X140690768Y-126266086D01*
X140790768Y-126299420D01*
X140857435Y-126366086D01*
X140890768Y-126432753D01*
X140924102Y-126566086D01*
X140924102Y-126666086D01*
X140890768Y-126799420D01*
X140857435Y-126866086D01*
X140790768Y-126932753D01*
X140690768Y-126966086D01*
X140624102Y-126966086D01*
X140524102Y-126932753D01*
X140490768Y-126899420D01*
X140490768Y-126666086D01*
X140624102Y-126666086D01*
X140190768Y-126966086D02*
X140190768Y-126499420D01*
X140190768Y-126266086D02*
X140224102Y-126299420D01*
X140190768Y-126332753D01*
X140157435Y-126299420D01*
X140190768Y-126266086D01*
X140190768Y-126332753D01*
X139590768Y-126932753D02*
X139657435Y-126966086D01*
X139790768Y-126966086D01*
X139857435Y-126932753D01*
X139890768Y-126866086D01*
X139890768Y-126599420D01*
X139857435Y-126532753D01*
X139790768Y-126499420D01*
X139657435Y-126499420D01*
X139590768Y-126532753D01*
X139557435Y-126599420D01*
X139557435Y-126666086D01*
X139890768Y-126732753D01*
X139290768Y-126932753D02*
X139224102Y-126966086D01*
X139090768Y-126966086D01*
X139024102Y-126932753D01*
X138990768Y-126866086D01*
X138990768Y-126832753D01*
X139024102Y-126766086D01*
X139090768Y-126732753D01*
X139190768Y-126732753D01*
X139257435Y-126699420D01*
X139290768Y-126632753D01*
X139290768Y-126599420D01*
X139257435Y-126532753D01*
X139190768Y-126499420D01*
X139090768Y-126499420D01*
X139024102Y-126532753D01*
X138424102Y-126932753D02*
X138490768Y-126966086D01*
X138624102Y-126966086D01*
X138690768Y-126932753D01*
X138724102Y-126866086D01*
X138724102Y-126599420D01*
X138690768Y-126532753D01*
X138624102Y-126499420D01*
X138490768Y-126499420D01*
X138424102Y-126532753D01*
X138390768Y-126599420D01*
X138390768Y-126666086D01*
X138724102Y-126732753D01*
X137790768Y-126932753D02*
X137857435Y-126966086D01*
X137990768Y-126966086D01*
X138057435Y-126932753D01*
X138090768Y-126899420D01*
X138124102Y-126832753D01*
X138124102Y-126632753D01*
X138090768Y-126566086D01*
X138057435Y-126532753D01*
X137990768Y-126499420D01*
X137857435Y-126499420D01*
X137790768Y-126532753D01*
X137490768Y-126966086D02*
X137490768Y-126266086D01*
X137424102Y-126699420D02*
X137224102Y-126966086D01*
X137224102Y-126499420D02*
X137490768Y-126766086D01*
X136657435Y-126932753D02*
X136724102Y-126966086D01*
X136857435Y-126966086D01*
X136924102Y-126932753D01*
X136957435Y-126866086D01*
X136957435Y-126599420D01*
X136924102Y-126532753D01*
X136857435Y-126499420D01*
X136724102Y-126499420D01*
X136657435Y-126532753D01*
X136624102Y-126599420D01*
X136624102Y-126666086D01*
X136957435Y-126732753D01*
X136324102Y-126699420D02*
X135790768Y-126699420D01*
X136057435Y-126966086D02*
X136057435Y-126432753D01*
X135457435Y-126966086D02*
X135457435Y-126266086D01*
X135290768Y-126266086D01*
X135190768Y-126299420D01*
X135124102Y-126366086D01*
X135090768Y-126432753D01*
X135057435Y-126566086D01*
X135057435Y-126666086D01*
X135090768Y-126799420D01*
X135124102Y-126866086D01*
X135190768Y-126932753D01*
X135290768Y-126966086D01*
X135457435Y-126966086D01*
X134490768Y-126932753D02*
X134557435Y-126966086D01*
X134690768Y-126966086D01*
X134757435Y-126932753D01*
X134790768Y-126866086D01*
X134790768Y-126599420D01*
X134757435Y-126532753D01*
X134690768Y-126499420D01*
X134557435Y-126499420D01*
X134490768Y-126532753D01*
X134457435Y-126599420D01*
X134457435Y-126666086D01*
X134790768Y-126732753D01*
X134224102Y-126499420D02*
X134057435Y-126966086D01*
X133890768Y-126499420D01*
X133624102Y-126966086D02*
X133624102Y-126499420D01*
X133624102Y-126632753D02*
X133590768Y-126566086D01*
X133557435Y-126532753D01*
X133490768Y-126499420D01*
X133424102Y-126499420D01*
X133190768Y-126966086D02*
X133190768Y-126499420D01*
X133190768Y-126266086D02*
X133224102Y-126299420D01*
X133190768Y-126332753D01*
X133157435Y-126299420D01*
X133190768Y-126266086D01*
X133190768Y-126332753D01*
X132590768Y-126932753D02*
X132657435Y-126966086D01*
X132790768Y-126966086D01*
X132857435Y-126932753D01*
X132890768Y-126866086D01*
X132890768Y-126599420D01*
X132857435Y-126532753D01*
X132790768Y-126499420D01*
X132657435Y-126499420D01*
X132590768Y-126532753D01*
X132557435Y-126599420D01*
X132557435Y-126666086D01*
X132890768Y-126732753D01*
X132257435Y-126499420D02*
X132257435Y-126966086D01*
X132257435Y-126566086D02*
X132224102Y-126532753D01*
X132157435Y-126499420D01*
X132057435Y-126499420D01*
X131990768Y-126532753D01*
X131957435Y-126599420D01*
X131957435Y-126966086D01*
X131724102Y-126499420D02*
X131457435Y-126499420D01*
X131624102Y-126266086D02*
X131624102Y-126866086D01*
X131590768Y-126932753D01*
X131524102Y-126966086D01*
X131457435Y-126966086D01*
D11*
%TO.C,*%
G36*
X137948227Y-124464886D02*
G01*
X138459301Y-124412369D01*
X138838001Y-124305372D01*
X139121567Y-124132239D01*
X139347238Y-123881314D01*
X139521118Y-123501107D01*
X139570970Y-123051551D01*
X139498488Y-122602891D01*
X139313472Y-122214158D01*
X139025719Y-121944382D01*
X139016059Y-121939202D01*
X138794578Y-121869679D01*
X138448328Y-121807549D01*
X138047905Y-121765714D01*
X137294940Y-121714664D01*
X137294940Y-120911502D01*
X137986659Y-120881496D01*
X138167229Y-120875602D01*
X138547441Y-120889962D01*
X138861856Y-120962059D01*
X139206476Y-121109865D01*
X139280021Y-121147225D01*
X139821192Y-121534901D01*
X140198694Y-122035296D01*
X140405862Y-122636398D01*
X140436032Y-123326196D01*
X140384336Y-123641722D01*
X140149348Y-124212268D01*
X139761356Y-124694672D01*
X139249191Y-125057699D01*
X138641685Y-125270113D01*
X138423955Y-125298267D01*
X138005354Y-125326375D01*
X137459935Y-125346992D01*
X136828530Y-125360063D01*
X136151974Y-125365535D01*
X135471099Y-125363352D01*
X134826737Y-125353460D01*
X134259723Y-125335804D01*
X133810889Y-125310329D01*
X133521068Y-125276980D01*
X132907958Y-125083855D01*
X132372202Y-124727455D01*
X131963785Y-124216186D01*
X131866310Y-124034446D01*
X131661500Y-123407607D01*
X131655888Y-123033090D01*
X132526541Y-123033090D01*
X132526743Y-123061001D01*
X132615543Y-123597678D01*
X132861269Y-124017124D01*
X133257351Y-124307877D01*
X133337805Y-124342097D01*
X133636583Y-124419621D01*
X134051665Y-124462404D01*
X134624540Y-124475534D01*
X135638419Y-124475534D01*
X135638419Y-123579794D01*
X134759960Y-123550786D01*
X133881502Y-123521779D01*
X133850630Y-123095099D01*
X133819759Y-122668419D01*
X135638419Y-122668419D01*
X135638419Y-121764862D01*
X133305705Y-121764862D01*
X132915935Y-122154632D01*
X132801778Y-122271855D01*
X132622780Y-122499293D01*
X132543981Y-122723832D01*
X132526541Y-123033090D01*
X131655888Y-123033090D01*
X131652171Y-122785076D01*
X131836333Y-122187532D01*
X132211998Y-121635652D01*
X132359477Y-121478541D01*
X132619132Y-121247957D01*
X132896208Y-121082565D01*
X133227296Y-120971895D01*
X133648989Y-120905475D01*
X134197877Y-120872837D01*
X134910553Y-120863510D01*
X136441581Y-120861305D01*
X136441581Y-122668419D01*
X138248695Y-122668419D01*
X138248695Y-123571977D01*
X136441581Y-123571977D01*
X136441581Y-124475534D01*
X137448758Y-124475534D01*
X137948227Y-124464886D01*
G37*
%TD*%
%LPC*%
D12*
%TO.C,Card1*%
X111700000Y-124814000D03*
X111700000Y-116814000D03*
%TD*%
D13*
%TO.C,USB1*%
X107059000Y-101775000D03*
X107059000Y-93125000D03*
D14*
X111259000Y-101775000D03*
X111259000Y-93125000D03*
D15*
X110759000Y-94560000D03*
X110759000Y-100340000D03*
%TD*%
M02*
