%TF.GenerationSoftware,KiCad,Pcbnew,(6.0.6)*%
%TF.CreationDate,2022-07-19T19:23:43+08:00*%
%TF.ProjectId,Egret,45677265-742e-46b6-9963-61645f706362,rev?*%
%TF.SameCoordinates,Original*%
%TF.FileFunction,Soldermask,Top*%
%TF.FilePolarity,Negative*%
%FSLAX46Y46*%
G04 Gerber Fmt 4.6, Leading zero omitted, Abs format (unit mm)*
G04 Created by KiCad (PCBNEW (6.0.6)) date 2022-07-19 19:23:43*
%MOMM*%
%LPD*%
G01*
G04 APERTURE LIST*
G04 Aperture macros list*
%AMRoundRect*
0 Rectangle with rounded corners*
0 $1 Rounding radius*
0 $2 $3 $4 $5 $6 $7 $8 $9 X,Y pos of 4 corners*
0 Add a 4 corners polygon primitive as box body*
4,1,4,$2,$3,$4,$5,$6,$7,$8,$9,$2,$3,0*
0 Add four circle primitives for the rounded corners*
1,1,$1+$1,$2,$3*
1,1,$1+$1,$4,$5*
1,1,$1+$1,$6,$7*
1,1,$1+$1,$8,$9*
0 Add four rect primitives between the rounded corners*
20,1,$1+$1,$2,$3,$4,$5,0*
20,1,$1+$1,$4,$5,$6,$7,0*
20,1,$1+$1,$6,$7,$8,$9,0*
20,1,$1+$1,$8,$9,$2,$3,0*%
G04 Aperture macros list end*
%ADD10C,0.600000*%
%ADD11RoundRect,0.200000X-0.200000X-0.275000X0.200000X-0.275000X0.200000X0.275000X-0.200000X0.275000X0*%
%ADD12R,0.550000X0.250000*%
%ADD13RoundRect,0.225000X-0.250000X0.225000X-0.250000X-0.225000X0.250000X-0.225000X0.250000X0.225000X0*%
%ADD14RoundRect,0.200000X0.200000X0.275000X-0.200000X0.275000X-0.200000X-0.275000X0.200000X-0.275000X0*%
%ADD15R,0.800000X2.300000*%
%ADD16R,1.500000X1.600000*%
%ADD17R,2.200000X1.200000*%
%ADD18R,1.500000X1.200000*%
%ADD19R,1.600000X0.700000*%
%ADD20C,1.000000*%
%ADD21RoundRect,0.150000X-0.150000X0.587500X-0.150000X-0.587500X0.150000X-0.587500X0.150000X0.587500X0*%
%ADD22R,0.532000X1.070000*%
%ADD23RoundRect,0.225000X0.225000X0.250000X-0.225000X0.250000X-0.225000X-0.250000X0.225000X-0.250000X0*%
%ADD24R,5.400000X5.400000*%
%ADD25RoundRect,0.014000X-0.161000X0.211000X-0.161000X-0.211000X0.161000X-0.211000X0.161000X0.211000X0*%
%ADD26RoundRect,0.014000X0.211000X0.161000X-0.211000X0.161000X-0.211000X-0.161000X0.211000X-0.161000X0*%
%ADD27RoundRect,0.014000X0.161000X-0.211000X0.161000X0.211000X-0.161000X0.211000X-0.161000X-0.211000X0*%
%ADD28RoundRect,0.014000X-0.211000X-0.161000X0.211000X-0.161000X0.211000X0.161000X-0.211000X0.161000X0*%
%ADD29RoundRect,0.225000X-0.225000X-0.250000X0.225000X-0.250000X0.225000X0.250000X-0.225000X0.250000X0*%
%ADD30RoundRect,0.225000X0.250000X-0.225000X0.250000X0.225000X-0.250000X0.225000X-0.250000X-0.225000X0*%
%ADD31RoundRect,0.200000X0.275000X-0.200000X0.275000X0.200000X-0.275000X0.200000X-0.275000X-0.200000X0*%
%ADD32R,0.900000X1.500000*%
%ADD33RoundRect,0.088500X-0.206500X0.516500X-0.206500X-0.516500X0.206500X-0.516500X0.206500X0.516500X0*%
%ADD34R,2.500000X2.000000*%
%ADD35R,1.250000X0.300000*%
%ADD36R,2.600000X2.700000*%
%ADD37RoundRect,0.014000X0.411000X0.161000X-0.411000X0.161000X-0.411000X-0.161000X0.411000X-0.161000X0*%
%ADD38RoundRect,0.014000X0.161000X-0.386000X0.161000X0.386000X-0.161000X0.386000X-0.161000X-0.386000X0*%
%ADD39RoundRect,0.014000X-0.411000X-0.161000X0.411000X-0.161000X0.411000X0.161000X-0.411000X0.161000X0*%
%ADD40RoundRect,0.014000X-0.161000X0.386000X-0.161000X-0.386000X0.161000X-0.386000X0.161000X0.386000X0*%
%ADD41R,3.250000X3.250000*%
%ADD42RoundRect,0.018900X-0.116100X0.486100X-0.116100X-0.486100X0.116100X-0.486100X0.116100X0.486100X0*%
%ADD43RoundRect,0.018900X0.486100X0.116100X-0.486100X0.116100X-0.486100X-0.116100X0.486100X-0.116100X0*%
%ADD44RoundRect,0.018900X0.116100X-0.486100X0.116100X0.486100X-0.116100X0.486100X-0.116100X-0.486100X0*%
%ADD45RoundRect,0.018900X-0.486100X-0.116100X0.486100X-0.116100X0.486100X0.116100X-0.486100X0.116100X0*%
%ADD46R,1.150000X0.300000*%
%ADD47R,1.150000X0.600000*%
%ADD48O,1.900000X1.000000*%
%ADD49O,2.100000X1.000000*%
%ADD50C,0.650000*%
G04 APERTURE END LIST*
D10*
X133018460Y-113714472D02*
G75*
G03*
X141554000Y-117249999I8535540J8535572D01*
G01*
X127553208Y-108249218D02*
G75*
G03*
X124139000Y-106834999I-3414208J-3414182D01*
G01*
X141554000Y-117249999D02*
X142500000Y-117250000D01*
X133018466Y-113714466D02*
X127553213Y-108249213D01*
D11*
%TO.C,R3*%
X128725000Y-83400000D03*
X127075000Y-83400000D03*
%TD*%
D12*
%TO.C,U4*%
X131003750Y-104089000D03*
X131003750Y-104589000D03*
X131003750Y-105089000D03*
X128253750Y-105089000D03*
X128253750Y-104589000D03*
X128253750Y-104089000D03*
%TD*%
D11*
%TO.C,R11*%
X126935000Y-118390000D03*
X125285000Y-118390000D03*
%TD*%
D13*
%TO.C,C8*%
X121600000Y-111775000D03*
X121600000Y-110225000D03*
%TD*%
%TO.C,C1*%
X108305000Y-111782500D03*
X108305000Y-110232500D03*
%TD*%
D14*
%TO.C,R6*%
X121075000Y-83350000D03*
X122725000Y-83350000D03*
%TD*%
D11*
%TO.C,R9*%
X126915000Y-115610000D03*
X125265000Y-115610000D03*
%TD*%
D15*
%TO.C,U6*%
X147500000Y-117250000D03*
X142500000Y-117250000D03*
%TD*%
D16*
%TO.C,Card1*%
X121700000Y-128614000D03*
D17*
X112100000Y-129514000D03*
X112100000Y-114014000D03*
D18*
X121700000Y-114006000D03*
D19*
X122700000Y-115206000D03*
X122700000Y-116306000D03*
X122700000Y-117406000D03*
X122700000Y-118505000D03*
X122700000Y-119606000D03*
X122700000Y-120705000D03*
X122700000Y-121806000D03*
X122700000Y-122905000D03*
X122700000Y-124005000D03*
D20*
X111700000Y-124814000D03*
X111700000Y-116814000D03*
%TD*%
D14*
%TO.C,R1*%
X128785000Y-102050000D03*
X130435000Y-102050000D03*
%TD*%
D21*
%TO.C,Q2*%
X132900000Y-87737500D03*
X131950000Y-85862500D03*
X133850000Y-85862500D03*
%TD*%
D11*
%TO.C,R4*%
X133725000Y-83400000D03*
X132075000Y-83400000D03*
%TD*%
%TO.C,R12*%
X126935000Y-124300000D03*
X125285000Y-124300000D03*
%TD*%
D22*
%TO.C,Q3*%
X128850000Y-92965000D03*
X129800000Y-95235000D03*
X127900000Y-95235000D03*
%TD*%
D23*
%TO.C,C5*%
X113520000Y-83370000D03*
X115070000Y-83370000D03*
%TD*%
D24*
%TO.C,U5*%
X120690000Y-104585000D03*
D25*
X123440000Y-107850000D03*
X122940000Y-107850000D03*
X122440000Y-107850000D03*
X121940000Y-107850000D03*
X121440000Y-107850000D03*
X120940000Y-107850000D03*
X120440000Y-107850000D03*
X119940000Y-107850000D03*
X119440000Y-107850000D03*
X118940000Y-107850000D03*
X118440000Y-107850000D03*
X117940000Y-107850000D03*
D26*
X117425000Y-107335000D03*
X117425000Y-106835000D03*
X117425000Y-106335000D03*
X117425000Y-105835000D03*
X117425000Y-105335000D03*
X117425000Y-104835000D03*
X117425000Y-104335000D03*
X117425000Y-103835000D03*
X117425000Y-103335000D03*
X117425000Y-102835000D03*
X117425000Y-102335000D03*
X117425000Y-101835000D03*
D27*
X117940000Y-101320000D03*
X118440000Y-101320000D03*
X118940000Y-101320000D03*
X119440000Y-101320000D03*
X119940000Y-101320000D03*
X120440000Y-101320000D03*
X120940000Y-101320000D03*
X121440000Y-101320000D03*
X121940000Y-101320000D03*
X122440000Y-101320000D03*
X122940000Y-101320000D03*
X123440000Y-101320000D03*
D28*
X123955000Y-101835000D03*
X123955000Y-102335000D03*
X123955000Y-102835000D03*
X123955000Y-103335000D03*
X123955000Y-103835000D03*
X123955000Y-104335000D03*
X123955000Y-104835000D03*
X123955000Y-105335000D03*
X123955000Y-105835000D03*
X123955000Y-106335000D03*
X123955000Y-106835000D03*
X123955000Y-107335000D03*
%TD*%
D29*
%TO.C,C9*%
X130360000Y-107050000D03*
X128810000Y-107050000D03*
%TD*%
D30*
%TO.C,C2*%
X110305000Y-110255000D03*
X110305000Y-111805000D03*
%TD*%
D14*
%TO.C,R5*%
X128056250Y-97937000D03*
X129706250Y-97937000D03*
%TD*%
D23*
%TO.C,C3*%
X108025000Y-86120000D03*
X109575000Y-86120000D03*
%TD*%
%TO.C,C7*%
X108085000Y-83370000D03*
X109635000Y-83370000D03*
%TD*%
D30*
%TO.C,C6*%
X112195000Y-110255000D03*
X112195000Y-111805000D03*
%TD*%
D31*
%TO.C,R8*%
X117094000Y-96965000D03*
X117094000Y-98615000D03*
%TD*%
D32*
%TO.C,U1*%
X143150000Y-94750000D03*
X146450000Y-94750000D03*
X146450000Y-99650000D03*
X143150000Y-99650000D03*
%TD*%
D21*
%TO.C,Q1*%
X128000000Y-87737500D03*
X127050000Y-85862500D03*
X128950000Y-85862500D03*
%TD*%
D30*
%TO.C,C10*%
X122682000Y-97015000D03*
X122682000Y-98565000D03*
%TD*%
D23*
%TO.C,C4*%
X108025000Y-88680000D03*
X109575000Y-88680000D03*
%TD*%
D11*
%TO.C,R10*%
X126935000Y-121380000D03*
X125285000Y-121380000D03*
%TD*%
D31*
%TO.C,R2*%
X117722000Y-110175000D03*
X117722000Y-111825000D03*
%TD*%
D11*
%TO.C,R7*%
X122412500Y-91800000D03*
X120762500Y-91800000D03*
%TD*%
D33*
%TO.C,U3*%
X111270000Y-106555000D03*
X109370000Y-106555000D03*
X109370000Y-104045000D03*
X110320000Y-104045000D03*
X111270000Y-104045000D03*
%TD*%
D30*
%TO.C,C11*%
X120450000Y-96985000D03*
X120450000Y-98535000D03*
%TD*%
D34*
%TO.C,FPC1*%
X136787500Y-92860000D03*
X136787500Y-101740000D03*
D35*
X139363500Y-100050000D03*
X139363500Y-99550000D03*
X139363500Y-99050000D03*
X139363500Y-98550000D03*
X139363500Y-98050000D03*
X139363500Y-97550000D03*
X139363500Y-97050000D03*
X139363500Y-96550000D03*
X139363500Y-96050000D03*
X139363500Y-95550000D03*
X139363500Y-95050000D03*
X139363500Y-94550000D03*
%TD*%
D36*
%TO.C,U2*%
X114300000Y-86750000D03*
D37*
X116275000Y-85500000D03*
X116275000Y-86000000D03*
X116275000Y-86500000D03*
X116275000Y-87000000D03*
X116275000Y-87500000D03*
X116275000Y-88000000D03*
D38*
X115550000Y-88750000D03*
X115050000Y-88750000D03*
X114550000Y-88750000D03*
X114050000Y-88750000D03*
X113550000Y-88750000D03*
X113050000Y-88750000D03*
D39*
X112325000Y-88000000D03*
X112325000Y-87500000D03*
X112325000Y-87000000D03*
X112325000Y-86500000D03*
X112325000Y-86000000D03*
X112325000Y-85500000D03*
D40*
X113050000Y-84750000D03*
X113550000Y-84750000D03*
X114050000Y-84750000D03*
X114550000Y-84750000D03*
X115050000Y-84750000D03*
X115550000Y-84750000D03*
%TD*%
D41*
%TO.C,U7*%
X121587500Y-87500000D03*
D42*
X120087500Y-85140000D03*
X120587500Y-85140000D03*
X121087500Y-85140000D03*
X121587500Y-85140000D03*
X122087500Y-85140000D03*
X122587500Y-85140000D03*
X123087500Y-85140000D03*
D43*
X123947500Y-86000000D03*
X123947500Y-86500000D03*
X123947500Y-87000000D03*
X123947500Y-87500000D03*
X123947500Y-88000000D03*
X123947500Y-88500000D03*
X123947500Y-89000000D03*
D44*
X123087500Y-89860000D03*
X122587500Y-89860000D03*
X122087500Y-89860000D03*
X121587500Y-89860000D03*
X121087500Y-89860000D03*
X120587500Y-89860000D03*
X120087500Y-89860000D03*
D45*
X119227500Y-89000000D03*
X119227500Y-88500000D03*
X119227500Y-88000000D03*
X119227500Y-87500000D03*
X119227500Y-87000000D03*
X119227500Y-86500000D03*
X119227500Y-86000000D03*
%TD*%
D46*
%TO.C,USB1*%
X112021000Y-95700000D03*
X112021000Y-96700000D03*
X112021000Y-98200000D03*
X112021000Y-99200000D03*
D47*
X112021000Y-99850000D03*
X112021000Y-100650000D03*
D46*
X112021000Y-98700000D03*
X112021000Y-97700000D03*
X112021000Y-97200000D03*
X112021000Y-96200000D03*
D47*
X112021000Y-95050000D03*
X112021000Y-94250000D03*
D48*
X107059000Y-101775000D03*
X107059000Y-93125000D03*
D49*
X111259000Y-101775000D03*
X111259000Y-93125000D03*
D50*
X110759000Y-94560000D03*
X110759000Y-100340000D03*
%TD*%
M02*
